<svg enable-background="new 0 0 524 598.6" viewBox="0 0 524 598.6" xmlns="http://www.w3.org/2000/svg" xmlns:xlink="http://www.w3.org/1999/xlink"><linearGradient id="a"><stop offset=".2742" stop-color="#d6d5d5"/><stop offset=".412" stop-color="#9c9b9b"/><stop offset=".5593" stop-color="#656464"/><stop offset=".6964" stop-color="#393939"/><stop offset=".8189" stop-color="#1a1a1a"/><stop offset=".9222" stop-color="#070707"/><stop offset=".994"/></linearGradient><radialGradient id="b" cx="414.8009" cy="517.7773" gradientUnits="userSpaceOnUse" r="21.9483" xlink:href="#a"/><radialGradient id="c" cx="414.8009" cy="508.6336" gradientUnits="userSpaceOnUse" r="21.9483" xlink:href="#a"/><radialGradient id="d" cx="455.3763" cy="492.4415" gradientUnits="userSpaceOnUse" r="21.9483" xlink:href="#a"/><radialGradient id="e" cx="455.3763" cy="483.2978" gradientUnits="userSpaceOnUse" r="21.9483" xlink:href="#a"/><radialGradient id="f" cx="497.0947" cy="467.6772" gradientUnits="userSpaceOnUse" r="21.9483" xlink:href="#a"/><radialGradient id="g" cx="497.0947" cy="458.5334" gradientUnits="userSpaceOnUse" r="21.9483" xlink:href="#a"/><text style="opacity:.5;fill:#009bdb;stroke:#009bdb;stroke-width:20;stroke-miterlimit:10;font-family:'BebasNeueBold';font-size:432.6742" transform="translate(10 377.769)">01</text><path d="m232.9 521.5 62.3-36.7 62.8 36.3-62.8 36z" fill="#009bdb" opacity=".3"/><path d="m164.7 563 62.3-36.7 62.9 36.3-62.9 36z" fill="#009bdb" opacity=".1"/><path clip-rule="evenodd" d="m448.7 421.5v8.3c-29.3 17-58.5 34-87.8 51v-8.3c29.3-17 58.5-34 87.8-51z" fill="#bac0ce" fill-rule="evenodd"/><path clip-rule="evenodd" d="m307 340.1 141.7 81.4c-29.3 17-58.5 34-87.8 51l-141.7-81.4c29.3-17 58.5-34 87.8-51z" fill="#d5dbea" fill-rule="evenodd"/><path clip-rule="evenodd" d="m360.9 472.5v8.3l-141.7-81.4v-8.3z" fill="#c8cfde" fill-rule="evenodd"/><path clip-rule="evenodd" d="m360.8 407.1.1-34.6-43-24.9-.1 34.6zm-47-63.1c0-1.3.9-1.8 2-1.1l47.4 27.3c1.1.6 2 2.2 2 3.4l-.1 37.1c0 1.3-.9 1.8-2 1.1l-47.4-27.3c-1.1-.6-2-2.2-2-3.4z" fill="#d7e8fb" fill-rule="evenodd"/><path clip-rule="evenodd" d="m317.9 347.7 43.1 24.8-.2 34.6-43-24.9z" fill="#2a3f77" fill-rule="evenodd"/><path clip-rule="evenodd" d="m365 410.8.1-37.1 2.6-1.5-.1 37.2v.4c-.1.4-.3.7-.5.8l-2.6 1.5c.3-.2.5-.7.5-1.3z" fill="#2a3f77" fill-rule="evenodd"/><path clip-rule="evenodd" d="m314.3 342.7 2.6-1.5s.1 0 .1-.1h.1.1.1.1.1.2.1.1.1c.1 0 .2.1.3.1l47.4 27.3c.2.1.4.3.6.5h.1s.1.1.1.1 0 0 .1.1c0 0 .1.1.1.1l.2.2s0 .1.1.1 0 0 .1.1c0 .1.1.1.1.2s.1.1.1.2.1.1.1.1c0 .1.1.1.1.2s0 .1.1.2c0 .1.1.1.1.2s0 .1.1.2v.1.1c0 .1 0 .2.1.2v.1.1.1.3l-2.6 1.5c0-.1 0-.3 0-.5 0 0 0 0 0-.1s-.1-.3-.1-.4c0-.2-.1-.3-.2-.5-.1-.2-.1-.3-.2-.5-.1-.1-.2-.3-.3-.4-.1-.1-.2-.2-.3-.3 0 0 0 0-.1-.1 0 0-.1-.1-.1-.1-.2-.2-.4-.3-.6-.5l-47.4-27.3c-.1-.1-.2-.1-.4-.2 0 0 0 0-.1 0s-.2-.1-.3-.1c-.1 0-.2 0-.3 0-.4.1-.5.2-.6.2z" fill="#4d6ca3" fill-rule="evenodd"/><path clip-rule="evenodd" d="m314.8 384.1 44 25.6c.5.3.5 1 0 1.3l-13.3 7.7c-.5.3-1.2.3-1.8 0l-43.6-25.3c-.7-.4-.7-1.4 0-1.8l12.9-7.4c.6-.4 1.2-.4 1.8-.1z" fill="#d7e8fb" fill-rule="evenodd"/><path clip-rule="evenodd" d="m328.5 430.5v3.1l-49.4-28.7v-3.1z" fill="#2a3f77" fill-rule="evenodd"/><path clip-rule="evenodd" d="m344.6 419.1 15.3-8.8-46-26.7-15.3 8.8zm-30.5-37.6 49.4 28.7-35 20.3-49.4-28.7z" fill="#fff" fill-rule="evenodd"/><path clip-rule="evenodd" d="m367.6 407.7v3.2l-39.1 22.7v-3.1z" fill="#2a3f77" fill-rule="evenodd"/><path clip-rule="evenodd" d="m309.2 405 14.8 8.6-8.4 4.9-14.8-8.6z" fill="#d7e8fb" fill-rule="evenodd"/><path d="m412 383.3-19.3 11.1 6.6 3.8 13.8-11.3v-3c0-.5-.6-.9-1.1-.6z" fill="#4a74da"/><path d="m392.7 395.5 19.2-11.1 6.9 4-19.2 11z" fill="#8cbaf9"/><path d="m419.4 387.2c-.2-.2-.5-.2-.8-.1l-19.3 11.1-6.6-3.8 19.3-11.1c.2-.1.4-.1.6 0s-.7-.3-.9-.5c-.2-.1-.5-.2-.8-.1l-20.3 11.7v34.1l7.6-4.4v8.8l20.8-12c.4-.2.6-.6.6-1.1l.6-32.2c.1.1-.5-.2-.8-.4z" fill="#6492f0"/><path d="m399.3 399.4-8.7-5v34.2l8.7 5z" fill="#1b2d88"/><path d="m398.1 401.3-6.7-3.9v2.6l6.7 3.9z" fill="#ffd569"/><path d="m398.1 404.7-6.7-3.8v.9l6.7 3.8z" fill="#ffd569"/><path d="m398.1 406.4-6.7-3.9v.9l6.7 3.9z" fill="#ffd569"/><path d="m398.1 429.1-6.7-3.8v.9l6.7 3.8z" fill="#ffd569"/><path d="m419.6 387.7-20.3 11.7v34.1l20.8-12c.4-.2.6-.6.6-1.1v-32.2c0-.4-.6-.8-1.1-.5z" fill="#009bdb" opacity=".5"/><path d="m427.6 385.8-19.3 11.1 6.6 3.8 13.8-11.3v-3c0-.5-.6-.9-1.1-.6z" fill="#b4b9de"/><path d="m408.3 398 19.2-11.1 6.9 4-19.2 11.1z" fill="#dbe1f0"/><path d="m434.9 389.7c-.2-.2-.5-.2-.8-.1l-19.3 11.1-6.6-3.8 19.3-11.1c.2-.1.4-.1.6 0s-.7-.3-.9-.5c-.2-.1-.5-.2-.8-.1l-20.3 11.7v34.1l7.6-4.4v8.8l20.8-12c.4-.2.6-.6.6-1.1l.6-32.2c.1.1-.5-.2-.8-.4z" fill="#cdd0ec"/><path d="m414.8 401.9-8.7-5v34.2l8.7 5z" fill="#c4c6e5"/><path d="m413.6 403.8-6.7-3.9v2.6l6.7 3.9z" fill="#fff"/><path d="m413.6 407.2-6.7-3.8v.9l6.7 3.8z" fill="#fff"/><path d="m413.6 408.9-6.7-3.8v.9l6.7 3.8z" fill="#fff"/><path d="m413.6 431.6-6.7-3.8v.9l6.7 3.8z" fill="#fff"/><path d="m435.1 390.2-20.3 11.7v34.1l20.8-12c.4-.2.6-.6.6-1.1v-32.2c0-.4-.6-.7-1.1-.5z" fill="#b4b9de"/><path d="m260.5 471.4v49.9l34.5 20.4v-50.6z" fill="#76aadb"/><path d="m260.5 471.4 34.5-20.4 34.9 20.2-34.9 19.9z" fill="#009bdb" opacity=".5"/><g fill="#fff" opacity=".4"><path d="m362.5 257.3v1.6l6.8 4v-1.7z"/><path d="m362.5 260.3v1.6l6.8 3.9v-1.6z"/><path d="m362.5 263.2v1.7l6.8 3.9v-1.6z"/><path d="m413.9 297.5v-1.7l-42.1-24.2v1.6z"/><path d="m362.5 266.2v1.6l6.8 3.9v-1.6z"/><path d="m362.5 269.2v1.6l6.8 3.9v-1.6z"/><path d="m413.9 300.4v-1.6l-42.1-24.2v1.6z"/><path d="m362.5 278v1.7l6.8 3.9v-1.6z"/><path d="m362.5 281v1.6l6.8 3.9v-1.6z"/><path d="m362.5 292.8v1.7l6.8 3.9v-1.6z"/><path d="m362.5 295.8v1.6l6.8 4v-1.7z"/><path d="m398.3 316.5-26.5-15.3v1.6l26.5 15.3z"/><path d="m399.7 317.3v1.6l14.2 8.2v-1.6z"/><path d="m385.1 305.9-13.3-7.7v1.7l13.3 7.7z"/><path d="m386.5 306.7v1.7l27.4 15.7v-1.6z"/><path d="m410.3 311.5v1.7l3.6 2v-1.6z"/><path d="m390.7 297.3-18.9-10.9v1.6l18.9 10.9z"/><path d="m383 269.1-11.2-6.4v1.6l11.2 6.5z"/><path d="m401.2 279.7-16.8-9.8v1.7l16.8 9.7z"/><path d="m391.4 277-11.9-6.9v1.6l11.9 6.9z"/><path d="m403.9 284.2-11.1-6.4v1.6l11.1 6.4z"/><path d="m405.3 285v1.6l8.6 4.9v-1.6z"/><path d="m374 269.9v1.6l9 5.2v-1.6z"/><path d="m410.4 290.9-26-15v1.6l26 15z"/><path d="m395.5 291.2-17-9.8v1.6l17 9.8z"/><path d="m410.4 299.7-13.5-7.7v1.6l13.5 7.8z"/><path d="m408.9 307.8-16.8-9.7v1.6l16.8 9.7z"/><path d="m399.7 305.5v1.6l9.2 5.3v-1.7z"/><path d="m375.1 291.3-3.3-1.9v1.6l3.3 1.9z"/><path d="m381.3 294.8v1.6l17 9.9v-1.6z"/><path d="m379.9 294-3.4-1.9v1.6l3.4 1.9z"/><path d="m395.2 305.8-18.7-10.8v1.6l18.7 10.8z"/></g><g fill="#fff" opacity=".4"><path d="m398.8 230.5-28.3-16.4v1.5l28.3 16.3z"/><path d="m370.5 218.4 43.4 25v-1.4l-43.4-25.1z"/><path d="m400.7 231.5v1.5l13.2 7.6v-1.4z"/><path d="m398.8 236-28.3-16.4v1.5l28.3 16.3z"/><path d="m370.5 223.9 43.4 25v-1.4l-43.4-25.1z"/><path d="m400.7 238.5 13.2 7.6v-1.4l-13.2-7.7z"/><path d="m398.8 245.1-28.3-16.4v1.5l28.3 16.3z"/><path d="m370.5 233 43.4 25v-1.4l-43.4-25.1z"/><path d="m400.7 247.6 13.2 7.6v-1.4l-13.2-7.7z"/><path d="m398.8 250.6-28.3-16.4v1.5l28.3 16.3z"/><path d="m370.5 238.5 43.4 25v-1.4l-43.4-25.1z"/><path d="m400.7 253.1 13.2 7.6v-1.4l-13.2-7.7z"/><path d="m398.8 259.7-28.3-16.4v1.4l28.3 16.4z"/><path d="m370.5 247.6 43.4 25v-1.4l-43.4-25.1z"/><path d="m400.7 262.2 13.2 7.6v-1.4l-13.2-7.7z"/><path d="m398.8 265.2-28.3-16.4v1.4l28.3 16.4z"/><path d="m370.5 253.1 43.4 25v-1.4l-43.4-25.1z"/><path d="m400.7 267.7 13.2 7.6v-1.4l-13.2-7.7z"/></g><g fill="#fff" opacity=".4"><path d="m275.6 244.9v1.6l6.8 3.9v-1.6z"/><path d="m275.6 247.8v1.7l6.8 3.9v-1.6z"/><path d="m275.6 250.8v1.6l6.8 4v-1.7z"/><path d="m327 285v-1.6l-42-24.2v1.6z"/><path d="m275.6 253.8v1.6l6.8 3.9v-1.6z"/><path d="m275.6 256.7v1.7l6.8 3.9v-1.6z"/><path d="m327 288v-1.6l-42-24.3v1.7z"/><path d="m275.6 265.6v1.6l6.8 4v-1.7z"/><path d="m275.6 268.6v1.6l6.8 3.9v-1.6z"/><path d="m275.6 280.4v1.7l6.8 3.9v-1.6z"/><path d="m275.6 283.4v1.6l6.8 3.9v-1.6z"/><path d="m311.5 304.1-26.5-15.3v1.6l26.5 15.3z"/><path d="m312.9 304.9v1.6l14.1 8.2v-1.7z"/><path d="m298.3 293.5-13.3-7.7v1.7l13.3 7.6z"/><path d="m299.7 294.3v1.6l27.3 15.8v-1.6z"/><path d="m323.4 299.1v1.6l3.6 2.1v-1.6z"/><path d="m303.9 284.9-18.9-10.9v1.6l18.9 10.9z"/><path d="m296.2 256.7-11.2-6.4v1.6l11.2 6.4z"/><path d="m314.4 267.3-16.8-9.8v1.6l16.8 9.8z"/><path d="m304.6 264.5-11.9-6.8v1.6l11.9 6.9z"/><path d="m317.1 271.7-11.1-6.3v1.6l11.1 6.4z"/><path d="m318.5 272.5v1.7l8.5 4.9v-1.6z"/><path d="m287.2 257.5v1.6l9 5.2v-1.7z"/><path d="m323.5 278.4-25.9-15v1.7l25.9 15z"/><path d="m308.7 278.7-17-9.8v1.7l17 9.8z"/><path d="m323.5 287.3-13.4-7.8v1.7l13.4 7.7z"/><path d="m322 295.4-16.7-9.7v1.6l16.7 9.7z"/><path d="m312.9 293v1.7l9.1 5.2v-1.6z"/><path d="m288.3 278.8-3.3-1.9v1.7l3.3 1.9z"/><path d="m294.4 282.4v1.6l17.1 9.9v-1.7z"/><path d="m293.1 281.6-3.4-2v1.7l3.4 1.9z"/><path d="m308.4 293.4-18.7-10.8v1.6l18.7 10.8z"/></g><path d="m460.1 279.3-21.1-12.2c-1-.6-2.3.1-2.3 1.3v25.3c0 1.2.7 2.4 1.7 3l21.1 12.2c1.1.6 2.4-.2 2.4-1.4v-25.1c0-1.3-.7-2.5-1.8-3.1z" fill="#76aadb" opacity=".5"/><path d="m451.2 360.2-21.1-12.2c-1-.6-2.3.1-2.3 1.3v25.3c0 1.2.7 2.4 1.7 3l21.1 12.2c1.1.6 2.4-.2 2.4-1.4v-25.1c0-1.3-.7-2.5-1.8-3.1z" fill="#76aadb" opacity=".25"/><path d="m381.3 320.6-21.1-12.2c-1-.6-2.3.1-2.3 1.3v25.3c0 1.2.7 2.4 1.7 3l21.1 12.2c1.1.6 2.4-.2 2.4-1.4v-25.1c0-1.3-.7-2.5-1.8-3.1z" fill="#4a72b2" opacity=".5"/><g fill="#fff" opacity=".4"><path d="m411.2 314.7v1.6l6.8 3.9v-1.6z"/><path d="m411.2 317.7v1.6l6.8 3.9v-1.6z"/><path d="m411.2 320.6v1.6l6.8 4v-1.6z"/><path d="m462.6 354.9v-1.7l-42.1-24.2v1.6z"/><path d="m411.2 323.6v1.6l6.8 3.9v-1.6z"/><path d="m411.2 326.5v1.7l6.8 3.9v-1.6z"/><path d="m462.6 357.8v-1.6l-42.1-24.3v1.7z"/><path d="m411.2 335.4v1.7l6.8 3.9v-1.6z"/><path d="m411.2 338.4v1.6l6.8 3.9v-1.6z"/><path d="m411.2 350.2v1.7l6.8 3.9v-1.6z"/><path d="m411.2 353.2v1.6l6.8 4v-1.7z"/><path d="m447.1 373.9-26.6-15.3v1.6l26.6 15.3z"/><path d="m448.5 374.7v1.6l14.1 8.2v-1.6z"/><path d="m433.9 363.3-13.4-7.7v1.7l13.4 7.7z"/><path d="m435.3 364.1v1.7l27.3 15.7v-1.6z"/><path d="m459 368.9v1.7l3.6 2v-1.6z"/><path d="m439.4 354.7-18.9-10.9v1.6l18.9 10.9z"/><path d="m431.7 326.5-11.2-6.4v1.6l11.2 6.5z"/><path d="m450 337.1-16.9-9.8v1.7l16.9 9.7z"/><path d="m440.1 334.4-11.8-6.9v1.6l11.8 6.9z"/><path d="m452.6 341.6-11.1-6.4v1.6l11.1 6.4z"/><path d="m454 342.4v1.6l8.6 4.9v-1.6z"/><path d="m422.7 327.3v1.6l9 5.2v-1.6z"/><path d="m459.1 348.3-26-15v1.6l26 15z"/><path d="m444.2 348.6-17-9.8v1.6l17 9.8z"/><path d="m459.1 357.1-13.5-7.7v1.6l13.5 7.8z"/><path d="m457.6 365.2-16.8-9.7v1.6l16.8 9.7z"/><path d="m448.5 362.9v1.6l9.1 5.2v-1.6z"/><path d="m423.8 348.7-3.3-1.9v1.6l3.3 1.9z"/><path d="m430 352.2v1.6l17.1 9.9v-1.6z"/><path d="m428.6 351.4-3.4-1.9v1.6l3.4 1.9z"/><path d="m443.9 363.2-18.7-10.8v1.6l18.7 10.8z"/></g><path d="m319.8 492.6s4 2.3 7.8 1.7c3.9-.5 8.7-.3 9.2 2.9s-4.3 6.7-9.2 7.3c-4.9.7-12.7.9-12.7.9l-.9 1.5s-7.9 1.2-10.8-.9c0 0-1.4-5 .9-9.1.1-.1.2-.3.3-.4 0 .1 10.2 2.7 15.4-3.9z" fill="#0c0c0c"/><path d="m336.8 500.5s4 2.3 7.8 1.7c3.9-.5 8.7-.3 9.2 2.9s-4.3 6.7-9.2 7.3c-4.9.7-12.7.9-12.7.9l-.9 1.5s-7.9 1.2-10.8-.9c0 0-1.4-5 .9-9.1.1-.1.2-.3.3-.4-.1.1 10.2 2.6 15.4-3.9z" fill="#0c0c0c"/><g clip-rule="evenodd" fill-rule="evenodd"><path d="m300.6 451.7 2.4 47.2c0 .4.1.7.4.9 1.6.9 6.8-.6 11.7-3.4 2-1.2 3.7-2.4 4.8-3.4.6-.4 1.2-.8 1.8-1.2l2.7-52z" fill="#0c0c0c"/><path d="m316.6 449.1c.3 4.3.6 8.5.7 12.8l4.4 42.4h.1c0 .3.2.5.5.7 1.1.6 2.4 1.3 4.8 1.2 2.2-.1 4.4-.8 6.3-1.9 3.1-1.9 4.8-3.3 3.8-4.1l.2-51.9c.1-10.7-20.7-8.5-20.8.8z" fill="#1e1e1e"/><path d="m289.2 471.7c9-2.1 15.9-11.6 26.4-19.1l9.3-4.7c.6-9.6-.1-12.7-4.5-14.2-8.4-2.9-22.7 4.6-33.7 10z" fill="#0c0c0c"/><path d="m272.4 446.3-5.8 3.2c-2.1 9.5-.9 16.2 3.5 20.8 6.3 6.6 19.3 11.5 31.5 8.7 9-2.1 15.9-11.6 26.4-19.1l9.3-4.7c.6-9.6-.1-12.7-4.5-14.2-8.4-2.9-22.7 4.6-33.7 10z" fill="#1e1e1e"/><path d="m331.8 390.5-5.8-3.9-5.8-.4-5.1.2-5.1 2.3-6.1 3 .9 3 2.2 2.3 3.6-1.6c2.1 1 3.2 1.4 4.3 1.4 1.3 0 2.5-.5 5-1.1 4.7-.2 5.8-.6 5.7-1.9-.1-1.7-1.6-1.3-4.1-1.1-3.5.3-4-1.8-.8-2.8 1.8.2 3.4 0 5.2.2 3.6 2.5 5.2 2.1 5.9.4z" fill="#f0c8a7"/><path d="m290 393.6 17.3-4c2.7 1.5 3.5 4.5 2.8 7.8l-19.1 6.8z" fill="#f64444"/><path d="m290 393.6 17.3-4c2.7 1.5 3.5 4.5 2.8 7.8l-19.1 6.8z" opacity=".3"/><path d="m294.2 383.5c10.5 6.1 16.2 12.6 12.8 14.6s-14.7-1.3-25.2-7.4-16.2-12.6-12.8-14.6c3.5-2 14.7 1.3 25.2 7.4z" fill="#f64444"/><path d="m277.4 376.1c-.1 4 9 5.6 13.3 3l1.1 3.1c-3.6 5.1-16.1 4.7-15.8-1.5z" fill="#f64444"/><path d="m277.4 376.1c-.1 4 9 5.6 13.3 3l1.1 3.1c-3.6 5.1-16.1 4.7-15.8-1.5z" opacity=".3"/><path d="m329.2 417.4c3.6-2.8 3.8-3.3 6.8-7.4 1.1-1.6 1.7-2.3 4-3.7 2.2-1.3 7.5-.4 12-1.2 3-.5 3.9 1.8 4 3.2.2 2.7-3.1 4.4-5.4 6.5-2.1 1.8-3 2.9-5.9 4.4-1.9 1-4.4 1.6-6.2 2.6l-4.7 3.4-4.2-7.3.1-.1z" fill="#f0c8a7"/><path d="m308.4 428.6 23.4-14.6c4.5 3.4 4.5 3.8 7.4 8.4-2.2 2.3-24.5 19.8-32.9 24.7-3.9 2.2-5.6 1.2-8-2.5-4.2-6.5 3.6-12 10.1-16z" fill="#f64444"/><path d="m304.9 392.1c3.6 3.1 3.8 3.9 4.6 6.1 2.3 6.7 1.3 20.7 1.4 32.2-.5 9.5 1.6 15.2-7.7 15.9-4.4.6-5.6-1-6.5-5.3l-5.6-27.9c-1.4-16.2 8.9-23.2 13.8-21z" fill="#f64444"/></g><path d="m290.7 379.3s-1.1-4.2.4-5.6c4.5-4.5 7.5 2 10.9-9.9.8-2.7.5-5.7.7-8.1.9-7.8.3-14.1-7.3-15.8-10.1-2.3-14.8 5.3-15.8 10.6s.5 18.7.5 18.7l-2.7 7.3s.8 7.7 13.3 2.8z" fill="#f0c8a7"/><path d="m301.9 356.6 1 5.9c.2 1-.5 2-1.5 2.2l-.8.1z" fill="#f0c8a7"/><path d="m304.2 346.3s-5.6 10.1-24.8 2.3c0 0-.1-6.7 5.2-9.4 5.2-2.7 14.6-.6 16.5-1.7 4.9-3.1 9.2 4.4 3.1 8.8z" fill="#0c0c0c"/><path d="m279.4 348.6s-1.8 4.4.7 20.6l4.2 2.3c3.1.8 7.2-4.2 7.3-7.4v-.1c0-3.7-.8-6.5.9-8.2s2.4.5 1.9 3l1.7-1c.4-.3.7-.7.7-1.2.1-1.1.3-3 1.3-3.8 1.4-1 4-2.3 4-4.3.2-2-22.7.1-22.7.1z" fill="#0c0c0c"/><path d="m381.4 257.3v30.1l-2 1.1-28.1-21.1-4.3-27.7 2-1.1z" fill="#f8c24d"/><path d="m381.4 257.3v30.1l-2 1.1-28.1-21.1 28.1-9z" fill="#f8c24d"/><path d="m379.4 258.4v30.1l-32.4-18.7v-30.1z" fill="#ffd569"/><path d="m504.7 353.3v33.8l-3.6 2-31.5-23.7-4.9-31 3.6-2z" fill="#f8c24d"/><path d="m504.7 353.3v33.8l-3.6 2-31.5-23.7 31.5-10.1z" fill="#f8c24d"/><path d="m501.1 355.3v33.8l-36.4-20.9v-33.8z" fill="#ffd569"/><path d="m476 359.2 3.9 7.5 10.9-8" style="fill:none;stroke:#fff;stroke-width:3;stroke-linecap:round;stroke-linejoin:round;stroke-miterlimit:10"/><path d="m356.5 262.2 3.9 7.5 10.9-8" style="fill:none;stroke:#fff;stroke-width:3;stroke-linecap:round;stroke-linejoin:round;stroke-miterlimit:10"/><path d="m363.8 327.7 3.3 6.6 9.7-7" style="fill:none;stroke:#ffd569;stroke-width:2.6281;stroke-linecap:round;stroke-linejoin:round;stroke-miterlimit:10"/><path d="m329.9 471.2v50.1l-34.9 20.4v-50.6z" fill="#4a72b2"/><path d="m260.5 471.4 34.5-20.4 34.9 20.2-34.9 19.9z" fill="#009bdb"/><path clip-rule="evenodd" d="m272.4 446.3-5.8 3.2c-2.1 9.5-.9 16.2 3.5 20.8 6.3 6.6 19.3 11.5 31.5 8.7 9-2.1 15.9-11.6 26.4-19.1l9.3-4.7c.6-9.6-.1-12.7-4.5-14.2-8.4-2.9-22.7 4.6-33.7 10z" fill="#1e1e1e" fill-rule="evenodd"/><path clip-rule="evenodd" d="m276 380.3c-2.7-1.3-3.4-4.6-6.1-4.5-.7 0-1.6.6-2.5 1.1-3.1 1.7-5.5 6.7-6.2 12-2.4 18.7 6.1 21.3 5.1 44.3-.2 4.3-1.4 16.4-2.5 24.4 1.4 18.9 39.4 20.8 41.3-1.6-.4-5.2-.6-10.6-.2-16.4 1.3-18.5 5.7-36 4-40-1.1-2.7-3-7.4-7.8-10.7-4.2-2.9-5.5-4.3-9.5-7.2-7.8 3.7-14.8 1.1-15.6-1.4z" fill="#f64444" fill-rule="evenodd"/><g opacity=".59"><path d="m387.9 518v3.9l26.8 15.7v-4.3z" fill="#76aadb"/><path d="m387.9 518 26.8-15.7 27 15.6-27 15.4z" fill="#009bdb"/><path d="m441.7 517.9v4l-27 15.7v-4.3z" fill="#4a72b2"/></g><path d="m387.9 518 26.8-15.7 27 15.6-27 15.4z" fill="url(#b)"/><path d="m387.9 518 26.8-15.8 27 15.6-27 15.4z" fill="#009bdb" opacity=".5"/><g opacity=".59"><path d="m387.9 508.9v3.8l26.8 15.8v-4.3z" fill="#76aadb"/><path d="m387.9 508.9 26.8-15.8 27 15.6-27 15.5z" fill="#009bdb"/><path d="m441.7 508.7v4l-27 15.8v-4.3z" fill="#4a72b2"/></g><path d="m387.9 508.9 26.8-15.8 27 15.6-27 15.5z" fill="url(#c)"/><path d="m387.9 508.8 26.8-15.7 27 15.5-27 15.5z" fill="#009bdb" opacity=".5"/><path d="m453 297.8-.8-1.7c-.6.3-1.3.3-2 .1v1.7l-2.1-1.1v-1.7c-.7-.6-1.4-1.3-2-2.2l-.9.7-1.4-2.9.9-.7c-.4-1.1-.7-2.2-.8-3.3l-1.2-.6v-2.9l1.2.6c.1-.9.4-1.7.9-2.4l-.8-1.7 1.5-1.3.8 1.7c.6-.3 1.3-.3 2-.1v-1.7l2.1 1.1v1.7c.7.6 1.4 1.3 2 2.2l.9-.7 1.4 2.9-.9.7c.4 1.1.7 2.2.8 3.3l1.2.6v2.9l-1.2-.6c-.1.9-.4 1.7-.9 2.4l.8 1.7zm-1.9-11.3c-1-2.1-2.8-3-3.8-2.1-1.1.9-1.1 3.4 0 5.4 1 2.1 2.8 3 3.8 2.1s1.1-3.4 0-5.4" fill="#ffd569"/><path d="m407.4 502.5 7.4 2.5 8-2.2-2.1 4.9 5.8 3.7-8.7.5-4.4 4.4-3.3-4.6-8.5-.9 6.6-3.3z" fill="#ffd569"/><g opacity=".59"><path d="m428.5 492.7v3.8l26.7 15.8v-4.3z" fill="#76aadb"/><path d="m428.5 492.7 26.7-15.8 27.1 15.6-27.1 15.5z" fill="#009bdb"/><path d="m482.3 492.5v4l-27.1 15.8v-4.3z" fill="#4a72b2"/></g><path d="m428.5 492.7 26.7-15.8 27.1 15.6-27.1 15.5z" fill="url(#d)"/><path d="m428.5 492.6 26.7-15.7 27.1 15.6-27.1 15.4z" fill="#009bdb" opacity=".5"/><g opacity=".59"><path d="m428.5 483.5v3.9l26.7 15.7v-4.3z" fill="#76aadb"/><path d="m428.5 483.5 26.7-15.7 27.1 15.6-27.1 15.4z" fill="#009bdb"/><path d="m482.3 483.4v4l-27.1 15.7v-4.3z" fill="#4a72b2"/></g><path d="m428.5 483.5 26.7-15.7 27.1 15.6-27.1 15.4z" fill="url(#e)"/><path d="m428.5 483.5 26.7-15.8 27.1 15.6-27.1 15.5z" fill="#009bdb" opacity=".5"/><path d="m448 477.1 7.4 2.5 8-2.1-2.1 4.9 5.8 3.6-8.7.6-4.4 4.4-3.3-4.6-8.6-.9 6.7-3.4z" fill="#ffd569"/><g opacity=".59"><path d="m470.2 467.9v3.9l26.8 15.7v-4.3z" fill="#76aadb"/><path d="m470.2 467.9 26.8-15.7 27 15.6-27 15.4z" fill="#009bdb"/><path d="m524 467.8v4l-27 15.7v-4.3z" fill="#4a72b2"/></g><path d="m470.2 467.9 26.8-15.7 27 15.6-27 15.4z" fill="url(#f)"/><path d="m470.2 467.9 26.8-15.8 27 15.6-27 15.4z" fill="#009bdb" opacity=".5"/><g opacity=".59"><path d="m470.2 458.8v3.8l26.8 15.8v-4.3z" fill="#76aadb"/><path d="m470.2 458.8 26.8-15.8 27 15.6-27 15.5z" fill="#009bdb"/><path d="m524 458.6v4l-27 15.8v-4.3z" fill="#4a72b2"/></g><path d="m470.2 458.8 26.8-15.8 27 15.6-27 15.5z" fill="url(#g)"/><path d="m470.2 458.7 26.8-15.7 27 15.5-27 15.5z" fill="#009bdb" opacity=".5"/><path d="m489.7 452.4 7.4 2.5 8-2.2-2.1 4.9 5.8 3.7-8.7.5-4.4 4.4-3.3-4.6-8.5-.9 6.6-3.3z" fill="#ffd569"/></svg>