<svg enable-background="new 0 0 534.3 525.6" viewBox="0 0 534.3 525.6" xmlns="http://www.w3.org/2000/svg" xmlns:xlink="http://www.w3.org/1999/xlink"><defs><radialGradient id="a" cx="367.3091" cy="406.0321" gradientUnits="userSpaceOnUse" r="73.9245"><stop offset=".2742" stop-color="#d6d5d5"/><stop offset=".412" stop-color="#9c9b9b"/><stop offset=".5593" stop-color="#656464"/><stop offset=".6964" stop-color="#393939"/><stop offset=".8189" stop-color="#1a1a1a"/><stop offset=".9222" stop-color="#070707"/><stop offset=".994"/></radialGradient><clipPath id="b"><path d="m398.1 342.4c-5.1-3-9.3-10.3-9.3-16.4s4.2-8.6 9.3-5.6 9.3 10.3 9.3 16.4-4.2 8.6-9.3 5.6z"/></clipPath><clipPath id="c"><use xlink:href="#n"/></clipPath><clipPath id="d"><path d="m333.8 308.4c-5.1-3-9.3-10.3-9.3-16.4s4.2-8.6 9.3-5.6 9.3 10.3 9.3 16.4c.1 6.1-4.1 8.6-9.3 5.6z"/></clipPath><clipPath id="e"><use xlink:href="#o"/></clipPath><clipPath id="f"><path d="m358.3 322.8c-6.5-4.1-11.6-13.8-11.3-21.7s5.8-11 12.4-6.9 11.6 13.8 11.3 21.7c-.4 7.9-5.9 11-12.4 6.9z"/></clipPath><clipPath id="g"><use xlink:href="#p"/></clipPath><clipPath id="h"><path d="m491.4 468c3.6 2.1 9.3 2 12.9 0 3.5-2.1 3.5-5.4-.1-7.5s-9.3-2-12.9 0c-3.5 2.1-3.5 5.5.1 7.5z"/></clipPath><clipPath id="i"><use xlink:href="#q"/></clipPath><clipPath id="j"><path d="m491.4 459.7c3.6 2.1 9.3 2 12.9 0 3.5-2.1 3.5-5.4-.1-7.5s-9.3-2-12.9 0c-3.5 2.1-3.5 5.5.1 7.5z"/></clipPath><clipPath id="k"><use xlink:href="#r"/></clipPath><clipPath id="l"><path d="m491.4 451.4c3.6 2.1 9.3 2 12.9 0 3.5-2.1 3.5-5.4-.1-7.5s-9.3-2-12.9 0c-3.5 2.1-3.5 5.5.1 7.5z"/></clipPath><clipPath id="m"><use xlink:href="#s"/></clipPath><path id="n" d="m398.1 342.4c-5.1-3-9.3-10.3-9.3-16.4s4.2-8.6 9.3-5.6 9.3 10.3 9.3 16.4-4.2 8.6-9.3 5.6z" opacity=".9608"/><path id="o" d="m333.8 308.4c-5.1-3-9.3-10.3-9.3-16.4s4.2-8.6 9.3-5.6 9.3 10.3 9.3 16.4c.1 6.1-4.1 8.6-9.3 5.6z" opacity=".9608"/><path id="p" d="m358.3 322.8c-6.5-4.1-11.6-13.8-11.3-21.7s5.8-11 12.4-6.9 11.6 13.8 11.3 21.7c-.4 7.9-5.9 11-12.4 6.9z" opacity=".9608"/><path id="q" d="m491.4 468c3.6 2.1 9.3 2 12.9 0 3.5-2.1 3.5-5.4-.1-7.5s-9.3-2-12.9 0c-3.5 2.1-3.5 5.5.1 7.5z" opacity=".9608"/><path id="r" d="m491.4 459.7c3.6 2.1 9.3 2 12.9 0 3.5-2.1 3.5-5.4-.1-7.5s-9.3-2-12.9 0c-3.5 2.1-3.5 5.5.1 7.5z" opacity=".9608"/><path id="s" d="m491.4 451.4c3.6 2.1 9.3 2 12.9 0 3.5-2.1 3.5-5.4-.1-7.5s-9.3-2-12.9 0c-3.5 2.1-3.5 5.5.1 7.5z" opacity=".9608"/></defs><text style="opacity:.5;fill:#009bdb;stroke:#009bdb;stroke-width:20;stroke-miterlimit:10;font-family:'BebasNeueBold';font-size:432.6742;letter-spacing:11" transform="translate(19.8506 377.769)">02</text><path d="m151 490.1 62.2-36.7 62.9 36.3-62.9 35.9z" fill="#009bdb" opacity=".3"/><path d="m0 422.4 62.2-36.7 62.9 36.3-62.9 36z" fill="#009bdb" opacity=".1"/><g opacity=".59"><path d="m276.8 406.8v13l90 53.1v-14.6z" fill="#76aadb"/><path d="m276.8 406.8 90-53 91 52.5-91 52z" fill="#009bdb"/><path d="m457.8 406.3v13.5l-91 53.1v-14.6z" fill="#4a72b2"/></g><path d="m276.8 406.8 90-53 91 52.5-91 52z" fill="url(#a)"/><path d="m276.8 406.6 90-53.1 91 52.6-91 52z" fill="#009bdb" opacity=".5"/><g enable-background="new"><path d="m401.6 402.8c0-.1 0-.1 0 0 0-.1 0-.2 0-.2 0-.1 0-.2 0-.3s0-.2 0-.3c0 0 0 0 0-.1 0-.1 0-.1 0-.2s0-.2-.1-.3c0-.1 0-.2-.1-.2 0 0 0 0 0-.1 0 0 0 0 0-.1s-.1-.3-.1-.4-.1-.2-.1-.3l-8.4-18.7-40.8-23.8 8.4 18.7c.1.2.2.5.3.8v.1c.1.2.1.5.2.8v.1c0 .3.1.6.1.9v.1.9.1c0 .3-.1.6-.1 1v.1c-.1.3-.1.7-.2 1v.1c-.1.3-.2.7-.3 1v.1c-.1.4-.3.7-.4 1.1-.2.4-.3.7-.5 1v.1c-.2.3-.3.6-.5.8-.1.1-.2.3-.3.4-.1.2-.3.4-.4.6 0 .1-.1.1-.1.2-.2.3-.4.6-.6.8-.2.3-.5.5-.7.8-.2.2-.5.5-.8.7 0 0 0 0-.1 0-.3.2-.5.4-.8.6 0 0 0 0-.1 0-.3.2-.5.4-.8.5l-26.5 15.3 40.7 23.7 26.5-15.3h.1c.1-.1.2-.1.3-.2s.2-.1.3-.2c.1 0 .1-.1.2-.1h.1s.1 0 .1-.1c.1-.1.2-.2.3-.2.1-.1.2-.2.3-.3 0 0 0 0 .1-.1.1-.1.1-.1.2-.2s.2-.2.3-.3.2-.2.3-.3c.1-.1.2-.2.3-.3s.2-.2.3-.3.1-.1.2-.2c.1-.1.2-.2.3-.3s.2-.2.3-.4c0 0 .1-.1.1-.1s.1-.1.1-.2c.1-.1.1-.2.2-.3s.1-.2.2-.3.2-.3.3-.4c0-.1.1-.1.1-.2.1-.2.2-.4.3-.6v-.1s0 0 0-.1.1-.2.1-.3c.1-.1.1-.2.2-.4.1-.1.1-.2.2-.3v-.1c0-.1.1-.2.1-.3s.1-.2.1-.3.1-.2.1-.3v-.1s0 0 0-.1 0-.1.1-.2c0-.1.1-.2.1-.4 0-.1.1-.2.1-.4v-.1s0 0 0-.1 0-.1 0-.2.1-.2.1-.4c0-.1 0-.2.1-.3v-.1s0 0 0-.1 0-.1 0-.2 0-.2 0-.3 0-.2 0-.3v-.1s0 0 0-.1 0-.1 0-.2 0-.2 0-.3 0-.2 0-.3c0 0 0 0 0 0z" fill="#e8f4fb"/><path d="m402.4 398.9-8.4-18.7c0-.1-.1-.1-.2-.2l-40.7-23.7s0 0-.1 0v.1.1l40.7 23.7 8.4 18.7c.9 2 .6 4.8-.6 7.7-1.3 2.9-3.3 5.4-5.6 6.7l-27.6 16.7-40.7-23.7v.1.1s.1.1.1.1l40.7 23.7s-.1-.1-.1-.1c.1.2.3.2.6.1l26.5-15.3c2.7-1.6 5.3-4.6 6.8-8.1.9-2.3 1.2-5.7.2-8zm-8.8-19c.1 0 .1.1 0 0 .1.1 0 .1 0 0zm-25.9 51.5c0-.1-.1-.2-.1-.3 0 .1 0 .2.1.3z" fill="#c3caea"/></g><path d="m460.1 412.2v14.8c0 2.8-2 3.9-4.4 2.5l-147.5-85.1c-2.4-1.4-4.3-4.8-4.3-7.5v-14.8z" fill="#e8f4fb"/><path d="m401.6 402.7v.1.3.3.2.1.1l-40.8-23.5c0-.1 0-.1 0-.2 0-.3 0-.6 0-.9 0-.3 0-.6-.1-.9 0-.3-.1-.5-.2-.8 0 0 0 0 0-.1-.1-.3-.2-.5-.3-.7l-1.2-2.8 40.7 23.5 1.3 3c0 .1.1.2.1.3s.1.2.1.4v.1.1c0 .1 0 .2.1.2 0 .1 0 .2.1.3v.2.1.3.3z" fill="#c3caea"/><path d="m303.9 322.1 4.1-2.4 156.1 90.2-4 2.3z" fill="#c4ced3"/><path d="m311 239.6 4-2.4-.2 78.6-4.1 2.4z" fill="#131111"/><path d="m310.7 318.2 4.1-2.4 142.6 82.4-4.1 2.3z" fill="#141112"/><path d="m311 239.6 4-2.4 142.6 82.4-4.1 2.3z" fill="#66afc4"/><path d="m453.5 321.9-.2 78.6-142.6-82.3.3-78.6z" fill="#263184"/><path d="m453.5 321.9 4.1-2.3-.2 78.6-4.1 2.3z" fill="#5c9eaf"/><path d="m464.1 409.9.3-89.2c0-.1 0-.1 0-.2s0-.1 0-.2 0-.1 0-.2 0-.1 0-.2 0-.1 0-.2c0-.1 0-.1 0-.2s0-.2 0-.2c0-.1 0-.2-.1-.2 0-.1 0-.2-.1-.2 0-.1 0-.1-.1-.2 0-.1 0-.1-.1-.2 0-.1-.1-.1-.1-.2s-.1-.1-.1-.2-.1-.1-.1-.2 0-.1-.1-.2c0-.1-.1-.1-.1-.2s-.1-.2-.1-.2c0-.1-.1-.2-.1-.3-.1-.1-.1-.2-.2-.3-.1-.2-.2-.4-.3-.5s-.2-.3-.3-.4c-.1-.1-.1-.2-.2-.2-.1-.1-.1-.1-.2-.2s-.1-.1-.2-.2-.1-.1-.2-.2-.1-.1-.1-.1c-.1-.1-.1-.1-.2-.2s-.1-.1-.2-.2-.1-.1-.2-.2c0 0-.1-.1-.1-.1s0 0-.1-.1-.1-.1-.2-.1-.1-.1-.2-.1-.1-.1-.2-.1-.1-.1-.2-.1l-147.4-85.7s-.1-.1-.1-.1c-.1 0-.1-.1-.2-.1 0 0-.1 0-.1-.1-.1 0-.1-.1-.2-.1s-.1 0-.2-.1h-.1c-.1 0-.1 0-.2 0h-.1s0 0-.1 0-.1 0-.2 0h-.1c-.1 0-.1 0-.2 0h-.1s0 0-.1 0c0 0 0 0-.1 0s-.2 0-.3 0c-.1 0-.2 0-.3.1-.1 0-.2.1-.3.2l-4 2.4c.1-.1.2-.1.3-.2.1 0 .2-.1.3-.1h.1.3.1.3c.1 0 .2 0 .4.1.1 0 .3.1.4.1.1 0 .3.1.4.2.1.1.3.1.4.2l147.4 85c.3.2.6.4.9.6.3.2.5.5.8.7.3.3.5.6.7.9.2.3.4.6.6 1 .2.3.4.7.5 1 .2.4.3.7.4 1.1.1.4.2.7.2 1.1.1.4.1.7.1 1.1l-.3 89.2v14.8c0 .3 0 .6-.1.9-.1.3-.1.5-.2.8-.1.2-.2.4-.3.5 0 .1-.1.1-.1.1-.1.2-.3.3-.5.4l4-2.4c.2-.1.3-.2.5-.4 0 0 .1-.1.1-.1l.2-.2c.1-.1.1-.2.2-.3 0-.1.1-.1.1-.2s.1-.2.1-.2c0-.1 0-.1.1-.2v-.1-.1c0-.1 0-.1 0-.2s0-.1 0-.2 0-.1 0-.2 0-.1 0-.2z" fill="#b3bde5"/><path d="m456 315.5c2.4 1.4 4.3 4.7 4.3 7.5l-.3 89.2-156.2-90.2.3-89.2c0-2.8 2-3.9 4.4-2.5zm-2.7 85 .2-78.6-142.5-82.3-.2 78.6z" fill="#e8f4fb"/><path d="m380.5 296.4v49l63.4 36.2.6-49.6z" fill="#fff" opacity=".1"/><path d="m380.5 296.4v49l63.4 36.2.7-49.6z" fill="none" opacity=".1" stroke="#fff" stroke-miterlimit="10" stroke-width=".7622"/><path d="m386.7 307.4v34.4l23.3 12.9v-34.4z" fill="#8bdaf0" opacity=".1"/><g fill="#fff" opacity=".1"><path d="m413.8 333.7v2.4l24.9 13.9.1-2.5z" opacity=".56"/><path d="m413.8 337.5v2.4l24.9 13.9.1-2.5z" opacity=".56"/><path d="m413.8 326v2.5l24.9 13.8.1-2.4z" opacity=".56"/><path d="m413.8 329.8v2.4l24.9 13.9.1-2.5z" opacity=".56"/><path d="m413.8 341.2v2.5l11.2 6.3v-2.5z" opacity=".56"/><path d="m413.8 322v2.4l11.2 6.4v-2.5z" opacity=".56"/><path d="m413.8 345v2.4l24.9 13.9.1-2.5z" opacity=".56"/><path d="m413.8 348.7v2.5l24.9 13.8.1-2.4z" opacity=".56"/><path d="m413.8 352.5v2.4l24.9 13.9.1-2.5z" opacity=".56"/><path d="m413.8 356.2v2.5l24.9 13.8.1-2.4z" opacity=".56"/></g><g opacity=".1"><path d="m398.1 342.4c-5.1-3-9.3-10.3-9.3-16.4s4.2-8.6 9.3-5.6 9.3 10.3 9.3 16.4-4.2 8.6-9.3 5.6z" fill="#5990c5" opacity=".3"/><path d="m397.5 334.1c-1.8-1-3.3-3.6-3.3-5.7s1.5-3 3.3-2 3.3 3.6 3.3 5.7c-.1 2.2-1.5 3.1-3.3 2z" fill="#eff7ff" opacity=".9608"/><path clip-path="url(#b)" d="m398.6 349.9c-3.5-2-6.3-7-6.3-11.2 0-4.1 2.9-5.9 6.4-3.9s6.3 7 6.3 11.2c-.1 4.2-2.9 5.9-6.4 3.9z" fill="#eff7ff"/><g enable-background="new" opacity=".9608"><path clip-path="url(#c)" d="m398.6 349.9c-3.5-2-6.3-7-6.3-11.2 0-4.1 2.9-5.9 6.4-3.9s6.3 7 6.3 11.2c-.1 4.2-2.9 5.9-6.4 3.9z" fill="#eff7ff"/><use fill="none" stroke="#cae5f4" stroke-miterlimit="10" stroke-width=".4421" xlink:href="#n"/></g></g><path d="m316.2 262.4v49l63.4 36.2.7-49.6z" fill="#fff" opacity=".1"/><path d="m316.3 262.4v49l63.3 36.2.7-49.6z" fill="none" opacity=".1" stroke="#fff" stroke-miterlimit="10" stroke-width=".7622"/><path d="m322.5 273.4v34.4l23.2 12.9.1-34.4z" fill="#8bdaf0" opacity=".1"/><g fill="#fff" opacity=".1"><path d="m349.5 299.7v2.4l25 13.9v-2.5z" opacity=".56"/><path d="m349.5 303.5v2.4l25 13.9v-2.5z" opacity=".56"/><path d="m349.5 292v2.5l25 13.8v-2.4z" opacity=".56"/><path d="m349.5 295.8v2.4l25 13.9v-2.5z" opacity=".56"/><path d="m349.5 307.2v2.5l11.2 6.3.1-2.5z" opacity=".56"/><path d="m349.5 288v2.4l11.2 6.4.1-2.5z" opacity=".56"/><path d="m349.5 311v2.4l25 13.9v-2.5z" opacity=".56"/><path d="m349.5 314.7v2.5l25 13.8v-2.4z" opacity=".56"/><path d="m349.5 318.5v2.4l25 13.9v-2.5z" opacity=".56"/><path d="m349.5 322.2v2.5l25 13.8v-2.4z" opacity=".56"/></g><g opacity=".1"><path d="m333.8 308.4c-5.1-3-9.3-10.3-9.3-16.4s4.2-8.6 9.3-5.6 9.3 10.3 9.3 16.4c.1 6.1-4.1 8.6-9.3 5.6z" fill="#5990c5" opacity=".3"/><path d="m333.2 300.1c-1.8-1-3.3-3.6-3.3-5.7s1.5-3 3.3-2 3.3 3.6 3.3 5.7c0 2.2-1.5 3.1-3.3 2z" fill="#eff7ff" opacity=".9608"/><path clip-path="url(#d)" d="m334.3 315.9c-3.5-2-6.3-7-6.3-11.2 0-4.1 2.9-5.9 6.4-3.9s6.3 7 6.3 11.2-2.9 5.9-6.4 3.9z" fill="#eff7ff"/><g enable-background="new" opacity=".9608"><path clip-path="url(#e)" d="m334.3 315.9c-3.5-2-6.3-7-6.3-11.2 0-4.1 2.9-5.9 6.4-3.9s6.3 7 6.3 11.2-2.9 5.9-6.4 3.9z" fill="#eff7ff"/><use fill="none" stroke="#cae5f4" stroke-miterlimit="10" stroke-width=".4421" xlink:href="#o"/></g></g><path d="m335.8 262.8v63.9l82.5 47.1.9-64.6z" fill="#fff" opacity=".75"/><path d="m335.8 262.8v63.9l82.6 47.1.8-64.6z" fill="none" stroke="#fff" stroke-miterlimit="10" stroke-width=".9922"/><path d="m343.9 277.2v44.7l30.3 16.9.1-44.8z" fill="#8bdaf0"/><g fill="#fff" opacity=".8"><path d="m379.2 311.4v3.2l32.4 18.1.1-3.3z" opacity=".56"/><path d="m379.2 316.3v3.2l32.4 18.1.1-3.3z" opacity=".56"/><path d="m379.2 301.4v3.2l32.4 18.1.1-3.3z" opacity=".56"/><path d="m379.2 306.3v3.2l32.4 18.1.1-3.3z" opacity=".56"/><path d="m379.2 321.2v3.2l14.5 8.2.1-3.2z" opacity=".56"/><path d="m379.2 296.2v3.2l14.5 8.2.1-3.2z" opacity=".56"/><path d="m379.2 326.1v3.2l32.4 18 .1-3.2z" opacity=".56"/><path d="m379.2 331v3.2l32.4 18 .1-3.2z" opacity=".56"/><path d="m379.2 335.9v3.2l32.4 18 .1-3.2z" opacity=".56"/><path d="m379.2 340.8v3.1l32.4 18.1.1-3.2z" opacity=".56"/></g><path d="m358.3 322.8c-6.5-4.1-11.6-13.8-11.3-21.7s5.8-11 12.4-6.9 11.6 13.8 11.3 21.7c-.4 7.9-5.9 11-12.4 6.9z" fill="#5990c5" opacity=".3"/><path d="m357.8 311.9c-2.3-1.4-4.1-4.8-4-7.6s2-3.9 4.3-2.4c2.3 1.4 4.1 4.8 4 7.6s-2 3.9-4.3 2.4z" fill="#eff7ff" opacity=".9608"/><path clip-path="url(#f)" d="m358.5 332.6c-4.5-2.8-7.9-9.4-7.7-14.8s4-7.5 8.4-4.7c4.5 2.8 7.9 9.4 7.7 14.8-.1 5.3-3.9 7.4-8.4 4.7z" fill="#eff7ff"/><g enable-background="new" opacity=".9608"><path clip-path="url(#g)" d="m358.5 332.6c-4.5-2.8-7.9-9.4-7.7-14.8s4-7.5 8.4-4.7c4.5 2.8 7.9 9.4 7.7 14.8-.1 5.3-3.9 7.4-8.4 4.7z" fill="#eff7ff"/><use fill="none" stroke="#cae5f4" stroke-miterlimit="10" stroke-width=".5755" xlink:href="#p"/></g><path d="m532.4 346.9c-.2 0-.5-.1-.7-.3l-43-24.7c-1-.6-1.7-1.7-1.7-2.8v-38.5c0-.7.3-1.2.9-1.5.5-.3 1.2-.2 1.8.1l42.9 24.7c1 .6 1.7 1.7 1.7 2.8v38.6c0 .6-.3 1.2-.9 1.5-.3.2-.6.2-1 .1z" fill="#4a72b2" opacity=".25"/><path d="m480.9 243.9c-.2 0-.5-.1-.7-.2l-40.1-23.1c-1-.6-1.6-1.6-1.6-2.6v-36c0-.6.3-1.1.8-1.4s1.2-.2 1.7.1l40 23c1 .6 1.6 1.6 1.6 2.6v36c0 .6-.3 1.1-.8 1.4-.2.2-.6.2-.9.2z" fill="#4a72b2" opacity=".6"/><path d="m500.2 275.4c-.2 0-.3-.1-.5-.2l-28.9-16.6c-.7-.4-1.1-1.1-1.1-1.9v-25.9c0-.4.2-.8.6-1s.8-.2 1.2.1l28.8 16.6c.7.4 1.1 1.1 1.1 1.9v25.9c0 .4-.2.8-.6 1-.1.2-.4.2-.6.1z" fill="#76aadb" opacity=".3"/><path d="m382.1 252c-.1 0-.2-.1-.3-.1l-19.8-11.4c-.5-.3-.8-.8-.8-1.3v-17.7c0-.3.2-.6.4-.7.3-.1.6-.1.9.1l19.8 11.4c.5.3.8.8.8 1.3v17.8c0 .3-.1.5-.4.7-.3-.1-.4-.1-.6-.1z" fill="#4a72b2"/><path d="m521 350.6c-.2 0-.5-.1-.7-.3l-43-24.7c-1-.6-1.7-1.7-1.7-2.8v-38.5c0-.7.3-1.2.9-1.5.5-.3 1.2-.2 1.8.1l42.9 24.7c1 .6 1.7 1.7 1.7 2.8v38.6c0 .6-.3 1.2-.9 1.5-.2.1-.6.2-1 .1z" fill="#76aadb" opacity=".25"/><path d="m61.3 366.5-26.2 15.1 8.9 5.1 18.8-15.3v-4c-.1-.8-.9-1.3-1.5-.9z" fill="#4a74da"/><path d="m35.1 383 26-15 9.4 5.4-26 15z" fill="#8cbaf9"/><path d="m71.2 371.8c-.3-.2-.7-.3-1.1-.1l-26.1 15-8.9-5.1 26.2-15.1c.3-.2.6-.2.9-.1s-.9-.4-1.3-.7c-.3-.2-.7-.3-1.1-.1l-27.6 15.9v46.3l10.3-5.9v11.9l28.2-16.2c.5-.3.9-.9.9-1.5l.9-43.7c-.1.1-.9-.4-1.3-.6z" fill="#6492f0"/><path d="m44 388.4-11.8-6.8v46.3l11.8 6.8z" fill="#1b2d88"/><path d="m42.4 390.9-9.1-5.3v3.6l9.1 5.2z" fill="#ffd569"/><path d="m42.4 395.6-9.1-5.3v1.2l9.1 5.3z" fill="#ffd569"/><path d="m42.4 397.8-9.1-5.2v1.2l9.1 5.3z" fill="#ffd569"/><path d="m42.4 428.6-9.1-5.2v1.2l9.1 5.3z" fill="#ffd569"/><path d="m71.5 372.5-27.5 15.9v46.3l28.2-16.2c.5-.3.9-.9.9-1.5v-43.6c-.1-.8-.9-1.3-1.6-.9z" fill="#009bdb" opacity=".5"/><path d="m82.3 369.9-26.1 15.1 8.9 5.1 18.8-15.3v-4c-.1-.8-.9-1.3-1.6-.9z" fill="#b4b9de"/><path d="m56.2 386.4 26-15 9.4 5.4-26.1 15z" fill="#dbe1f0"/><path d="m92.3 375.2c-.3-.2-.7-.3-1.1-.1l-26.1 15-8.9-5.1 26.2-15.1c.3-.2.6-.2.9-.1s-.9-.4-1.3-.7c-.3-.2-.7-.3-1.1-.1l-27.6 16v46.3l10.3-5.9v11.9l28.2-16.3c.5-.3.9-.9.9-1.5l.9-43.7c-.1.1-.9-.4-1.3-.6z" fill="#cdd0ec"/><path d="m65 391.8-11.7-6.8v46.3l11.7 6.8z" fill="#c4c6e5"/><path d="m63.4 394.3-9-5.2v3.5l9 5.2z" fill="#fff"/><path d="m63.4 399-9-5.3v1.3l9 5.2z" fill="#fff"/><path d="m63.4 401.2-9-5.2v1.2l9 5.3z" fill="#fff"/><path d="m63.4 432.1-9-5.3v1.3l9 5.2z" fill="#fff"/><path d="m92.6 375.9-27.6 15.9v46.3l28.2-16.2c.5-.3.9-.9.9-1.5v-43.6c0-.8-.8-1.3-1.5-.9z" fill="#b4b9de"/><path d="m430.5 250c-.2 0-.3-.1-.5-.2l-28.9-16.6c-.7-.4-1.1-1.1-1.1-1.9v-25.9c0-.4.2-.8.6-1s.8-.2 1.2.1l28.8 16.6c.7.4 1.1 1.1 1.1 1.9v26c0 .4-.2.8-.6 1-.1 0-.3.1-.6 0z" fill="#76aadb" opacity=".35"/><path d="m415.4 219.1 2.2 5.8 4.9 3.5-3.5 1.5.8 5.4-4.4-4.9-4.4-.2.8-4.5-3.5-5.5 4.9 2.1z" fill="#ffd569"/><path d="m322.7 275.4v25.4l-1.8 1-23.6-17.8-3.7-23.4 1.7-1z" fill="#f8c24d"/><path d="m322.7 275.4v25.4l-1.8 1-23.6-17.8 23.6-7.7z" fill="#f8c24d"/><path d="m320.9 276.3v25.5l-27.3-15.8v-25.4z" fill="#ffd569"/><path d="m297 268.9v2.2l9.9 11.1 9.9.2v-2.1z" fill="#fff"/><path d="m306.9 283.4-9.9-11.1v10.8l19.8 11.4v-10.9z" fill="#fff"/><path d="m521.1 380.3v33.8l-3.6 2-31.5-23.7-4.9-31 3.6-2z" fill="#f8c24d"/><path d="m521.1 380.3v33.8l-3.6 2-31.5-23.7 31.5-10.1z" fill="#f8c24d"/><path d="m517.5 382.3v33.8l-36.4-20.9v-33.8z" fill="#ffd569"/><path d="m492.4 386.2 3.8 7.5 11-8" style="fill:none;stroke:#fff;stroke-width:3;stroke-linecap:round;stroke-linejoin:round;stroke-miterlimit:10"/><path d="m227.8 302.5 24.9 12.8 11.4-36.4c.4-1.3-.2-2.6-1.3-3.2l-20.8-10.7c-1.1-.6-2.4 0-2.8 1.3z" fill="#213745"/><path d="m229.5 301.7 22.2 11.5 10.6-33.8c.4-1.5.3-2.2-1.2-3l-19.4-10c-.5-.3-1.1 0-1.2.6z" fill="#ecbf2e"/><path d="m249.3 282.7 6.9 3.6c.2.1.4 0 .5-.2l1.9-6.3c.1-.2 0-.3-.2-.4l-6.9-3.6c-.2-.1-.4 0-.5.2l-1.9 6.3c0 .1.1.3.2.4zm-5 15.9 5.3 2.8c.1.1.3 0 .4-.2l4.2-13.4c0-.1 0-.3-.1-.3l-5.3-2.8c-.1-.1-.3 0-.4.2l-4.2 13.4c-.1.1-.1.2.1.3zm-3.1-12 4.1 2.1c.1.1.2 0 .3-.1l.1-.3c0-.1 0-.2-.1-.3l-4.1-2.1c-.1-.1-.2 0-.3.1l-.1.3c-.1.2 0 .3.1.3zm3.3 3.5c.2.1.4 0 .5-.2l.1-.5c.1-.2 0-.4-.2-.4l-7.2-3.7c-.2-.1-.4 0-.5.2l-.1.5c-.1.2 0 .4.2.4m-.4 1.3 7.2 3.7c.2.1.4 0 .5-.2l.1-.5c.1-.2 0-.4-.2-.4l-7.2-3.7c-.2-.1-.4 0-.5.2l-.1.5c0 .1 0 .3.2.4zm-.4 1.4 7.2 3.7c.2.1.4 0 .5-.2l.1-.5c.1-.2 0-.4-.2-.4l-7.2-3.7c-.2-.1-.4 0-.5.2l-.1.5c-.1.1 0 .3.2.4zm-.4 1.3 7.2 3.7c.2.1.4 0 .5-.2l.1-.5c.1-.2 0-.4-.2-.4l-7.2-3.7c-.2-.1-.4 0-.5.2l-.1.5c-.1.1 0 .3.2.4zm-.4 1.4 7.2 3.7c.2.1.4 0 .5-.2l.1-.5c.1-.2 0-.4-.2-.4l-7.2-3.7c-.2-.1-.4 0-.5.2l-.1.5c-.1.1 0 .3.2.4zm4-13.3 7.5 3.9c.2.1.4 0 .5-.2l2.1-6.9c.1-.2 0-.4-.2-.5l-7.5-3.9c-.2-.1-.4 0-.5.2l-2.1 6.9c0 .2 0 .4.2.5z" fill="#ffd569"/><path d="m226 319.9c1.5-.4 2.7-1.5 3.8-2.6s2.2-2.1 3.3-3.2c.4-.4.9-.9 1-1.5-1.8-.5-3 1.6-4.8 1.4.9-2.8 2.2-5.4 3.8-7.7.4-.6.8-1.3.6-2-2 .4-3.6 1.4-5.1 2.7-1 .9-2 1.9-2.8 2.9-2.5 3.1-4 6.9-5.1 10.9" fill="#dd9f80"/><path d="m217.4 348.8-18.7-19.7s-9.3 10.4-6.2 22.6c1.5 6 3.5 9.2 4.3 12.1.8 2.7 5.5 39.6 5 42.2-.5 2.5-3.8 9.3-5.2 16.8-1.7 9-2.3 39.3-3.6 47.1s6.1 10.6 6.6 7.9c4.1-22.5 14.4-56.9 16-68.3 1.6-11.2 1.6-32.6 1.8-60.7z" fill="#facaa9"/><path d="m234.9 497.2c-1.6 0-2.1-.3-2.8-1-1.6-1.7-3.2-5.6-4.1-7.4-.6-1.2-.2-6.9 0-9.3.9-16.4 5.1-56.2 5.8-65.8 1.2-16.6-.5-34.4-6.2-62.5l-23.6-23s-7.1 11.3-5.2 23.7c1.1 7.2 6.9 9.3 7.8 12.2s14.3 49.1 14.3 49.1-3.1 8.9-3.6 19.2c-.4 8.8 2.9 36.1 3.3 46.3 0 2 .2 6.8-.4 8.2-.8 1.7-1.5 1.8-1.5 4.2 0 1.4 1.6-2.1 3.2-1.2 1.7.8 2.1 4.2 2.7 4.3 3.4.5.9 5.4 6.8 6.5 1.8.3 2.9-.7 4.4-1.9.5-.5-.3-1.6-.9-1.6z" fill="#facaa9"/><path d="m199.3 327.2c-1.7 1.5-7.8 10.1-8.1 18s2.4 13.5 2.6 15.2c1.5 12.4 4.1 49.6 4.1 50.4s6.7 6.7 16 7.8c12.5 1.5 18.2 1.2 21.2.4 1.5-.4 2.5-1.8 2.4-3.4-.2-10-1.3-51.7-3.3-64.7-1.1-7.5-6.5-20.1-6.5-20.1" fill="#1b2d88"/><path d="m184.6 292.8s2.4 14.1 3 16.7c.7 2.6 3.8 18.6 7.2 19s22.3-11.6 22.3-11.6l-2.5-5.7-16.5 4.7s-1-17.8-2.2-22.3" fill="#facaa9"/><path d="m190.6 302.3c1.6 6.4 4.9 13.5 5.8 18.4.2 1 11.6-1 11.7-5.2" fill="#dd9f80" opacity=".3"/><path d="m198 275.9s-6.4 2.4-9.2 3.9c-7.1 4-3.1 21.7-3.1 21.7s-.4 1 4.3 1.6 8.5 0 8.5 0l-.9-16.1" fill="#f64444"/><path d="m189.6 285.8s-.9 11.3 1 17.4c2 .3 3.8.2 3.8.2z" fill="#983f46" opacity=".5"/><path d="m223 245.1c3.1 4.8 2.3 10.6 1.4 15.7-.5 2.6-1 5.2-1.4 7.7-.2 1.2-.5 2.6-1.5 3.2s-2.4.4-3.7.1c0 2.2-.1 4.4-.1 6.6-3.8-.6-7.6-1.3-11.3-2.1 0-1.5-.3-3.1-.9-4.7-1.8-.4-3-2.5-3.7-4.3-.8-2.1-1.3-4.3-1.9-6.4-.7-2.9-1.4-5.7-1.4-8.6 0-2.8.8-5.6 2.6-7.5 1.3-1.3 3-2 4.7-2.6 2.4-.8 5.2-1.2 7.6.3" fill="#facaa9"/><path d="m218.5 264.4c-.4-2.3-.3-3.5.4-4.9.3-.4.6-.8 1-1.1.6-.3 1.4-.2 2 .2.4.3.8.7 1 1.1.9-2.8 1.1-6 1-9.1-.2-5-3.1-9.3-7.3-11.8-7.9-4.8-19.5-3.7-23 3.5-2.6 5.4-1.6 14.2 2.9 20 4 5.2 10 6.9 15.5 7 2.8.1 7.2 1.2 8.8-2.4.1-.3-.1-.6-.4-.6-1.1 0-1.8-1.4-1.9-1.9z" fill="#0c0c0c"/><path d="m219.4 254.2c.3.5.2 1.1.5 1.7.4.9 1.1 1.3 1.9 1.8 1.3.9 1 2.8.9 3.7 1-.5 1.3-2.3 1.5-3.2.3-1 .5-2 .9-3 .3-1 .9-1.8 1-2.9.4-3.6-1.8-8.4-4.5-11-2-1.9-5.1-2.4-7.5-1.3-1 .5-1.8 1.3-2.2 2.3-.2.4-.3.9-.1 1.4" fill="#0c0c0c"/><path d="m200.5 276.9c.2-1.3.6-2.7 1.8-3 .3-.1.7-.1 1.1 0 3.7.3 7.4.8 11.1 1.5 1.5.3 3.1.7 4.5 1.6 2.1 1.5 3.2 4 4.2 6.3" fill="#983f46"/><path d="m232.3 338.9c.5-.7-3.6-8.3-4.8-12.2-.7-2.3-.8-10.5-.4-12.6.4-2.2 2.5-3.1 3.6-8.1 1.4-6.4-1.2-12.1-2.7-14.5-2.1-3.5-.8-3.3-1.4-7.2-.1-.7-.7-.9-1.2-1.5s-3.2-3.2-3.8-3.4c-6-2-9.5-2-15.6-2.8-3-.4-6.4-1.7-9-.5s-6.8 7.2-7.1 11.6c-.5 6.3-.4 6.8 1.5 13.6 1.3 4.5 9.1 20.9 6.9 23.3-.5.6-3.2 7.4-3.4 8.2-.6 2.9 7.4 4.5 10.3 5.3 4.4 1.2 10.6 2.1 15 2.7 3.6.4 11.1-.4 12.1-1.9z" fill="#f64444"/><path d="m229.7 307.1c0 1.2-.8 2.7-1 3.3-.9.3-4.2.4-6.1-.9-.3-4.1-2.4-12.1-2.4-12.1s9.6 8.6 9.5 9.7z" fill="#983f46" opacity=".5"/><path d="m202.8 265c-2.3-1.1-4.8-.2-6.4 1.3-1.8 1.8-2.7 4.9-1.1 7.4.6.9 1.5 1.7 2.4 2.4 2.7 2 5.9 3.5 9 3.4 3.1-.2 5.8-2.4 5.9-5.5 0-2.8-2-5.6-4-7.9" fill="#0c0c0c"/><path d="m225.5 303.5s10.3 28.7 15.1 29.6c3.5.7 12.7-22.3 12.7-22.3l-5.3-3.6-6.3 9.2-7.3-19.1" fill="#facaa9"/><path d="m246.9 308.8s1.9-2.5 1.8-4.5c0-.8-.1-1.6-.1-2.5 0-.8-.2-1.8.1-2.6.2-.6.6-1.1.9-1.7.4-.8.8-1.4 1.6-1.8.4-.2.8-.3 1.2-.3.3 0 .9 0 1.1.2.3.3.9-.3 1.2-.5.6-.3 1.8-.4 1.8.5 0 .3.7-.2.8-.2.6-.4 1.8-1.5 2.5-.9.2.2.3.5.4.8.2.9-.1 1 0 1.4.1.5.3.9.3 1.4 0 1.1-.6 2.2-.9 3.3-.4 1.8-1.1 3.4-2 5-.5.9-1.1 1.9-2.6 2.5-.7.3-1.1 1-1.8 2.1" fill="#facaa9"/><path d="m253.7 296.3c-.7 1-1.4 1.2-2.1 1.7-.5.4-.5.7-1 1.1 1 .1.8-.5 2.1-1.2.6-.3 1.2-.7 1.4-1.4.1-.2-.2-.4-.4-.2z" fill="#facaa9"/><path d="m216 277.9c2.9.7 8.3 2.2 12.8 7.9 3.8 4.8 8.8 14.5 10.2 19.1-4 3.2-7.9 5.7-13.8 3.3-.2-.2-2.9-10-5-11.2" fill="#f64444"/><path d="m210.7 373.3c-1.1-4.3-2-7.4-2.1-7.6-3.6-3.5-5.9-6.9-7.1-9.5-1 4.6 1.1 9.7 3 14.5.5 1.3 1 2.6 1.5 3.9l-.3.1c3.3 6.6 7.4 28.4 7.5 35.5 0 3.7-.4 7.3-.4 11 0 .3 0 .5.1.8 1.3-5.2 2.2-9.6 2.6-12.4 1.2-8-4.8-36.3-4.8-36.3z" fill="#1b1553" opacity=".3"/><path d="m212.8 421.2c0 .3 0 .5.1.8.3-1.2.6-2.4.8-3.5-.3 0-.6-.1-.9-.1.1.9 0 1.9 0 2.8z" fill="#dd9f80"/><path d="m201.1 470.7s-2 8.1-1.6 9.2c.5 1.2 2.9 8.4 4.2 9.9 1.2 1.4 1.9.8 2.9 1 .6.2.8 2.9.2 3.2-1.5.9-2.9.6-4.6 0-5.5-2-5.1-8.2-8.3-9.2-.6-.2-1.5 2.3-3 1.2s-.2-4 0-5.4c.3-2.3-.4-2.5.6-4.1 1-1.5 1.9-9.3 1.9-9.3" fill="#facaa9"/><g enable-background="new" fill="#e8f4fb"><path d="m440.4 490.2c-.4-.2-.5-5.4-.5-5.8 0-.1.1-.3.2-.3l55.6-31.9c.8-.5 2.2-.5 3 0l35.2 20.7c.2.1.3.4.3.6 0 .9-.3 5.1-1 5.6l-55.1 31.6c-.8.5-2-2-2.8-2.5z" opacity=".9608"/><path d="m439.8 489.3c0 .2.1.4.2.5s0 .1.1.1 0 0 .1.1c.1 0 34.9 20.6 34.9 20.6s1.6.8 3 .1l55.3-31.7c.4-.2.6-.6.6-.8v-.1l.2-4.7c0 .2-.6.5-.6.5l-55.3 31.7c-.1 0-.2.1-.3.1-.1.1-.3.1-.4.1h-.1-.1c-.1 0-.1 0-.2 0-.1 0-.1 0-.2 0-.1 0-.3 0-.4 0-.1 0-.1 0-.2 0s-.1 0-.2 0-.2 0-.2 0h-.1c-.1 0-.2 0-.2-.1-.1 0-.2-.1-.3-.2s-34.8-20.5-34.8-20.5c-.3-.2-.6-.5-.6-.8z"/></g><path d="m439.8 489.3c0 .2.1.4.2.5s0 .1.1.1 0 0 .1.1c.1 0 34.9 20.6 34.9 20.6s1.6.8 3 .1l55.3-31.7c.4-.2.6-.6.6-.8v-.1l.2-4.7c0 .2-.6.5-.6.5l-55.3 31.7c-.1 0-.2.1-.3.1-.1.1-.3.1-.4.1h-.1-.1c-.1 0-.1 0-.2 0-.1 0-.1 0-.2 0-.1 0-.3 0-.4 0-.1 0-.1 0-.2 0s-.1 0-.2 0-.2 0-.2 0h-.1c-.1 0-.2 0-.2-.1-.1 0-.2-.1-.3-.2s-34.8-20.5-34.8-20.5c-.3-.2-.6-.5-.6-.8z" opacity=".1"/><path d="m491.4 468c3.6 2.1 9.3 2 12.9 0 3.5-2.1 3.5-5.4-.1-7.5s-9.3-2-12.9 0c-3.5 2.1-3.5 5.5.1 7.5z" fill="#5990c5" opacity=".3"/><path d="m496.5 465.6c1.3.7 3.3.7 4.5 0s1.2-1.9 0-2.6c-1.3-.7-3.3-.7-4.5 0-1.3.7-1.3 1.9 0 2.6z" fill="#eff7ff" opacity=".9608"/><path clip-path="url(#h)" d="m486.8 470.3c2.4 1.4 6.4 1.4 8.8 0s2.4-3.7 0-5.1-6.4-1.4-8.8 0-2.4 3.7 0 5.1z" fill="#eff7ff"/><g enable-background="new" opacity=".9608"><path clip-path="url(#i)" d="m486.8 470.3c2.4 1.4 6.4 1.4 8.8 0s2.4-3.7 0-5.1-6.4-1.4-8.8 0-2.4 3.7 0 5.1z" fill="#eff7ff"/><use fill="none" stroke="#cae5f4" stroke-miterlimit="10" stroke-width=".3028" xlink:href="#q"/></g><g fill="#5990c5"><path d="m469.8 496.3c.2.1.2.3 0 .5-.2.1-.6.1-.8 0l-20.9-12.4c-.2-.1-.2-.3 0-.5.2-.1.6-.1.8 0z" opacity=".2"/><path d="m485.3 494.3c.2.1.2.3 0 .5-.2.1-.6.1-.8 0l-26.9-15.9c-.2-.1-.2-.3 0-.5.2-.1.6-.1.8 0z" opacity=".2"/><path d="m483.4 495.4c.2.1.2.3 0 .5-.2.1-.6.1-.8 0l-26.9-15.9c-.2-.1-.2-.3 0-.5.2-.1.6-.1.8 0z" opacity=".2"/><path d="m481.5 496.5c.2.1.2.3 0 .5-.2.1-.6.1-.8 0l-26.8-16c-.2-.1-.2-.3 0-.5.2-.1.6-.1.8 0z" opacity=".2"/><path d="m479.7 497.6c.2.1.2.3 0 .5-.2.1-.6.1-.8 0l-26.9-16c-.2-.1-.2-.3 0-.5.2-.1.6-.1.8 0z" opacity=".2"/><path d="m477.8 498.7c.2.1.2.3 0 .5-.2.1-.6.1-.8 0l-26.9-15.9c-.2-.1-.2-.3 0-.5.2-.1.6-.1.8 0z" opacity=".2"/><path d="m507.3 481.7c.2.1.2.3 0 .5-.2.1-.6.1-.8 0l-26.9-15.9c-.2-.1-.2-.3 0-.5.2-.1.6-.1.8 0z" opacity=".2"/><path d="m509.4 480.6c.2.1.2.3 0 .5s-.6.1-.8 0l-26.9-15.9c-.2-.1-.2-.3 0-.5.2-.1.6-.1.8 0z" opacity=".2"/><path d="m505.1 483c.2.1.2.3 0 .5-.2.1-.6.1-.8 0l-26.9-15.9c-.2-.1-.2-.3 0-.5.2-.1.6-.1.8 0z" opacity=".2"/><path d="m502.8 484.3c.2.1.2.3 0 .5-.2.1-.6.1-.8 0l-26.9-15.9c-.2-.1-.2-.3 0-.5.2-.1.6-.1.8 0z" opacity=".2"/><path d="m462.3 477.2c-.4-.3-1.1-1-.3-1.4l9.4-5.2c.5-.3 1.4-.3 1.9 0l26.4 15.5c.1.1.2 1.2-.3 1.5l-9.1 5c-.5.3-1.4.3-1.9 0z" opacity=".249808"/></g><g enable-background="new" fill="#e8f4fb"><path d="m440.4 481.9c-.4-.2-.5-5.4-.5-5.8 0-.1.1-.3.2-.3l55.6-31.9c.8-.5 2.2-.5 3 0l35.2 20.7c.2.1.3.4.3.6 0 .9-.3 5.1-1 5.6l-55.1 31.6c-.8.5-2-2-2.8-2.5z" opacity=".9608"/><path d="m439.8 481c0 .2.1.4.2.5s0 .1.1.1 0 0 .1.1c.1 0 34.9 20.6 34.9 20.6s1.6.8 3 .1l55.3-31.7c.4-.2.6-.6.6-.8v-.1l.2-4.7c0 .2-.6.5-.6.5l-55.3 31.7c-.1 0-.2.1-.3.1-.1.1-.3.1-.4.1h-.1-.1c-.1 0-.1 0-.2 0-.1 0-.1 0-.2 0-.1 0-.3 0-.4 0-.1 0-.1 0-.2 0s-.1 0-.2 0-.2 0-.2 0h-.1c-.1 0-.2 0-.2-.1-.1 0-.2-.1-.3-.2s-34.8-20.5-34.8-20.5c-.3-.2-.6-.5-.6-.8z"/></g><path d="m439.8 481c0 .2.1.4.2.5s0 .1.1.1 0 0 .1.1c.1 0 34.9 20.6 34.9 20.6s1.6.8 3 .1l55.3-31.7c.4-.2.6-.6.6-.8v-.1l.2-4.7c0 .2-.6.5-.6.5l-55.3 31.7c-.1 0-.2.1-.3.1-.1.1-.3.1-.4.1h-.1-.1c-.1 0-.1 0-.2 0-.1 0-.1 0-.2 0-.1 0-.3 0-.4 0-.1 0-.1 0-.2 0s-.1 0-.2 0-.2 0-.2 0h-.1c-.1 0-.2 0-.2-.1-.1 0-.2-.1-.3-.2s-34.8-20.5-34.8-20.5c-.3-.2-.6-.5-.6-.8z" opacity=".1"/><path d="m491.4 459.7c3.6 2.1 9.3 2 12.9 0 3.5-2.1 3.5-5.4-.1-7.5s-9.3-2-12.9 0c-3.5 2.1-3.5 5.5.1 7.5z" fill="#5990c5" opacity=".3"/><path d="m496.5 457.3c1.3.7 3.3.7 4.5 0s1.2-1.9 0-2.6c-1.3-.7-3.3-.7-4.5 0-1.3.7-1.3 1.9 0 2.6z" fill="#eff7ff" opacity=".9608"/><path clip-path="url(#j)" d="m486.8 462c2.4 1.4 6.4 1.4 8.8 0s2.4-3.7 0-5.1-6.4-1.4-8.8 0-2.4 3.7 0 5.1z" fill="#eff7ff"/><g enable-background="new" opacity=".9608"><path clip-path="url(#k)" d="m486.8 462c2.4 1.4 6.4 1.4 8.8 0s2.4-3.7 0-5.1-6.4-1.4-8.8 0-2.4 3.7 0 5.1z" fill="#eff7ff"/><use fill="none" stroke="#cae5f4" stroke-miterlimit="10" stroke-width=".3028" xlink:href="#r"/></g><path d="m469.8 488c.2.1.2.3 0 .5-.2.1-.6.1-.8 0l-20.9-12.4c-.2-.1-.2-.3 0-.5.2-.1.6-.1.8 0z" fill="#5990c5" opacity=".2"/><path d="m485.3 486c.2.1.2.3 0 .5-.2.1-.6.1-.8 0l-26.9-15.9c-.2-.1-.2-.3 0-.5.2-.1.6-.1.8 0z" fill="#5990c5" opacity=".2"/><path d="m483.4 487.1c.2.1.2.3 0 .5-.2.1-.6.1-.8 0l-26.9-15.9c-.2-.1-.2-.3 0-.5.2-.1.6-.1.8 0z" fill="#5990c5" opacity=".2"/><path d="m481.5 488.2c.2.1.2.3 0 .5-.2.1-.6.1-.8 0l-26.9-15.9c-.2-.1-.2-.3 0-.5.2-.1.6-.1.8 0z" fill="#5990c5" opacity=".2"/><path d="m479.7 489.3c.2.1.2.3 0 .5-.2.1-.6.1-.8 0l-26.9-16c-.2-.1-.2-.3 0-.5.2-.1.6-.1.8 0z" fill="#5990c5" opacity=".2"/><path d="m477.8 490.4c.2.1.2.3 0 .5s-.6.1-.8 0l-26.9-15.9c-.2-.1-.2-.3 0-.5.2-.1.6-.1.8 0z" fill="#5990c5" opacity=".2"/><path d="m507.3 473.4c.2.1.2.3 0 .5-.2.1-.6.1-.8 0l-26.9-15.9c-.2-.1-.2-.3 0-.5.2-.1.6-.1.8 0z" fill="#5990c5" opacity=".2"/><path d="m509.4 472.3c.2.1.2.3 0 .5s-.6.1-.8 0l-26.9-15.9c-.2-.1-.2-.3 0-.5.2-.1.6-.1.8 0z" fill="#5990c5" opacity=".2"/><path d="m505.1 474.7c.2.1.2.3 0 .5-.2.1-.6.1-.8 0l-26.9-15.9c-.2-.1-.2-.3 0-.5.2-.1.6-.1.8 0z" fill="#5990c5" opacity=".2"/><path d="m502.8 476c.2.1.2.3 0 .5-.2.1-.6.1-.8 0l-26.9-15.9c-.2-.1-.2-.3 0-.5.2-.1.6-.1.8 0z" fill="#5990c5" opacity=".2"/><path d="m462.3 468.9c-.4-.3-1.1-1-.3-1.4l9.4-5.2c.5-.3 1.4-.3 1.9 0l26.4 15.5c.1.1.2 1.2-.3 1.5l-9.1 5c-.5.3-1.4.3-1.9 0z" fill="#5990c5" opacity=".249808"/><g enable-background="new" fill="#e8f4fb"><path d="m440.4 473.6c-.4-.2-.5-5.4-.5-5.8 0-.1.1-.3.2-.3l55.6-31.9c.8-.5 2.2-.5 3 0l35.2 20.7c.2.1.3.4.3.6 0 .9-.3 5.1-1 5.6l-55.1 31.6c-.8.5-2-2-2.8-2.5z" opacity=".9608"/><path d="m439.8 472.7c0 .2.1.4.2.5s0 .1.1.1 0 0 .1.1c.1 0 34.9 20.6 34.9 20.6s1.6.8 3 .1l55.3-31.7c.4-.2.6-.6.6-.8v-.1l.2-4.7c0 .2-.6.5-.6.5l-55.3 31.7c-.1 0-.2.1-.3.1-.1.1-.3.1-.4.1h-.1-.1c-.1 0-.1 0-.2 0-.1 0-.1 0-.2 0-.1 0-.3 0-.4 0-.1 0-.1 0-.2 0s-.1 0-.2 0-.2 0-.2 0h-.1c-.1 0-.2 0-.2-.1-.1 0-.2-.1-.3-.2s-34.8-20.5-34.8-20.5c-.3-.2-.6-.5-.6-.8z"/></g><path d="m439.8 472.7c0 .2.1.4.2.5s0 .1.1.1 0 0 .1.1c.1 0 34.9 20.6 34.9 20.6s1.6.8 3 .1l55.3-31.7c.4-.2.6-.6.6-.8v-.1l.2-4.7c0 .2-.6.5-.6.5l-55.3 31.7c-.1 0-.2.1-.3.1-.1.1-.3.1-.4.1h-.1-.1c-.1 0-.1 0-.2 0-.1 0-.1 0-.2 0-.1 0-.3 0-.4 0-.1 0-.1 0-.2 0s-.1 0-.2 0-.2 0-.2 0h-.1c-.1 0-.2 0-.2-.1-.1 0-.2-.1-.3-.2s-34.8-20.5-34.8-20.5c-.3-.2-.6-.5-.6-.8z" opacity=".1"/><path d="m491.4 451.4c3.6 2.1 9.3 2 12.9 0 3.5-2.1 3.5-5.4-.1-7.5s-9.3-2-12.9 0c-3.5 2.1-3.5 5.5.1 7.5z" fill="#5990c5" opacity=".3"/><path d="m496.5 449c1.3.7 3.3.7 4.5 0s1.2-1.9 0-2.6c-1.3-.7-3.3-.7-4.5 0-1.3.7-1.3 1.9 0 2.6z" fill="#eff7ff" opacity=".9608"/><path clip-path="url(#l)" d="m486.8 453.7c2.4 1.4 6.4 1.4 8.8 0s2.4-3.7 0-5.1-6.4-1.4-8.8 0-2.4 3.7 0 5.1z" fill="#eff7ff"/><g enable-background="new" opacity=".9608"><path clip-path="url(#m)" d="m486.8 453.7c2.4 1.4 6.4 1.4 8.8 0s2.4-3.7 0-5.1-6.4-1.4-8.8 0-2.4 3.7 0 5.1z" fill="#eff7ff"/><use fill="none" stroke="#cae5f4" stroke-miterlimit="10" stroke-width=".3028" xlink:href="#s"/></g><path d="m469.8 479.7c.2.1.2.3 0 .5-.2.1-.6.1-.8 0l-20.9-12.4c-.2-.1-.2-.3 0-.5.2-.1.6-.1.8 0z" fill="#5990c5" opacity=".2"/><path d="m485.3 477.7c.2.1.2.3 0 .5-.2.1-.6.1-.8 0l-26.9-15.9c-.2-.1-.2-.3 0-.5.2-.1.6-.1.8 0z" fill="#5990c5" opacity=".2"/><path d="m483.4 478.8c.2.1.2.3 0 .5-.2.1-.6.1-.8 0l-26.9-15.9c-.2-.1-.2-.3 0-.5.2-.1.6-.1.8 0z" fill="#5990c5" opacity=".2"/><path d="m481.5 479.9c.2.1.2.3 0 .5-.2.1-.6.1-.8 0l-26.9-15.9c-.2-.1-.2-.3 0-.5.2-.1.6-.1.8 0z" fill="#5990c5" opacity=".2"/><path d="m479.7 481c.2.1.2.3 0 .5-.2.1-.6.1-.8 0l-26.9-16c-.2-.1-.2-.3 0-.5.2-.1.6-.1.8 0z" fill="#5990c5" opacity=".2"/><path d="m477.8 482.1c.2.1.2.3 0 .5s-.6.1-.8 0l-26.9-15.9c-.2-.1-.2-.3 0-.5.2-.1.6-.1.8 0z" fill="#5990c5" opacity=".2"/><path d="m507.3 465.1c.2.1.2.3 0 .5-.2.1-.6.1-.8 0l-26.9-15.9c-.2-.1-.2-.3 0-.5.2-.1.6-.1.8 0z" fill="#5990c5" opacity=".2"/><path d="m509.4 464c.2.1.2.3 0 .5-.2.1-.6.1-.8 0l-26.9-15.9c-.2-.1-.2-.3 0-.5.2-.1.6-.1.8 0z" fill="#5990c5" opacity=".2"/><path d="m505.1 466.4c.2.1.2.3 0 .5-.2.1-.6.1-.8 0l-26.9-15.9c-.2-.1-.2-.3 0-.5.2-.1.6-.1.8 0z" fill="#5990c5" opacity=".2"/><path d="m502.8 467.7c.2.1.2.3 0 .5-.2.1-.6.1-.8 0l-26.9-15.9c-.2-.1-.2-.3 0-.5.2-.1.6-.1.8 0z" fill="#5990c5" opacity=".2"/><path d="m462.3 460.6c-.4-.3-1.1-1-.3-1.4l9.4-5.2c.5-.3 1.4-.3 1.9 0l26.4 15.5c.1.1.2 1.2-.3 1.5l-9.1 5c-.5.3-1.4.3-1.9 0z" fill="#5990c5" opacity=".249808"/><path clip-rule="evenodd" d="m229.3 494.7c-1.3-3.1-2.5-6-3.8-8.4-.6-1.1-1.6-4.6-5.2-4.4-2.4 2.2-2.9 5.4-2 8.9 1.2 4.4 1.5 8.3 1.9 13.4l.6.3.5-.3c0-5.4-.7-6.1.7-11.6 2.3 1.6 2.2 3.9 2.6 6.6.1.7.1 1 1.2 1.9 1.4 1.1 4.3 2.4 4.6 2.4.7 0 2.5-1.1 3.4-1.6 1.6-.9 2.9-2.4 2.5-3.6-.5-1.3-1.3-1.3-1.4-1.3-.1.8-2.2 1.8-2.8 1.4-.8-.4-2.2-2.1-2.8-3.7z" fill="#21375d" fill-rule="evenodd"/><path clip-rule="evenodd" d="m200.9 488.4c-1.3-3.1-2.5-6-3.8-8.4-.6-1.1-1.6-4.6-5.2-4.4-2.4 2.2-2.9 5.4-2 8.9 1.2 4.4 1.5 8.3 1.9 13.4l.6.3.5-.3c0-5.4-.7-6.1.7-11.6 2.3 1.6 2.2 3.9 2.6 6.6.1.7.1 1 1.2 1.9 1.4 1.1 4.3 2.4 4.6 2.4.7 0 2.5-1.1 3.4-1.6 1.6-.9 2.9-2.4 2.5-3.6-.5-1.3-1.3-1.3-1.4-1.3-.1.8-2.2 1.8-2.8 1.4-.7-.5-2.2-2.2-2.8-3.7z" fill="#21375d" fill-rule="evenodd"/></svg>