<svg enable-background="new 0 0 525.8 501.1" viewBox="0 0 525.8 501.1" xmlns="http://www.w3.org/2000/svg" xmlns:xlink="http://www.w3.org/1999/xlink"><defs><path id="a" d="m400.1 420c0 3 0 3 .1 5.9 0-4.2 2.7-8.4 8.2-11.6 11-6.4 28.7-6.6 39.7-.3 5.4 3.1 8.2 7.2 8.2 11.4 0-3 0-3-.1-5.9 0-4.1-2.8-8.2-8.2-11.4-11-6.3-28.7-6.1-39.7.3-5.5 3.2-8.2 7.4-8.2 11.6z"/><radialGradient id="b" cx="404.7918" cy="411.8215" gradientUnits="userSpaceOnUse" r="98.784"><stop offset=".2742" stop-color="#d6d5d5"/><stop offset=".412" stop-color="#9c9b9b"/><stop offset=".5593" stop-color="#656464"/><stop offset=".6964" stop-color="#393939"/><stop offset=".8189" stop-color="#1a1a1a"/><stop offset=".9222" stop-color="#070707"/><stop offset=".994"/></radialGradient><clipPath id="c"><use xlink:href="#a"/></clipPath><clipPath id="d"><use xlink:href="#k"/></clipPath><clipPath id="e"><use xlink:href="#l"/></clipPath><clipPath id="f"><use xlink:href="#m"/></clipPath><clipPath id="g"><use xlink:href="#n"/></clipPath><clipPath id="h"><use xlink:href="#o"/></clipPath><clipPath id="i"><path d="m498.5 466.5c.5-.8.9-1.5 1.4-2.7.6-1.3.8-2.4.9-2.6.2-.9.6-2.8-.1-4.6-.7-1.7-2.4-3.2-3.4-4.1-.7-.6-2.7-2.4-6.3-4.7-2.5-1.6-7.6 1.4-11.1 6.9s-4 11.3-1.5 12.9c.1.1.2.1.3.2 1.9 1.2 4.3 2.6 7.2 3.8.3.1 1.5.6 2.6.8 1 .2 1.6.2 2 .2 1.9-.1 3.5-1.3 4.2-1.9 1.3-.9 2.7-2.6 3.8-4.2-2.8 4.3-6.7 6.8-8.7 5.5s-1.6-6 1.1-10.3 6.8-6.7 8.9-5.4c2 1.3 1.4 5.8-1.3 10.2z"/></clipPath><clipPath id="j"><use xlink:href="#p"/></clipPath><path id="k" d="m400.1 420c0 3 0 3 .1 5.9 0-4.2 2.7-8.4 8.2-11.6 11-6.4 28.7-6.6 39.7-.3 5.4 3.1 8.2 7.2 8.2 11.4 0-3 0-3-.1-5.9 0-4.1-2.8-8.2-8.2-11.4-11-6.3-28.7-6.1-39.7.3-5.5 3.2-8.2 7.4-8.2 11.6z" opacity=".1"/><path id="l" d="m466.3 428.2c0-3-.1-5.9-.1-8.9.1 4.9-2.7 9.9-8.4 14l.1 8.9c5.7-4.1 8.5-9.1 8.4-14z"/><path id="m" d="m390.1 420.1c0 3 .1 5.9.1 8.9.1 5.6 3.8 11.2 11.2 15.4 13.9 7.9 35.8 8.3 50.8 1.2l-.1-8.9c-14.9 7.1-36.9 6.7-50.8-1.2-7.4-4.3-11.2-9.8-11.2-15.4z"/><path id="n" d="m390.1 420.1c0 3 .1 5.9.1 8.9.1 5.6 3.8 11.2 11.2 15.4 13.9 7.9 35.8 8.3 50.8 1.2l-.1-8.9c-14.9 7.1-36.9 6.7-50.8-1.2-7.4-4.3-11.2-9.8-11.2-15.4z" opacity=".1"/><path id="o" d="m466.3 428.2c0-3-.1-5.9-.1-8.9.1 4.9-2.7 9.9-8.4 14l.1 8.9c5.7-4.1 8.5-9.1 8.4-14z" opacity=".2"/><path id="p" d="m498.5 466.5c.5-.8.9-1.5 1.4-2.7.6-1.3.8-2.4.9-2.6.2-.9.6-2.8-.1-4.6-.7-1.7-2.4-3.2-3.4-4.1-.7-.6-2.7-2.4-6.3-4.7-2.5-1.6-7.6 1.4-11.1 6.9s-4 11.3-1.5 12.9c.1.1.2.1.3.2 1.9 1.2 4.3 2.6 7.2 3.8.3.1 1.5.6 2.6.8 1 .2 1.6.2 2 .2 1.9-.1 3.5-1.3 4.2-1.9 1.3-.9 2.7-2.6 3.8-4.2-2.8 4.3-6.7 6.8-8.7 5.5s-1.6-6 1.1-10.3 6.8-6.7 8.9-5.4c2 1.3 1.4 5.8-1.3 10.2z"/></defs><g fill="#009bdb" opacity=".5" stroke="#009bdb" stroke-miterlimit="10" stroke-width="20"><path d="m23.4 147.6c0-48.5 25.5-76.2 72.3-76.2 46.7 0 72.3 27.7 72.3 76.2v157.5c0 48.5-25.5 76.2-72.3 76.2-46.7 0-72.3-27.7-72.3-76.2zm47.6 160.5c0 21.6 9.5 29.9 24.7 29.9 15.1 0 24.7-8.2 24.7-29.9v-163.5c0-21.6-9.5-29.9-24.7-29.9-15.1 0-24.7 8.2-24.7 29.9z"/><path d="m299 149.3c0-27.3-9.5-34.6-24.7-34.6s-24.7 8.2-24.7 29.9v19.4h-45v-16.4c0-48.5 24.2-76.2 71-76.2 46.7 0 71 27.7 71 76.2v7.8c0 32.5-10.4 52.8-33.3 62.3 23.8 10.4 33.3 32.9 33.3 63.6v23.8c0 48.5-24.2 76.2-71 76.2-46.7 0-71-27.7-71-76.2v-25.1h45v28.1c0 21.6 9.5 29.9 24.7 29.9s24.7-7.4 24.7-34.2v-23.8c0-28.1-9.5-38.5-31.2-38.5h-16v-43.3h18.6c17.7 0 28.6-7.8 28.6-32z"/></g><g opacity=".59"><path d="m283.8 412.9v17.3l120.4 70.9v-19.4z" fill="#76aadb"/><path d="m283.8 412.9 120.4-70.9 121.6 70.2-121.6 69.5z" fill="#009bdb"/><path d="m525.8 412.2v18l-121.6 70.9v-19.4z" fill="#4a72b2"/></g><path d="m283.8 412.9 120.4-70.9 121.6 70.2-121.6 69.5z" fill="url(#b)"/><path d="m283.8 395.5 120.4-70.9 121.6 70.2-121.6 69.5z" fill="#009bdb" opacity=".5"/><path d="m494.9 292.7-138.7-80.1c-1.1-.6-2.1-.7-2.8-.2l-2.1 1.2s.5.1 1 .1c-.2.6-.4 1.3-.4 2.2v95.6c0 3.2 1.9 6.9 4.3 8.3l138.7 80.1c.3.2.5.3.8.3v1.1l2.1-1.2c.9-.5 1.5-1.8 1.5-3.5v-95.6c0-3.3-2-7-4.4-8.3z" fill="#fff"/><path d="m492.9 400.9-138.7-80.1c-2.4-1.4-4.3-5.1-4.3-8.3v-95.5c0-3.2 1.9-4.6 4.3-3.3l138.7 80.1c2.4 1.4 4.3 5.1 4.3 8.3v95.6c0 3.2-1.9 4.6-4.3 3.2z" fill="#8cdcf2"/><path d="m420.5 293.9-58.7-33.9v-30.8l58.7 33.9z" fill="#fff" opacity=".8"/><g fill="#fff" opacity=".8"><path d="m485.3 304-58.7-33.9v-3.5l58.7 33.9z"/><path d="m485.3 313.1-58.7-33.9v-3.5l58.7 33.9z"/><path d="m485.3 331.3-58.7-33.9v-3.5l58.7 33.9z"/><path d="m485.3 367.6-58.7-33.9v-3.5l58.7 33.9z"/><path d="m471 314-44.4-25.7v-3.5l44.4 25.7z"/><path d="m471 341.3-44.4-25.7v-3.6l44.4 25.7z"/><path d="m485.3 358.5-58.7-33.9v-3.5l58.7 33.9z"/><path d="m471 368.5-44.4-25.7v-3.5l44.4 25.7z"/><path d="m420.5 303-58.7-33.9v-3.5l58.7 33.9z"/><path d="m420.5 312.1-58.7-33.9v-3.5l58.7 33.9z"/><path d="m420.5 321.2-58.7-33.9v-3.6l58.7 33.9z"/><path d="m452.9 321.7-26.3-15.2v-3.5l26.3 15.2z"/><path d="m388.2 311.5-26.4-15.2v-3.5l26.4 15.2z"/><path d="m420.5 339.3-58.7-33.9v-3.5l58.7 33.9z"/><path d="m388.2 329.7-26.4-15.2v-3.5l26.4 15.2z"/></g><path d="m375.8 262.1-35.6-2.9v72.8c0 3.6 2.2 7.9 4.9 9.4l68.6 39.6c17.7-25.1 13.7-63.6 13.7-63.6z" fill="#009bdb" opacity=".5"/><path d="m415.2 326-51.6-55.4-51.6-4.2s-8.3 69.9 51.6 144.1c59.9-5 51.6-84.5 51.6-84.5z" fill="#f8c24d"/><path d="m312 266.4-11.6 6.7 51.6 4.2 11.6-6.7z" fill="#f8c24d"/><path d="m403.6 332.7-51.6-55.4-21.2-2.1-30.4-2s-8.3 69.9 51.6 144.1c59.9-5.1 51.6-84.6 51.6-84.6z" fill="#ffd569"/><path d="m391.2 335.7-39.6-42.6-16.3-1.6-23.3-1.6s-6.4 53.7 39.6 110.7c46-3.8 39.6-64.9 39.6-64.9z" fill="#fff" opacity=".2"/><path d="m403.6 332.7-51.6-55.4-51.6-4.2c1.5-.8 1.5-.8 1.5-.8l52.3 4.2 51.6 55.4s6.9 66.5-37.7 81.7c42.2-16.6 35.5-80.9 35.5-80.9z" fill="#fff"/><path d="m429.6 440.4c-16.1 1.4-30-6.4-31-17.5s11.3-21.2 27.4-22.7c16.1-1.4 30 6.4 31 17.4 1 11.2-11.3 21.4-27.4 22.8z" fill="#d7effd" opacity=".7"/><g enable-background="new"><use fill="#386390" xlink:href="#a"/><g clip-path="url(#c)"><path d="m400.1 420 .1 8.9c0-4.2 2.7-8.4 8.2-11.6 11-6.4 28.7-6.6 39.7-.3 5.4 3.1 8.2 7.2 8.2 11.4l-.1-8.9c0-4.1-2.8-8.2-8.2-11.4-11-6.3-28.7-6.1-39.7.3-5.5 3.2-8.2 7.4-8.2 11.6z" fill="#386390"/></g><g opacity=".1"><use xlink:href="#k"/><g clip-path="url(#d)"><path d="m400.1 420 .1 8.9c0-4.2 2.7-8.4 8.2-11.6 11-6.4 28.7-6.6 39.7-.3 5.4 3.1 8.2 7.2 8.2 11.4l-.1-8.9c0-4.1-2.8-8.2-8.2-11.4-11-6.3-28.7-6.1-39.7.3-5.5 3.2-8.2 7.4-8.2 11.6z"/></g></g><g enable-background="new"><use fill="#386390" xlink:href="#l"/><g clip-path="url(#e)"><path d="m457.9 433.3.1 8.9c5.6-4.1 8.4-9.1 8.4-14l-.1-8.9c0 4.9-2.8 9.9-8.4 14z" fill="#386390"/></g></g><g enable-background="new"><use fill="#386390" xlink:href="#m"/><g clip-path="url(#f)"><path d="m390.1 420.1.1 8.9c.1 5.6 3.8 11.2 11.2 15.4 13.9 7.9 35.8 8.3 50.8 1.2l-.1-8.9c-14.9 7.1-36.9 6.7-50.8-1.2-7.4-4.3-11.2-9.8-11.2-15.4z" fill="#386390"/></g></g><g opacity=".1"><use xlink:href="#n"/><g clip-path="url(#g)"><path d="m390.1 420.1.1 8.9c.1 5.6 3.8 11.2 11.2 15.4 13.9 7.9 35.8 8.3 50.8 1.2l-.1-8.9c-14.9 7.1-36.9 6.7-50.8-1.2-7.4-4.3-11.2-9.8-11.2-15.4z"/></g></g><path d="m464.1 443.6.1 8.9 5.8-3.4-.1-8.9z" fill="#414140"/><g enable-background="new" opacity=".2"><use xlink:href="#o"/><g clip-path="url(#h)"><path d="m457.9 433.3.1 8.9c5.6-4.1 8.4-9.1 8.4-14l-.1-8.9c0 4.9-2.8 9.9-8.4 14z"/></g></g><path d="m455.1 403.9c13.9 7.9 14.8 20.6 2.8 29.4l12.1 6.9-5.8 3.4-12.1-6.9c-14.9 7.1-36.9 6.7-50.8-1.2-14.9-8.5-14.9-22.5-.1-31.2 14.9-8.8 39-8.9 53.9-.4zm-7.1 27.1c10.9-6.4 10.9-16.7 0-23-11-6.3-28.7-6.1-39.7.3-10.9 6.4-10.9 16.7 0 23 11 6.3 28.8 6.2 39.7-.3z" fill="#386390"/><path d="m452 436.7.1 8.9 12.1 6.9-.1-8.9z" fill="#386390"/><path d="m452 436.7.1 8.9 12.1 6.9-.1-8.9z" opacity=".2"/></g><path d="m480.9 441.3c-10-6.2-12.6-5-14-4.3-5.8 2.7-9.4 10.6-8.2 14.8.9 3.1 5.9 6.9 9.9 9.5-2.5-1.6-2-7.5 1.5-12.9 3.5-5.5 10.8-7.1 10.8-7.1z" fill="#615c27"/><path clip-path="url(#i)" d="m498.5 466.5c3.2-5.3 2.8-8.4 2.2-9.8-1.3-3.2-7.2-7.2-9.7-8.8s-7.6 1.4-11.1 6.9-4 11.3-1.5 12.9c.1.1.2.1.3.2 5.4 3.3 9.4 5 11.7 4.8 1.6-.1 4.7-1.1 8.1-6.2-2.8 4.3-6.7 6.8-8.7 5.5s-1.6-6 1.1-10.3 6.8-6.7 8.9-5.4c2 1.3 1.4 5.8-1.3 10.2z" fill="#8b8436"/><path d="m498.4 466.4c2.8-4.3 3.4-8.9 1.4-10.1-2-1.3-6.2 1.1-8.9 5.4s-3.2 9-1.1 10.3c2 1.3 5.9-1.2 8.6-5.6z" fill="#f64444"/><path d="m498.4 466.4c2.8-4.3 3.4-8.9 1.4-10.1-2-1.3-6.2 1.1-8.9 5.4s-3.2 9-1.1 10.3c2 1.3 5.9-1.2 8.6-5.6z" opacity=".2"/><g fill="#f64444"><path d="m464.9 445c2.8-4.5 6.8-7.3 9.5-7.2 2.2.9 5.7 2.8 9.6 5.2 5.7 3.5 11.2 7.7 11.2 7.7s-3.9-.9-9.4 7.6c-5.3 8.5-2.9 11.8-2.9 11.8s-6.1-3.2-11.6-6.9c-3.8-2.5-7-4.8-8.8-6.5-1.3-2.5-.5-7.2 2.4-11.7z"/><path d="m480.9 441.3c-10-6.2-12.6-5-14-4.3-5.8 2.7-9.4 10.6-8.2 14.8.9 3.1 5.9 6.9 9.9 9.5-2.5-1.6-2-7.5 1.5-12.9 3.5-5.5 10.8-7.1 10.8-7.1z"/><g enable-background="new"><use xlink:href="#p"/><path clip-path="url(#j)" d="m498.5 466.5c3.2-5.3 2.8-8.4 2.2-9.8-1.3-3.2-7.2-7.2-9.7-8.8s-7.6 1.4-11.1 6.9-4 11.3-1.5 12.9c.1.1.2.1.3.2 5.4 3.3 9.4 5 11.7 4.8 1.6-.1 4.7-1.1 8.1-6.2-2.8 4.3-6.7 6.8-8.7 5.5s-1.6-6 1.1-10.3 6.8-6.7 8.9-5.4c2 1.3 1.4 5.8-1.3 10.2z"/></g></g><ellipse cx="416.4" cy="428.2" fill="#fff" rx="2" ry="2.9" transform="matrix(.08870047 .9961 -.9961 .08870047 805.9453 -24.5476)"/></svg>