<?xml version="1.0" encoding="utf-8"?>
<!-- Generator: Adobe Illustrator 18.1.1, SVG Export Plug-In . SVG Version: 6.00 Build 0)  -->
<svg version="1.1" xmlns="http://www.w3.org/2000/svg" xmlns:xlink="http://www.w3.org/1999/xlink" x="0px" y="0px"
	 viewBox="0 0 525.8 501.1" enable-background="new 0 0 525.8 501.1" xml:space="preserve">
<g id="Layer_4">
</g>
<g id="Layer_6">
</g>
<g id="OBJECTS">
</g>
<g id="Layer_3" display="none">
	<g id="XMLID_8_" display="inline">
		<path id="XMLID_12_" fill="#8CDCF2" d="M202.7,190c0,0,14.9,2.2,17.6,0.5c2.7-1.7,19.5-0.8,23.8-4.6c4.3-3.8,24.5-13.9,27.6-14.8
			c0,0,0.1,0.1-0.4,0.4c-0.5,0.3-2.6,1-2.7,3.6c-0.1,2.6,1.9,5.3,2.3,5.4c0.4,0.1,0.4-0.8,2.3-2.2c1.8-1.4,3.1-1.6,3.1-1.6l1,0.8
			l0.6,0.6c0,0-0.4,3.2-3.1,4c-2.7,0.8-18.8,11.8-19.7,12.5c-5.7,4.3-23.9,9.6-26.4,11.2s5,3.8,5,3.8s-9.9-3.9-10.1-3.8
			C223.2,206,202.7,190,202.7,190z"/>
		<path id="XMLID_15_" opacity="0.1" d="M202.7,190c0,0,14.9,2.2,17.6,0.5c2.7-1.7,19.5-0.8,23.8-4.6c4.3-3.8,24.5-13.9,27.6-14.8
			c0,0,0.1,0.1-0.4,0.4c-0.5,0.3-2.6,1-2.7,3.6c-0.1,2.6,1.9,5.3,2.3,5.4c0.4,0.1,0.4-0.8,2.3-2.2c1.8-1.4,3.1-1.6,3.1-1.6l1,0.8
			l0.6,0.6c0,0-0.4,3.2-3.1,4c-2.7,0.8-18.8,11.8-19.7,12.5c-5.7,4.3-23.9,9.6-26.4,11.2s5,3.8,5,3.8s-9.9-3.9-10.1-3.8
			C223.2,206,202.7,190,202.7,190z"/>
		<path id="XMLID_13_" fill="#FACAA9" d="M292.2,161c-0.8-0.6-8.3,3.4-8.3,3.4s-1.4-0.2-2.8,0.2c-1.3,0.3-4.3,3.9-5.5,4.8
			c-1.1,0.9-4,1.8-4,1.8c-6.8,3,0.3,11.1,0.6,10.9c0.8-0.5,2-0.4,2.8-0.9c1.4-0.8,2.2-2.2,3.4-3.1c1-0.8,2.7-0.4,3.7-1.4
			c0.9-0.9,4-1.9,4.2-1.8c0.2,0.1,0.7,0.2,0.7,0.2s0.4,0.8,1,0.8c0.7,0.1,1-1.6,1.3-1.9c0.2-0.2,1-1,1.1-1.3
			c0.1-0.3-0.3-4.9-0.7-5.7c-0.3-0.8-2.3-1.3-2.3-1.3s4.1-2.4,4.5-2.6C292.3,162.9,293,161.6,292.2,161z M286.1,170.9
			c-0.4,0.2-0.9,0.3-1.4,0.7c-0.5,0.4-1.2,0.9-1.8,0.9c0,0-1.1-1.2-0.6-1.8c0.5-0.6,0.9-1.1,0.9-1.1s1.1-0.4,1-0.6
			c0,0,0.7,0.4,1.3-0.2c0,0,0.9,0.9,1.8,0.6C287.3,169.6,286.5,170.7,286.1,170.9z"/>
	</g>
	<g id="XMLID_496_" display="inline">
		<path id="XMLID_497_" fill="#0C0C0C" d="M216.4,366.4c0,0,4.1,2.4,8.2,1.8c4.1-0.6,9.1-0.3,9.7,3.1c0.6,3.4-4.5,7-9.7,7.7
			c-5.2,0.7-13.3,1-13.3,1l-1,1.5c0,0-8.3,1.3-11.3-1c0,0-1.5-5.2,0.9-9.5c0.1-0.2,0.2-0.3,0.3-0.5
			C200.2,370.6,211,373.2,216.4,366.4z"/>
		<path id="XMLID_495_" fill="#0C0C0C" d="M224.5,266.9c0,0,1.3,25.5-3.4,42.9s-4.7,56.6-4.7,56.6s-5,9.4-16.1,6.4
			c0,0-1.7-35.5,0-47.6c1.7-12.1-0.7-35.2-4.4-43.9c-3.7-8.7-0.3-16.2-0.3-16.2L224.5,266.9z"/>
		<path id="XMLID_493_" fill="#1E1E1E" d="M242.7,275.9c0,0,1.3,25.5-3.4,42.9c-4.7,17.4-4.7,56.6-4.7,56.6s-5,9.4-16.1,6.4
			c0,0-1.7-35.5,0-47.6c1.7-12.1-0.7-35.2-4.4-43.9c-3.7-8.7-3-18.8-3-18.8L242.7,275.9z"/>
		<path id="XMLID_494_" fill="#0C0C0C" d="M234.6,375.5c0,0,4.1,2.4,8.2,1.8c4.1-0.6,9.1-0.3,9.7,3.1c0.6,3.4-4.5,7-9.7,7.7
			c-5.2,0.7-13.3,1-13.3,1l-1,1.5c0,0-8.3,1.3-11.3-1c0,0-1.5-5.2,0.9-9.5c0.1-0.2,0.2-0.3,0.3-0.5
			C218.4,379.6,229.2,382.3,234.6,375.5z"/>
	</g>
	<g id="XMLID_519_" display="inline">
		<path id="XMLID_515_" fill="#8CDCF2" d="M210.4,184.8c-6.3,0.3-10.9,8.5-12.3,13.9c-1.1,4.1-1.7,10.6-0.7,17.4
			c2.8,18.4,1.6,17.2-1.3,35.1c-2.8,16.5-6.4,25.5-6.4,25.5s6.6,10.2,48.2,7.5l3.3,3.6l7.8-4.2c0,0-9.6-23.4-9.6-34.7
			c0-11.4,1.7-31.5-1.9-43.5c-3.6-12-7.6-15.5-11.8-17C223.4,187.6,216.6,184.5,210.4,184.8z"/>
		<path id="XMLID_514_" opacity="0.1" d="M226.6,216.3c0,0-6.3,23.7-4.8,43.1c1.5,19.5-0.2,24.5-0.2,24.5l16.4,0.4
			c0,0-12.9-17.4-13.2-25.2C224.5,251.3,223,224.6,226.6,216.3z"/>
		<path id="XMLID_510_" fill="#FACAA9" d="M248.9,283.7c0,0,4.5,5.4,3.7,9.1c-0.9,3.7-0.6,5.4-1.8,6.2c-1.2,0.9-6.8,3.7-9.4,1.1
			c-2.6-2.6,2.8-1.8,3.3-3.6c0.5-1.7-2.8-5-2.8-5v-4L248.9,283.7z"/>
	</g>
	<path id="XMLID_498_" display="inline" fill="#FACAA9" d="M225,189.3c0,0-0.5-5.9,0.8-7.7c3.9-5.4,9.2,1.5,10.8-11.3
		c0.4-2.9-0.4-6-0.6-8.5c-0.4-8.2-2-14.6-10.2-15.2c-10.8-0.7-14.5,8-14.6,13.6c-0.1,5.6,3.5,19.3,3.5,19.3l-0.5,9.1
		C214.3,188.7,218.8,193.7,225,189.3z"/>
	<path id="XMLID_501_" display="inline" fill="#8CDCF2" d="M212.5,188.9c0,0,4.3,5.1,11.5,2.3c0,0,2-1,3.9-0.5l-2.9-4.3
		c0,0-4,2.3-10.5-0.7L212.5,188.9z"/>
	<path id="XMLID_16_" display="inline" opacity="0.1" d="M212.5,188.9c0,0,4.3,5.1,11.5,2.3c0,0,2-1,3.9-0.5l-2.9-4.3
		c0,0-4,2.3-10.5-0.7L212.5,188.9z"/>
	<path id="XMLID_424_" display="inline" fill="#FACAA9" d="M235.3,162.9l2,6c0.4,1-0.2,2.1-1.2,2.5l-0.8,0.3V162.9z"/>
	<path id="XMLID_425_" display="inline" fill="#0C0C0C" d="M236,151.8c0,0-4.2,11.4-25.3,6.4c0,0-1.2-6.9,3.8-10.6
		c5-3.7,15.1-3,16.8-4.5C235.9,139.2,241.6,146.3,236,151.8z"/>
	<path id="XMLID_426_" display="inline" fill="#0C0C0C" d="M210.7,158.3c0,0-1.1,4.9,4.1,21.2l4.7,1.7c3.3,0.3,6.8-5.5,6.4-8.8
		c0,0,0-0.1,0-0.1c-0.6-3.9-1.9-6.6-0.4-8.7c1.5-2.1,2.6,0.1,2.5,2.8l1.6-1.4c0.4-0.3,0.6-0.9,0.6-1.4c-0.1-1.1-0.2-3.2,0.7-4.1
		c1.3-1.3,3.8-3,3.5-5.1C234,152.3,210.7,158.3,210.7,158.3z"/>
</g>
<g id="Layer_5">
	
		<text id="XMLID_28_" transform="matrix(1 0 0 1 10 377.769)" opacity="0.5" fill="#009BDB" stroke="#009BDB" stroke-width="20" stroke-miterlimit="10" font-family="'BebasNeueBold'" font-size="432.6742" letter-spacing="8">03</text>
	<g id="XMLID_334_" opacity="0.59">
		<polygon id="XMLID_337_" fill="#76AADB" points="283.8,412.9 283.8,430.2 404.2,501.1 404.2,481.7 		"/>
		<polygon id="XMLID_336_" fill="#009BDB" points="283.8,412.9 404.2,342 525.8,412.2 404.2,481.7 		"/>
		<polygon id="XMLID_335_" fill="#4A72B2" points="525.8,412.2 525.8,430.2 404.2,501.1 404.2,481.7 		"/>
	</g>
	<radialGradient id="XMLID_31_" cx="404.7918" cy="411.8215" r="98.784" gradientUnits="userSpaceOnUse">
		<stop  offset="0.2742" style="stop-color:#D6D5D5"/>
		<stop  offset="0.412" style="stop-color:#9C9B9B"/>
		<stop  offset="0.5593" style="stop-color:#656464"/>
		<stop  offset="0.6964" style="stop-color:#393939"/>
		<stop  offset="0.8189" style="stop-color:#1A1A1A"/>
		<stop  offset="0.9222" style="stop-color:#070707"/>
		<stop  offset="0.994" style="stop-color:#000000"/>
	</radialGradient>
	<polygon id="XMLID_338_" fill="url(#XMLID_31_)" points="283.8,412.9 404.2,342 525.8,412.2 404.2,481.7 	"/>
	<polygon id="XMLID_790_" opacity="0.5" fill="#009BDB" points="283.8,395.5 404.2,324.6 525.8,394.8 404.2,464.3 	"/>
	<path id="XMLID_70_" fill="#FFFFFF" d="M494.9,292.7l-138.7-80.1c-1.1-0.6-2.1-0.7-2.8-0.2l0,0l-2.1,1.2c0,0,0.5,0.1,1,0.1
		c-0.2,0.6-0.4,1.3-0.4,2.2v95.6c0,3.2,1.9,6.9,4.3,8.3l138.7,80.1c0.3,0.2,0.5,0.3,0.8,0.3v1.1l2.1-1.2l0,0
		c0.9-0.5,1.5-1.8,1.5-3.5v-95.6C499.3,297.7,497.3,294,494.9,292.7z"/>
	<path id="XMLID_69_" fill="#8CDCF2" d="M492.9,400.9l-138.7-80.1c-2.4-1.4-4.3-5.1-4.3-8.3V217c0-3.2,1.9-4.6,4.3-3.3l138.7,80.1
		c2.4,1.4,4.3,5.1,4.3,8.3v95.6C497.2,400.9,495.3,402.3,492.9,400.9z"/>
	<polygon id="XMLID_68_" opacity="0.8" fill="#FFFFFF" points="420.5,293.9 361.8,260 361.8,229.2 420.5,263.1 	"/>
	<g id="XMLID_38_" opacity="0.8">
		<polygon id="XMLID_67_" fill="#FFFFFF" points="485.3,304 426.6,270.1 426.6,266.6 485.3,300.5 		"/>
		<polygon id="XMLID_66_" fill="#FFFFFF" points="485.3,313.1 426.6,279.2 426.6,275.7 485.3,309.6 		"/>
		<polygon id="XMLID_65_" fill="#FFFFFF" points="485.3,331.3 426.6,297.4 426.6,293.9 485.3,327.8 		"/>
		<polygon id="XMLID_64_" fill="#FFFFFF" points="485.3,367.6 426.6,333.7 426.6,330.2 485.3,364.1 		"/>
		<polygon id="XMLID_63_" fill="#FFFFFF" points="471,314 426.6,288.3 426.6,284.8 471,310.5 		"/>
		<polygon id="XMLID_62_" fill="#FFFFFF" points="471,341.3 426.6,315.6 426.6,312 471,337.7 		"/>
		<polygon id="XMLID_61_" fill="#FFFFFF" points="485.3,358.5 426.6,324.6 426.6,321.1 485.3,355 		"/>
		<polygon id="XMLID_60_" fill="#FFFFFF" points="471,368.5 426.6,342.8 426.6,339.3 471,365 		"/>
		<polygon id="XMLID_24_" fill="#FFFFFF" points="420.5,303 361.8,269.1 361.8,265.6 420.5,299.5 		"/>
		<polygon id="XMLID_56_" fill="#FFFFFF" points="420.5,312.1 361.8,278.2 361.8,274.7 420.5,308.6 		"/>
		<polygon id="XMLID_18_" fill="#FFFFFF" points="420.5,321.2 361.8,287.3 361.8,283.7 420.5,317.6 		"/>
		<polygon id="XMLID_2_" fill="#FFFFFF" points="452.9,321.7 426.6,306.5 426.6,303 452.9,318.2 		"/>
		<polygon id="XMLID_53_" fill="#FFFFFF" points="388.2,311.5 361.8,296.3 361.8,292.8 388.2,308 		"/>
		<polygon id="XMLID_42_" fill="#FFFFFF" points="420.5,339.3 361.8,305.4 361.8,301.9 420.5,335.8 		"/>
		<polygon id="XMLID_39_" fill="#FFFFFF" points="388.2,329.7 361.8,314.5 361.8,311 388.2,326.2 		"/>
	</g>
	<path id="XMLID_52_" opacity="0.5" fill="#009BDB" d="M375.8,262.1l-35.6-2.9v72.8c0,3.6,2.2,7.9,4.9,9.4l68.6,39.6
		c17.7-25.1,13.7-63.6,13.7-63.6L375.8,262.1z"/>
	<g id="XMLID_41_">
		<g id="XMLID_43_">
			<path id="XMLID_51_" fill="#F8C24D" d="M415.2,326l-51.6-55.4l-51.6-4.2c0,0-8.3,69.9,51.6,144.1
				C423.5,405.5,415.2,326,415.2,326z"/>
			<polygon id="XMLID_50_" fill="#F8C24D" points="312,266.4 300.4,273.1 352,277.3 363.6,270.6 			"/>
			<path id="XMLID_49_" fill="#FFD569" d="M403.6,332.7L352,277.3l-21.2-2.1l-30.4-2c0,0-8.3,69.9,51.6,144.1
				C411.9,412.2,403.6,332.7,403.6,332.7z"/>
			<path id="XMLID_14_" opacity="0.2" fill="#FFFFFF" d="M391.2,335.7l-39.6-42.6l-16.3-1.6l-23.3-1.6c0,0-6.4,53.7,39.6,110.7
				C397.6,396.8,391.2,335.7,391.2,335.7z"/>
			<path id="XMLID_44_" fill="#FFFFFF" d="M403.6,332.7L352,277.3l-51.6-4.2c1.5-0.8,1.5-0.8,1.5-0.8l52.3,4.2l51.6,55.4
				c0,0,6.9,66.5-37.7,81.7C410.3,397,403.6,332.7,403.6,332.7z"/>
		</g>
	</g>
	<g id="XMLID_3_">
		<g id="XMLID_5_">
			<path id="XMLID_116_" opacity="0.7" fill="#D7EFFD" d="M429.6,440.4c-16.1,1.4-30-6.4-31-17.5c-1-11.1,11.3-21.2,27.4-22.7
				c16.1-1.4,30,6.4,31,17.4C458,428.8,445.7,439,429.6,440.4z"/>
			<g id="XMLID_81_" enable-background="new    ">
				<g id="XMLID_112_">
					<defs>
						<path id="XMLID_113_" d="M400.1,420c0,3,0,3,0.1,5.9c0-4.2,2.7-8.4,8.2-11.6c11-6.4,28.7-6.6,39.7-0.3
							c5.4,3.1,8.2,7.2,8.2,11.4c0-3,0-3-0.1-5.9c0-4.1-2.8-8.2-8.2-11.4c-11-6.3-28.7-6.1-39.7,0.3
							C402.8,411.6,400.1,415.8,400.1,420z"/>
					</defs>
					<use xlink:href="#XMLID_113_"  overflow="visible" fill="#386390"/>
					<clipPath id="XMLID_33_">
						<use xlink:href="#XMLID_113_"  overflow="visible"/>
					</clipPath>
					<g id="XMLID_114_" clip-path="url(#XMLID_33_)">
						<path id="XMLID_115_" fill="#386390" d="M400.1,420l0.1,8.9c0-4.2,2.7-8.4,8.2-11.6c11-6.4,28.7-6.6,39.7-0.3
							c5.4,3.1,8.2,7.2,8.2,11.4l-0.1-8.9c0-4.1-2.8-8.2-8.2-11.4c-11-6.3-28.7-6.1-39.7,0.3C402.8,411.6,400.1,415.8,400.1,420
							L400.1,420z"/>
					</g>
				</g>
				<g id="XMLID_108_" opacity="0.1">
					<defs>
						<path id="XMLID_109_" opacity="0.1" d="M400.1,420c0,3,0,3,0.1,5.9c0-4.2,2.7-8.4,8.2-11.6c11-6.4,28.7-6.6,39.7-0.3
							c5.4,3.1,8.2,7.2,8.2,11.4c0-3,0-3-0.1-5.9c0-4.1-2.8-8.2-8.2-11.4c-11-6.3-28.7-6.1-39.7,0.3
							C402.8,411.6,400.1,415.8,400.1,420z"/>
					</defs>
					<use xlink:href="#XMLID_109_"  overflow="visible"/>
					<clipPath id="XMLID_36_">
						<use xlink:href="#XMLID_109_"  overflow="visible"/>
					</clipPath>
					<g id="XMLID_110_" clip-path="url(#XMLID_36_)">
						<path id="XMLID_111_" d="M400.1,420l0.1,8.9c0-4.2,2.7-8.4,8.2-11.6c11-6.4,28.7-6.6,39.7-0.3c5.4,3.1,8.2,7.2,8.2,11.4
							l-0.1-8.9c0-4.1-2.8-8.2-8.2-11.4c-11-6.3-28.7-6.1-39.7,0.3C402.8,411.6,400.1,415.8,400.1,420L400.1,420z"/>
					</g>
				</g>
				<g id="XMLID_104_" enable-background="new    ">
					<defs>
						<path id="XMLID_105_" enable-background="new    " d="M466.3,428.2c0-3-0.1-5.9-0.1-8.9c0.1,4.9-2.7,9.9-8.4,14l0.1,8.9
							C463.6,438.1,466.4,433.1,466.3,428.2z"/>
					</defs>
					<use xlink:href="#XMLID_105_"  overflow="visible" fill="#386390"/>
					<clipPath id="XMLID_40_">
						<use xlink:href="#XMLID_105_"  overflow="visible"/>
					</clipPath>
					<g id="XMLID_106_" clip-path="url(#XMLID_40_)">
						<path id="XMLID_107_" fill="#386390" d="M457.9,433.3l0.1,8.9c5.6-4.1,8.4-9.1,8.4-14l-0.1-8.9
							C466.3,424.2,463.5,429.2,457.9,433.3L457.9,433.3z"/>
					</g>
				</g>
				<g id="XMLID_100_" enable-background="new    ">
					<defs>
						<path id="XMLID_101_" enable-background="new    " d="M390.1,420.1c0,3,0.1,5.9,0.1,8.9c0.1,5.6,3.8,11.2,11.2,15.4
							c13.9,7.9,35.8,8.3,50.8,1.2l-0.1-8.9c-14.9,7.1-36.9,6.7-50.8-1.2C393.9,431.2,390.1,425.7,390.1,420.1z"/>
					</defs>
					<use xlink:href="#XMLID_101_"  overflow="visible" fill="#386390"/>
					<clipPath id="XMLID_45_">
						<use xlink:href="#XMLID_101_"  overflow="visible"/>
					</clipPath>
					<g id="XMLID_102_" clip-path="url(#XMLID_45_)">
						<path id="XMLID_103_" fill="#386390" d="M390.1,420.1l0.1,8.9c0.1,5.6,3.8,11.2,11.2,15.4c13.9,7.9,35.8,8.3,50.8,1.2
							l-0.1-8.9c-14.9,7.1-36.9,6.7-50.8-1.2C393.9,431.2,390.1,425.7,390.1,420.1L390.1,420.1z"/>
					</g>
				</g>
				<g id="XMLID_96_" opacity="0.1">
					<defs>
						<path id="XMLID_97_" opacity="0.1" d="M390.1,420.1c0,3,0.1,5.9,0.1,8.9c0.1,5.6,3.8,11.2,11.2,15.4
							c13.9,7.9,35.8,8.3,50.8,1.2l-0.1-8.9c-14.9,7.1-36.9,6.7-50.8-1.2C393.9,431.2,390.1,425.7,390.1,420.1z"/>
					</defs>
					<use xlink:href="#XMLID_97_"  overflow="visible"/>
					<clipPath id="XMLID_46_">
						<use xlink:href="#XMLID_97_"  overflow="visible"/>
					</clipPath>
					<g id="XMLID_98_" clip-path="url(#XMLID_46_)">
						<path id="XMLID_99_" d="M390.1,420.1l0.1,8.9c0.1,5.6,3.8,11.2,11.2,15.4c13.9,7.9,35.8,8.3,50.8,1.2l-0.1-8.9
							c-14.9,7.1-36.9,6.7-50.8-1.2C393.9,431.2,390.1,425.7,390.1,420.1L390.1,420.1z"/>
					</g>
				</g>
				<g id="XMLID_94_">
					<polygon id="XMLID_95_" fill="#414140" points="464.1,443.6 464.2,452.5 470,449.1 469.9,440.2 					"/>
				</g>
				<g id="XMLID_90_" opacity="0.2" enable-background="new    ">
					<defs>
						<path id="XMLID_91_" opacity="0.2" enable-background="new    " d="M466.3,428.2c0-3-0.1-5.9-0.1-8.9c0.1,4.9-2.7,9.9-8.4,14
							l0.1,8.9C463.6,438.1,466.4,433.1,466.3,428.2z"/>
					</defs>
					<use xlink:href="#XMLID_91_"  overflow="visible"/>
					<clipPath id="XMLID_47_">
						<use xlink:href="#XMLID_91_"  overflow="visible"/>
					</clipPath>
					<g id="XMLID_92_" clip-path="url(#XMLID_47_)">
						<path id="XMLID_93_" d="M457.9,433.3l0.1,8.9c5.6-4.1,8.4-9.1,8.4-14l-0.1-8.9C466.3,424.2,463.5,429.2,457.9,433.3
							L457.9,433.3z"/>
					</g>
				</g>
				<g id="XMLID_86_">
					<path id="XMLID_87_" fill="#386390" d="M455.1,403.9c13.9,7.9,14.8,20.6,2.8,29.4l12.1,6.9l-5.8,3.4l-12.1-6.9
						c-14.9,7.1-36.9,6.7-50.8-1.2c-14.9-8.5-14.9-22.5-0.1-31.2C416.1,395.5,440.2,395.4,455.1,403.9z M448,431
						c10.9-6.4,10.9-16.7,0-23c-11-6.3-28.7-6.1-39.7,0.3c-10.9,6.4-10.9,16.7,0,23C419.3,437.6,437.1,437.5,448,431L448,431z"/>
				</g>
				<g id="XMLID_84_">
					<polygon id="XMLID_85_" fill="#386390" points="452,436.7 452.1,445.6 464.2,452.5 464.1,443.6 					"/>
				</g>
				<g id="XMLID_82_" opacity="0.2">
					<polygon id="XMLID_83_" points="452,436.7 452.1,445.6 464.2,452.5 464.1,443.6 					"/>
				</g>
			</g>
			<g id="XMLID_79_" enable-background="new    ">
				<path id="XMLID_80_" fill="#615C27" d="M480.9,441.3c-10-6.2-12.6-5-14-4.3c-5.8,2.7-9.4,10.6-8.2,14.8c0.9,3.1,5.9,6.9,9.9,9.5
					c-2.5-1.6-2-7.5,1.5-12.9C473.6,442.9,480.9,441.3,480.9,441.3z"/>
			</g>
			<g id="XMLID_76_" enable-background="new    ">
				<defs>
					<path id="XMLID_77_" enable-background="new    " d="M498.5,466.5c0.5-0.8,0.9-1.5,1.4-2.7c0.6-1.3,0.8-2.4,0.9-2.6
						c0.2-0.9,0.6-2.8-0.1-4.6c-0.7-1.7-2.4-3.2-3.4-4.1c-0.7-0.6-2.7-2.4-6.3-4.7c-2.5-1.6-7.6,1.4-11.1,6.9
						c-3.5,5.5-4,11.3-1.5,12.9c0.1,0.1,0.2,0.1,0.3,0.2l0,0c1.9,1.2,4.3,2.6,7.2,3.8c0.3,0.1,1.5,0.6,2.6,0.8c1,0.2,1.6,0.2,2,0.2
						c1.9-0.1,3.5-1.3,4.2-1.9C496,469.8,497.4,468.1,498.5,466.5C498.5,466.5,498.5,466.5,498.5,466.5c-2.8,4.3-6.7,6.8-8.7,5.5
						c-2-1.3-1.6-6,1.1-10.3c2.7-4.3,6.8-6.7,8.9-5.4C501.8,457.6,501.2,462.1,498.5,466.5C498.5,466.5,498.5,466.5,498.5,466.5z"/>
				</defs>
				<clipPath id="XMLID_48_">
					<use xlink:href="#XMLID_77_"  overflow="visible"/>
				</clipPath>
				<path id="XMLID_78_" clip-path="url(#XMLID_48_)" fill="#8B8436" d="M498.5,466.5c3.2-5.3,2.8-8.4,2.2-9.8
					c-1.3-3.2-7.2-7.2-9.7-8.8c-2.5-1.6-7.6,1.4-11.1,6.9c-3.5,5.5-4,11.3-1.5,12.9c0.1,0.1,0.2,0.1,0.3,0.2c5.4,3.3,9.4,5,11.7,4.8
					C492,472.6,495.1,471.6,498.5,466.5C498.5,466.5,498.5,466.5,498.5,466.5c-2.8,4.3-6.7,6.8-8.7,5.5c-2-1.3-1.6-6,1.1-10.3
					c2.7-4.3,6.8-6.7,8.9-5.4C501.8,457.6,501.2,462.1,498.5,466.5C498.5,466.5,498.5,466.5,498.5,466.5L498.5,466.5z"/>
			</g>
			<g id="XMLID_71_">
				<g id="XMLID_118_">
					<path id="XMLID_119_" fill="#F64444" d="M498.4,466.4c2.8-4.3,3.4-8.9,1.4-10.1c-2-1.3-6.2,1.1-8.9,5.4
						c-2.7,4.3-3.2,9-1.1,10.3C491.8,473.3,495.7,470.8,498.4,466.4z"/>
				</g>
			</g>
			<g id="XMLID_1_" opacity="0.2">
				<g id="XMLID_120_">
					<path id="XMLID_121_" d="M498.4,466.4c2.8-4.3,3.4-8.9,1.4-10.1c-2-1.3-6.2,1.1-8.9,5.4c-2.7,4.3-3.2,9-1.1,10.3
						C491.8,473.3,495.7,470.8,498.4,466.4z"/>
				</g>
			</g>
			<path id="XMLID_30_" fill="#F64444" d="M464.9,445c2.8-4.5,6.8-7.3,9.5-7.2c2.2,0.9,5.7,2.8,9.6,5.2c5.7,3.5,11.2,7.7,11.2,7.7
				s-3.9-0.9-9.4,7.6c-5.3,8.5-2.9,11.8-2.9,11.8s-6.1-3.2-11.6-6.9c-3.8-2.5-7-4.8-8.8-6.5C461.2,454.2,462,449.5,464.9,445
				L464.9,445z"/>
			<g id="XMLID_22_">
				<path id="XMLID_23_" fill="#F64444" d="M480.9,441.3c-10-6.2-12.6-5-14-4.3c-5.8,2.7-9.4,10.6-8.2,14.8c0.9,3.1,5.9,6.9,9.9,9.5
					c-2.5-1.6-2-7.5,1.5-12.9C473.6,442.9,480.9,441.3,480.9,441.3z"/>
			</g>
			<g id="XMLID_6_" enable-background="new    ">
				<defs>
					<path id="XMLID_7_" enable-background="new    " d="M498.5,466.5c0.5-0.8,0.9-1.5,1.4-2.7c0.6-1.3,0.8-2.4,0.9-2.6
						c0.2-0.9,0.6-2.8-0.1-4.6c-0.7-1.7-2.4-3.2-3.4-4.1c-0.7-0.6-2.7-2.4-6.3-4.7c-2.5-1.6-7.6,1.4-11.1,6.9
						c-3.5,5.5-4,11.3-1.5,12.9c0.1,0.1,0.2,0.1,0.3,0.2l0,0c1.9,1.2,4.3,2.6,7.2,3.8c0.3,0.1,1.5,0.6,2.6,0.8c1,0.2,1.6,0.2,2,0.2
						c1.9-0.1,3.5-1.3,4.2-1.9C496,469.8,497.4,468.1,498.5,466.5C498.5,466.5,498.5,466.5,498.5,466.5c-2.8,4.3-6.7,6.8-8.7,5.5
						c-2-1.3-1.6-6,1.1-10.3c2.7-4.3,6.8-6.7,8.9-5.4C501.8,457.6,501.2,462.1,498.5,466.5C498.5,466.5,498.5,466.5,498.5,466.5z"/>
				</defs>
				<use xlink:href="#XMLID_7_"  overflow="visible" fill="#F64444"/>
				<clipPath id="XMLID_54_">
					<use xlink:href="#XMLID_7_"  overflow="visible"/>
				</clipPath>
				<path id="XMLID_9_" clip-path="url(#XMLID_54_)" fill="#F64444" d="M498.5,466.5c3.2-5.3,2.8-8.4,2.2-9.8
					c-1.3-3.2-7.2-7.2-9.7-8.8c-2.5-1.6-7.6,1.4-11.1,6.9c-3.5,5.5-4,11.3-1.5,12.9c0.1,0.1,0.2,0.1,0.3,0.2c5.4,3.3,9.4,5,11.7,4.8
					C492,472.6,495.1,471.6,498.5,466.5C498.5,466.5,498.5,466.5,498.5,466.5c-2.8,4.3-6.7,6.8-8.7,5.5c-2-1.3-1.6-6,1.1-10.3
					c2.7-4.3,6.8-6.7,8.9-5.4C501.8,457.6,501.2,462.1,498.5,466.5C498.5,466.5,498.5,466.5,498.5,466.5L498.5,466.5z"/>
			</g>
		</g>
		
			<ellipse id="XMLID_4_" transform="matrix(8.870047e-02 0.9961 -0.9961 8.870047e-02 805.9453 -24.5476)" fill="#FFFFFF" cx="416.4" cy="428.2" rx="2" ry="2.9"/>
	</g>
</g>
</svg>
