<svg enable-background="new 0 0 505.4 538.6" viewBox="0 0 505.4 538.6" xmlns="http://www.w3.org/2000/svg" xmlns:xlink="http://www.w3.org/1999/xlink"><clipPath id="a"><path d="m469.6 384.4.1 1c1.4 3.9 7.1 18.9 9.5 15.1l-.1-26.8c-2.4 3.8-5.6 7.4-9.5 10.7z"/></clipPath><linearGradient id="b"><stop offset=".2742" stop-color="#d6d5d5"/><stop offset=".412" stop-color="#9c9b9b"/><stop offset=".5593" stop-color="#656464"/><stop offset=".6964" stop-color="#393939"/><stop offset=".8189" stop-color="#1a1a1a"/><stop offset=".9222" stop-color="#070707"/><stop offset=".994"/></linearGradient><radialGradient id="c" cx="398.8254" cy="356.7652" gradientUnits="userSpaceOnUse" r="87.02" xlink:href="#b"/><clipPath id="d"><path d="m387.1 498.2.1.6c.9 2.6 4.7 12.5 6.3 10l-.1-17.8c-1.6 2.6-3.7 5-6.3 7.2z"/></clipPath><radialGradient id="e" cx="209.6277" cy="391.6739" gradientUnits="userSpaceOnUse" r="26.7063" xlink:href="#b"/><g fill="#009bdb" opacity=".5" stroke="#009bdb" stroke-miterlimit="10" stroke-width="20"><path d="m23.4 147.6c0-48.5 25.5-76.2 72.3-76.2 46.7 0 72.3 27.7 72.3 76.2v157.5c0 48.5-25.5 76.2-72.3 76.2-46.7 0-72.3-27.7-72.3-76.2zm47.6 160.5c0 21.6 9.5 29.9 24.7 29.9 15.1 0 24.7-8.2 24.7-29.9v-163.5c0-21.6-9.5-29.9-24.7-29.9-15.1 0-24.7 8.2-24.7 29.9z"/><path d="m196 279.6 86.5-204.7h51.9v204.7h22.6v43.3h-22.5v55h-46.7v-55h-91.8zm91.8 0v-113.8l-48 113.8z"/></g><path d="m144.8 448.7 62.2-36.6 62.9 36.3-62.9 35.9z" fill="#009bdb" opacity=".3"/><g enable-background="new"><path d="m318.8 318.9c0 .3 0 .6.1.9 0 .1 0 .1.1.2.1.2.2.5.3.7 0 .1.1.1.1.2.1.3.3.6.5.8 0 .1.1.1.2.2.2.2.4.5.7.7l6.3 5.5.1 52.6-6.3-5.5s-.1-.1-.1-.1c-.2-.2-.4-.4-.6-.6-.1-.1-.1-.1-.2-.2-.2-.2-.3-.5-.5-.7 0 0 0-.1-.1-.1 0-.1-.1-.1-.1-.2-.1-.1-.1-.2-.2-.3 0-.1-.1-.2-.1-.3s0-.1-.1-.2v-.1c0-.2-.1-.4-.1-.7v-.1z" fill="#4f82bd"/><path d="m486.1 330.7c1.1-.7 1.9-1.4 2.4-2.2s.8-1.6.8-2.5l.1 52.6c0 1.7-1.1 3.3-3.2 4.7l-9 5.6-.1-52.6z" fill="#4f82bd"/><path d="m360.1 356.7c0-5.7 3.8-11.3 11.1-15.6.8-.4 1.6-.9 2.4-1.3 1-.5 2-.9 3.1-1.4h.1c1.3-.5 2.6-.9 4-1.3.2-.1.3-.1.5-.2.3-.1.6-.1.9-.2.7-.2 1.5-.4 2.2-.6.3-.1.5-.1.8-.2.2-.1.5-.1.7-.1.7-.1 1.3-.2 2-.3.3-.1.7-.1 1-.2.2 0 .5 0 .7-.1.6-.1 1.2-.1 1.9-.2.4 0 .7-.1 1.1-.1h.6c.6 0 1.3-.1 1.9-.1.4 0 .8-.1 1.2-.1h.6 2.1 1.2.4c1 0 1.9.1 2.9.2.3 0 .6 0 .9.1h.1c1.5.1 2.9.4 4.3.6.1 0 .3 0 .4.1.4.1.7.2 1.1.2.7.1 1.3.3 2 .4.5.1 1 .3 1.5.4.6.2 1.3.3 1.9.5.2.1.4.1.6.2s.4.2.6.2c1.2.4 2.4.8 3.5 1.3l.6.3c1.3.6 2.5 1.2 3.6 1.9.1.1.2.1.4.2.6.4 1.2.7 1.7 1.1.7.5 1.3.9 1.9 1.4.2.1.4.3.5.5.2.2.5.4.7.6l.5.5.5.5c.4.4.8.9 1.2 1.4 0 .1.1.1.2.2.1.1.1.1.1.2.5.6.9 1.2 1.2 1.8 0 .1.1.2.2.2.1.2.1.3.2.5.2.4.4.8.6 1.3.1.1.1.3.2.4s.1.3.1.4c.1.4.3.8.4 1.2 0 .2.1.3.1.5v.3c.1.5.1.9.2 1.4 0 .2.1.3.1.5v.3l.1 52.6c0-.3 0-.6-.1-.9 0-.5-.1-.9-.2-1.4 0-.3-.1-.5-.2-.8-.1-.4-.2-.8-.4-1.2-.1-.3-.2-.5-.3-.8-.2-.4-.4-.8-.6-1.3-.1-.2-.2-.5-.4-.7-.4-.6-.8-1.2-1.2-1.8-.1-.1-.1-.2-.2-.2 0-.1-.1-.1-.2-.2-.4-.5-.8-.9-1.2-1.4-.1-.2-.3-.3-.5-.5-.4-.4-.8-.7-1.2-1.1-.2-.2-.3-.3-.5-.5-.6-.5-1.2-1-1.9-1.4-.7-.5-1.4-.9-2.1-1.3-1.2-.7-2.4-1.3-3.6-1.9-.2-.1-.4-.2-.6-.3-1.1-.5-2.3-.9-3.5-1.3-.4-.1-.8-.3-1.2-.4-.6-.2-1.3-.4-1.9-.5-.5-.1-1-.3-1.5-.4-.7-.2-1.3-.3-2-.4-.5-.1-1-.2-1.5-.3-1.4-.2-2.9-.5-4.3-.6-.3 0-.7-.1-1-.1-1-.1-1.9-.2-2.9-.2-.5 0-1.1 0-1.6 0-.7 0-1.4 0-2.1 0-.6 0-1.2 0-1.7.1-.6 0-1.3.1-1.9.1s-1.2.1-1.8.2-1.3.1-1.9.2-1.1.2-1.7.3c-.7.1-1.3.2-2 .3-.5.1-1 .2-1.6.3-.8.2-1.5.4-2.2.5-.5.1-.9.2-1.4.4-1.3.4-2.7.8-4 1.3-.1 0-.1 0-.2.1-1.1.4-2.1.9-3.1 1.4-.8.4-1.7.8-2.4 1.3-3.7 2.1-6.5 4.6-8.3 7.3-.9 1.3-1.6 2.7-2.1 4.1-.2.7-.4 1.4-.5 2.1s-.2 1.4-.2 2.1z" fill="#009bdb"/><path d="m292.5 359.1c0 .1 0 .1.1.2.1.3.3.7.4 1 0 .1.1.1.1.2.2.2.4.5.6.7l.3.3.4.4c.3.2.6.5.9.7.2.1.4.3.7.4.2.1.4.2.5.3.3.1.6.3 1 .4.2.1.4.1.6.2s.5.1.7.2c.4.1.9.2 1.4.3s1 .2 1.6.3l11.3 1.3.1 26.8-11.3-1.3c-.4 0-.9-.1-1.3-.2-.1 0-.2-.1-.3-.1-.5-.1-.9-.2-1.4-.3-.2 0-.4-.1-.5-.1s-.1 0-.2-.1c-.2-.1-.4-.1-.6-.2-.3-.1-.7-.3-1-.4-.2-.1-.4-.2-.5-.3s-.3-.2-.5-.2c-.1-.1-.2-.1-.2-.2-.3-.2-.6-.4-.9-.7-.1-.1-.2-.1-.3-.2 0 0-.1-.1-.1-.1-.1-.1-.2-.2-.3-.3s-.2-.2-.3-.4c-.1-.1-.2-.2-.2-.4 0-.1-.1-.1-.1-.2 0 0-.1-.1-.1-.1-.1-.2-.2-.4-.3-.7 0-.1 0-.1 0-.2s0-.1-.1-.2c0-.1-.1-.2-.1-.3 0-.2-.1-.4-.1-.7v-.1l-.1-26.8c-.1.4 0 .8.1 1.1z" fill="#6397db"/><path d="m494.4 373.3h.2c.6-.1 1.2-.2 1.8-.4.1 0 .2-.1.4-.1.6-.2 1.2-.3 1.7-.6.6-.2 1.2-.5 1.7-.8 1.9-1.1 3.2-2.6 3.4-4.2l1.7-11.1c0-.2 0-.4 0-.6s.1 27.2.1 27.4l-1.7 11.1c-.3 1.7-1.5 3.1-3.4 4.2-.5.3-1.1.6-1.7.8-.5.2-.9.3-1.4.5-.1 0-.2 0-.3.1-.1 0-.2.1-.4.1s-.4.1-.6.1c-.4.1-.8.1-1.1.2h-.1c-.1 0-.1 0-.2 0-.3 0-.5.1-.8.1-.4 0-.8.1-1.2.1-.1 0-.1 0-.2 0l-.1-26.8c.8 0 1.5 0 2.2-.1z" fill="#82bdfc"/><path d="m479.1 373.7.1 26.8 13.2-.3-.1-26.8z" fill="#6397db"/><path d="m312.8 365c.2.6 1.3 1.9 1.5 2.5.5 1.4 1.1 2.4 1.8 3.8 0 .1.1.1.1.2.7 1.5 2.1 3.9 3 5.4.2.3.4.7.6 1l.1 26.3c-.1-.2-.2-.4-.4-.6-.1-.1-.1-.3-.2-.4-.9-1.5-3.3-3-4-4.5 0 0-.1-.1-.1-.1-.6-1.4-1.2-2.8-1.6-4.3-.1-.2-.1-.3-.2-.5-.1-.4-.3-.9-.4-1.3z" fill="#4f82bd"/><g clip-path="url(#a)" enable-background="new"><path d="m469.6 384.4.1 1c2 5.5 7.1 18.9 9.5 15.1l-.1-26.8c-2.4 3.8-5.6 7.4-9.5 10.7" fill="#4f82bd"/></g><path d="m349.1 397.9.1 26.8-10 3.8-.1-26.8z" fill="#4f82bd"/><path d="m308.7 388.6c0 .1 0 .1.1.2.1.3.3.7.4 1 0 .1.1.1.1.2.2.3.4.5.6.8l.3.3c.3.3.7.6 1.1.9l12.4 8.6c.4.3.8.5 1.3.7.1.1.3.1.4.2.5.2 1 .4 1.6.6.7.2 1.4.4 2.1.5.6.1 1.2.2 1.8.2h.3c.6 0 1.2.1 1.8.1h.1c.6 0 1.3-.1 1.9-.1h.3c.6-.1 1.2-.2 1.7-.3.1 0 .3-.1.4-.1.6-.2 1.2-.3 1.7-.5l.1 26.8c-.4.2-.9.3-1.3.4-.1 0-.3.1-.4.1s-.2.1-.4.1c-.1 0-.3.1-.4.1-.4.1-.8.1-1.1.2-.1 0-.1 0-.2 0s-.2 0-.2 0c-.2 0-.5.1-.7.1-.4 0-.8.1-1.1.1 0 0 0 0-.1 0h-.1c-.3 0-.7 0-1 0s-.5 0-.8-.1c-.1 0-.2 0-.3 0s-.1 0-.2 0c-.5-.1-1-.1-1.5-.2h-.1c-.7-.1-1.4-.3-2.1-.5 0 0 0 0-.1 0-.5-.2-1.1-.4-1.6-.6-.1-.1-.3-.1-.4-.2-.3-.1-.5-.3-.8-.4-.2-.1-.3-.2-.5-.3l-12.4-8.6c-.4-.2-.7-.5-1-.8-.1 0-.1-.1-.1-.1-.1-.1-.2-.2-.3-.3s-.2-.2-.3-.4c-.1-.1-.2-.3-.3-.4 0-.1-.1-.1-.1-.2 0 0-.1-.1-.1-.1-.1-.2-.2-.4-.3-.7 0-.1 0-.1-.1-.2 0-.1 0-.1-.1-.2 0-.1-.1-.2-.1-.3 0-.2-.1-.5-.1-.7v-.1l-.1-26.8c.1.3.2.6.3 1z" fill="#82bdfc"/><path d="m349.1 397.9c2 .8 4.1 1.5 6.3 2.3.6.2 1.2.4 1.8.6 1.3.4 2.6.8 3.9 1.1.6.2 1.2.3 1.8.5 1.9.5 3.8 1 5.8 1.4l.1 26.8c-2-.4-3.9-.9-5.8-1.4-.6-.2-1.2-.3-1.8-.5-1.3-.4-2.6-.7-3.9-1.1-.3-.1-.7-.2-1-.3s-.5-.2-.8-.3c-2.1-.7-4.3-1.4-6.3-2.3z" fill="#6397db"/><path d="m418.6 405.1c2.5-.4 5-.8 7.5-1.3.5-.1 1.1-.2 1.6-.3 2.5-.5 4.9-1.1 7.3-1.8l.1 26.8c-2.4.7-4.8 1.2-7.3 1.8-.3.1-.6.1-.9.2-.2 0-.5.1-.7.1-2.5.5-5 .9-7.5 1.3-.1 0-.3 0-.4.1-1.4.2-2.9.4-4.3.5l-.1-26.8c1.5-.1 3.1-.3 4.7-.6z" fill="#4f82bd"/><path d="m444.4 406.9.1 26.8-9.4-5.2-.1-26.8z" fill="#6397db"/><path d="m444.4 406.9c.6.4 1.4.6 2.1.9.3.1.5.2.8.2.4.1.8.2 1.3.3.4.1.8.2 1.2.2.2 0 .3 0 .5.1.6.1 1.2.1 1.8.1h.3c.6 0 1.2 0 1.8-.1h.2c.6-.1 1.2-.1 1.8-.3h.2c.6-.1 1.1-.3 1.7-.4.2-.1.4-.1.5-.2.5-.2 1-.4 1.5-.6l14.8-7.2c.2-.1.5-.2.7-.4 1.1-.7 2-1.4 2.6-2.3.6-.8.9-1.7.9-2.6l.1 26.8c0 1.8-1.2 3.6-3.5 4.9-.2.1-.4.2-.7.4l-14.8 7.2c-.3.1-.6.3-.9.4-.2.1-.4.1-.6.2s-.4.1-.5.2c-.1 0-.2.1-.3.1-.4.1-.8.2-1.2.3h-.1c-.1 0-.1 0-.2 0-.3.1-.6.1-.9.2-.3 0-.6.1-.9.1-.1 0-.1 0-.2 0h-.1c-.4 0-.8.1-1.2.1-.2 0-.4 0-.6 0-.1 0-.2 0-.3 0s-.2 0-.3 0c-.4 0-.9 0-1.3-.1-.1 0-.1 0-.2 0-.2 0-.3 0-.5-.1-.3 0-.5-.1-.8-.1-.1 0-.3-.1-.4-.1-.4-.1-.8-.2-1.2-.3-.2-.1-.4-.1-.6-.1-.1 0-.1-.1-.2-.1-.7-.2-1.4-.5-2.1-.9z" fill="#82bdfc"/><path d="m368.6 403.7.1 26.8.3 7.2-.1-26.8z" fill="#4f82bd"/><path d="m411.3 413 .1 26.8 2.6-7.2-.1-26.8z" fill="#6397db"/><path d="m369.1 412.1c0 .1.1.1 0 0 .1.4.3.7.6 1.1 0 .1.1.1.1.2.2.3.5.7.9 1 .4.4.9.7 1.4 1 .4.3.9.5 1.4.7.1.1.3.1.4.2.4.1.7.3 1.1.4s.9.2 1.4.3c.3.1.5.1.8.2.1 0 .3 0 .4.1.6.1 1.2.2 1.8.2l19.2.9h2.6c.8-.1 1.6-.2 2.4-.4h.2c.7-.1 1.3-.3 1.9-.5.1 0 .2-.1.3-.1.7-.3 1.3-.5 1.9-.9 1.6-.9 2.7-2.1 3.2-3.4l.1 26.8c-.5 1.3-1.6 2.5-3.2 3.4-.5.3-1.1.6-1.7.8-.1 0-.1 0-.2.1-.1 0-.2.1-.3.1-.3.1-.6.2-.9.3s-.6.2-1 .2c-.1 0-.1 0-.2 0h-.1c-.4.1-.8.1-1.2.2s-.7.1-1.1.1c-.4 0-.7 0-1.1.1-.4 0-.8 0-1.2 0-.1 0-.2 0-.3 0l-19.2-.9c-.3 0-.7 0-1-.1-.3 0-.6-.1-.9-.1-.1 0-.3 0-.4-.1-.1 0-.1 0-.2 0-.2 0-.4-.1-.6-.1-.5-.1-.9-.2-1.4-.3-.1 0-.2 0-.3-.1-.3-.1-.6-.2-.9-.3-.1-.1-.3-.1-.5-.2-.5-.2-1-.5-1.4-.7-.5-.3-1-.7-1.4-1 0 0 0 0-.1 0-.3-.2-.5-.5-.7-.8 0 0-.1-.1-.1-.1 0-.1-.1-.1-.1-.2-.1-.1-.2-.2-.3-.4s-.2-.4-.3-.7c-.1-.2-.1-.4-.2-.6 0-.2-.1-.4-.1-.6l-.1-26.8c.4.2.5.6.6 1z" fill="#82bdfc"/><path d="m311.2 391.9c-3.8-2.6-3.6-6.5.4-9l8.1-5c-3.1-3.8-5.3-7.8-6.7-11.9l-11.3-1.3c-5.9-.7-9.9-3.8-9.4-7.2l1.7-11.1c.2-1.6 1.5-3.1 3.4-4.2 2.1-1.2 4.8-1.9 7.9-2l11.2-.2c2.6-4.2 6.1-8.1 10.5-11.8l-6.3-5.5c-3.1-2.7-2.4-6.3 1.5-8.6.2-.1.5-.3.7-.4l14.8-7.2c4.5-2.2 11.3-2.1 15.6.2l8.3 4.5c7.1-1.9 14.7-3.3 22.4-4l2.4-6.6c.5-1.4 1.6-2.5 3.2-3.5 2.4-1.4 5.7-2.1 9.3-2l19.3 1c5.9.3 10.5 3.1 10.7 6.5l.3 7.2c6.8 1.5 13.2 3.5 19.1 5.9l10.4-4c4.9-1.9 11.6-1.3 15.4 1.3l12.4 8.5c3.8 2.6 3.6 6.5-.4 9l-9 5.6c2.7 3.6 4.7 7.3 5.9 11.1l13 1.5c5.8.7 9.8 3.8 9.3 7.2l-1.7 11.1c-.3 1.7-1.5 3.1-3.4 4.2-2.1 1.2-4.8 1.9-7.9 2l-13.2.2c-2.4 3.8-5.6 7.4-9.5 10.8l7.4 6.5c3.1 2.7 2.4 6.3-1.5 8.6-.2.1-.4.2-.7.4l-14.8 7.2c-4.5 2.2-11.3 2.1-15.6-.2l-9.4-5.1c-6.7 1.9-13.8 3.2-21.1 4l-2.6 7.2c-.5 1.3-1.6 2.5-3.2 3.4-2.4 1.4-5.7 2.1-9.3 2l-19.2-.9c-5.9-.3-10.5-3.1-10.6-6.5l-.3-7.2c-6.9-1.4-13.5-3.4-19.5-5.8l-10 3.8c-4.9 1.9-11.6 1.3-15.4-1.3zm111-18.6c.8-.4 1.7-.8 2.4-1.3 13.8-8 15-20.9 2.3-29.6-13.4-9.2-37.3-10.4-53.3-2.6-.8.4-1.7.8-2.4 1.3-13.8 8-15 20.9-2.3 29.6 13.5 9.3 37.4 10.4 53.3 2.6" fill="#009bdb"/><path d="m311.2 391.9c-3.8-2.6-3.6-6.5.4-9l8.1-5c-3.1-3.8-5.3-7.8-6.7-11.9l-11.3-1.3c-5.9-.7-9.9-3.8-9.4-7.2l1.7-11.1c.2-1.6 1.5-3.1 3.4-4.2 2.1-1.2 4.8-1.9 7.9-2l11.2-.2c2.6-4.2 6.1-8.1 10.5-11.8l-6.3-5.5c-3.1-2.7-2.4-6.3 1.5-8.6.2-.1.5-.3.7-.4l14.8-7.2c4.5-2.2 11.3-2.1 15.6.2l8.3 4.5c7.1-1.9 14.7-3.3 22.4-4l2.4-6.6c.5-1.4 1.6-2.5 3.2-3.5 2.4-1.4 5.7-2.1 9.3-2l19.3 1c5.9.3 10.5 3.1 10.7 6.5l.3 7.2c6.8 1.5 13.2 3.5 19.1 5.9l10.4-4c4.9-1.9 11.6-1.3 15.4 1.3l12.4 8.5c3.8 2.6 3.6 6.5-.4 9l-9 5.6c2.7 3.6 4.7 7.3 5.9 11.1l13 1.5c5.8.7 9.8 3.8 9.3 7.2l-1.7 11.1c-.3 1.7-1.5 3.1-3.4 4.2-2.1 1.2-4.8 1.9-7.9 2l-13.2.2c-2.4 3.8-5.6 7.4-9.5 10.8l7.4 6.5c3.1 2.7 2.4 6.3-1.5 8.6-.2.1-.4.2-.7.4l-14.8 7.2c-4.5 2.2-11.3 2.1-15.6-.2l-9.4-5.1c-6.7 1.9-13.8 3.2-21.1 4l-2.6 7.2c-.5 1.3-1.6 2.5-3.2 3.4-2.4 1.4-5.7 2.1-9.3 2l-19.2-.9c-5.9-.3-10.5-3.1-10.6-6.5l-.3-7.2c-6.9-1.4-13.5-3.4-19.5-5.8l-10 3.8c-4.9 1.9-11.6 1.3-15.4-1.3zm111-18.6c.8-.4 1.7-.8 2.4-1.3 13.8-8 15-20.9 2.3-29.6-13.4-9.2-37.3-10.4-53.3-2.6-.8.4-1.7.8-2.4 1.3-13.8 8-15 20.9-2.3 29.6 13.5 9.3 37.4 10.4 53.3 2.6" fill="url(#c)"/><path d="m311.2 391.9c-3.8-2.6-3.6-6.5.4-9l8.1-5c-3.1-3.8-5.3-7.8-6.7-11.9l-11.3-1.3c-5.9-.7-9.9-3.8-9.4-7.2l1.7-11.1c.2-1.6 1.5-3.1 3.4-4.2 2.1-1.2 4.8-1.9 7.9-2l11.2-.2c2.6-4.2 6.1-8.1 10.5-11.8l-6.3-5.5c-3.1-2.7-2.4-6.3 1.5-8.6.2-.1.5-.3.7-.4l14.8-7.2c4.5-2.2 11.3-2.1 15.6.2l8.3 4.5c7.1-1.9 14.7-3.3 22.4-4l2.4-6.6c.5-1.4 1.6-2.5 3.2-3.5 2.4-1.4 5.7-2.1 9.3-2l19.3 1c5.9.3 10.5 3.1 10.7 6.5l.3 7.2c6.8 1.5 13.2 3.5 19.1 5.9l10.4-4c4.9-1.9 11.6-1.3 15.4 1.3l12.4 8.5c3.8 2.6 3.6 6.5-.4 9l-9 5.6c2.7 3.6 4.7 7.3 5.9 11.1l13 1.5c5.8.7 9.8 3.8 9.3 7.2l-1.7 11.1c-.3 1.7-1.5 3.1-3.4 4.2-2.1 1.2-4.8 1.9-7.9 2l-13.2.2c-2.4 3.8-5.6 7.4-9.5 10.8l7.4 6.5c3.1 2.7 2.4 6.3-1.5 8.6-.2.1-.4.2-.7.4l-14.8 7.2c-4.5 2.2-11.3 2.1-15.6-.2l-9.4-5.1c-6.7 1.9-13.8 3.2-21.1 4l-2.6 7.2c-.5 1.3-1.6 2.5-3.2 3.4-2.4 1.4-5.7 2.1-9.3 2l-19.2-.9c-5.9-.3-10.5-3.1-10.6-6.5l-.3-7.2c-6.9-1.4-13.5-3.4-19.5-5.8l-10 3.8c-4.9 1.9-11.6 1.3-15.4-1.3zm111-18.6c.8-.4 1.7-.8 2.4-1.3 13.8-8 15-20.9 2.3-29.6-13.4-9.2-37.3-10.4-53.3-2.6-.8.4-1.7.8-2.4 1.3-13.8 8-15 20.9-2.3 29.6 13.5 9.3 37.4 10.4 53.3 2.6" fill="#009bdb" opacity=".5"/></g><g enable-background="new"><path d="m287 454.7c0 .2 0 .4.1.6v.1c0 .2.1.3.2.5 0 0 0 .1.1.1.1.2.2.4.4.6 0 0 .1.1.1.1.1.2.3.3.5.5l4.2 3.7.1 34.9-4.2-3.7s-.1-.1-.1-.1c-.1-.1-.3-.3-.4-.4 0 0-.1-.1-.1-.1-.1-.2-.2-.3-.3-.5v-.1s0-.1-.1-.1c0-.1-.1-.1-.1-.2s0-.2-.1-.2v-.1-.1c0-.1 0-.3-.1-.4 0 0 0 0 0-.1z" fill="#4f82bd"/><path d="m398 462.5c.7-.4 1.2-.9 1.6-1.5.4-.5.5-1.1.5-1.6l.1 34.9c0 1.1-.7 2.2-2.1 3.1l-6 3.7-.1-34.9z" fill="#4f82bd"/><path d="m314.4 479.8c0-3.8 2.5-7.5 7.4-10.4.5-.3 1-.6 1.6-.9.7-.3 1.4-.6 2.1-.9h.1c.9-.3 1.7-.6 2.6-.9.1 0 .2-.1.3-.1.2-.1.4-.1.6-.1.5-.1 1-.3 1.5-.4.2 0 .4-.1.5-.1.2 0 .3-.1.5-.1.4-.1.9-.2 1.3-.2.2 0 .4-.1.7-.1.1 0 .3 0 .4-.1.4-.1.8-.1 1.2-.1.2 0 .5-.1.7-.1h.4c.4 0 .8-.1 1.3-.1h.8.4 1.4.8.3c.6 0 1.3.1 1.9.1h.6.1c1 .1 1.9.2 2.9.4h.3c.2 0 .5.1.7.2.4.1.9.2 1.3.3.3.1.7.2 1 .3.4.1.8.2 1.3.4.1 0 .3.1.4.1s.3.1.4.1c.8.3 1.6.6 2.3.9.1.1.3.1.4.2.8.4 1.6.8 2.4 1.3.1 0 .2.1.2.1.4.2.8.5 1.1.7.4.3.9.6 1.3.9.1.1.2.2.4.3s.3.3.5.4l.3.3.3.3c.3.3.6.6.8.9 0 0 .1.1.1.1s.1.1.1.1c.3.4.6.8.8 1.2 0 .1.1.1.1.2.1.1.1.2.2.3.1.3.3.6.4.8 0 .1.1.2.1.3s0 .2.1.3c.1.3.2.5.2.8 0 .1.1.2.1.3v.2c.1.3.1.6.1.9v.3.2l.1 34.9c0-.2 0-.4 0-.6 0-.3-.1-.6-.1-.9 0-.2-.1-.3-.1-.5-.1-.3-.1-.5-.2-.8-.1-.2-.1-.3-.2-.5-.1-.3-.2-.6-.4-.8-.1-.2-.2-.3-.3-.5-.2-.4-.5-.8-.8-1.2 0-.1-.1-.1-.1-.2 0 0-.1-.1-.1-.1-.2-.3-.5-.6-.8-.9-.1-.1-.2-.2-.3-.3-.2-.2-.5-.5-.8-.7-.1-.1-.2-.2-.4-.3-.4-.3-.8-.6-1.3-.9-.4-.3-.9-.6-1.4-.9-.8-.5-1.6-.9-2.4-1.3-.1-.1-.3-.1-.4-.2-.7-.3-1.5-.6-2.3-.9-.3-.1-.5-.2-.8-.3-.4-.1-.8-.2-1.3-.4-.3-.1-.7-.2-1-.3-.4-.1-.9-.2-1.3-.3-.3-.1-.7-.1-1-.2-.9-.2-1.9-.3-2.9-.4-.2 0-.5 0-.7-.1-.6-.1-1.3-.1-1.9-.1-.4 0-.7 0-1.1 0-.5 0-.9 0-1.4 0-.4 0-.8 0-1.2 0s-.8 0-1.3.1c-.4 0-.8.1-1.2.1s-.8.1-1.2.1-.7.1-1.1.2-.9.1-1.3.2c-.3.1-.7.1-1 .2-.5.1-1 .2-1.5.4-.3.1-.6.2-.9.3-.9.3-1.8.6-2.6.9h-.1c-.7.3-1.4.6-2.1.9-.6.3-1.1.6-1.6.9-2.4 1.4-4.3 3.1-5.5 4.8-.6.9-1.1 1.8-1.4 2.7-.2.5-.3.9-.3 1.4-.1.5-.1.9-.1 1.4z" fill="#82bdfc"/><path d="m269.5 481.4v.1c.1.2.2.4.3.6 0 0 .1.1.1.1.1.2.2.3.4.5l.2.2c.1.1.2.2.3.2.2.2.4.3.6.5.1.1.3.2.5.3.1.1.2.1.4.2s.4.2.6.3c.1 0 .2.1.4.1.1 0 .3.1.5.1.3.1.6.2.9.2.3.1.7.1 1.1.2l7.5.9.1 17.8-7.5-.9c-.3 0-.6-.1-.9-.1-.1 0-.1 0-.2-.1-.3-.1-.6-.1-.9-.2-.1 0-.2 0-.3-.1h-.1c-.1 0-.2-.1-.4-.1-.2-.1-.4-.2-.6-.3-.1-.1-.2-.1-.4-.2-.1-.1-.2-.1-.3-.2-.1 0-.1-.1-.2-.1-.2-.1-.4-.3-.6-.5-.1-.1-.1-.1-.2-.2 0 0-.1-.1-.1-.1-.1-.1-.1-.1-.2-.2s-.2-.2-.2-.2c-.1-.1-.1-.2-.2-.2 0 0-.1-.1-.1-.1s0-.1-.1-.1c-.1-.1-.2-.3-.2-.4v-.1-.1c0-.1 0-.1-.1-.2 0-.1 0-.3-.1-.4 0 0 0 0 0-.1l-.1-17.8c0 .2 0 .5.1.7z" fill="#6397db"/><path d="m403.6 490.8h.1c.4-.1.8-.1 1.2-.2.1 0 .2 0 .2-.1.4-.1.8-.2 1.2-.4s.8-.3 1.1-.5c1.3-.7 2.1-1.7 2.3-2.8l1.1-7.4c0-.1 0-.3 0-.4s.1 18.1.1 18.2l-1.1 7.4c-.2 1.1-1 2.1-2.3 2.8-.3.2-.7.4-1.1.5-.3.1-.6.2-.9.3-.1 0-.1 0-.2.1-.1 0-.2 0-.2.1-.1 0-.2.1-.4.1-.2.1-.5.1-.8.1h-.1-.1c-.2 0-.4 0-.6.1-.3 0-.5 0-.8 0h-.1l-.1-17.8c.5 0 1 0 1.5-.1z" fill="#82bdfc"/><path d="m393.4 491.1.1 17.8 8.8-.2-.1-17.8z" fill="#6397db"/><path d="m283 485.3c.1.4.8 1.3 1 1.7.3 1 .7 1.6 1.2 2.5 0 0 0 .1.1.1.5 1 1.4 2.6 2 3.6.1.2.3.4.4.6l.1 17.5c-.1-.1-.2-.3-.2-.4-.1-.1-.1-.2-.1-.3-.6-1-2.2-2-2.7-3 0 0 0-.1-.1-.1-.4-.9-.8-1.9-1.1-2.8 0-.1-.1-.2-.1-.3-.1-.3-.2-.6-.3-.9z" fill="#4f82bd"/><g clip-path="url(#d)" enable-background="new"><path d="m387.1 498.2.1.6c1.4 3.6 4.7 12.5 6.3 10l-.1-17.8c-1.6 2.6-3.7 5-6.3 7.2" fill="#4f82bd"/></g><path d="m307.1 507.1.1 17.8-6.7 2.6-.1-17.8z" fill="#4f82bd"/><path d="m280.2 501v.1c.1.2.2.4.3.7 0 0 .1.1.1.1.1.2.3.3.4.5l.2.2c.2.2.4.4.7.6l8.2 5.7c.3.2.5.3.8.5.1 0 .2.1.3.1.3.2.7.3 1.1.4s.9.3 1.4.3c.4.1.8.1 1.2.2h.2 1.2.1c.4 0 .8 0 1.3-.1h.2c.4-.1.8-.1 1.2-.2.1 0 .2 0 .2-.1.4-.1.8-.2 1.2-.4l.1 17.8c-.3.1-.6.2-.9.3-.1 0-.2 0-.3.1-.1 0-.2 0-.2.1-.1 0-.2 0-.3.1-.3.1-.5.1-.8.1h-.1c-.1 0-.1 0-.2 0-.2 0-.3 0-.5.1-.3 0-.5 0-.8 0h-.1c-.2 0-.4 0-.7 0-.2 0-.3 0-.5 0-.1 0-.2 0-.2 0h-.1c-.3 0-.7-.1-1-.1 0 0 0 0-.1 0-.5-.1-.9-.2-1.4-.3-.4-.1-.7-.3-1-.4-.1 0-.2-.1-.3-.1-.2-.1-.4-.2-.5-.3s-.2-.1-.3-.2l-8.3-5.8c-.2-.2-.4-.3-.6-.5 0 0-.1-.1-.1-.1-.1-.1-.1-.1-.2-.2s-.2-.2-.2-.2c-.1-.1-.1-.2-.2-.3 0 0-.1-.1-.1-.1s0 0 0-.1c-.1-.1-.2-.3-.2-.4v-.1-.1c0-.1 0-.1-.1-.2 0-.1 0-.3-.1-.4 0 0 0 0 0-.1l-.1-17.8c0 .1.1.3.1.6z" fill="#82bdfc"/><path d="m307.1 507.1c1.3.5 2.7 1 4.2 1.5.4.1.8.3 1.2.4.8.3 1.7.5 2.6.8l1.2.3c1.3.3 2.5.6 3.9.9l.1 17.8c-1.3-.3-2.6-.6-3.9-.9-.4-.1-.8-.2-1.2-.3-.9-.2-1.7-.5-2.6-.8-.2-.1-.4-.1-.6-.2s-.3-.1-.5-.2c-1.4-.5-2.8-1-4.2-1.5z" fill="#6397db"/><path d="m353.2 512c1.7-.2 3.3-.5 5-.9.4-.1.7-.1 1.1-.2 1.6-.4 3.3-.7 4.8-1.2l.1 17.8c-1.6.4-3.2.8-4.8 1.2-.2 0-.4.1-.6.1s-.3.1-.5.1c-1.6.3-3.3.6-5 .9-.1 0-.2 0-.3 0-.9.1-1.9.3-2.9.4l-.1-17.8c1.1-.1 2.2-.3 3.2-.4z" fill="#4f82bd"/><path d="m370.3 513.1.1 17.8-6.2-3.4-.1-17.8z" fill="#6397db"/><path d="m370.3 513.1c.4.2.9.4 1.4.6.2.1.3.1.5.2.3.1.5.1.8.2s.5.1.8.1h.3c.4 0 .8.1 1.2.1h.2 1.2.1c.4 0 .8-.1 1.2-.2h.1c.4-.1.7-.2 1.1-.3.1 0 .2-.1.4-.1.3-.1.7-.2 1-.4l9.8-4.8c.2-.1.3-.2.5-.2.8-.4 1.3-.9 1.7-1.5s.6-1.1.6-1.7l.1 17.8c0 1.2-.8 2.4-2.3 3.2-.1.1-.3.2-.5.2l-9.8 4.8c-.2.1-.4.2-.6.3-.1 0-.2.1-.4.1-.1 0-.2.1-.4.1-.1 0-.1.1-.2.1-.3.1-.5.1-.8.2 0 0 0 0-.1 0h-.1c-.2 0-.4.1-.6.1s-.4 0-.6.1h-.1s0 0-.1 0c-.3 0-.5 0-.8 0-.1 0-.3 0-.4 0s-.1 0-.2 0-.1 0-.2 0c-.3 0-.6 0-.9-.1h-.1c-.1 0-.2 0-.3 0-.2 0-.4 0-.5-.1-.1 0-.2 0-.3-.1-.3-.1-.6-.1-.8-.2-.1 0-.3-.1-.4-.1s-.1 0-.1-.1c-.5-.2-1-.4-1.4-.6z" fill="#82bdfc"/><path d="m320 511 .1 17.8.2 4.8-.1-17.8z" fill="#4f82bd"/><path d="m348.4 517.2.1 17.8 1.7-4.8-.1-17.8z" fill="#6397db"/><path d="m320.4 516.6c.1.3.2.5.4.7 0 0 .1.1.1.1l.6.6c.3.2.6.5.9.7s.6.3.9.5c.1 0 .2.1.3.1.2.1.5.2.8.3s.6.2.9.2c.2 0 .3.1.5.1h.3c.4.1.8.1 1.2.1l12.8.6h1.7c.6 0 1.1-.1 1.6-.2h.1c.4-.1.9-.2 1.2-.4.1 0 .2 0 .2-.1.4-.2.9-.4 1.2-.6 1.1-.6 1.8-1.4 2.1-2.3l.1 17.8c-.3.9-1.1 1.7-2.1 2.3-.3.2-.7.4-1.1.5h-.1c-.1 0-.2 0-.2.1-.2.1-.4.1-.6.2s-.4.1-.6.2h-.1s0 0-.1 0c-.3.1-.5.1-.8.1-.2 0-.5.1-.8.1-.2 0-.5 0-.7 0-.3 0-.5 0-.8 0-.1 0-.1 0-.2 0l-12.8-.6c-.2 0-.4 0-.7 0-.2 0-.4-.1-.6-.1-.1 0-.2 0-.3 0h-.1c-.1 0-.3-.1-.4-.1-.3-.1-.6-.1-.9-.2-.1 0-.1 0-.2 0-.2-.1-.4-.1-.6-.2-.1 0-.2-.1-.3-.1-.3-.1-.6-.3-.9-.5-.3-.2-.6-.4-.9-.7-.2-.2-.3-.3-.5-.5 0 0 0-.1-.1-.1 0 0-.1-.1-.1-.1-.1-.1-.1-.2-.2-.2-.1-.1-.1-.3-.2-.4 0-.1-.1-.3-.1-.4s0-.3 0-.4l-.1-17.8c.1.2.2.4.3.7z" fill="#82bdfc"/><path d="m282 503.2c-2.5-1.7-2.4-4.3.3-6l5.4-3.3c-2-2.5-3.5-5.2-4.4-7.9l-7.5-.9c-3.9-.4-6.6-2.5-6.2-4.8l1.1-7.4c.2-1.1 1-2.1 2.3-2.8 1.4-.8 3.2-1.3 5.3-1.3l7.4-.1c1.7-2.8 4-5.4 6.9-7.8l-4.2-3.7c-2-1.8-1.6-4.2 1-5.7.2-.1.3-.2.5-.3l9.8-4.8c3-1.5 7.5-1.4 10.3.2l5.5 3c4.7-1.3 9.7-2.2 14.9-2.7l1.6-4.4c.3-.9 1.1-1.7 2.1-2.3 1.6-.9 3.8-1.4 6.2-1.3l12.8.7c3.9.2 7 2.1 7.1 4.3l.2 4.8c4.5 1 8.8 2.3 12.7 4l6.9-2.6c3.3-1.3 7.7-.9 10.2.8l8.2 5.7c2.5 1.8 2.4 4.3-.3 6l-6 3.7c1.8 2.4 3.1 4.8 3.9 7.4l8.6 1c3.9.5 6.5 2.5 6.2 4.8l-1.1 7.4c-.2 1.1-1 2.1-2.3 2.8-1.4.8-3.2 1.3-5.3 1.3l-8.8.2c-1.6 2.5-3.7 4.9-6.3 7.1l4.9 4.3c2.1 1.8 1.6 4.2-1 5.7-.1.1-.3.2-.5.2l-9.8 4.8c-3 1.5-7.5 1.4-10.3-.2l-6.2-3.4c-4.5 1.2-9.2 2.1-14 2.7l-1.7 4.8c-.3.9-1.1 1.7-2.1 2.3-1.6.9-3.8 1.4-6.2 1.3l-12.8-.6c-3.9-.2-7-2.1-7.1-4.3l-.2-4.9c-4.6-1-9-2.3-13-3.8l-6.6 2.5c-3.3 1.3-7.7.9-10.2-.8zm73.7-12.4c.6-.3 1.1-.6 1.6-.9 9.1-5.3 10-13.9 1.5-19.7-8.9-6.1-24.8-6.9-35.4-1.7-.6.3-1.1.6-1.6.9-9.2 5.3-10 13.9-1.5 19.7 8.9 6.1 24.8 6.9 35.4 1.7" fill="#b6ddfd"/></g><path d="m339.3 283.6v96.8l99.1-57.2v-88l-73.7 42.5-2.5-7.3z" fill="#1b2d88"/><path d="m339.3 380.4 5.1-88 99.1-57.2-5.1 88z" fill="#cbe3fe"/><path d="m339.3 380.4 7.6-86.5 99.1-57.2-7.6 86.5z" fill="#1b2d88"/><path d="m357.1 293.9v96.7l99.1-57.2v-87.9l-73.7 42.5-2.5-7.3z" fill="#f8c24d"/><path d="m385.6 322.5c-.2 0-.3-.3-.3-.5v-82.6c0-.6.4-1.3.9-1.6l71.5-41.3c.1-.1.2-.1.3-.1.2 0 .3.3.3.5v82.6c0 .6-.4 1.3-.9 1.6l-71.4 41.3c-.2 0-.3.1-.4.1z" fill="#fff"/><path d="m458.1 196.8v.1 82.6c0 .5-.4 1.1-.8 1.3l-71.5 41.3c-.1 0-.1 0-.1.1v-.1-82.6c0-.5.4-1.1.8-1.3l71.5-41.3c0-.1 0-.1.1-.1m0-.6c-.1 0-.3 0-.5.1l-71.5 41.3c-.6.3-1.1 1.2-1.1 1.9v82.5c0 .5.2.8.6.8.1 0 .3 0 .5-.1l71.5-41.3c.6-.3 1.1-1.2 1.1-1.9v-82.6c0-.5-.2-.7-.6-.7z" fill="#cbe3fe"/><path d="m392.7 242.6 25.4-14.7v29.4l-25.4 14.6z" fill="#deedfe"/><path d="m414.3 235.3v8.8l-.8.4s0-1.2 0-2.7-1.2-2-2.7-1.1l-10.8 6.2c-1.5.9-2.7 2.8-2.7 4.3v2.7l-.8.5v-8.8z" fill="#fff"/><path d="m409.4 257.7c-1.3.8-2.4 0-2.4-1.8v-14.1l-3.3 1.8v14.2c0 1.7-1.1 3.7-2.4 4.5l-2.4 1.4v.9l12.7-7.3v-.9c.1-.1-.9.5-2.2 1.3z" fill="#fff"/><g fill="#b7d4fb"><path d="m423.1 226.5c0 .8.7 1 1.6.5l24.7-14.3c.9-.5 1.6-1.6 1.6-2.4s-.7-1-1.6-.5l-24.7 14.3c-.8.5-1.6 1.6-1.6 2.4z"/><path d="m423.1 235.3c0 .8.7 1 1.6.5l24.7-14.3c.9-.5 1.6-1.6 1.6-2.4s-.7-1-1.6-.5l-24.7 14.3c-.8.5-1.6 1.6-1.6 2.4z"/><path d="m423.1 244.1c0 .8.7 1 1.6.5l24.7-14.3c.9-.5 1.6-1.6 1.6-2.4s-.7-1-1.6-.5l-24.7 14.3c-.8.5-1.6 1.6-1.6 2.4z"/><path d="m423.1 252.9c0 .8.7 1 1.6.5l24.7-14.3c.9-.5 1.6-1.6 1.6-2.4s-.7-1-1.6-.5l-24.7 14.3c-.8.5-1.6 1.6-1.6 2.4z"/><path d="m392.7 279.3c0 .8.7 1 1.6.5l55.2-31.9c.9-.5 1.6-1.6 1.6-2.4s-.7-1-1.6-.5l-55.2 31.9c-.9.5-1.6 1.6-1.6 2.4z"/><path d="m392.7 288.1c0 .8.7 1 1.6.5l55.2-31.9c.9-.5 1.6-1.6 1.6-2.4s-.7-1-1.6-.5l-55.2 31.9c-.9.5-1.6 1.6-1.6 2.4z"/><path d="m392.7 296.9c0 .8.7 1 1.6.5l55.2-31.9c.9-.5 1.6-1.6 1.6-2.4s-.7-1-1.6-.5l-55.2 31.9c-.9.5-1.6 1.6-1.6 2.4z"/></g><path d="m357.1 390.6 17.8-77.7 99-57.2-17.7 77.7z" fill="#ffd569"/><path d="m203.9 468.3-27-15.5v-57.8l27 15.6z" fill="#76aadb"/><path d="m203.9 410.6 38.4-22.3v57.8l-38.4 22.2z" fill="#4a72b2"/><path d="m242.3 388.3-38.4 22.3-27-15.6 38.5-22.2z" fill="#009bdb"/><path d="m242.3 388.3-38.4 22.3-27-15.6 38.5-22.2z" fill="url(#e)"/><path d="m242.3 388.3-38.4 22.3-27-15.6 38.5-22.2z" fill="#009bdb" opacity=".5"/><path d="m242.3 381.3-38.4 22.3-27-15.6 38.5-22.2z" fill="#009bdb" opacity=".5"/><path d="m242.3 373.3-38.4 22.3-27-15.6 38.5-22.2z" fill="#009bdb" opacity=".5"/><path d="m207.7 412.8 30.8-17.8.7.4v21.4l-30.8 17.8-.7-.4z" fill="#009bdb" opacity=".5"/><path d="m208.4 413.2 30.8-17.8v21.4l-30.8 17.8z" fill="#b6ddfd"/><path d="m220.5 409.8 5.2-3c.7-.4 1.2-.2 1.2.4s-.6 1.4-1.2 1.8l-5.2 3c-.7.4-1.2.2-1.2-.4-.1-.5.5-1.4 1.2-1.8z" fill="#4a72b2"/><path d="m207 439.9 30.8-17.8v21.4l.7.4-30.8 17.8-.7-.5z" fill="#009bdb" opacity=".5"/><path d="m207.7 440.3 30.8-17.8v21.4l-30.8 17.8z" fill="#b6ddfd"/><path d="m219.8 436.9 5.2-3c.7-.4 1.2-.2 1.2.4s-.6 1.4-1.2 1.8l-5.2 3c-.7.4-1.2.2-1.2-.4-.1-.6.5-1.4 1.2-1.8z" fill="#4a72b2"/></svg>