<svg enable-background="new 0 0 491.9 556.4" viewBox="0 0 491.9 556.4" xmlns="http://www.w3.org/2000/svg" xmlns:xlink="http://www.w3.org/1999/xlink"><radialGradient id="a" cx="320.4585" cy="405.4154" gradientUnits="userSpaceOnUse" r="65.6039"><stop offset=".2742" stop-color="#d6d5d5"/><stop offset=".412" stop-color="#9c9b9b"/><stop offset=".5593" stop-color="#656464"/><stop offset=".6964" stop-color="#393939"/><stop offset=".8189" stop-color="#1a1a1a"/><stop offset=".9222" stop-color="#070707"/><stop offset=".994"/></radialGradient><linearGradient id="b"><stop offset=".0129407" stop-color="#53939b"/><stop offset=".6623" stop-color="#8ebea1"/><stop offset=".9994" stop-color="#a7d0a3"/></linearGradient><linearGradient id="c" gradientTransform="matrix(-1 0 0 1 1005.4062 0)" gradientUnits="userSpaceOnUse" x1="790.4963" x2="790.6601" xlink:href="#b" y1="474.3211" y2="474.3211"/><linearGradient id="d" gradientTransform="matrix(-1 0 0 1 1005.4062 0)" gradientUnits="userSpaceOnUse" x1="794.4498" x2="794.475" xlink:href="#b" y1="479.9248" y2="479.9248"/><linearGradient id="e" gradientTransform="matrix(-1 0 0 1 1005.4062 0)" gradientUnits="userSpaceOnUse" x1="794.2985" x2="794.345" xlink:href="#b" y1="479.4007" y2="479.4007"/><linearGradient id="f" gradientTransform="matrix(-1 0 0 1 1005.4062 0)" gradientUnits="userSpaceOnUse" x1="790.7458" x2="791.0803" xlink:href="#b" y1="474.3818" y2="474.3818"/><linearGradient id="g"><stop offset=".0310897" stop-color="#adaadd"/><stop offset=".1898" stop-color="#bdbbe2"/><stop offset=".5166" stop-color="#dad9ea"/><stop offset=".798" stop-color="#ebebef"/><stop offset="1" stop-color="#f1f1f1"/></linearGradient><linearGradient id="h" gradientUnits="userSpaceOnUse" x1="422.0724" x2="294.9048" xlink:href="#g" y1="653.2291" y2="521.9923"/><linearGradient id="i" gradientUnits="userSpaceOnUse" x1="422.522" x2="295.3545" xlink:href="#g" y1="652.7934" y2="521.5566"/><linearGradient id="j" gradientUnits="userSpaceOnUse" x1="427.3252" x2="300.1576" xlink:href="#g" y1="648.1393" y2="516.9024"/><linearGradient id="k" gradientUnits="userSpaceOnUse" x1="427.1235" x2="299.9558" xlink:href="#g" y1="648.3349" y2="517.098"/><linearGradient id="l" gradientUnits="userSpaceOnUse" x1="422.1843" x2="295.072" xlink:href="#g" y1="653.0222" y2="521.8423"/><linearGradient id="m" gradientUnits="userSpaceOnUse" x1="422.8574" x2="295.6899" xlink:href="#g" y1="652.4684" y2="521.2316"/><linearGradient id="n" gradientUnits="userSpaceOnUse" x1="425.027" x2="297.8593" xlink:href="#g" y1="650.3662" y2="519.1292"/><linearGradient id="o" gradientUnits="userSpaceOnUse" x1="360.6775" x2="394.2998" xlink:href="#b" y1="445.8278" y2="382.786"/><linearGradient id="p" gradientUnits="userSpaceOnUse" x1="360.8885" x2="394.5514" xlink:href="#b" y1="445.7985" y2="382.6807"/><linearGradient id="q" gradientUnits="userSpaceOnUse" x1="361.1526" x2="394.7834" xlink:href="#b" y1="446.0485" y2="382.9908"/><linearGradient id="r" gradientUnits="userSpaceOnUse" x1="361.4169" x2="395.068" xlink:href="#b" y1="446.1227" y2="383.0268"/><linearGradient id="s" gradientUnits="userSpaceOnUse" x1="360.6212" x2="394.2795" xlink:href="#b" y1="445.6723" y2="382.563"/><linearGradient id="t" gradientTransform="matrix(-1 0 0 1 1005.4062 0)" gradientUnits="userSpaceOnUse" x1="803.4658" x2="803.6296" xlink:href="#b" y1="480.7043" y2="480.7043"/><linearGradient id="u" gradientTransform="matrix(-1 0 0 1 1005.4062 0)" gradientUnits="userSpaceOnUse" x1="807.4192" x2="807.4444" xlink:href="#b" y1="486.308" y2="486.308"/><linearGradient id="v" gradientTransform="matrix(-1 0 0 1 1005.4062 0)" gradientUnits="userSpaceOnUse" x1="807.268" x2="807.3144" xlink:href="#b" y1="485.7839" y2="485.7839"/><linearGradient id="w" gradientTransform="matrix(-1 0 0 1 1005.4062 0)" gradientUnits="userSpaceOnUse" x1="803.7153" x2="804.0498" xlink:href="#b" y1="480.765" y2="480.765"/><linearGradient id="x" gradientTransform="matrix(-1 0 0 1 1005.4062 0)" gradientUnits="userSpaceOnUse" x1="807.4854" x2="807.4966" xlink:href="#b" y1="487.1483" y2="487.1483"/><linearGradient id="y" gradientUnits="userSpaceOnUse" x1="412.6431" x2="285.4756" xlink:href="#g" y1="662.3659" y2="531.1292"/><linearGradient id="z" gradientUnits="userSpaceOnUse" x1="417.4463" x2="290.2787" xlink:href="#g" y1="657.7119" y2="526.475"/><linearGradient id="A" gradientUnits="userSpaceOnUse" x1="417.2445" x2="290.0768" xlink:href="#g" y1="657.9075" y2="526.6705"/><linearGradient id="B" gradientUnits="userSpaceOnUse" x1="412.9411" x2="285.8142" xlink:href="#g" y1="662.0025" y2="530.8076"/><linearGradient id="C" gradientUnits="userSpaceOnUse" x1="415.148" x2="287.9803" xlink:href="#g" y1="659.9387" y2="528.7017"/><linearGradient id="D" gradientUnits="userSpaceOnUse" x1="347.7081" x2="381.3304" xlink:href="#b" y1="452.211" y2="389.1692"/><linearGradient id="E" gradientUnits="userSpaceOnUse" x1="347.9079" x2="381.563" xlink:href="#b" y1="452.2027" y2="389.0993"/><linearGradient id="F" gradientUnits="userSpaceOnUse" x1="348.1832" x2="381.814" xlink:href="#b" y1="452.4316" y2="389.3739"/><linearGradient id="G" gradientUnits="userSpaceOnUse" x1="348.4474" x2="382.0986" xlink:href="#b" y1="452.5059" y2="389.4099"/><linearGradient id="H" gradientUnits="userSpaceOnUse" x1="347.6517" x2="381.31" xlink:href="#b" y1="452.0554" y2="388.9461"/><g fill="#009bdb" opacity=".5" stroke="#009bdb" stroke-miterlimit="10" stroke-width="20"><path d="m23.4 147.6c0-48.5 25.5-76.2 72.3-76.2 46.7 0 72.3 27.7 72.3 76.2v157.5c0 48.5-25.5 76.2-72.3 76.2-46.7 0-72.3-27.7-72.3-76.2zm47.6 160.5c0 21.6 9.5 29.9 24.7 29.9 15.1 0 24.7-8.2 24.7-29.9v-163.5c0-21.6-9.5-29.9-24.7-29.9-15.1 0-24.7 8.2-24.7 29.9z"/><path d="m250.1 280v28.1c0 21.6 9.5 29.4 24.7 29.4s24.7-7.8 24.7-29.4v-66.6c0-21.6-9.5-29.9-24.7-29.9s-24.7 8.2-24.7 29.9v9.1h-45l8.7-175.7h125.5v43.3h-82.6l-3.9 72.3c8.7-14.3 22.5-22.1 41.5-22.1 35 0 52.8 24.7 52.8 69.2v67.5c0 48.5-24.2 76.2-71 76.2-46.7 0-71-27.7-71-76.2v-25.1z"/></g><path d="m213.2 520.8 62.3-36.6 62.9 36.3-62.9 35.9z" fill="#009bdb" opacity=".3"/><path d="m148.4 483 62.3-36.7 62.8 36.3-62.8 36z" fill="#009bdb" opacity=".1"/><g opacity=".59"><path d="m240.1 406.1v11.5l79.9 47.1v-12.9z" fill="#76aadb"/><path d="m240.1 406.1 79.9-47.1 80.8 46.7-80.8 46.1z" fill="#009bdb"/><path d="m400.8 405.7v11.9l-80.8 47.1v-12.9z" fill="#4a72b2"/></g><path d="m240.1 406.1 79.9-47.1 80.8 46.7-80.8 46.1z" fill="url(#a)"/><path d="m240.1 384.8v11.5l79.9 47.1v-12.9z" fill="#76aadb"/><path d="m240.1 384.8 79.9-47.1 80.8 46.6-80.8 46.2z" fill="#009bdb" opacity=".5"/><path d="m400.8 384.3v12l-80.8 47.1v-12.9z" fill="#4a72b2"/><path d="m429.4 244.3-.5 178.7-110-63.5.5-178.7z" fill="#fff"/><g fill="#5990c5" opacity=".26"><path d="m370.8 268v3.1l-41.8-24.2v-3z"/><path d="m370.7 274.7v3.1l-41.7-24.1v-3.1z"/><path d="m402 249.9-.1 4.9-55.6-32.1v-4.9z"/><path d="m370.6 315.4v3l-41.7-24.1v-3z"/><path d="m370.5 356v3l-41.7-24.1v-3z"/><path d="m370.5 349.2v3.1l-41.7-24.1v-3.1z"/><path d="m370.6 342.4-.1 3.1-41.7-24.1v-3.1z"/><path d="m370.6 335.7v3l-41.8-24.1v-3z"/><path d="m370.6 328.9v3.1l-41.8-24.1v-3.1z"/><path d="m370.6 322.1v3.1l-41.7-24.1v-3.1z"/><path d="m370.7 308.6-.1 3.1-41.7-24.1v-3.1z"/><path d="m370.7 301.8v3.1l-41.8-24.1v-3.1z"/><path d="m370.7 295v3.1l-41.8-24.1v-3.1z"/><path d="m370.7 288.3v3.1l-41.8-24.1.1-3.1z"/><path d="m370.7 281.5v3.1l-41.7-24.1v-3.1z"/><path d="m370.8 261.2v3.1l-41.8-24.1v-3.1z"/><path d="m370.8 254.4v3.1l-41.8-24.1.1-3.1z"/><path d="m417.5 281.4v3.1l-41.8-24.1v-3.1z"/><path d="m417.3 322v3.1l-41.7-24.1v-3.1z"/><path d="m417.4 315.2v3.1l-41.8-24.1v-3.1z"/><path d="m417.3 342.3v3.1l-41.8-24.1v-3.1z"/><path d="m417.3 349.1v3l-41.8-24.1v-3.1z"/><path d="m417.2 362.6v3.1l-41.7-24.1v-3.1z"/><path d="m417.3 355.8-.1 3.1-41.7-24.1v-3.1z"/><path d="m417.3 335.5v3.1l-41.8-24.1v-3.1z"/><path d="m417.3 328.8v3l-41.7-24.1v-3.1z"/><path d="m417.4 308.5v3l-41.8-24.1v-3.1z"/><path d="m417.4 294.9v3.1l-41.7-24.1v-3.1z"/><path d="m417.4 301.7v3.1l-41.8-24.1v-3.1z"/><path d="m417.4 288.2v3l-41.7-24.1v-3.1z"/><path d="m417.2 382.9v3.1l-41.8-24.1v-3.1z"/><path d="m417.2 376.1v3.1l-41.8-24.1v-3.1z"/><path d="m417.2 369.4v3.1l-41.8-24.2.1-3z"/></g><path d="m415.4 244.4c3.2 1.8 5.7 6.3 5.7 9.9s-2.6 5.1-5.8 3.3-5.7-6.3-5.7-9.9 2.7-5.1 5.8-3.3z" fill="#d8271d" opacity=".9"/><path d="m491.9 339.8-.5 178.7-110-63.5.5-178.7z" fill="#e8f4fb"/><g fill="#5990c5" opacity=".26"><path d="m433.8 350.2v3l-41.7-24.1v-3z"/><path d="m433.7 384v3.1l-41.7-24.1v-3.1z"/><path d="m433.7 390.8v3.1l-41.7-24.2v-3z"/><path d="m481.4 479.3v3.1l-89.6-51.7v-3.1z"/><path d="m481.4 472.5v3.1l-89.6-51.7v-3.1z"/><path d="m481.4 465.8v3l-89.6-51.7v-3.1z"/><path d="m481.4 459v3.1l-89.6-51.7.1-3.1z"/><path d="m481.4 452.2v3.1l-89.5-51.7v-3.1z"/><path d="m481.5 445.5v3l-89.6-51.7v-3.1z"/><path d="m481.5 438.7v3.1l-89.6-51.7v-3.1z"/><path d="m480.3 377-.2 57.2-41.5-24 .1-57.2z"/><path d="m433.7 404.3v3.1l-41.8-24.1v-3.1z"/><path d="m433.7 397.5v3.1l-41.8-24.1v-3.1z"/><path d="m433.8 377.2v3.1l-41.8-24.1v-3.1z"/><path d="m433.8 363.7v3.1l-41.8-24.1v-3.1z"/><path d="m433.8 370.5v3.1l-41.8-24.2v-3z"/><path d="m433.8 356.9v3.1l-41.7-24.1v-3.1z"/><path d="m465 345.6v4.9l-55.6-32.1v-4.9z"/></g><path d="m395 293c3.2 1.8 5.7 6.3 5.7 9.9s-2.6 5.1-5.8 3.3-5.7-6.3-5.7-9.9c.1-3.7 2.7-5.1 5.8-3.3z" fill="#76aadb"/><path d="m474.8 340.1c3.2 1.8 5.7 6.3 5.7 9.9s-2.6 5.1-5.8 3.3-5.7-6.3-5.7-9.9c.1-3.7 2.6-5.2 5.8-3.3z" fill="#76aadb"/><g fill="none" stroke="#f64444" stroke-miterlimit="10" stroke-width="3.7416"><path d="m343.1 273.4-27.7 137.2"/><path d="m322 261.6-27.6 137.2"/><path d="m319.7 274.6 19.5 11"/><path d="m316.2 290.5 19.5 11"/><path d="m313.8 308 19.5 11"/><path d="m310.5 323.1 19.5 11"/><path d="m307.3 339.6 19.6 11"/><path d="m304 354.9 19.5 11"/><path d="m300.7 371.2 19.6 11"/><path d="m297.4 387.6 19.5 11"/></g><g opacity=".1"><path d="m204.3 477.8c0-.1 0-.2 0-.3v-.1c0-.1.1-.3.1-.4.3-.7.8-1.5 1.2-1.7.1-.1.2-.1.2-.1-1.5-.4-3-.8-4.5-1.2-.1 0-.2.2-.3.4v.1c1.1 1.1 2.2 2.2 3.3 3.3.1.1 0 .1 0 0z"/><path d="m214.9 477.7v-.1z"/><path d="m211 484.3c0-.1-.1-.1-.1-.2v-.1c0-.1 0-.2 0-.3v-.1c0-.1 0-.3.1-.4v-.1c0-.1.1-.3.1-.4 0 0 0-.1 0-.2.1-.2.1-.4.2-.6.7-1.8 2.1-3.7 3-4.3.1-.1.2-.1.3-.1h.1.1c-3-.8-6-1.6-9-2.4-.1 0-.1 0-.2.1-.4.2-.9 1-1.2 1.7-.1.2-.1.3-.1.4v.1.3c0 .1 0 .1.1.1 2.2 2.3 4.4 4.4 6.6 6.5 0 .1 0 .1 0 0z"/><path d="m214.9 477.7c0-.1 0-.1 0 0-.1 0-.1 0-.2 0 .1-.1.2-.1.2 0z"/><path d="m211 483.2v.1c-.1 0-.1-.1 0-.1z"/><path d="m211.1 482.6v.2c0-.1 0-.1 0-.2z"/><path d="m214.3 477.8c.1-.1.2-.1.3-.1 0-.1-.1 0-.3.1z"/><path d="m210.9 483.7s0 .1 0 0z"/><path d="m308.9 540c0-.1-.1-.1-.1-.2v-.1c0-.1 0-.2 0-.3v-.1c0-.1 0-.3.1-.4v-.1c0-.1.1-.3.1-.4v-.1c.1-.2.1-.4.2-.6.7-1.8 2.1-3.7 3-4.3.1-.1.2-.1.3-.1h.1.2c-2.3-1.3-4.7-2.7-7.1-4.1l-6.9-3.9c-4.2-2.4-8.6-4.9-13-7.4l-7.7-4.4c-.7-.4-1.4-.8-2.1-1.2l-15.9-9c-2.7-1.6-5.5-3.1-8.2-4.7l-2-1.1c-2.6-1.5-5.2-3-7.8-4.4l-13-7.4c-2.4-1.3-4.7-2.7-7-4l-7.1-4s-.1 0-.2 0h-.1c-.1 0-.2.1-.3.1-.9.6-2.3 2.5-3 4.3-.1.2-.1.4-.2.6v.2c0 .1-.1.3-.1.4v.1c0 .1 0 .3-.1.4v.1.3.1c0 .1 0 .2.1.2s.1.1.1.1c2.3 1.3 4.7 2.7 7.1 4l6.9 3.9c4.2 2.4 8.6 4.9 13 7.4l7.8 4.4 2.1 1.2 8.2 4.6 15.9 9 2.1 1.2c2.6 1.5 5.2 2.9 7.8 4.4l13 7.4c2.4 1.3 4.7 2.6 6.9 3.9l7.1 4c-.1 0-.1 0-.2 0z"/><path d="m308.9 539.7c-.1 0 0 0 0 0z"/><path d="m308.9 538.8v.1z"/><path d="m312.7 533.2h.2c-.1 0-.1 0-.2 0z"/><path d="m312.3 533.4c.1-.1.2-.1.3-.1-.1 0-.2 0-.3.1z"/><path d="m308.8 539.3c0 .1 0 .1 0 0z"/><path d="m309.1 538.3v.1c-.1 0 0-.1 0-.1z"/><path d="m312.1 541.8s-.1-.1-.1-.1-.1-.1-.1-.2c0 0 0 0 0-.1v-.1c0-.1 0-.2 0-.3v-.1c0-.1 0-.3.1-.4v-.1c0-.1.1-.3.1-.4v-.1c.1-.2.1-.4.2-.6.7-1.8 2.1-3.7 3-4.3.1-.1.2-.1.3-.1h.1.2l-1.5-.9c-.5-.3-1.1-.6-1.5-.9s-.1 0-.2 0c0 0 0 0-.1 0-.1 0-.2.1-.3.1-.9.6-2.3 2.5-3 4.3-.1.2-.1.4-.2.6v.1c0 .1-.1.3-.1.4v.1c0 .1 0 .3-.1.4v.1.3.1c0 .1 0 .2.1.2s.1.1.1.1l1.5.9z"/><path d="m311.9 540.6v-.1z"/><path d="m315.3 535.1c.1-.1.2-.1.3-.1-.1 0-.2 0-.3.1z"/><path d="m315.7 535h.2c-.1 0-.1 0-.2 0z"/><path d="m312 540.1v-.1c.1 0 .1.1 0 .1z"/><path d="m315.7 535c-.2 0-.3.1-.4.1-.9.6-2.3 2.5-3 4.3-.1.2-.1.4-.2.6v.1c0 .1-.1.3-.1.4v.1c0 .1-.1.3-.1.4v.1.3.1.1c0 .1 0 .1.1.2s.1.1.1.1l7.9 4.5c.5.3 1 .5 1.4.8.3.2.7.3 1.1.3s.7-.1 1.1-.3c.2-.1.3-.2.5-.4.1-.1.2-.2.4-.4 0 0 .1 0 .1-.1.1-.2.3-.3.4-.5.1-.2.3-.4.4-.5 0 0 0-.1.1-.1.1-.1.2-.3.2-.4 0 0 0-.1.1-.1.2-.3.3-.6.3-.7s0-.1.1-.2c0-.1.1-.2.1-.3s0-.1.1-.2v-.1c0-.1 0-.1 0-.2s0-.2.1-.3c0-.1 0-.2 0-.2 0-.1 0-.2 0-.3s0-.1 0-.2 0-.2-.1-.3v-.1c0-.1-.1-.2-.1-.2 0-.1-.1-.1-.1-.2 0 0-.1-.1-.1-.1-.2-.3-.5-.5-.6-.6l-2.8-1.6c-.4-.2-.8-.4-1.2-.7l-2.6-1.5c-1-.6-1.9-1.1-2.8-1.6-.3-.1-.3-.1-.4-.1z"/></g><path d="m204.3 474.5c0-.1 0-.2 0-.3v-.1c0-.1.1-.3.1-.4.3-.7.8-1.5 1.2-1.7.1-.1.2-.1.2-.1-1.5-.4-3-.8-4.5-1.2-.1 0-.2.2-.3.4v.1l3.3 3.3c.1.1 0 0 0 0z" fill="#1b2d88"/><path d="m211 481c0-.1-.1-.1-.1-.2v-.1c0-.1 0-.2 0-.3v-.1c0-.1 0-.3.1-.4v-.1c0-.1.1-.3.1-.4 0 0 0-.1 0-.2.1-.2.1-.4.2-.6.7-1.8 2.1-3.7 3-4.3.1-.1.2-.1.3-.1h.1.1c-3-.8-6-1.6-9-2.4-.1 0-.1 0-.2.1-.4.2-.9 1-1.2 1.7-.1.2-.1.3-.1.4v.1.3c0 .1 0 .1.1.1 2.2 2.3 4.4 4.4 6.6 6.5 0 .1 0 .1 0 0z" fill="#dbe1f0"/><path d="m214.9 474.3c-.1 0-.1 0-.2 0z" fill="url(#c)"/><path d="m211 479.9v.1c-.1-.1-.1-.1 0-.1z" fill="url(#d)"/><path d="m211.1 479.3v.2c0-.1 0-.1 0-.2z" fill="url(#e)"/><path d="m214.3 474.5c.1-.1.2-.1.3-.1 0-.1-.1 0-.3.1z" fill="url(#f)"/><path d="m308.9 536.6c0-.1-.1-.1-.1-.2v-.1c0-.1 0-.2 0-.3v-.1c0-.1 0-.3.1-.4v-.1c0-.1.1-.3.1-.4v-.1c.1-.2.1-.4.2-.6.7-1.8 2.1-3.7 3-4.3.1-.1.2-.1.3-.1h.1.2c-2.3-1.3-4.7-2.7-7.1-4.1l-6.9-3.9c-4.2-2.4-8.6-4.9-13-7.4l-7.7-4.4c-.7-.4-1.4-.8-2.1-1.2l-15.9-9c-2.7-1.6-5.5-3.1-8.2-4.7l-2-1.1c-2.6-1.5-5.2-3-7.8-4.4l-13-7.4c-2.4-1.3-4.7-2.7-7-4l-7.1-4s-.1 0-.2 0h-.1c-.1 0-.2.1-.3.1-.9.6-2.3 2.5-3 4.3-.1.2-.1.4-.2.6v.2c0 .1-.1.3-.1.4v.1c0 .1 0 .3-.1.4v.1.3.1c0 .1 0 .2.1.2s.1.1.1.1c2.3 1.3 4.7 2.7 7.1 4l6.9 3.9c4.2 2.4 8.6 4.9 13 7.4l7.8 4.4c.7.4 1.4.8 2.1 1.2l8.2 4.6c5.3 3 10.6 6 15.9 9l2.1 1.2c2.6 1.5 5.2 2.9 7.8 4.4l13 7.4c2.4 1.3 4.7 2.6 6.9 3.9l7.1 4c-.1.1-.1.1-.2 0z" fill="#ffd569"/><path d="m308.9 536.4c-.1 0 0 0 0 0z" fill="url(#h)"/><path d="m308.9 535.5v.1z" fill="url(#i)"/><path d="m312.7 529.9h.2c-.1 0-.1 0-.2 0z" fill="url(#j)"/><path d="m312.3 530.1c.1-.1.2-.1.3-.1-.1 0-.2 0-.3.1z" fill="url(#k)"/><path d="m308.8 536s0 .1 0 0z" fill="url(#l)"/><path d="m309.1 534.9v.1c-.1 0 0 0 0-.1z" fill="url(#m)"/><path d="m312.1 538.5s-.1-.1-.1-.1-.1-.1-.1-.2c0 0 0 0 0-.1v-.1c0-.1 0-.2 0-.3v-.1c0-.1 0-.3.1-.4v-.1c0-.1.1-.3.1-.4v-.1c.1-.2.1-.4.2-.6.7-1.8 2.1-3.7 3-4.3.1-.1.2-.1.3-.1h.1.2l-1.5-.9c-.5-.3-1.1-.6-1.5-.9s-.1 0-.2 0c0 0 0 0-.1 0-.1 0-.2.1-.3.1-.9.6-2.3 2.5-3 4.3-.1.2-.1.4-.2.6v.1c0 .1-.1.3-.1.4v.1c0 .1 0 .3-.1.4v.1.3.1c0 .1 0 .2.1.2s.1.1.1.1l1.5.9z" fill="url(#n)"/><path d="m311.9 537.3v-.1z" fill="url(#o)"/><path d="m311.8 537.8c0-.1 0 0 0 0z" fill="url(#p)"/><path d="m315.3 531.8c.1-.1.2-.1.3-.1-.1 0-.2 0-.3.1z" fill="url(#q)"/><path d="m315.7 531.6h.2c-.1 0-.1 0-.2 0z" fill="url(#r)"/><path d="m312 536.8v-.1c.1 0 .1.1 0 .1z" fill="url(#s)"/><path d="m315.7 531.6c-.2 0-.3.1-.4.1-.9.6-2.3 2.5-3 4.3-.1.2-.1.4-.2.6v.1c0 .1-.1.3-.1.4v.1c0 .1-.1.3-.1.4v.1.3.1.1c0 .1 0 .1.1.2s.1.1.1.1l7.9 4.5c.5.3 1 .5 1.4.8.3.2.7.3 1.1.3s.7-.1 1.1-.3c.2-.1.3-.2.5-.4l.4-.4s.1 0 .1-.1c.1-.2.3-.3.4-.5.1-.2.3-.4.4-.5 0 0 0-.1.1-.1.1-.1.2-.3.2-.4 0 0 0-.1.1-.1.2-.3.3-.6.3-.7s0-.1.1-.2c0-.1.1-.2.1-.3s0-.1.1-.2v-.1c0-.1 0-.1 0-.2s0-.2.1-.3c0-.1 0-.2 0-.2 0-.1 0-.2 0-.3s0-.1 0-.2 0-.2-.1-.3v-.1c0-.1-.1-.2-.1-.2 0-.1-.1-.1-.1-.2 0 0-.1-.1-.1-.1-.2-.3-.5-.5-.6-.6l-2.8-1.6c-.4-.2-.8-.4-1.2-.7l-2.6-1.5c-1-.6-1.9-1.1-2.8-1.6-.3-.1-.3-.1-.4-.1z" fill="#ffd569"/><g opacity=".1"><path d="m191.4 484.2c0-.1 0-.2 0-.3v-.1c0-.1.1-.3.1-.4.3-.7.8-1.5 1.2-1.7.1-.1.2-.1.2-.1-1.5-.4-3-.8-4.5-1.2-.1 0-.2.2-.3.4v.1z"/><path d="m198 490.7c0-.1-.1-.1-.1-.2v-.1c0-.1 0-.2 0-.3v-.1c0-.1 0-.3.1-.4v-.1c0-.1.1-.3.1-.4 0 0 0-.1 0-.2.1-.2.1-.4.2-.6.7-1.8 2.1-3.7 3-4.3.1-.1.2-.1.3-.1h.1.1c-3-.8-6-1.6-9-2.4-.1 0-.1 0-.2.1-.4.2-.9 1-1.2 1.7-.1.2-.1.3-.1.4v.1.3c0 .1 0 .1.1.1 2.2 2.3 4.4 4.4 6.6 6.5.1.1.1.1 0 0 .1.1 0 .1 0 0z"/><path d="m201.9 484c-.1 0-.1 0-.2 0z"/><path d="m198 489.6v.1c0-.1 0-.1 0-.1z"/><path d="m198.1 489v.2c0-.1 0-.1 0-.2z"/><path d="m201.4 484.2c.1-.1.2-.1.3-.1-.1-.1-.2 0-.3.1z"/><path d="m296 546.3c0-.1-.1-.1-.1-.2v-.1c0-.1 0-.2 0-.3v-.1c0-.1 0-.3.1-.4v-.1c0-.1.1-.3.1-.4v-.1c.1-.2.1-.4.2-.6.7-1.8 2.1-3.7 3-4.3.1-.1.2-.1.3-.1h.1.2c-2.3-1.3-4.7-2.7-7.1-4.1l-6.9-3.9c-4.2-2.4-8.6-4.9-13-7.4l-7.7-4.4c-.7-.4-1.4-.8-2.1-1.2l-15.9-9c-2.7-1.6-5.5-3.1-8.2-4.7l-2-1.1c-2.6-1.5-5.2-3-7.8-4.4l-13-7.4c-2.4-1.3-4.7-2.7-7-4l-7.1-4s-.1 0-.2 0h-.1c-.1 0-.2.1-.3.1-.9.6-2.3 2.5-3 4.3-.1.2-.1.4-.2.6v.2c0 .1-.1.3-.1.4v.1c0 .1 0 .3-.1.4v.1.3.1c0 .1 0 .2.1.2s.1.1.1.1c2.3 1.3 4.7 2.7 7.1 4l6.9 3.9c4.2 2.4 8.6 4.9 13 7.4l7.8 4.4c.7.4 1.4.8 2.1 1.2l8.2 4.6 15.9 9 2.1 1.2c2.6 1.5 5.2 2.9 7.8 4.4l13 7.4c2.4 1.3 4.7 2.6 6.9 3.9l7.1 4c-.2.1-.2.1-.2 0z"/><path d="m296 545.2v.1c-.1 0-.1-.1 0-.1z"/><path d="m299.7 539.6h.2s-.1 0-.2 0z"/><path d="m299.3 539.8c.1-.1.2-.1.3-.1 0 0-.2 0-.3.1z"/><path d="m295.9 545.7s0 .1 0 0z"/><path d="m296.1 544.6v.1s0 0 0-.1z"/><path d="m299.1 548.2s-.1-.1-.1-.1-.1-.1-.1-.2c0 0 0 0 0-.1v-.1c0-.1 0-.2 0-.3v-.1c0-.1 0-.3.1-.4v-.1c0-.1.1-.3.1-.4v-.1c.1-.2.1-.4.2-.6.7-1.8 2.1-3.7 3-4.3.1-.1.2-.1.3-.1h.1.2l-1.5-.9c-.5-.3-1.1-.6-1.5-.9s-.1 0-.2 0c0 0 0 0-.1 0-.1 0-.2.1-.3.1-.9.6-2.3 2.5-3 4.3-.1.2-.1.4-.2.6v.1c0 .1-.1.3-.1.4v.1c0 .1 0 .3-.1.4v.1.3.1c0 .1 0 .2.1.2s.1.1.1.1l1.5.9z"/><path d="m298.9 547v-.1c.1 0 0 .1 0 .1z"/><path d="m298.9 547.5c0-.1 0 0 0 0z"/><path d="m302.3 541.5c.1-.1.2-.1.3-.1 0 0-.1 0-.3.1z"/><path d="m302.8 541.3h.2c-.1 0-.2 0-.2 0z"/><path d="m299.1 546.5v-.1z"/><path d="m302.8 541.3c-.1 0-.1 0 0 0-.2 0-.3.1-.4.1-.9.6-2.3 2.5-3 4.3-.1.2-.1.4-.2.6v.1c0 .1-.1.3-.1.4v.1c0 .1-.1.3-.1.4v.1.3.1.1c0 .1 0 .1.1.2s.1.1.1.1l7.9 4.5c.5.3 1 .5 1.4.8.3.2.7.3 1.1.3s.7-.1 1.1-.3c.2-.1.3-.2.5-.4.1-.1.2-.2.4-.4 0 0 .1 0 .1-.1.1-.2.3-.3.4-.5.1-.2.3-.4.4-.5 0 0 0-.1.1-.1.1-.1.2-.3.2-.4 0 0 0-.1.1-.1.2-.3.3-.6.3-.7s0-.1.1-.2c0-.1.1-.2.1-.3s0-.1.1-.2v-.1c0-.1 0-.1 0-.2s0-.2.1-.3c0-.1 0-.2 0-.2 0-.1 0-.2 0-.3s0-.1 0-.2 0-.2-.1-.3v-.1c0-.1-.1-.2-.1-.2 0-.1-.1-.1-.1-.2 0 0-.1-.1-.1-.1-.2-.3-.5-.5-.6-.6l-2.8-1.6c-.4-.2-.8-.4-1.2-.7l-2.6-1.5c-1-.6-1.9-1.1-2.8-1.6-.3-.1-.4-.1-.4-.1z"/></g><path d="m191.4 480.9c0-.1 0-.2 0-.3v-.1c0-.1.1-.3.1-.4.3-.7.8-1.5 1.2-1.7.1-.1.2-.1.2-.1-1.5-.4-3-.8-4.5-1.2-.1 0-.2.2-.3.4v.1c1.1 1.1 2.2 2.2 3.3 3.3z" fill="#1b2d88"/><path d="m198 487.4c0-.1-.1-.1-.1-.2v-.1c0-.1 0-.2 0-.3v-.1c0-.1 0-.3.1-.4v-.1c0-.1.1-.3.1-.4 0 0 0-.1 0-.2.1-.2.1-.4.2-.6.7-1.8 2.1-3.7 3-4.3.1-.1.2-.1.3-.1h.1.1c-3-.8-6-1.6-9-2.4-.1 0-.1 0-.2.1-.4.2-.9 1-1.2 1.7-.1.2-.1.3-.1.4v.1.3c0 .1 0 .1.1.1 2.2 2.2 4.4 4.4 6.6 6.5.1.1.1.1 0 0 .1.1 0 0 0 0z" fill="#dbe1f0"/><path d="m201.9 480.7c-.1 0-.1 0-.2 0z" fill="url(#t)"/><path d="m198 486.3v.1c0-.1 0-.1 0-.1z" fill="url(#u)"/><path d="m198.1 485.7v.2c0-.1 0-.1 0-.2z" fill="url(#v)"/><path d="m201.4 480.8c.1-.1.2-.1.3-.1-.1 0-.2.1-.3.1z" fill="url(#w)"/><path d="m197.9 487.2c0-.1 0 0 0 0z" fill="url(#x)"/><path d="m296 543c0-.1-.1-.1-.1-.2v-.1c0-.1 0-.2 0-.3v-.1c0-.1 0-.3.1-.4v-.1c0-.1.1-.3.1-.4v-.1c.1-.2.1-.4.2-.6.7-1.8 2.1-3.7 3-4.3.1-.1.2-.1.3-.1h.1.2c-2.3-1.3-4.7-2.7-7.1-4.1l-6.9-3.9c-4.2-2.4-8.6-4.9-13-7.4l-7.7-4.4c-.7-.4-1.4-.8-2.1-1.2l-15.9-9c-2.7-1.6-5.5-3.1-8.2-4.7l-2-1.1c-2.6-1.5-5.2-3-7.8-4.4l-13-7.4c-2.4-1.3-4.7-2.7-7-4l-7.1-4s-.1 0-.2 0h-.1c-.1 0-.2.1-.3.1-.9.6-2.3 2.5-3 4.3-.1.2-.1.4-.2.6v.2c0 .1-.1.3-.1.4v.1c0 .1 0 .3-.1.4v.1.3.1c0 .1 0 .2.1.2s.1.1.1.1c2.3 1.3 4.7 2.7 7.1 4l6.9 3.9c4.2 2.4 8.6 4.9 13 7.4l7.8 4.4c.7.4 1.4.8 2.1 1.2l8.2 4.6 15.9 9 2.1 1.2c2.6 1.5 5.2 2.9 7.8 4.4l13 7.4c2.4 1.3 4.7 2.6 6.9 3.9l7.1 4c-.2.1-.2.1-.2 0z" fill="#ffd569"/><path d="m296 541.9v.1c-.1-.1-.1-.1 0-.1z" fill="url(#y)"/><path d="m299.7 536.3h.2s-.1 0-.2 0z" fill="url(#z)"/><path d="m299.3 536.5c.1-.1.2-.1.3-.1 0-.1-.2 0-.3.1z" fill="url(#A)"/><path d="m296.1 541.3v.1s0 0 0-.1z" fill="url(#B)"/><path d="m299.1 544.8s-.1-.1-.1-.1-.1-.1-.1-.2c0 0 0 0 0-.1v-.1c0-.1 0-.2 0-.3v-.1c0-.1 0-.3.1-.4v-.1c0-.1.1-.3.1-.4v-.1c.1-.2.1-.4.2-.6.7-1.8 2.1-3.7 3-4.3.1-.1.2-.1.3-.1h.1.2l-1.5-.9c-.5-.3-1.1-.6-1.5-.9s-.1 0-.2 0c0 0 0 0-.1 0-.1 0-.2.1-.3.1-.9.6-2.3 2.5-3 4.3-.1.2-.1.4-.2.6v.1c0 .1-.1.3-.1.4v.1c0 .1 0 .3-.1.4v.1.3.1c0 .1 0 .2.1.2s.1.1.1.1l1.5.9z" fill="url(#C)"/><path d="m298.9 543.7v-.1c.1 0 0 .1 0 .1z" fill="url(#D)"/><path d="m298.9 544.2c0-.1 0 0 0 0z" fill="url(#E)"/><path d="m302.3 538.2c.1-.1.2-.1.3-.1 0-.1-.1 0-.3.1z" fill="url(#F)"/><path d="m302.8 538h.2c-.1 0-.2 0-.2 0z" fill="url(#G)"/><path d="m299.1 543.2v-.1z" fill="url(#H)"/><path d="m302.8 538c-.1 0-.1 0 0 0-.2 0-.3.1-.4.1-.9.6-2.3 2.5-3 4.3-.1.2-.1.4-.2.6v.1c0 .1-.1.3-.1.4v.1c0 .1-.1.3-.1.4v.1.3.1.1c0 .1 0 .1.1.2s.1.1.1.1l7.9 4.5c.5.3 1 .5 1.4.8.3.2.7.3 1.1.3s.7-.1 1.1-.3c.2-.1.3-.2.5-.4.1-.1.2-.2.4-.4 0 0 .1 0 .1-.1.1-.2.3-.3.4-.5.1-.2.3-.4.4-.5 0 0 0-.1.1-.1.1-.1.2-.3.2-.4 0 0 0-.1.1-.1.2-.3.3-.6.3-.7s0-.1.1-.2c0-.1.1-.2.1-.3s0-.1.1-.2v-.1c0-.1 0-.1 0-.2s0-.2.1-.3c0-.1 0-.2 0-.2 0-.1 0-.2 0-.3s0-.1 0-.2 0-.2-.1-.3v-.1c0-.1-.1-.2-.1-.2 0-.1-.1-.1-.1-.2 0 0-.1-.1-.1-.1-.2-.3-.5-.5-.6-.6l-2.8-1.6c-.4-.2-.8-.4-1.2-.7l-2.6-1.5c-1-.6-1.9-1.1-2.8-1.6-.3-.1-.4-.1-.4-.1z" fill="#ffd569"/><path d="m372.4 430-26.2 15.1 8.9 5.1 18.8-15.3v-4c-.1-.8-.9-1.3-1.5-.9z" fill="#4a74da"/><path d="m346.2 446.5 26-15 9.4 5.4-26 15z" fill="#8cbaf9"/><path d="m382.3 435.3c-.3-.2-.7-.3-1.1-.1l-26.1 15-8.9-5.1 26.2-15.1c.3-.2.6-.2.9-.1s-.9-.4-1.3-.7c-.3-.2-.7-.3-1.1-.1l-27.6 15.9v46.3l10.3-5.9v11.9l28.2-16.2c.5-.3.9-.9.9-1.5l.9-43.7c-.1.1-.9-.4-1.3-.6z" fill="#6492f0"/><path d="m355.1 451.9-11.8-6.8v46.3l11.8 6.8z" fill="#1b2d88"/><path d="m353.5 454.4-9.1-5.3v3.6l9.1 5.2z" fill="#ffd569"/><path d="m353.5 459.1-9.1-5.3v1.2l9.1 5.3z" fill="#ffd569"/><path d="m353.5 461.3-9.1-5.2v1.2l9.1 5.3z" fill="#ffd569"/><path d="m353.5 492.1-9.1-5.2v1.2l9.1 5.3z" fill="#ffd569"/><path d="m382.6 436-27.6 15.9v46.3l28.2-16.2c.5-.3.9-.9.9-1.5v-43.6c0-.8-.8-1.3-1.5-.9z" fill="#009bdb" opacity=".5"/><path d="m393.4 433.4-26.2 15.1 8.9 5.1 18.8-15.3v-4c0-.8-.8-1.3-1.5-.9z" fill="#b4b9de"/><path d="m367.2 449.9 26.1-15 9.4 5.4-26.1 15z" fill="#dbe1f0"/><path d="m403.4 438.7c-.3-.2-.7-.3-1.1-.1l-26.1 15-8.9-5.1 26.2-15.1c.3-.2.6-.2.9-.1s-.9-.4-1.3-.7c-.3-.2-.7-.3-1.1-.1l-27.6 15.9v46.3l10.3-5.9v11.9l28.2-16.2c.5-.3.9-.9.9-1.5l.9-43.7c-.1.1-.9-.4-1.3-.6z" fill="#cdd0ec"/><path d="m376.1 455.3-11.7-6.8v46.3l11.7 6.8z" fill="#c4c6e5"/><path d="m374.5 457.8-9-5.2v3.5l9 5.2z" fill="#fff"/><path d="m374.5 462.5-9-5.3v1.3l9 5.2z" fill="#fff"/><path d="m374.5 464.7-9-5.2v1.2l9 5.3z" fill="#fff"/><path d="m374.5 495.6-9-5.3v1.3l9 5.2z" fill="#fff"/><path d="m403.7 439.4-27.6 15.9v46.3l28.2-16.2c.5-.3.9-.9.9-1.5v-43.6c0-.8-.9-1.3-1.5-.9z" fill="#b4b9de"/></svg>