<svg enable-background="new 0 0 601.5 567.1" viewBox="0 0 601.5 567.1" xmlns="http://www.w3.org/2000/svg" xmlns:xlink="http://www.w3.org/1999/xlink"><radialGradient id="a" cx="470.4585" cy="405.4008" gradientUnits="userSpaceOnUse" r="106.973"><stop offset=".2742" stop-color="#d6d5d5"/><stop offset=".412" stop-color="#9c9b9b"/><stop offset=".5593" stop-color="#656464"/><stop offset=".6964" stop-color="#393939"/><stop offset=".8189" stop-color="#1a1a1a"/><stop offset=".9222" stop-color="#070707"/><stop offset=".994"/></radialGradient><linearGradient id="b" gradientTransform="matrix(1 .0007 -.0007 1 2573.7446 -3297.9202)" gradientUnits="userSpaceOnUse" x1="-2554.9785" x2="-2066.3403" y1="3724.6292" y2="3503.156"><stop offset="0" stop-color="#5a61d2"/><stop offset=".1831" stop-color="#5f66d4"/><stop offset=".3991" stop-color="#6d73da"/><stop offset=".6315" stop-color="#858ae5"/><stop offset=".874" stop-color="#a6a9f3"/><stop offset="1" stop-color="#babcfc"/></linearGradient><linearGradient id="c" gradientTransform="matrix(-1 -.0007 -.0007 1 2561.4915 -3298.375)" gradientUnits="userSpaceOnUse" x1="2072.8711" x2="2072.8711" y1="3433.7498" y2="3410.6675"><stop offset="0" stop-color="#bdbdf3"/><stop offset=".2938" stop-color="#c2c2f4"/><stop offset=".6399" stop-color="#d0d0f7"/><stop offset="1" stop-color="#e7e7fb"/></linearGradient><g fill="#009bdb"><g opacity=".5" stroke="#009bdb" stroke-miterlimit="10" stroke-width="20"><path d="m23.4 147.6c0-48.5 25.5-76.2 72.3-76.2 46.7 0 72.3 27.7 72.3 76.2v157.5c0 48.5-25.5 76.2-72.3 76.2-46.7 0-72.3-27.7-72.3-76.2zm47.6 160.5c0 21.6 9.5 29.9 24.7 29.9 15.1 0 24.7-8.2 24.7-29.9v-163.5c0-21.6-9.5-29.9-24.7-29.9-15.1 0-24.7 8.2-24.7 29.9z"/><path d="m204.3 150.2c0-51.1 23.4-78.7 72.7-78.7 46.7 0 71 27.7 71 76.2v7.8h-45v-10.8c0-21.6-9.5-29.9-24.7-29.9-16.9 0-26.4 8.2-26.4 37.2v55.4c8.2-17.3 22.9-26.8 44.1-26.8 35 0 52.8 24.7 52.8 69.2v55.4c0 48.5-25.5 76.2-72.3 76.2-46.7 0-72.3-27.7-72.3-76.2v-155zm47.6 103.4v54.5c0 21.6 9.5 29.4 24.7 29.4 15.1 0 24.7-7.8 24.7-29.4v-54.5c0-21.6-9.5-29.9-24.7-29.9s-24.7 8.3-24.7 29.9z"/></g><path d="m277.2 494.1 62.3-36.7 62.8 36.3-62.8 35.9z" opacity=".5"/><path d="m211.9 531.5 62.3-36.7 62.8 36.3-62.8 36z" opacity=".3"/><path d="m147.1 493.7 62.2-36.7 62.9 36.3-62.9 35.9z" opacity=".1"/></g><g opacity=".59"><path d="m339.4 406.6v18.7l130.4 76.8v-21.1z" fill="#76aadb"/><path d="m339.4 406.6 130.4-76.8 131.7 76-131.7 75.2z" fill="#009bdb"/><path d="m601.5 405.8v19.5l-131.7 76.8v-21.1z" fill="#4a72b2"/></g><path d="m339.4 406.6 130.4-76.8 131.7 76-131.7 75.2z" fill="url(#a)"/><path d="m339.4 371.8v18.7l130.4 76.8v-21.1z" fill="#76aadb"/><path d="m339.4 371.8 130.4-76.8 131.7 76-131.7 75.2z" fill="#009bdb" opacity=".5"/><path d="m601.5 371v19.5l-131.7 76.8v-21.1z" fill="#4a72b2"/><path d="m365.2 41.6 7.7-4.4c.6-.3 1.3-.3 2.2.2l126.3 73c1.9 1.1 3.4 4 3.4 6.6l-.2 310.2c0 1.4-.5 2.4-1.2 2.8l-7.7 4.4-.3-16-113.6-65.7c-1.9-1.1-3.4-4-3.4-6.6l.2-297c-.3.9-.5 1.6-.6 1.6-.1.1-12.8-9.1-12.8-9.1z" fill="url(#b)"/><path d="m504.7 115.9-31.2 18-5.8-3.3 34.2-19.7c1.4 1.1 2.5 3.1 2.8 5z" fill="url(#c)"/><path d="m367.2 361.1 126.3 73c1.9 1.1 3.4-.1 3.4-2.6l.2-310.2c0-2.5-1.5-5.5-3.4-6.6l-126.3-73c-1.9-1.1-3.4.1-3.4 2.6l-.2 310.2c0 2.5 1.5 5.5 3.4 6.6z" fill="#e5f5fc"/><path d="m493.8 114.8-126.3-73c-1.1-.7-2.1-.5-2.8.3.5-.1 1.2-.1 1.8.3l126.3 73c1.9 1.1 3.4 4 3.4 6.6l-.2 310.2c0 1-.3 1.8-.7 2.3 1-.3 1.6-1.3 1.6-2.9l.2-310.2c.1-2.6-1.4-5.5-3.3-6.6z" fill="#fff"/><path d="m366.7 347 127.3 73.7.3-286.1-127.4-73.6z" fill="#1b2d88"/><path d="m417.2 82.5 24.1 14c.7.4 1.3.5 1.6-.1.1-.2.1-.5.1-.8 0-1.3-.8-2.7-1.7-3.3l-24.3-14.1c-.1 0-.1-.1-.2-.1-.8.2-.9.4-.9 1.5l.1.3c-.1 1.3.2 2.1 1.2 2.6z" fill="#5a61d2"/><path d="m416.7 78.1c-.1.2-.1.5-.1.8 0 1.3.8 2.7 1.7 3.3l24.3 14.1c.1 0 .1.1.2.1-.3.7-.9.9-1.6.5l-24.3-14.1c-.9-.5-1.7-2-1.7-3.3 0-1.2.7-1.7 1.5-1.4z" fill="#babcfc"/><path d="m379.3 264.6v76.5l98.8 56.4 1-77.4z" fill="#fff" opacity=".75"/><path d="m379.3 83.6v76.5l98.8 56.4 1-77.4z" fill="#fff" opacity=".75"/><path d="m379.3 174.1v79.5l45.2 26.6 1.1-80.4z" fill="#fff" opacity=".75"/><path d="m433.9 204.8v79.5l45.2 26.6 1.1-80.4z" fill="#fff" opacity=".75"/><path d="m379.3 264.6v76.5l98.8 56.4 1.1-77.4z" fill="none" stroke="#fff" stroke-miterlimit="10" stroke-width="1.1884"/><path d="m379.3 83.6v76.5l98.8 56.4 1.1-77.4z" fill="none" stroke="#fff" stroke-miterlimit="10" stroke-width="1.1884"/><path d="m379.3 174.1v79.5l45.2 26.6 1.1-80.4z" fill="none" opacity=".75" stroke="#fff" stroke-miterlimit="10" stroke-width="1.1884"/><path d="m433.9 204.8v79.5l45.2 26.6 1.1-80.4z" fill="none" opacity=".75" stroke="#fff" stroke-miterlimit="10" stroke-width="1.1884"/><path d="m428.4 307.4v23.4l41.5 22.8.4-23.7z" fill="#fff"/><path d="m428.4 337.8v23.4l41.5 22.8.4-23.7z" fill="#fff"/><g fill="#d8271d" opacity=".9"><path d="m388.5 322.5v14.4l9 4.8v-14.4z" opacity=".75"/><path d="m399.5 319.2v24.1l9 4.8v-24.1z" opacity=".75"/><path d="m411 314.3v35.3l9 4.9v-35.3z" opacity=".75"/></g><ellipse cx="393.9" cy="299.1" fill="#76aadb" rx="8.1" ry="4.1" transform="matrix(.4981 .8671 -.8671 .4981 457.0668 -191.4274)"/><g opacity=".8"><path d="m383.7 188.2v10.2l36.3 20.2v-10.3z" fill="#d8271d" opacity=".9"/><g fill="#fff"><path d="m383.7 200.3v3.6l36.3 20.1v-3.6z" opacity=".56"/><path d="m383.7 205.8v3.5l36.3 20.2v-3.6z" opacity=".56"/><path d="m383.7 211.3v3.5l36.3 20.2v-3.6z" opacity=".56"/><path d="m383.7 216.7v3.6l16.2 9.1.1-3.6z" opacity=".56"/><path d="m383.7 222.2v3.5l36.3 20.2v-3.6z" opacity=".56"/><path d="m383.7 227.6v3.6l36.3 20.1v-3.6z" opacity=".56"/><path d="m383.7 233.1v3.5l36.3 20.2v-3.6z" opacity=".56"/><path d="m383.7 238.5v3.6l36.3 20.2v-3.7z" opacity=".56"/></g></g><g opacity=".8"><path d="m438.9 214.7v20.4l36.3 20.1v-20.4z" fill="#8cdcf2"/><path d="m389 100.8v53.5l36.2 20.2.1-53.6z" fill="#8cdcf2"/><g fill="#fff"><path d="m438.9 240.8v3.5l36.3 20.2v-3.6z" opacity=".56"/><path d="m438.9 246.2v3.6l36.3 20.2v-3.7z" opacity=".56"/><path d="m438.9 251.7v3.5l16.3 9.2v-3.6z" opacity=".56"/><path d="m438.9 257.2v3.5l36.3 20.2v-3.6z" opacity=".56"/><path d="m438.9 262.6v3.6l36.3 20.1v-3.6z" opacity=".56"/><path d="m438.9 268.1v3.5l36.3 20.2v-3.6z" opacity=".56"/><path d="m438.9 273.5v3.6l36.3 20.1v-3.6z" opacity=".56"/></g></g><ellipse cx="437.2" cy="133" fill="#d8271d" opacity=".9" rx="7.2" ry="3.7" transform="matrix(.4981 .8671 -.8671 .4981 334.7919 -312.3571)"/><ellipse cx="451.7" cy="140" fill="#76aadb" rx="7.2" ry="3.7" transform="matrix(.4981 .8671 -.8671 .4981 348.1613 -321.4399)"/><ellipse cx="466.3" cy="147" fill="#aefffd" rx="7.2" ry="3.7" transform="matrix(.4981 .8671 -.8671 .4981 361.5379 -330.5244)"/><g fill="#fff" opacity=".8"><path d="m431.2 141.8v3.8l38.9 21.6v-3.8z" opacity=".56"/><path d="m431.2 147.6v3.9l38.9 21.6v-3.9z" opacity=".56"/><path d="m431.2 153.5v3.8l17.4 9.8.1-3.8z" opacity=".56"/><path d="m431.2 159.4v3.8l38.9 21.6v-3.9z" opacity=".56"/><path d="m431.2 165.2v3.8l38.9 21.6v-3.8z" opacity=".56"/><path d="m431.2 171.1v3.8l38.9 21.6v-3.9z" opacity=".56"/><path d="m431.2 176.9v3.8l38.9 21.7v-3.9z" opacity=".56"/></g><path d="m317.7 303s14.9 2.2 17.6.5 19.5-.8 23.8-4.6 24.5-13.9 27.6-14.8c0 0 .1.1-.4.4s-2.6 1-2.7 3.6 1.9 5.3 2.3 5.4.4-.8 2.3-2.2c1.8-1.4 3.1-1.6 3.1-1.6l1 .8.6.6s-.4 3.2-3.1 4-18.8 11.8-19.7 12.5c-5.7 4.3-23.9 9.6-26.4 11.2-2.6 1.6 5 3.8 5 3.8s-9.9-3.9-10.1-3.8c-.4.2-20.9-15.8-20.9-15.8z" fill="#8cdcf2"/><path d="m317.7 303s14.9 2.2 17.6.5 19.5-.8 23.8-4.6 24.5-13.9 27.6-14.8c0 0 .1.1-.4.4s-2.6 1-2.7 3.6 1.9 5.3 2.3 5.4.4-.8 2.3-2.2c1.8-1.4 3.1-1.6 3.1-1.6l1 .8.6.6s-.4 3.2-3.1 4-18.8 11.8-19.7 12.5c-5.7 4.3-23.9 9.6-26.4 11.2-2.6 1.6 5 3.8 5 3.8s-9.9-3.9-10.1-3.8c-.4.2-20.9-15.8-20.9-15.8z" opacity=".1"/><path d="m407.2 274c-.8-.6-8.3 3.4-8.3 3.4s-1.4-.2-2.8.2c-1.3.3-4.3 3.9-5.5 4.8-1.1.9-4 1.8-4 1.8-6.8 3 .3 11.1.6 10.9.8-.5 2-.4 2.8-.9 1.4-.8 2.2-2.2 3.4-3.1 1-.8 2.7-.4 3.7-1.4.9-.9 4-1.9 4.2-1.8s.7.2.7.2.4.8 1 .8c.7.1 1-1.6 1.3-1.9.2-.2 1-1 1.1-1.3s-.3-4.9-.7-5.7c-.3-.8-2.3-1.3-2.3-1.3s4.1-2.4 4.5-2.6 1.1-1.5.3-2.1zm-6.1 9.9c-.4.2-.9.3-1.4.7s-1.2.9-1.8.9c0 0-1.1-1.2-.6-1.8s.9-1.1.9-1.1 1.1-.4 1-.6c0 0 .7.4 1.3-.2 0 0 .9.9 1.8.6 0 .2-.8 1.3-1.2 1.5z" fill="#facaa9"/><path d="m331.4 479.4s4.1 2.4 8.2 1.8 9.1-.3 9.7 3.1-4.5 7-9.7 7.7-13.3 1-13.3 1l-1 1.5s-8.3 1.3-11.3-1c0 0-1.5-5.2.9-9.5.1-.2.2-.3.3-.5 0 .1 10.8 2.7 16.2-4.1z" fill="#0c0c0c"/><path d="m339.5 379.9s1.3 25.5-3.4 42.9-4.7 56.6-4.7 56.6-5 9.4-16.1 6.4c0 0-1.7-35.5 0-47.6s-.7-35.2-4.4-43.9-.3-16.2-.3-16.2z" fill="#0c0c0c"/><path d="m357.7 388.9s1.3 25.5-3.4 42.9-4.7 56.6-4.7 56.6-5 9.4-16.1 6.4c0 0-1.7-35.5 0-47.6s-.7-35.2-4.4-43.9-3-18.8-3-18.8z" fill="#1e1e1e"/><path d="m349.6 488.5s4.1 2.4 8.2 1.8 9.1-.3 9.7 3.1-4.5 7-9.7 7.7-13.3 1-13.3 1l-1 1.5s-8.3 1.3-11.3-1c0 0-1.5-5.2.9-9.5.1-.2.2-.3.3-.5 0 0 10.8 2.7 16.2-4.1z" fill="#0c0c0c"/><path d="m325.4 297.8c-6.3.3-10.9 8.5-12.3 13.9-1.1 4.1-1.7 10.6-.7 17.4 2.8 18.4 1.6 17.2-1.3 35.1-2.8 16.5-6.4 25.5-6.4 25.5s6.6 10.2 48.2 7.5l3.3 3.6 7.8-4.2s-9.6-23.4-9.6-34.7c0-11.4 1.7-31.5-1.9-43.5s-7.6-15.5-11.8-17c-2.3-.8-9.1-3.9-15.3-3.6z" fill="#8cdcf2"/><path d="m341.6 329.3s-6.3 23.7-4.8 43.1c1.5 19.5-.2 24.5-.2 24.5l16.4.4s-12.9-17.4-13.2-25.2-1.8-34.5 1.8-42.8z" opacity=".1"/><path d="m363.9 396.7s4.5 5.4 3.7 9.1c-.9 3.7-.6 5.4-1.8 6.2-1.2.9-6.8 3.7-9.4 1.1s2.8-1.8 3.3-3.6c.5-1.7-2.8-5-2.8-5v-4z" fill="#facaa9"/><path d="m340 302.3s-.5-5.9.8-7.7c3.9-5.4 9.2 1.5 10.8-11.3.4-2.9-.4-6-.6-8.5-.4-8.2-2-14.6-10.2-15.2-10.8-.7-14.5 8-14.6 13.6s3.5 19.3 3.5 19.3l-.5 9.1c.1.1 4.6 5.1 10.8.7z" fill="#facaa9"/><path d="m327.5 301.9s4.3 5.1 11.5 2.3c0 0 2-1 3.9-.5l-2.9-4.3s-4 2.3-10.5-.7z" fill="#8cdcf2"/><path d="m327.5 301.9s4.3 5.1 11.5 2.3c0 0 2-1 3.9-.5l-2.9-4.3s-4 2.3-10.5-.7z" opacity=".1"/><path d="m350.3 275.9 2 6c.4 1-.2 2.1-1.2 2.5l-.8.3z" fill="#facaa9"/><path d="m351 264.8s-4.2 11.4-25.3 6.4c0 0-1.2-6.9 3.8-10.6s15.1-3 16.8-4.5c4.6-3.9 10.3 3.2 4.7 8.7z" fill="#0c0c0c"/><path d="m325.7 271.3s-1.1 4.9 4.1 21.2l4.7 1.7c3.3.3 6.8-5.5 6.4-8.8v-.1c-.6-3.9-1.9-6.6-.4-8.7s2.6.1 2.5 2.8l1.6-1.4c.4-.3.6-.9.6-1.4-.1-1.1-.2-3.2.7-4.1 1.3-1.3 3.8-3 3.5-5.1-.4-2.1-23.7 3.9-23.7 3.9z" fill="#0c0c0c"/></svg>