<svg enable-background="new 0 0 519.6 534.1" viewBox="0 0 519.6 534.1" xmlns="http://www.w3.org/2000/svg" xmlns:xlink="http://www.w3.org/1999/xlink"><radialGradient id="a" cx="458.1255" cy="467.2091" gradientUnits="userSpaceOnUse" r="50.2265"><stop offset=".2742" stop-color="#d6d5d5"/><stop offset=".412" stop-color="#9c9b9b"/><stop offset=".5593" stop-color="#656464"/><stop offset=".6964" stop-color="#393939"/><stop offset=".8189" stop-color="#1a1a1a"/><stop offset=".9222" stop-color="#070707"/><stop offset=".994"/></radialGradient><linearGradient id="b"><stop offset=".2742" stop-color="#d6d5d5"/><stop offset=".3829" stop-color="#9e9d9d"/><stop offset=".4915" stop-color="#6e6d6d"/><stop offset=".5988" stop-color="#464646"/><stop offset=".7039" stop-color="#282727"/><stop offset=".8062" stop-color="#121212"/><stop offset=".9044" stop-color="#040404"/><stop offset=".994"/></linearGradient><radialGradient id="c" cx="207.923" cy="450.6421" gradientUnits="userSpaceOnUse" r="17.8554" xlink:href="#b"/><radialGradient id="d" cx="207.923" cy="442.6421" gradientUnits="userSpaceOnUse" r="17.8554" xlink:href="#b"/><radialGradient id="e" cx="207.923" cy="434.6421" gradientUnits="userSpaceOnUse" r="17.8554" xlink:href="#b"/><radialGradient id="f" cx="207.923" cy="426.6421" gradientUnits="userSpaceOnUse" r="17.8554" xlink:href="#b"/><radialGradient id="g" cx="207.923" cy="418.6421" gradientUnits="userSpaceOnUse" r="17.8554" xlink:href="#b"/><radialGradient id="h" cx="207.923" cy="410.6421" gradientUnits="userSpaceOnUse" r="17.8554" xlink:href="#b"/><radialGradient id="i" cx="459.484" cy="446.6727" gradientUnits="userSpaceOnUse" r="17.8554" xlink:href="#b"/><radialGradient id="j" cx="459.484" cy="438.6727" gradientUnits="userSpaceOnUse" r="17.8554" xlink:href="#b"/><radialGradient id="k" cx="459.484" cy="430.6727" gradientUnits="userSpaceOnUse" r="17.8554" xlink:href="#b"/><radialGradient id="l" cx="459.484" cy="422.6727" gradientUnits="userSpaceOnUse" r="17.8554" xlink:href="#b"/><radialGradient id="m" cx="142.4007" cy="493.9227" gradientUnits="userSpaceOnUse" r="17.8554" xlink:href="#b"/><radialGradient id="n" cx="142.734" cy="485.4227" gradientUnits="userSpaceOnUse" r="17.8554" xlink:href="#b"/><text style="opacity:.5;fill:#009bdb;stroke:#009bdb;stroke-width:20;stroke-miterlimit:10;font-family:'BebasNeueBold';font-size:432.6742;letter-spacing:8" transform="translate(10.0003 377.769)">07</text><path d="m148.4 457.9 62.2-36.7 62.9 36.3-62.9 35.9z" fill="#009bdb" opacity=".3"/><path d="m78.3 498.5 62.3-36.7 62.9 36.3-62.9 36z" fill="#009bdb" opacity=".1"/><g opacity=".59"><path d="m396.6 467.8v8.8l61.2 36v-9.9z" fill="#76aadb"/><path d="m396.6 467.8 61.2-36.1 61.8 35.7-61.8 35.3z" fill="#009bdb"/><path d="m519.6 467.4v9.2l-61.8 36v-9.9z" fill="#4a72b2"/></g><path d="m396.6 467.8 61.2-36.1 61.8 35.7-61.8 35.3z" fill="url(#a)"/><path d="m396.6 451.4v8.8l61.2 36.1v-9.9z" fill="#76aadb"/><path d="m396.6 451.4 61.2-36 61.8 35.7-61.8 35.3z" fill="#009bdb" opacity=".5"/><path d="m519.6 451.1v9.1l-61.8 36.1v-9.9z" fill="#4a72b2"/><path d="m290.5 314.3v103.8l71.6 42.2v-105.1z" fill="#76aadb"/><path d="m290.5 314.3 71.6-42.2 72.4 41.8-72.4 41.3z" fill="#009bdb"/><path d="m434.5 313.9v104.2l-72.4 42.2v-105.1z" fill="#4a72b2" opacity=".59"/><path d="m290.5 314.3 71.6-42.2 72.4 41.8-72.4 41.3z" fill="#009bdb" opacity=".5"/><path d="m233 450.5h-1.5c-1.2-1.9-3.2-3.8-5.8-5.3-9.8-5.7-25.7-5.7-35.5 0-2.7 1.6-4.6 3.4-5.8 5.3h-1.5v4.9c0 3.7 2.4 7.5 7.3 10.3 9.8 5.7 25.7 5.7 35.5 0 4.9-2.8 7.4-6.6 7.3-10.3z" fill="#f8c24d"/><path d="m225.7 440.4c-9.8-5.7-25.7-5.7-35.5 0s-9.8 14.8 0 20.5 25.7 5.7 35.5 0 9.8-14.8 0-20.5z" fill="#ffd569"/><path d="m223.4 459.6c-8.5 4.9-22.4 4.9-30.9 0s-8.5-12.9 0-17.9c8.5-4.9 22.4-4.9 30.9 0s8.5 12.9 0 17.9z" fill="#ffd569"/><path d="m223.4 459.6c-8.5 4.9-22.4 4.9-30.9 0s-8.5-12.9 0-17.9c8.5-4.9 22.4-4.9 30.9 0s8.5 12.9 0 17.9z" fill="url(#c)" opacity=".5"/><path d="m195.9 450h-1.7v-1.8h1.7c.6-1.5 2.6-2.3 5.8-2.2h.7v2h-1c-1.7 0-2.3.4-2.3 1 0 .7.6 1.1 2.3 1.1s2.9-.3 4.9-1.8c2.5-1.7 4.3-2.3 7-2.3 3.2.1 5.2.9 5.7 2.4h1.7v1.8h-1.7c-.6 1.5-2.6 2.3-5.8 2.2h-1.6v-2h1.8c1.7 0 2.3-.4 2.3-1.1s-.6-1.1-2.3-1.2c-1.7 0-2.9.3-4.9 1.8-2.4 1.7-4.3 2.3-7 2.3-3 .2-5-.6-5.6-2.2z" fill="#f8c24d"/><path d="m233 442.5h-1.5c-1.2-1.9-3.2-3.8-5.8-5.3-9.8-5.7-25.7-5.7-35.5 0-2.7 1.6-4.6 3.4-5.8 5.3h-1.5v4.9c0 3.7 2.4 7.5 7.3 10.3 9.8 5.7 25.7 5.7 35.5 0 4.9-2.8 7.4-6.6 7.3-10.3z" fill="#f8c24d"/><path d="m225.7 432.4c-9.8-5.7-25.7-5.7-35.5 0s-9.8 14.8 0 20.5 25.7 5.7 35.5 0 9.8-14.8 0-20.5z" fill="#ffd569"/><path d="m223.4 451.6c-8.5 4.9-22.4 4.9-30.9 0s-8.5-12.9 0-17.9c8.5-4.9 22.4-4.9 30.9 0s8.5 12.9 0 17.9z" fill="#ffd569"/><path d="m223.4 451.6c-8.5 4.9-22.4 4.9-30.9 0s-8.5-12.9 0-17.9c8.5-4.9 22.4-4.9 30.9 0s8.5 12.9 0 17.9z" fill="url(#d)" opacity=".5"/><path d="m195.9 442h-1.7v-1.8h1.7c.6-1.5 2.6-2.3 5.8-2.2h.7v2h-1c-1.7 0-2.3.4-2.3 1 0 .7.6 1.1 2.3 1.1s2.9-.3 4.9-1.8c2.5-1.7 4.3-2.3 7-2.3 3.2.1 5.2.9 5.7 2.4h1.7v1.8h-1.7c-.6 1.5-2.6 2.3-5.8 2.2h-1.6v-2h1.8c1.7 0 2.3-.4 2.3-1.1s-.6-1.1-2.3-1.2c-1.7 0-2.9.3-4.9 1.8-2.4 1.7-4.3 2.3-7 2.3-3 .2-5-.6-5.6-2.2z" fill="#f8c24d"/><path d="m233 434.5h-1.5c-1.2-1.9-3.2-3.8-5.8-5.3-9.8-5.7-25.7-5.7-35.5 0-2.7 1.6-4.6 3.4-5.8 5.3h-1.5v4.9c0 3.7 2.4 7.5 7.3 10.3 9.8 5.7 25.7 5.7 35.5 0 4.9-2.8 7.4-6.6 7.3-10.3z" fill="#f8c24d"/><path d="m225.7 424.4c-9.8-5.7-25.7-5.7-35.5 0s-9.8 14.8 0 20.5 25.7 5.7 35.5 0 9.8-14.8 0-20.5z" fill="#ffd569"/><path d="m223.4 443.6c-8.5 4.9-22.4 4.9-30.9 0s-8.5-12.9 0-17.9c8.5-4.9 22.4-4.9 30.9 0s8.5 12.9 0 17.9z" fill="#ffd569"/><path d="m223.4 443.6c-8.5 4.9-22.4 4.9-30.9 0s-8.5-12.9 0-17.9c8.5-4.9 22.4-4.9 30.9 0s8.5 12.9 0 17.9z" fill="url(#e)" opacity=".5"/><path d="m195.9 434h-1.7v-1.8h1.7c.6-1.5 2.6-2.3 5.8-2.2h.7v2h-1c-1.7 0-2.3.4-2.3 1 0 .7.6 1.1 2.3 1.1s2.9-.3 4.9-1.8c2.5-1.7 4.3-2.3 7-2.3 3.2.1 5.2.9 5.7 2.4h1.7v1.8h-1.7c-.6 1.5-2.6 2.3-5.8 2.2h-1.6v-2h1.8c1.7 0 2.3-.4 2.3-1.1s-.6-1.1-2.3-1.2c-1.7 0-2.9.3-4.9 1.8-2.4 1.7-4.3 2.3-7 2.3-3 .2-5-.6-5.6-2.2z" fill="#f8c24d"/><path d="m233 426.5h-1.5c-1.2-1.9-3.2-3.8-5.8-5.3-9.8-5.7-25.7-5.7-35.5 0-2.7 1.6-4.6 3.4-5.8 5.3h-1.5v4.9c0 3.7 2.4 7.5 7.3 10.3 9.8 5.7 25.7 5.7 35.5 0 4.9-2.8 7.4-6.6 7.3-10.3z" fill="#f8c24d"/><path d="m225.7 416.4c-9.8-5.7-25.7-5.7-35.5 0s-9.8 14.8 0 20.5 25.7 5.7 35.5 0 9.8-14.8 0-20.5z" fill="#ffd569"/><path d="m223.4 435.6c-8.5 4.9-22.4 4.9-30.9 0s-8.5-12.9 0-17.9c8.5-4.9 22.4-4.9 30.9 0s8.5 12.9 0 17.9z" fill="#ffd569"/><path d="m223.4 435.6c-8.5 4.9-22.4 4.9-30.9 0s-8.5-12.9 0-17.9c8.5-4.9 22.4-4.9 30.9 0s8.5 12.9 0 17.9z" fill="url(#f)" opacity=".5"/><path d="m195.9 426h-1.7v-1.8h1.7c.6-1.5 2.6-2.3 5.8-2.2h.7v2h-1c-1.7 0-2.3.4-2.3 1 0 .7.6 1.1 2.3 1.1s2.9-.3 4.9-1.8c2.5-1.7 4.3-2.3 7-2.3 3.2.1 5.2.9 5.7 2.4h1.7v1.8h-1.7c-.6 1.5-2.6 2.3-5.8 2.2h-1.6v-2h1.8c1.7 0 2.3-.4 2.3-1.1s-.6-1.1-2.3-1.2c-1.7 0-2.9.3-4.9 1.8-2.4 1.7-4.3 2.3-7 2.3-3 .2-5-.6-5.6-2.2z" fill="#f8c24d"/><path d="m233 418.5h-1.5c-1.2-1.9-3.2-3.8-5.8-5.3-9.8-5.7-25.7-5.7-35.5 0-2.7 1.6-4.6 3.4-5.8 5.3h-1.5v4.9c0 3.7 2.4 7.5 7.3 10.3 9.8 5.7 25.7 5.7 35.5 0 4.9-2.8 7.4-6.6 7.3-10.3z" fill="#f8c24d"/><path d="m225.7 408.4c-9.8-5.7-25.7-5.7-35.5 0s-9.8 14.8 0 20.5 25.7 5.7 35.5 0 9.8-14.8 0-20.5z" fill="#ffd569"/><path d="m223.4 427.6c-8.5 4.9-22.4 4.9-30.9 0s-8.5-12.9 0-17.9c8.5-4.9 22.4-4.9 30.9 0s8.5 12.9 0 17.9z" fill="#ffd569"/><path d="m223.4 427.6c-8.5 4.9-22.4 4.9-30.9 0s-8.5-12.9 0-17.9c8.5-4.9 22.4-4.9 30.9 0s8.5 12.9 0 17.9z" fill="url(#g)" opacity=".5"/><path d="m195.9 418h-1.7v-1.8h1.7c.6-1.5 2.6-2.3 5.8-2.2h.7v2h-1c-1.7 0-2.3.4-2.3 1 0 .7.6 1.1 2.3 1.1s2.9-.3 4.9-1.8c2.5-1.7 4.3-2.3 7-2.3 3.2.1 5.2.9 5.7 2.4h1.7v1.8h-1.7c-.6 1.5-2.6 2.3-5.8 2.2h-1.6v-2h1.8c1.7 0 2.3-.4 2.3-1.1s-.6-1.1-2.3-1.2c-1.7 0-2.9.3-4.9 1.8-2.4 1.7-4.3 2.3-7 2.3-3 .2-5-.6-5.6-2.2z" fill="#f8c24d"/><path d="m233 410.5h-1.5c-1.2-1.9-3.2-3.8-5.8-5.3-9.8-5.7-25.7-5.7-35.5 0-2.7 1.6-4.6 3.4-5.8 5.3h-1.5v4.9c0 3.7 2.4 7.5 7.3 10.3 9.8 5.7 25.7 5.7 35.5 0 4.9-2.8 7.4-6.6 7.3-10.3z" fill="#f8c24d"/><path d="m225.7 400.4c-9.8-5.7-25.7-5.7-35.5 0s-9.8 14.8 0 20.5 25.7 5.7 35.5 0 9.8-14.8 0-20.5z" fill="#ffd569"/><path d="m223.4 419.6c-8.5 4.9-22.4 4.9-30.9 0s-8.5-12.9 0-17.9c8.5-4.9 22.4-4.9 30.9 0s8.5 12.9 0 17.9z" fill="#ffd569"/><path d="m223.4 419.6c-8.5 4.9-22.4 4.9-30.9 0s-8.5-12.9 0-17.9c8.5-4.9 22.4-4.9 30.9 0s8.5 12.9 0 17.9z" fill="url(#h)" opacity=".5"/><path d="m195.9 410h-1.7v-1.8h1.7c.6-1.5 2.6-2.3 5.8-2.2h.7v2h-1c-1.7 0-2.3.4-2.3 1 0 .7.6 1.1 2.3 1.1s2.9-.3 4.9-1.8c2.5-1.7 4.3-2.3 7-2.3 3.2.1 5.2.9 5.7 2.4h1.7v1.8h-1.7c-.6 1.5-2.6 2.3-5.8 2.2h-1.6v-2h1.8c1.7 0 2.3-.4 2.3-1.1s-.6-1.1-2.3-1.2c-1.7 0-2.9.3-4.9 1.8-2.4 1.7-4.3 2.3-7 2.3-3 .2-5-.6-5.6-2.2z" fill="#f8c24d"/><path d="m484.6 446.6h-1.5c-1.2-1.9-3.2-3.8-5.8-5.3-9.8-5.7-25.7-5.7-35.5 0-2.7 1.6-4.6 3.4-5.8 5.3h-1.5v4.9c0 3.7 2.4 7.5 7.3 10.3 9.8 5.7 25.7 5.7 35.5 0 4.9-2.8 7.4-6.6 7.3-10.3z" fill="#f8c24d"/><path d="m477.2 436.4c-9.8-5.7-25.7-5.7-35.5 0s-9.8 14.8 0 20.5 25.7 5.7 35.5 0c9.8-5.6 9.8-14.8 0-20.5z" fill="#ffd569"/><path d="m474.9 455.6c-8.5 4.9-22.4 4.9-30.9 0s-8.5-12.9 0-17.9c8.5-4.9 22.4-4.9 30.9 0 8.6 5 8.6 13 0 17.9z" fill="#ffd569"/><path d="m474.9 455.6c-8.5 4.9-22.4 4.9-30.9 0s-8.5-12.9 0-17.9c8.5-4.9 22.4-4.9 30.9 0 8.6 5 8.6 13 0 17.9z" fill="url(#i)" opacity=".5"/><path d="m447.5 446.1h-1.7v-1.8h1.7c.6-1.5 2.6-2.3 5.8-2.2h.7v2h-1c-1.7 0-2.3.4-2.3 1 0 .7.6 1.1 2.3 1.1s2.9-.3 4.9-1.8c2.5-1.7 4.3-2.3 7-2.3 3.2.1 5.2.9 5.7 2.4h1.7v1.8h-1.7c-.6 1.5-2.6 2.3-5.8 2.2h-1.6v-2h1.8c1.7 0 2.3-.4 2.3-1.1s-.6-1.1-2.3-1.2c-1.7 0-2.9.3-4.9 1.8-2.4 1.7-4.3 2.3-7 2.3-3.1.1-5.1-.7-5.6-2.2z" fill="#f8c24d"/><path d="m484.6 438.6h-1.5c-1.2-1.9-3.2-3.8-5.8-5.3-9.8-5.7-25.7-5.7-35.5 0-2.7 1.6-4.6 3.4-5.8 5.3h-1.5v4.9c0 3.7 2.4 7.5 7.3 10.3 9.8 5.7 25.7 5.7 35.5 0 4.9-2.8 7.4-6.6 7.3-10.3z" fill="#f8c24d"/><path d="m477.2 428.4c-9.8-5.7-25.7-5.7-35.5 0s-9.8 14.8 0 20.5 25.7 5.7 35.5 0c9.8-5.6 9.8-14.8 0-20.5z" fill="#ffd569"/><path d="m474.9 447.6c-8.5 4.9-22.4 4.9-30.9 0s-8.5-12.9 0-17.9c8.5-4.9 22.4-4.9 30.9 0 8.6 5 8.6 13 0 17.9z" fill="#ffd569"/><path d="m474.9 447.6c-8.5 4.9-22.4 4.9-30.9 0s-8.5-12.9 0-17.9c8.5-4.9 22.4-4.9 30.9 0 8.6 5 8.6 13 0 17.9z" fill="url(#j)" opacity=".5"/><path d="m447.5 438.1h-1.7v-1.8h1.7c.6-1.5 2.6-2.3 5.8-2.2h.7v2h-1c-1.7 0-2.3.4-2.3 1 0 .7.6 1.1 2.3 1.1s2.9-.3 4.9-1.8c2.5-1.7 4.3-2.3 7-2.3 3.2.1 5.2.9 5.7 2.4h1.7v1.8h-1.7c-.6 1.5-2.6 2.3-5.8 2.2h-1.6v-2h1.8c1.7 0 2.3-.4 2.3-1.1s-.6-1.1-2.3-1.2c-1.7 0-2.9.3-4.9 1.8-2.4 1.7-4.3 2.3-7 2.3-3.1.1-5.1-.7-5.6-2.2z" fill="#f8c24d"/><path d="m484.6 430.6h-1.5c-1.2-1.9-3.2-3.8-5.8-5.3-9.8-5.7-25.7-5.7-35.5 0-2.7 1.6-4.6 3.4-5.8 5.3h-1.5v4.9c0 3.7 2.4 7.5 7.3 10.3 9.8 5.7 25.7 5.7 35.5 0 4.9-2.8 7.4-6.6 7.3-10.3z" fill="#f8c24d"/><path d="m477.2 420.4c-9.8-5.7-25.7-5.7-35.5 0s-9.8 14.8 0 20.5 25.7 5.7 35.5 0c9.8-5.6 9.8-14.8 0-20.5z" fill="#ffd569"/><path d="m474.9 439.6c-8.5 4.9-22.4 4.9-30.9 0s-8.5-12.9 0-17.9c8.5-4.9 22.4-4.9 30.9 0 8.6 5 8.6 13 0 17.9z" fill="#ffd569"/><path d="m474.9 439.6c-8.5 4.9-22.4 4.9-30.9 0s-8.5-12.9 0-17.9c8.5-4.9 22.4-4.9 30.9 0 8.6 5 8.6 13 0 17.9z" fill="url(#k)" opacity=".5"/><path d="m447.5 430.1h-1.7v-1.8h1.7c.6-1.5 2.6-2.3 5.8-2.2h.7v2h-1c-1.7 0-2.3.4-2.3 1 0 .7.6 1.1 2.3 1.1s2.9-.3 4.9-1.8c2.5-1.7 4.3-2.3 7-2.3 3.2.1 5.2.9 5.7 2.4h1.7v1.8h-1.7c-.6 1.5-2.6 2.3-5.8 2.2h-1.6v-2h1.8c1.7 0 2.3-.4 2.3-1.1s-.6-1.1-2.3-1.2c-1.7 0-2.9.3-4.9 1.8-2.4 1.7-4.3 2.3-7 2.3-3.1.1-5.1-.7-5.6-2.2z" fill="#f8c24d"/><path d="m484.6 422.6h-1.5c-1.2-1.9-3.2-3.8-5.8-5.3-9.8-5.7-25.7-5.7-35.5 0-2.7 1.6-4.6 3.4-5.8 5.3h-1.5v4.9c0 3.7 2.4 7.5 7.3 10.3 9.8 5.7 25.7 5.7 35.5 0 4.9-2.8 7.4-6.6 7.3-10.3z" fill="#f8c24d"/><path d="m477.2 412.4c-9.8-5.7-25.7-5.7-35.5 0s-9.8 14.8 0 20.5 25.7 5.7 35.5 0c9.8-5.6 9.8-14.8 0-20.5z" fill="#ffd569"/><path d="m474.9 431.6c-8.5 4.9-22.4 4.9-30.9 0s-8.5-12.9 0-17.9c8.5-4.9 22.4-4.9 30.9 0 8.6 5 8.6 13 0 17.9z" fill="#ffd569"/><path d="m474.9 431.6c-8.5 4.9-22.4 4.9-30.9 0s-8.5-12.9 0-17.9c8.5-4.9 22.4-4.9 30.9 0 8.6 5 8.6 13 0 17.9z" fill="url(#l)" opacity=".5"/><path d="m447.5 422.1h-1.7v-1.8h1.7c.6-1.5 2.6-2.3 5.8-2.2h.7v2h-1c-1.7 0-2.3.4-2.3 1 0 .7.6 1.1 2.3 1.1s2.9-.3 4.9-1.8c2.5-1.7 4.3-2.3 7-2.3 3.2.1 5.2.9 5.7 2.4h1.7v1.8h-1.7c-.6 1.5-2.6 2.3-5.8 2.2h-1.6v-2h1.8c1.7 0 2.3-.4 2.3-1.1s-.6-1.1-2.3-1.2c-1.7 0-2.9.3-4.9 1.8-2.4 1.7-4.3 2.3-7 2.3-3.1.1-5.1-.7-5.6-2.2z" fill="#f8c24d"/><path d="m293.3 456.7 26.3-15.3c5.2-3 10.1-3.5 13.9-1.3 3.7 2.1 5.8 6.6 5.8 12.7v1.9c-.2.1-.4.2-.6.4v-2.3c0-5.8-1.9-10.1-5.5-12.2-3.5-2-8.2-1.6-13.3 1.3l-26.3 15.3c-.1.1-.3 0-.4-.1 0-.1 0-.3.1-.4z" fill="#d9eafd"/><path d="m375.5 438.4v-59.4c0-11.9 8.4-26.4 18.7-32.3 5-2.9 9.8-3.4 13.4-1.3s5.6 6.4 5.6 12.2v4.1c-.2.2-.4.4-.6.6v-4.7c0-5.6-1.9-9.8-5.3-11.7-3.4-2-8-1.5-12.8 1.3-10.1 5.8-18.4 20.1-18.4 31.8v59.4c0 9.9-5.8 21.5-13.7 28.5 0-.3 0-.5 0-.8 7.6-6.9 13.1-18.1 13.1-27.7z" fill="#d9eafd"/><path d="m413.1 363.6c1-.9 5.4-4.8 11.9-5.8 7.4-1.1 10.4 7.5 10.4 7.5s.9 4.5.8 7.1c0 2.6-.2 12.2-.2 12.2l-23.3-13.4c-.1 0-.2-.1-.2-.3v-6.8c.2-.2.4-.3.6-.5z" fill="#4d6ca5"/><path d="m429.7 358.2-22.1-12.7.1.3c-3.4-2.2-8.5-2.4-15.4 2.6-13.7 10-15.3 24-16 26.6s-.4 19.2-.4 19.2 0 40-.1 44.6c0 4.6-1.4 9.9-4 15.5s-9.3 12.5-9.3 12.5v8.1c1.1 8.8 4.8 10.8 10.4 11.3 4.5.4 9.3-2.8 13.1-6.4-.1.1-.2.2-.2.2v8.1c1.1 8.8 4.8 10.8 10.4 11.3s11.6-4.6 15.6-8.9c4.1-4.3 7.5-10.9 9.4-16.8s1.3-13.6 1.3-13.6 0-43.7.1-52.3c0-8.6.3-7.1 3.1-15.8s10.3-14.7 10.3-14.7l18-5.4z" fill="#def5fb"/><path d="m391.2 498.8c-.3-.4-4.2-3.1-5.2-7.7-.6-2.6-.5-6.5-.5-6.5s0-2.2.1-4.2c0 0 .1-.1.1-.1 0-.3 0-.5 0-.8 0 0-.1.1-.1.1 0-.4 0-.9.1-1.2.1-2.1-1.4-6.5-1.4-6.5s-2.2-5.9-8.6-6.1c-5.7-.2-11.8 3.9-13 4.8v-2.6c-.1.1-.2.1-.3.2 0-.4 0-.7 0-1.1 0 0 .1-.1.1-.1 0-.3 0-.5 0-.8 0 0-.1.1-.1.1 0-.4 0-.9.1-1.2.1-2.1-1.4-6.5-1.4-6.5s-2.2-5.9-8.6-6.1c-5.7-.2-11.8 3.9-13 4.8v-2.7c-.2.1-.4.2-.6.4v4.7c0 5.7 1.9 9.9 5.3 12l.1.1s.1 0 .1.1h.1l23.6 13.6z" fill="#39465b"/><path d="m356.8 453.4s-.2-.1-.5-.2c-.1 0-.2-.1-.3-.1l-22.4-13s-4.1-2.2-9.1-.3c-5 1.8-31.1 17.5-31.1 17.5l23.4 13.5h.1l23.2 13.3s13.1-8.1 22.2-13.4l.6-.3c3.7-2.1 6.6-3.7 7.6-4 5.6-1.5 9.5.3 10.5.9z" fill="#def5fb"/><path d="m380.7 467.2.3.2s-.1-.1-.3-.2z" fill="#def5fb"/><path d="m436.4 377c1-.9 5.4-4.8 11.9-5.8 7.4-1.1 10.4 7.5 10.4 7.5s.9 4.5.8 7.1c0 2.6-.2 12.2-.2 12.2l-23.3-13.4c-.1 0-.2-.1-.2-.3v-6.8c.2-.2.4-.3.6-.5z" fill="#39465b"/><path d="m395.7 499.9c2.6 0 5.4-.9 8.4-2.6 10.2-5.9 18.5-20.3 18.5-32.1v-59.4c0-11.7 8.2-26 18.4-31.8 4.9-2.8 9.4-3.3 12.8-1.3s5.3 6.1 5.3 11.7v13.3c0 .2.1.3.3.3s.3-.1.3-.3v-13.3c0-5.8-2-10.2-5.6-12.2-3.6-2.1-8.3-1.6-13.4 1.3-10.3 5.9-18.7 20.4-18.7 32.3v59.4c0 11.6-8.2 25.8-18.2 31.6-4.8 2.8-9.3 3.2-12.7 1.3-3.4-2-5.2-6.1-5.2-11.7v-7c0-6-2-10.5-5.8-12.7-3.7-2.1-8.6-1.7-13.9 1.3l-26.3 15.3c-.1.1-.2.3-.1.4s.3.2.4.1l26.3-15.3c5-2.9 9.7-3.4 13.3-1.3 3.5 2 5.5 6.4 5.5 12.2v7c0 5.8 2 10.1 5.5 12.2 1.5.8 3.1 1.3 4.9 1.3z" fill="#4d6ca5"/><g fill="#8cdcf2"><path d="m397.7 363-3.6-2.1c-.2-.1-.2-.4 0-.6l3-3.1c.2-.2.6-.3.8-.2l3.6 2.1c.2.1.2.4 0 .6l-3 3.1c-.2.2-.5.3-.8.2z"/><path d="m405.5 367.4-3.6-2.1c-.2-.1-.2-.4 0-.6l3-3.1c.2-.2.6-.3.8-.2l3.6 2.1c.2.1.2.4 0 .6l-3 3.1c-.3.3-.6.4-.8.2z"/><path d="m413.2 371.9-3.6-2.1c-.2-.1-.2-.4 0-.6l3-3.1c.2-.2.6-.3.8-.2l3.6 2.1c.2.1.2.4 0 .6l-3 3.1c-.2.3-.6.3-.8.2z"/><path d="m420.9 376.4-3.6-2.1c-.2-.1-.2-.4 0-.6l3-3.1c.2-.2.6-.3.8-.2l3.6 2.1c.2.1.2.4 0 .6l-3 3.1c-.2.2-.5.3-.8.2z"/><path d="m400.5 412.8-5.6-3.2c-.5-.3-.9-1.1-1-1.8 0-.7.4-1 .9-.7l5.6 3.2c.5.3.9 1.1 1 1.8 0 .6-.4 1-.9.7z"/><path d="m413.8 420.4-8.2-4.7c-.5-.3-.9-1.1-1-1.8 0-.7.4-1 .9-.7l8.2 4.7c.5.3.9 1.1 1 1.8 0 .7-.4 1-.9.7z"/><path d="m397.7 442.5-5.6-3.2c-.5-.3-.9-1.1-1-1.8 0-.7.4-1 .9-.7l5.6 3.2c.5.3.9 1.1 1 1.8.1.6-.3 1-.9.7z"/><path d="m409.6 449.3-8.2-4.7c-.5-.3-.9-1.1-1-1.8 0-.7.4-1 .9-.7l8.2 4.7c.5.3.9 1.1 1 1.8 0 .7-.4 1-.9.7z"/><path d="m385.2 409.2-3.5-2c-.5-.3-.9-1.1-1-1.8 0-.7.4-1 .9-.7l3.5 2c.5.3.9 1.1 1 1.8.1.6-.4 1-.9.7z"/><path d="m397.1 421.2-10.6-6.1c-.5-.3-.9-1.1-1-1.8 0-.7.4-1 .9-.7l10.6 6.1c.5.3.9 1.1 1 1.8 0 .7-.4 1-.9.7z"/><path d="m390.1 427.6-3.5-2c-.5-.3-.9-1.1-1-1.8 0-.7.4-1 .9-.7l3.5 2c.5.3.9 1.1 1 1.8.1.7-.4 1-.9.7z"/><path d="m413.7 462.1-9.3-5.4c-.5-.3-.9-1.1-1-1.8 0-.7.4-1 .9-.7l9.3 5.4c.5.3.9 1.1 1 1.8 0 .7-.4 1-.9.7z"/><path d="m389.1 437.4-2.2-1.3c-.5-.3-.9-1.1-1-1.8 0-.7.4-1 .9-.7l2.2 1.3c.5.3.9 1.1 1 1.8 0 .7-.4 1-.9.7z"/><path d="m389.8 448.3-2.8-1.6c-.5-.3-.9-1.1-1-1.8 0-.7.4-1 .9-.7l2.8 1.6c.5.3.9 1.1 1 1.8 0 .7-.4 1-.9.7z"/><path d="m400.6 454.5-7.3-4.2c-.5-.3-.9-1.1-1-1.8 0-.7.4-1 .9-.7l7.3 4.2c.5.3.9 1.1 1 1.8 0 .7-.4 1-.9.7z"/><path d="m392.3 455-5.3-3c-.5-.3-.9-1.1-1-1.8 0-.7.4-1 .9-.7l5.3 3c.5.3.9 1.1 1 1.8.1.7-.3 1-.9.7z"/><path d="m403.1 435.1-9.3-5.4c-.5-.3-.9-1.1-1-1.8 0-.7.4-1 .9-.7l9.3 5.4c.5.3.9 1.1 1 1.8 0 .7-.4 1-.9.7z"/><path d="m402.8 429.7-16.2-9.4c-.5-.3-.9-1.1-1-1.8 0-.7.4-1 .9-.7l16.2 9.4c.5.3.9 1.1 1 1.8 0 .7-.4 1-.9.7z"/><path d="m396 436.3-9.3-5.4c-.5-.3-.9-1.1-1-1.8 0-.7.4-1 .9-.7l9.3 5.4c.5.3.9 1.1 1 1.8.1.6-.4 1-.9.7z"/><path d="m410.1 439.2-3.4-1.9c-.5-.3-.9-1.1-1-1.8 0-.7.4-1 .9-.7l3.4 1.9c.5.3.9 1.1 1 1.8 0 .7-.4 1-.9.7z"/><path d="m398.1 447.9-11.2-6.4c-.5-.3-.9-1.1-1-1.8 0-.7.4-1 .9-.7l11.2 6.4c.5.3.9 1.1 1 1.8 0 .6-.4 1-.9.7z"/><path d="m389.9 406.6-8.2-4.7c-.5-.3-.9-1.1-1-1.8 0-.7.4-1 .9-.7l8.2 4.7c.5.3.9 1.1 1 1.8 0 .7-.4 1-.9.7z"/><path d="m392 460-9.5-5.5c-.5-.3-.9-1.1-1-1.8 0-.7.4-1 .9-.7l9.5 5.5c.5.3.9 1.1 1 1.8.1.7-.4 1-.9.7z"/></g><path d="m167.5 493.8h-1.5c-1.2-1.9-3.2-3.8-5.8-5.3-9.8-5.7-25.7-5.7-35.5 0-2.7 1.6-4.6 3.4-5.8 5.3h-1.5v4.9c0 3.7 2.4 7.5 7.3 10.3 9.8 5.7 25.7 5.7 35.5 0 4.9-2.8 7.4-6.6 7.3-10.3z" fill="#f8c24d"/><path d="m160.1 483.7c-9.8-5.7-25.7-5.7-35.5 0s-9.8 14.8 0 20.5 25.7 5.7 35.5 0 9.8-14.9 0-20.5z" fill="#ffd569"/><path d="m157.9 502.9c-8.5 4.9-22.4 4.9-30.9 0s-8.5-12.9 0-17.9c8.5-4.9 22.4-4.9 30.9 0s8.5 12.9 0 17.9z" fill="#ffd569"/><path d="m157.9 502.9c-8.5 4.9-22.4 4.9-30.9 0s-8.5-12.9 0-17.9c8.5-4.9 22.4-4.9 30.9 0s8.5 12.9 0 17.9z" fill="url(#m)" opacity=".5"/><path d="m130.4 493.3h-1.7v-1.8h1.7c.6-1.5 2.6-2.3 5.8-2.2h.7v2h-1c-1.7 0-2.3.4-2.3 1 0 .7.6 1.1 2.3 1.1s2.9-.3 4.9-1.8c2.5-1.7 4.3-2.3 7-2.3 3.2.1 5.2.9 5.7 2.4h1.7v1.8h-1.7c-.6 1.5-2.6 2.3-5.8 2.2h-1.6v-2h1.8c1.7 0 2.3-.4 2.3-1.1s-.6-1.1-2.3-1.2c-1.7 0-2.9.3-4.9 1.8-2.4 1.7-4.3 2.3-7 2.3-3.1.1-5.1-.7-5.6-2.2z" fill="#f8c24d"/><path d="m167.8 485.3h-1.5c-1.2-1.9-3.2-3.8-5.8-5.3-9.8-5.7-25.7-5.7-35.5 0-2.7 1.6-4.6 3.4-5.8 5.3h-1.5v4.9c0 3.7 2.4 7.5 7.3 10.3 9.8 5.7 25.7 5.7 35.5 0 4.9-2.8 7.4-6.6 7.3-10.3z" fill="#f8c24d"/><path d="m160.5 475.2c-9.8-5.7-25.7-5.7-35.5 0s-9.8 14.8 0 20.5 25.7 5.7 35.5 0 9.8-14.9 0-20.5z" fill="#ffd569"/><path d="m158.2 494.4c-8.5 4.9-22.4 4.9-30.9 0s-8.5-12.9 0-17.9c8.5-4.9 22.4-4.9 30.9 0s8.5 12.9 0 17.9z" fill="#ffd569"/><path d="m158.2 494.4c-8.5 4.9-22.4 4.9-30.9 0s-8.5-12.9 0-17.9c8.5-4.9 22.4-4.9 30.9 0s8.5 12.9 0 17.9z" fill="url(#n)" opacity=".5"/><path d="m130.7 484.8h-1.7v-1.8h1.7c.6-1.5 2.6-2.3 5.8-2.2h.7v2h-1c-1.7 0-2.3.4-2.3 1 0 .7.6 1.1 2.3 1.1s2.9-.3 4.9-1.8c2.5-1.7 4.3-2.3 7-2.3 3.2.1 5.2.9 5.7 2.4h1.7v1.8h-1.7c-.6 1.5-2.6 2.3-5.8 2.2h-1.6v-2h1.8c1.7 0 2.3-.4 2.3-1.1s-.6-1.1-2.3-1.2c-1.7 0-2.9.3-4.9 1.8-2.4 1.7-4.3 2.3-7 2.3-3 .1-5-.7-5.6-2.2z" fill="#f8c24d"/><path d="m332.7 411.9s-2.7 4.7-3 5c-2.3 3.2-5.2 4.2-8.2 6.4-1.8 1.2-6.2 4.6-4.9 7.3 1.4 2.7 7 2.7 11.1.5s10.2-6.3 10.2-6.3l.7.7s6.8-2.9 6.6-4.8c0 0 .4-6.7-3.6-8.5-.1-.1-.3-.1-.4-.2-.1 0-.9 2-8.5-.1z" fill="#0c0c0c"/><path d="m311.4 397.2s-2.7 4.7-3 5c-2.3 3.2-5.2 4.2-8.2 6.4-1.8 1.2-6.2 4.6-4.9 7.3 1.4 2.7 7 2.7 11.1.5s10.2-6.3 10.2-6.3l.7.7s6.8-2.9 6.6-4.8c0 0 .4-6.7-3.6-8.5-.1-.1-.3-.1-.4-.2-.1.1-1 2.1-8.5-.1z" fill="#0c0c0c"/><path d="m321.8 392.4.3 6.2c.1 1.3-.6 2.6-1.7 3.2-1 .6-2.5 1-4.6.7-4.5-.7-4.9-2-5.2-8.2s11.2-1.9 11.2-1.9z" fill="#0c0c0c"/><path d="m374.9 279.2c-1.8-28.6-31 4.2-31 4.2l-20 19.6-18 19.8c-3.5 3.9-5.2 9.1-4.5 14.3 0 0 7.7 60.9 7.7 61.1.4 3.1 3.9 3.6 6.5 3.6 1.6 0 8.1-.3 8-2.7 0 0-2-61-2-61l37.9-22.8c-.1-.1 17.2-7.4 15.4-36.1z" fill="#0c0c0c"/><path d="m396.7 290.1c-1.8-28.6-31 4.2-31 4.2l-20 19.6-18 19.8c-3.5 3.9-5.2 9.1-4.5 14.3l7.4 61.7c.2 1.7.7 3.9 2.2 4.9 2.2 1.5 4.9 2 7.5 1.6 1.7-.3 6.2-1.4 6.2-3.8l-3.1-63.5 37.9-22.8c-.1.1 17.1-7.3 15.4-36z" fill="#1e1e1e"/><path d="m379.4 198.2c22.2 9.2 21.7 22.3 21.7 22.3s-4.3 48.1-2.9 80.2c.6 13.4-66.8 17.4-56.1-18.5 12.6-42.2 3.4-79.3 9.3-84.5 6-5.1 22.2-1.9 28 .5z" fill="#f64444"/><ellipse cx="375.4" cy="207" fill="#facaa9" rx="11.4" ry="8.4" transform="matrix(.9684 .2494 -.2494 .9684 63.4959 -87.1051)"/><path d="m370.5 197.2s.2.9-.2 7.9c-.1 2.2 7.6 4.3 9.6 2.3s1.2-4.1 1.7-11.6-11.1 1.4-11.1 1.4z" fill="#facaa9"/><path d="m381.6 195.8s-1.9 7-11.3 9.6l.1-6.3z" fill="#d59a90"/><path d="m387.5 178.1c2.4 9.1-3.1 18.4-12.3 20.8-9.1 2.4-10.4-.1-12.7-9.3-2.4-9.1-1.5-25.8 7.6-28.2 9.2-2.4 15.1 7.5 17.4 16.7z" fill="#facaa9"/><path d="m361.7 183.1s3.6-2.5 10.8-1.1c1.7.3 3.3 1.2 4.3 2.6.4.4.8.8 1.3 1 1.3.3 3.4-5 5.8-5.1 2.5-.1 4.1 1.6 2.1 4.9s-1.3 6.9-.4 7.4 10.8-7.1 2.1-24.4c-3.5-6.9-10-10.3-17.6-9.3-6.6.9-13.2 4.8-15.6 11.2-1.8 4.9-.6 15.6 7.2 12.8z" fill="#0c0c0c"/><path d="m388.7 255.6v13c0 1.5-.6 2.9-1.7 3.9l-26.7 24.3 3 4.6 35.2-25.6c1.6-1.2 2.7-3 2.9-5l2.4-22.7z" fill="#facaa9"/><path d="m399.2 214s8.1 12.2 11.1 44.2c0 0-13.8 4.5-21.7 1.9-7.8-2.5 10.6-46.1 10.6-46.1z" fill="#f64444"/><path d="m387.2 229.4s-3.2 17-3.3 24.9c0 2.2 1.3 4.2 3.3 4.9z" fill="#d8271d" opacity=".9"/><path d="m380.3 313.8-5.9-.8-38.1-22c-1.2-.7-3.4-.6-4.8.2l-27 15.6-3.6-.5v3.6c0 .5.2.9.8 1.3l43.1 24.9c1.2.7 3.4.6 4.8-.2l29.4-17c.8-.5 1.2-1 1.2-1.6v-3.5z" fill="#2a3f77"/><path d="m351.6 299.9-2.7-1.6h-29.7l-14.7 8.5-3.6-.5v3.6c0 .5.2.9.8 1.3l43.1 24.9c.6.4 1.5.5 2.5.5z" fill="#4d6ca5"/><path d="m302.6 306.5-1.6-.2v3.6c0 .5.2.9.8 1.3l.8.4z" fill="#6c91ca"/><path d="m345.4 336.2c1.2.4 2.8.3 4-.3v-6h-4z" fill="#395085"/><path d="m344.9 332.5-43.1-24.9c-1.2-.7-1.1-1.9.3-2.7l29.4-17c1.4-.8 3.5-.9 4.8-.2l43.1 24.9c1.2.7 1.1 1.9-.3 2.7l-29.4 17c-1.4.8-3.5.9-4.8.2z" fill="#fff"/><path d="m344.2 328.7-35.9-20.7c-1-.6-.9-1.6.3-2.3l15.7-8.9c1.2-.7 2.9-.8 4-.2l35.9 20.7c1 .6.9 1.6-.3 2.3l-15.7 8.9c-1.2.7-3 .8-4 .2z" fill="#d9eafd"/><path d="m333.2 287-.4 3c-.4 2.5-.3 5.1.2 7.6l.5 2.6c.3 1.5 1.5 2.6 3 2.9 1.2.2 2.3-.6 2.4-1.8l.7-6.4s1.6 2.1 2.4 2.1-.9-6.4-2.7-10c-1.8-3.4-6.1 0-6.1 0z" fill="#facaa9"/><path d="m350.6 239.7-4.6 9.2c-1.1 2.2-1.7 4.5-1.9 7l-2 31.3-8.4 2.1c-.1-5.2-.3-10.4-.4-15.5-.2-6.7-.5-13.5-.1-20.2s1.8-13.3 2.9-19.9c.2-.9.3-1.9.5-2.8z" fill="#facaa9"/><path d="m343.5 334.8-3.6-4.7-38-22c-1.2-.7-2.2-2.6-2.2-4.2v-31.1l-2.2-2.9 2.1-1.2c.4-.3.9-.2 1.5.1l43.1 25c1.2.7 2.2 2.6 2.2 4.2v33.9c0 .9-.3 1.6-.8 1.8z" fill="#2a3f77"/><path d="m317.2 317-2.7-1.6-14.8-25.8v-16.9l-2.2-2.9 2.1-1.2c.4-.3.9-.2 1.5.1l43.1 25c.6.4 1.2 1.1 1.6 1.9z" fill="#4d6ca5"/><path d="m298.4 271.1-1-1.3 2.1-1.2c.4-.3.9-.2 1.5.1l.8.4z" fill="#6c91ca"/><path d="m344.5 294c1 .8 1.7 2.3 1.8 3.6l-4.2 2.4-2-3.5z" fill="#395085"/><path d="m342.1 294.9-43.1-24.9c-1.2-.7-2.2 0-2.2 1.7v33.9c0 1.6 1 3.5 2.2 4.2l43.1 25c1.2.7 2.2 0 2.2-1.7v-33.9c0-1.7-1-3.6-2.2-4.3z" fill="#6c91ca"/><path d="m351.9 197.7s-16.4 17.9-23 34.2c0 0 5.6 10.1 19.3 14.1 13.8 4 3.7-48.3 3.7-48.3z" fill="#f64444"/><path d="m348.8 246.3-.9-27.1-6.3 24.1c1.1.6 5.9 2.5 7.2 3z" fill="#d8271d" opacity=".9"/><path d="m360.9 296.1s-7 .4-9.1 3.5-3.5 4.1-3.3 5.6c.2 1.4 2 7.5 5.6 7.6s2.2-2 3.2-3.6c.9-1.5 2.8-2.7 2.8-2.7l3.8-5.3z" fill="#facaa9"/></svg>