<svg enable-background="new 0 0 513.3 503.4" viewBox="0 0 513.3 503.4" xmlns="http://www.w3.org/2000/svg" xmlns:xlink="http://www.w3.org/1999/xlink"><linearGradient id="a"><stop offset=".2742" stop-color="#d6d5d5"/><stop offset=".3829" stop-color="#9e9d9d"/><stop offset=".4915" stop-color="#6e6d6d"/><stop offset=".5988" stop-color="#464646"/><stop offset=".7039" stop-color="#282727"/><stop offset=".8062" stop-color="#121212"/><stop offset=".9044" stop-color="#040404"/><stop offset=".994"/></linearGradient><radialGradient id="b" cx="488.248" cy="389.0154" gradientUnits="userSpaceOnUse" r="17.8554" xlink:href="#a"/><radialGradient id="c" cx="488.248" cy="381.0154" gradientUnits="userSpaceOnUse" r="17.8554" xlink:href="#a"/><radialGradient id="d" cx="488.248" cy="373.0154" gradientUnits="userSpaceOnUse" r="17.8554" xlink:href="#a"/><radialGradient id="e" cx="488.248" cy="365.0154" gradientUnits="userSpaceOnUse" r="17.8554" xlink:href="#a"/><radialGradient id="f" cx="488.248" cy="357.0154" gradientUnits="userSpaceOnUse" r="17.8554" xlink:href="#a"/><radialGradient id="g" cx="488.248" cy="349.0154" gradientUnits="userSpaceOnUse" r="17.8554" xlink:href="#a"/><radialGradient id="h" cx="488.248" cy="340.4544" gradientUnits="userSpaceOnUse" r="17.8554" xlink:href="#a"/><radialGradient id="i" cx="488.248" cy="332.4544" gradientUnits="userSpaceOnUse" r="17.8554" xlink:href="#a"/><radialGradient id="j" cx="488.248" cy="324.4544" gradientUnits="userSpaceOnUse" r="17.8554" xlink:href="#a"/><radialGradient id="k" cx="488.248" cy="316.4544" gradientUnits="userSpaceOnUse" r="17.8554" xlink:href="#a"/><radialGradient id="l" cx="488.248" cy="308.4544" gradientUnits="userSpaceOnUse" r="17.8554" xlink:href="#a"/><radialGradient id="m" cx="488.248" cy="300.4544" gradientUnits="userSpaceOnUse" r="17.8554" xlink:href="#a"/><radialGradient id="n" cx="464.248" cy="409.5154" gradientUnits="userSpaceOnUse" r="17.8554" xlink:href="#a"/><radialGradient id="o" cx="464.248" cy="401.5154" gradientUnits="userSpaceOnUse" r="17.8554" xlink:href="#a"/><radialGradient id="p" cx="464.248" cy="393.5154" gradientUnits="userSpaceOnUse" r="17.8554" xlink:href="#a"/><radialGradient id="q" cx="464.248" cy="385.5154" gradientUnits="userSpaceOnUse" r="17.8554" xlink:href="#a"/><radialGradient id="r" cx="464.248" cy="377.5154" gradientUnits="userSpaceOnUse" r="17.8554" xlink:href="#a"/><radialGradient id="s" cx="464.248" cy="369.5154" gradientUnits="userSpaceOnUse" r="17.8554" xlink:href="#a"/><radialGradient id="t" cx="483.1146" cy="440.5229" gradientUnits="userSpaceOnUse" r="17.8554" xlink:href="#a"/><radialGradient id="u" cx="483.1146" cy="432.5229" gradientUnits="userSpaceOnUse" r="17.8554" xlink:href="#a"/><radialGradient id="v" cx="483.1146" cy="424.5229" gradientUnits="userSpaceOnUse" r="17.8554" xlink:href="#a"/><radialGradient id="w" cx="483.1146" cy="416.5229" gradientUnits="userSpaceOnUse" r="17.8554" xlink:href="#a"/><radialGradient id="x" cx="339.9091" cy="434.0037" gradientUnits="userSpaceOnUse" r="75.2207"><stop offset=".2742" stop-color="#d6d5d5"/><stop offset=".412" stop-color="#9c9b9b"/><stop offset=".5593" stop-color="#656464"/><stop offset=".6964" stop-color="#393939"/><stop offset=".8189" stop-color="#1a1a1a"/><stop offset=".9222" stop-color="#070707"/><stop offset=".994"/></radialGradient><clipPath id="y"><path d="m303.4 389.5 180.6-155-164.9 113.4z"/></clipPath><clipPath id="z"><path d="m303.4 389.5 180.6-155-164.9 113.4z"/></clipPath><text style="opacity:.5;fill:#009bdb;stroke:#009bdb;stroke-width:20;stroke-miterlimit:10;font-family:BebasNeueBold;font-size:432.6742;letter-spacing:8" transform="translate(10 377.769)">08</text><path d="m513.3 388.9h-1.5c-1.2-1.9-3.2-3.8-5.8-5.3-9.8-5.7-25.7-5.7-35.5 0-2.7 1.6-4.6 3.4-5.8 5.3h-1.5v4.9c0 3.7 2.4 7.5 7.3 10.3 9.8 5.7 25.7 5.7 35.5 0 4.9-2.8 7.4-6.6 7.3-10.3z" fill="#f8c24d"/><path d="m506 378.8c-9.8-5.7-25.7-5.7-35.5 0s-9.8 14.8 0 20.5 25.7 5.7 35.5 0 9.8-14.9 0-20.5z" fill="#ffd569"/><path d="m503.7 397.9c-8.5 4.9-22.4 4.9-30.9 0s-8.5-12.9 0-17.9c8.5-4.9 22.4-4.9 30.9 0 8.6 5 8.6 13 0 17.9z" fill="#ffd569"/><path d="m503.7 397.9c-8.5 4.9-22.4 4.9-30.9 0s-8.5-12.9 0-17.9c8.5-4.9 22.4-4.9 30.9 0 8.6 5 8.6 13 0 17.9z" fill="url(#b)" opacity=".5"/><path d="m476.2 388.4h-1.7v-1.8h1.7c.6-1.5 2.6-2.3 5.8-2.2h.7v2h-1c-1.7 0-2.3.4-2.3 1 0 .7.6 1.1 2.3 1.1s2.9-.3 4.9-1.8c2.5-1.7 4.3-2.3 7-2.3 3.2.1 5.2.9 5.7 2.4h1.7v1.8h-1.7c-.6 1.5-2.6 2.3-5.8 2.2h-1.6v-2h1.8c1.7 0 2.3-.4 2.3-1.1s-.6-1.1-2.3-1.2c-1.7 0-2.9.3-4.9 1.8-2.4 1.7-4.3 2.3-7 2.3-3 .1-5-.7-5.6-2.2z" fill="#f8c24d"/><path d="m513.3 380.9h-1.5c-1.2-1.9-3.2-3.8-5.8-5.3-9.8-5.7-25.7-5.7-35.5 0-2.7 1.6-4.6 3.4-5.8 5.3h-1.5v4.9c0 3.7 2.4 7.5 7.3 10.3 9.8 5.7 25.7 5.7 35.5 0 4.9-2.8 7.4-6.6 7.3-10.3z" fill="#f8c24d"/><path d="m506 370.8c-9.8-5.7-25.7-5.7-35.5 0s-9.8 14.8 0 20.5 25.7 5.7 35.5 0 9.8-14.9 0-20.5z" fill="#ffd569"/><path d="m503.7 389.9c-8.5 4.9-22.4 4.9-30.9 0s-8.5-12.9 0-17.9c8.5-4.9 22.4-4.9 30.9 0 8.6 5 8.6 13 0 17.9z" fill="#ffd569"/><path d="m503.7 389.9c-8.5 4.9-22.4 4.9-30.9 0s-8.5-12.9 0-17.9c8.5-4.9 22.4-4.9 30.9 0 8.6 5 8.6 13 0 17.9z" fill="url(#c)" opacity=".5"/><path d="m476.2 380.4h-1.7v-1.8h1.7c.6-1.5 2.6-2.3 5.8-2.2h.7v2h-1c-1.7 0-2.3.4-2.3 1 0 .7.6 1.1 2.3 1.1s2.9-.3 4.9-1.8c2.5-1.7 4.3-2.3 7-2.3 3.2.1 5.2.9 5.7 2.4h1.7v1.8h-1.7c-.6 1.5-2.6 2.3-5.8 2.2h-1.6v-2h1.8c1.7 0 2.3-.4 2.3-1.1s-.6-1.1-2.3-1.2c-1.7 0-2.9.3-4.9 1.8-2.4 1.7-4.3 2.3-7 2.3-3 .1-5-.7-5.6-2.2z" fill="#f8c24d"/><path d="m513.3 372.9h-1.5c-1.2-1.9-3.2-3.8-5.8-5.3-9.8-5.7-25.7-5.7-35.5 0-2.7 1.6-4.6 3.4-5.8 5.3h-1.5v4.9c0 3.7 2.4 7.5 7.3 10.3 9.8 5.7 25.7 5.7 35.5 0 4.9-2.8 7.4-6.6 7.3-10.3z" fill="#f8c24d"/><path d="m506 362.8c-9.8-5.7-25.7-5.7-35.5 0s-9.8 14.8 0 20.5 25.7 5.7 35.5 0 9.8-14.9 0-20.5z" fill="#ffd569"/><path d="m503.7 381.9c-8.5 4.9-22.4 4.9-30.9 0s-8.5-12.9 0-17.9c8.5-4.9 22.4-4.9 30.9 0 8.6 5 8.6 13 0 17.9z" fill="#ffd569"/><path d="m503.7 381.9c-8.5 4.9-22.4 4.9-30.9 0s-8.5-12.9 0-17.9c8.5-4.9 22.4-4.9 30.9 0 8.6 5 8.6 13 0 17.9z" fill="url(#d)" opacity=".5"/><path d="m476.2 372.4h-1.7v-1.8h1.7c.6-1.5 2.6-2.3 5.8-2.2h.7v2h-1c-1.7 0-2.3.4-2.3 1 0 .7.6 1.1 2.3 1.1s2.9-.3 4.9-1.8c2.5-1.7 4.3-2.3 7-2.3 3.2.1 5.2.9 5.7 2.4h1.7v1.8h-1.7c-.6 1.5-2.6 2.3-5.8 2.2h-1.6v-2h1.8c1.7 0 2.3-.4 2.3-1.1s-.6-1.1-2.3-1.2c-1.7 0-2.9.3-4.9 1.8-2.4 1.7-4.3 2.3-7 2.3-3 .1-5-.7-5.6-2.2z" fill="#f8c24d"/><path d="m513.3 364.9h-1.5c-1.2-1.9-3.2-3.8-5.8-5.3-9.8-5.7-25.7-5.7-35.5 0-2.7 1.6-4.6 3.4-5.8 5.3h-1.5v4.9c0 3.7 2.4 7.5 7.3 10.3 9.8 5.7 25.7 5.7 35.5 0 4.9-2.8 7.4-6.6 7.3-10.3z" fill="#f8c24d"/><path d="m506 354.8c-9.8-5.7-25.7-5.7-35.5 0s-9.8 14.8 0 20.5 25.7 5.7 35.5 0 9.8-14.9 0-20.5z" fill="#ffd569"/><path d="m503.7 373.9c-8.5 4.9-22.4 4.9-30.9 0s-8.5-12.9 0-17.9c8.5-4.9 22.4-4.9 30.9 0 8.6 5 8.6 13 0 17.9z" fill="#ffd569"/><path d="m503.7 373.9c-8.5 4.9-22.4 4.9-30.9 0s-8.5-12.9 0-17.9c8.5-4.9 22.4-4.9 30.9 0 8.6 5 8.6 13 0 17.9z" fill="url(#e)" opacity=".5"/><path d="m476.2 364.4h-1.7v-1.8h1.7c.6-1.5 2.6-2.3 5.8-2.2h.7v2h-1c-1.7 0-2.3.4-2.3 1 0 .7.6 1.1 2.3 1.1s2.9-.3 4.9-1.8c2.5-1.7 4.3-2.3 7-2.3 3.2.1 5.2.9 5.7 2.4h1.7v1.8h-1.7c-.6 1.5-2.6 2.3-5.8 2.2h-1.6v-2h1.8c1.7 0 2.3-.4 2.3-1.1s-.6-1.1-2.3-1.2c-1.7 0-2.9.3-4.9 1.8-2.4 1.7-4.3 2.3-7 2.3-3 .1-5-.7-5.6-2.2z" fill="#f8c24d"/><path d="m513.3 356.9h-1.5c-1.2-1.9-3.2-3.8-5.8-5.3-9.8-5.7-25.7-5.7-35.5 0-2.7 1.6-4.6 3.4-5.8 5.3h-1.5v4.9c0 3.7 2.4 7.5 7.3 10.3 9.8 5.7 25.7 5.7 35.5 0 4.9-2.8 7.4-6.6 7.3-10.3z" fill="#f8c24d"/><path d="m506 346.8c-9.8-5.7-25.7-5.7-35.5 0s-9.8 14.8 0 20.5 25.7 5.7 35.5 0 9.8-14.9 0-20.5z" fill="#ffd569"/><path d="m503.7 365.9c-8.5 4.9-22.4 4.9-30.9 0s-8.5-12.9 0-17.9c8.5-4.9 22.4-4.9 30.9 0 8.6 5 8.6 13 0 17.9z" fill="#ffd569"/><path d="m503.7 365.9c-8.5 4.9-22.4 4.9-30.9 0s-8.5-12.9 0-17.9c8.5-4.9 22.4-4.9 30.9 0 8.6 5 8.6 13 0 17.9z" fill="url(#f)" opacity=".5"/><path d="m476.2 356.4h-1.7v-1.8h1.7c.6-1.5 2.6-2.3 5.8-2.2h.7v2h-1c-1.7 0-2.3.4-2.3 1 0 .7.6 1.1 2.3 1.1s2.9-.3 4.9-1.8c2.5-1.7 4.3-2.3 7-2.3 3.2.1 5.2.9 5.7 2.4h1.7v1.8h-1.7c-.6 1.5-2.6 2.3-5.8 2.2h-1.6v-2h1.8c1.7 0 2.3-.4 2.3-1.1s-.6-1.1-2.3-1.2c-1.7 0-2.9.3-4.9 1.8-2.4 1.7-4.3 2.3-7 2.3-3 .1-5-.7-5.6-2.2z" fill="#f8c24d"/><path d="m513.3 348.9h-1.5c-1.2-1.9-3.2-3.8-5.8-5.3-9.8-5.7-25.7-5.7-35.5 0-2.7 1.6-4.6 3.4-5.8 5.3h-1.5v4.9c0 3.7 2.4 7.5 7.3 10.3 9.8 5.7 25.7 5.7 35.5 0 4.9-2.8 7.4-6.6 7.3-10.3z" fill="#f8c24d"/><path d="m506 338.8c-9.8-5.7-25.7-5.7-35.5 0s-9.8 14.8 0 20.5 25.7 5.7 35.5 0 9.8-14.9 0-20.5z" fill="#ffd569"/><path d="m503.7 357.9c-8.5 4.9-22.4 4.9-30.9 0s-8.5-12.9 0-17.9c8.5-4.9 22.4-4.9 30.9 0 8.6 5 8.6 13 0 17.9z" fill="#ffd569"/><path d="m503.7 357.9c-8.5 4.9-22.4 4.9-30.9 0s-8.5-12.9 0-17.9c8.5-4.9 22.4-4.9 30.9 0 8.6 5 8.6 13 0 17.9z" fill="url(#g)" opacity=".5"/><path d="m476.2 348.4h-1.7v-1.8h1.7c.6-1.5 2.6-2.3 5.8-2.2h.7v2h-1c-1.7 0-2.3.4-2.3 1 0 .7.6 1.1 2.3 1.1s2.9-.3 4.9-1.8c2.5-1.7 4.3-2.3 7-2.3 3.2.1 5.2.9 5.7 2.4h1.7v1.8h-1.7c-.6 1.5-2.6 2.3-5.8 2.2h-1.6v-2h1.8c1.7 0 2.3-.4 2.3-1.1s-.6-1.1-2.3-1.2c-1.7 0-2.9.3-4.9 1.8-2.4 1.7-4.3 2.3-7 2.3-3 .1-5-.7-5.6-2.2z" fill="#f8c24d"/><path d="m513.3 340.3h-1.5c-1.2-1.9-3.2-3.8-5.8-5.3-9.8-5.7-25.7-5.7-35.5 0-2.7 1.6-4.6 3.4-5.8 5.3h-1.5v4.9c0 3.7 2.4 7.5 7.3 10.3 9.8 5.7 25.7 5.7 35.5 0 4.9-2.8 7.4-6.6 7.3-10.3z" fill="#f8c24d"/><path d="m506 330.2c-9.8-5.7-25.7-5.7-35.5 0s-9.8 14.8 0 20.5 25.7 5.7 35.5 0 9.8-14.8 0-20.5z" fill="#ffd569"/><path d="m503.7 349.4c-8.5 4.9-22.4 4.9-30.9 0s-8.5-12.9 0-17.9c8.5-4.9 22.4-4.9 30.9 0 8.6 5 8.6 13 0 17.9z" fill="#ffd569"/><path d="m503.7 349.4c-8.5 4.9-22.4 4.9-30.9 0s-8.5-12.9 0-17.9c8.5-4.9 22.4-4.9 30.9 0 8.6 5 8.6 13 0 17.9z" fill="url(#h)" opacity=".5"/><path d="m476.2 339.9h-1.7v-1.8h1.7c.6-1.5 2.6-2.3 5.8-2.2h.7v2h-1c-1.7 0-2.3.4-2.3 1 0 .7.6 1.1 2.3 1.1s2.9-.3 4.9-1.8c2.5-1.7 4.3-2.3 7-2.3 3.2.1 5.2.9 5.7 2.4h1.7v1.8h-1.7c-.6 1.5-2.6 2.3-5.8 2.2h-1.6v-2h1.8c1.7 0 2.3-.4 2.3-1.1s-.6-1.1-2.3-1.2c-1.7 0-2.9.3-4.9 1.8-2.4 1.7-4.3 2.3-7 2.3-3 .1-5-.7-5.6-2.2z" fill="#f8c24d"/><path d="m513.3 332.3h-1.5c-1.2-1.9-3.2-3.8-5.8-5.3-9.8-5.7-25.7-5.7-35.5 0-2.7 1.6-4.6 3.4-5.8 5.3h-1.5v4.9c0 3.7 2.4 7.5 7.3 10.3 9.8 5.7 25.7 5.7 35.5 0 4.9-2.8 7.4-6.6 7.3-10.3z" fill="#f8c24d"/><path d="m506 322.2c-9.8-5.7-25.7-5.7-35.5 0s-9.8 14.8 0 20.5 25.7 5.7 35.5 0 9.8-14.8 0-20.5z" fill="#ffd569"/><path d="m503.7 341.4c-8.5 4.9-22.4 4.9-30.9 0s-8.5-12.9 0-17.9c8.5-4.9 22.4-4.9 30.9 0 8.6 5 8.6 13 0 17.9z" fill="#ffd569"/><path d="m503.7 341.4c-8.5 4.9-22.4 4.9-30.9 0s-8.5-12.9 0-17.9c8.5-4.9 22.4-4.9 30.9 0 8.6 5 8.6 13 0 17.9z" fill="url(#i)" opacity=".5"/><path d="m476.2 331.9h-1.7v-1.8h1.7c.6-1.5 2.6-2.3 5.8-2.2h.7v2h-1c-1.7 0-2.3.4-2.3 1 0 .7.6 1.1 2.3 1.1s2.9-.3 4.9-1.8c2.5-1.7 4.3-2.3 7-2.3 3.2.1 5.2.9 5.7 2.4h1.7v1.8h-1.7c-.6 1.5-2.6 2.3-5.8 2.2h-1.6v-2h1.8c1.7 0 2.3-.4 2.3-1.1s-.6-1.1-2.3-1.2c-1.7 0-2.9.3-4.9 1.8-2.4 1.7-4.3 2.3-7 2.3-3 .1-5-.7-5.6-2.2z" fill="#f8c24d"/><path d="m513.3 324.3h-1.5c-1.2-1.9-3.2-3.8-5.8-5.3-9.8-5.7-25.7-5.7-35.5 0-2.7 1.6-4.6 3.4-5.8 5.3h-1.5v4.9c0 3.7 2.4 7.5 7.3 10.3 9.8 5.7 25.7 5.7 35.5 0 4.9-2.8 7.4-6.6 7.3-10.3z" fill="#f8c24d"/><path d="m506 314.2c-9.8-5.7-25.7-5.7-35.5 0s-9.8 14.8 0 20.5 25.7 5.7 35.5 0 9.8-14.8 0-20.5z" fill="#ffd569"/><path d="m503.7 333.4c-8.5 4.9-22.4 4.9-30.9 0s-8.5-12.9 0-17.9c8.5-4.9 22.4-4.9 30.9 0 8.6 5 8.6 13 0 17.9z" fill="#ffd569"/><path d="m503.7 333.4c-8.5 4.9-22.4 4.9-30.9 0s-8.5-12.9 0-17.9c8.5-4.9 22.4-4.9 30.9 0 8.6 5 8.6 13 0 17.9z" fill="url(#j)" opacity=".5"/><path d="m476.2 323.9h-1.7v-1.8h1.7c.6-1.5 2.6-2.3 5.8-2.2h.7v2h-1c-1.7 0-2.3.4-2.3 1 0 .7.6 1.1 2.3 1.1s2.9-.3 4.9-1.8c2.5-1.7 4.3-2.3 7-2.3 3.2.1 5.2.9 5.7 2.4h1.7v1.8h-1.7c-.6 1.5-2.6 2.3-5.8 2.2h-1.6v-2h1.8c1.7 0 2.3-.4 2.3-1.1s-.6-1.1-2.3-1.2c-1.7 0-2.9.3-4.9 1.8-2.4 1.7-4.3 2.3-7 2.3-3 .1-5-.7-5.6-2.2z" fill="#f8c24d"/><path d="m513.3 316.3h-1.5c-1.2-1.9-3.2-3.8-5.8-5.3-9.8-5.7-25.7-5.7-35.5 0-2.7 1.6-4.6 3.4-5.8 5.3h-1.5v4.9c0 3.7 2.4 7.5 7.3 10.3 9.8 5.7 25.7 5.7 35.5 0 4.9-2.8 7.4-6.6 7.3-10.3z" fill="#f8c24d"/><path d="m506 306.2c-9.8-5.7-25.7-5.7-35.5 0s-9.8 14.8 0 20.5 25.7 5.7 35.5 0 9.8-14.8 0-20.5z" fill="#ffd569"/><path d="m503.7 325.4c-8.5 4.9-22.4 4.9-30.9 0s-8.5-12.9 0-17.9c8.5-4.9 22.4-4.9 30.9 0 8.6 5 8.6 13 0 17.9z" fill="#ffd569"/><path d="m503.7 325.4c-8.5 4.9-22.4 4.9-30.9 0s-8.5-12.9 0-17.9c8.5-4.9 22.4-4.9 30.9 0 8.6 5 8.6 13 0 17.9z" fill="url(#k)" opacity=".5"/><path d="m476.2 315.9h-1.7v-1.8h1.7c.6-1.5 2.6-2.3 5.8-2.2h.7v2h-1c-1.7 0-2.3.4-2.3 1 0 .7.6 1.1 2.3 1.1s2.9-.3 4.9-1.8c2.5-1.7 4.3-2.3 7-2.3 3.2.1 5.2.9 5.7 2.4h1.7v1.8h-1.7c-.6 1.5-2.6 2.3-5.8 2.2h-1.6v-2h1.8c1.7 0 2.3-.4 2.3-1.1s-.6-1.1-2.3-1.2c-1.7 0-2.9.3-4.9 1.8-2.4 1.7-4.3 2.3-7 2.3-3 .1-5-.7-5.6-2.2z" fill="#f8c24d"/><path d="m513.3 308.3h-1.5c-1.2-1.9-3.2-3.8-5.8-5.3-9.8-5.7-25.7-5.7-35.5 0-2.7 1.6-4.6 3.4-5.8 5.3h-1.5v4.9c0 3.7 2.4 7.5 7.3 10.3 9.8 5.7 25.7 5.7 35.5 0 4.9-2.8 7.4-6.6 7.3-10.3z" fill="#f8c24d"/><path d="m506 298.2c-9.8-5.7-25.7-5.7-35.5 0s-9.8 14.8 0 20.5 25.7 5.7 35.5 0 9.8-14.8 0-20.5z" fill="#ffd569"/><path d="m503.7 317.4c-8.5 4.9-22.4 4.9-30.9 0s-8.5-12.9 0-17.9c8.5-4.9 22.4-4.9 30.9 0 8.6 5 8.6 13 0 17.9z" fill="#ffd569"/><path d="m503.7 317.4c-8.5 4.9-22.4 4.9-30.9 0s-8.5-12.9 0-17.9c8.5-4.9 22.4-4.9 30.9 0 8.6 5 8.6 13 0 17.9z" fill="url(#l)" opacity=".5"/><path d="m476.2 307.9h-1.7v-1.8h1.7c.6-1.5 2.6-2.3 5.8-2.2h.7v2h-1c-1.7 0-2.3.4-2.3 1 0 .7.6 1.1 2.3 1.1s2.9-.3 4.9-1.8c2.5-1.7 4.3-2.3 7-2.3 3.2.1 5.2.9 5.7 2.4h1.7v1.8h-1.7c-.6 1.5-2.6 2.3-5.8 2.2h-1.6v-2h1.8c1.7 0 2.3-.4 2.3-1.1s-.6-1.1-2.3-1.2c-1.7 0-2.9.3-4.9 1.8-2.4 1.7-4.3 2.3-7 2.3-3 .1-5-.7-5.6-2.2z" fill="#f8c24d"/><path d="m513.3 300.3h-1.5c-1.2-1.9-3.2-3.8-5.8-5.3-9.8-5.7-25.7-5.7-35.5 0-2.7 1.6-4.6 3.4-5.8 5.3h-1.5v4.9c0 3.7 2.4 7.5 7.3 10.3 9.8 5.7 25.7 5.7 35.5 0 4.9-2.8 7.4-6.6 7.3-10.3z" fill="#f8c24d"/><path d="m506 290.2c-9.8-5.7-25.7-5.7-35.5 0s-9.8 14.8 0 20.5 25.7 5.7 35.5 0 9.8-14.8 0-20.5z" fill="#ffd569"/><path d="m503.7 309.4c-8.5 4.9-22.4 4.9-30.9 0s-8.5-12.9 0-17.9c8.5-4.9 22.4-4.9 30.9 0 8.6 5 8.6 13 0 17.9z" fill="#ffd569"/><path d="m503.7 309.4c-8.5 4.9-22.4 4.9-30.9 0s-8.5-12.9 0-17.9c8.5-4.9 22.4-4.9 30.9 0 8.6 5 8.6 13 0 17.9z" fill="url(#m)" opacity=".5"/><path d="m476.2 299.9h-1.7v-1.8h1.7c.6-1.5 2.6-2.3 5.8-2.2h.7v2h-1c-1.7 0-2.3.4-2.3 1 0 .7.6 1.1 2.3 1.1s2.9-.3 4.9-1.8c2.5-1.7 4.3-2.3 7-2.3 3.2.1 5.2.9 5.7 2.4h1.7v1.8h-1.7c-.6 1.5-2.6 2.3-5.8 2.2h-1.6v-2h1.8c1.7 0 2.3-.4 2.3-1.1s-.6-1.1-2.3-1.2c-1.7 0-2.9.3-4.9 1.8-2.4 1.7-4.3 2.3-7 2.3-3 .1-5-.7-5.6-2.2z" fill="#f8c24d"/><path d="m489.3 409.4h-1.5c-1.2-1.9-3.2-3.8-5.8-5.3-9.8-5.7-25.7-5.7-35.5 0-2.7 1.6-4.6 3.4-5.8 5.3h-1.5v4.9c0 3.7 2.4 7.5 7.3 10.3 9.8 5.7 25.7 5.7 35.5 0 4.9-2.8 7.4-6.6 7.3-10.3z" fill="#f8c24d"/><path d="m482 399.3c-9.8-5.7-25.7-5.7-35.5 0s-9.8 14.8 0 20.5 25.7 5.7 35.5 0 9.8-14.9 0-20.5z" fill="#ffd569"/><path d="m479.7 418.4c-8.5 4.9-22.4 4.9-30.9 0s-8.5-12.9 0-17.9c8.5-4.9 22.4-4.9 30.9 0 8.6 5 8.6 13 0 17.9z" fill="#ffd569"/><path d="m479.7 418.4c-8.5 4.9-22.4 4.9-30.9 0s-8.5-12.9 0-17.9c8.5-4.9 22.4-4.9 30.9 0 8.6 5 8.6 13 0 17.9z" fill="url(#n)" opacity=".5"/><path d="m452.2 408.9h-1.7v-1.8h1.7c.6-1.5 2.6-2.3 5.8-2.2h.7v2h-1c-1.7 0-2.3.4-2.3 1 0 .7.6 1.1 2.3 1.1s2.9-.3 4.9-1.8c2.5-1.7 4.3-2.3 7-2.3 3.2.1 5.2.9 5.7 2.4h1.7v1.8h-1.7c-.6 1.5-2.6 2.3-5.8 2.2h-1.6v-2h1.8c1.7 0 2.3-.4 2.3-1.1s-.6-1.1-2.3-1.2c-1.7 0-2.9.3-4.9 1.8-2.4 1.7-4.3 2.3-7 2.3-3 .1-5-.7-5.6-2.2z" fill="#f8c24d"/><path d="m489.3 401.4h-1.5c-1.2-1.9-3.2-3.8-5.8-5.3-9.8-5.7-25.7-5.7-35.5 0-2.7 1.6-4.6 3.4-5.8 5.3h-1.5v4.9c0 3.7 2.4 7.5 7.3 10.3 9.8 5.7 25.7 5.7 35.5 0 4.9-2.8 7.4-6.6 7.3-10.3z" fill="#f8c24d"/><path d="m482 391.3c-9.8-5.7-25.7-5.7-35.5 0s-9.8 14.8 0 20.5 25.7 5.7 35.5 0 9.8-14.9 0-20.5z" fill="#ffd569"/><path d="m479.7 410.4c-8.5 4.9-22.4 4.9-30.9 0s-8.5-12.9 0-17.9c8.5-4.9 22.4-4.9 30.9 0 8.6 5 8.6 13 0 17.9z" fill="#ffd569"/><path d="m479.7 410.4c-8.5 4.9-22.4 4.9-30.9 0s-8.5-12.9 0-17.9c8.5-4.9 22.4-4.9 30.9 0 8.6 5 8.6 13 0 17.9z" fill="url(#o)" opacity=".5"/><path d="m452.2 400.9h-1.7v-1.8h1.7c.6-1.5 2.6-2.3 5.8-2.2h.7v2h-1c-1.7 0-2.3.4-2.3 1 0 .7.6 1.1 2.3 1.1s2.9-.3 4.9-1.8c2.5-1.7 4.3-2.3 7-2.3 3.2.1 5.2.9 5.7 2.4h1.7v1.8h-1.7c-.6 1.5-2.6 2.3-5.8 2.2h-1.6v-2h1.8c1.7 0 2.3-.4 2.3-1.1s-.6-1.1-2.3-1.2c-1.7 0-2.9.3-4.9 1.8-2.4 1.7-4.3 2.3-7 2.3-3 .1-5-.7-5.6-2.2z" fill="#f8c24d"/><path d="m489.3 393.4h-1.5c-1.2-1.9-3.2-3.8-5.8-5.3-9.8-5.7-25.7-5.7-35.5 0-2.7 1.6-4.6 3.4-5.8 5.3h-1.5v4.9c0 3.7 2.4 7.5 7.3 10.3 9.8 5.7 25.7 5.7 35.5 0 4.9-2.8 7.4-6.6 7.3-10.3z" fill="#f8c24d"/><path d="m482 383.3c-9.8-5.7-25.7-5.7-35.5 0s-9.8 14.8 0 20.5 25.7 5.7 35.5 0 9.8-14.9 0-20.5z" fill="#ffd569"/><path d="m479.7 402.4c-8.5 4.9-22.4 4.9-30.9 0s-8.5-12.9 0-17.9c8.5-4.9 22.4-4.9 30.9 0 8.6 5 8.6 13 0 17.9z" fill="#ffd569"/><path d="m479.7 402.4c-8.5 4.9-22.4 4.9-30.9 0s-8.5-12.9 0-17.9c8.5-4.9 22.4-4.9 30.9 0 8.6 5 8.6 13 0 17.9z" fill="url(#p)" opacity=".5"/><path d="m452.2 392.9h-1.7v-1.8h1.7c.6-1.5 2.6-2.3 5.8-2.2h.7v2h-1c-1.7 0-2.3.4-2.3 1 0 .7.6 1.1 2.3 1.1s2.9-.3 4.9-1.8c2.5-1.7 4.3-2.3 7-2.3 3.2.1 5.2.9 5.7 2.4h1.7v1.8h-1.7c-.6 1.5-2.6 2.3-5.8 2.2h-1.6v-2h1.8c1.7 0 2.3-.4 2.3-1.1s-.6-1.1-2.3-1.2c-1.7 0-2.9.3-4.9 1.8-2.4 1.7-4.3 2.3-7 2.3-3 .1-5-.7-5.6-2.2z" fill="#f8c24d"/><path d="m489.3 385.4h-1.5c-1.2-1.9-3.2-3.8-5.8-5.3-9.8-5.7-25.7-5.7-35.5 0-2.7 1.6-4.6 3.4-5.8 5.3h-1.5v4.9c0 3.7 2.4 7.5 7.3 10.3 9.8 5.7 25.7 5.7 35.5 0 4.9-2.8 7.4-6.6 7.3-10.3z" fill="#f8c24d"/><path d="m482 375.3c-9.8-5.7-25.7-5.7-35.5 0s-9.8 14.8 0 20.5 25.7 5.7 35.5 0 9.8-14.9 0-20.5z" fill="#ffd569"/><path d="m479.7 394.4c-8.5 4.9-22.4 4.9-30.9 0s-8.5-12.9 0-17.9c8.5-4.9 22.4-4.9 30.9 0 8.6 5 8.6 13 0 17.9z" fill="#ffd569"/><path d="m479.7 394.4c-8.5 4.9-22.4 4.9-30.9 0s-8.5-12.9 0-17.9c8.5-4.9 22.4-4.9 30.9 0 8.6 5 8.6 13 0 17.9z" fill="url(#q)" opacity=".5"/><path d="m452.2 384.9h-1.7v-1.8h1.7c.6-1.5 2.6-2.3 5.8-2.2h.7v2h-1c-1.7 0-2.3.4-2.3 1 0 .7.6 1.1 2.3 1.1s2.9-.3 4.9-1.8c2.5-1.7 4.3-2.3 7-2.3 3.2.1 5.2.9 5.7 2.4h1.7v1.8h-1.7c-.6 1.5-2.6 2.3-5.8 2.2h-1.6v-2h1.8c1.7 0 2.3-.4 2.3-1.1s-.6-1.1-2.3-1.2c-1.7 0-2.9.3-4.9 1.8-2.4 1.7-4.3 2.3-7 2.3-3 .1-5-.7-5.6-2.2z" fill="#f8c24d"/><path d="m489.3 377.4h-1.5c-1.2-1.9-3.2-3.8-5.8-5.3-9.8-5.7-25.7-5.7-35.5 0-2.7 1.6-4.6 3.4-5.8 5.3h-1.5v4.9c0 3.7 2.4 7.5 7.3 10.3 9.8 5.7 25.7 5.7 35.5 0 4.9-2.8 7.4-6.6 7.3-10.3z" fill="#f8c24d"/><path d="m482 367.3c-9.8-5.7-25.7-5.7-35.5 0s-9.8 14.8 0 20.5 25.7 5.7 35.5 0 9.8-14.9 0-20.5z" fill="#ffd569"/><path d="m479.7 386.4c-8.5 4.9-22.4 4.9-30.9 0s-8.5-12.9 0-17.9c8.5-4.9 22.4-4.9 30.9 0 8.6 5 8.6 13 0 17.9z" fill="#ffd569"/><path d="m479.7 386.4c-8.5 4.9-22.4 4.9-30.9 0s-8.5-12.9 0-17.9c8.5-4.9 22.4-4.9 30.9 0 8.6 5 8.6 13 0 17.9z" fill="url(#r)" opacity=".5"/><path d="m452.2 376.9h-1.7v-1.8h1.7c.6-1.5 2.6-2.3 5.8-2.2h.7v2h-1c-1.7 0-2.3.4-2.3 1 0 .7.6 1.1 2.3 1.1s2.9-.3 4.9-1.8c2.5-1.7 4.3-2.3 7-2.3 3.2.1 5.2.9 5.7 2.4h1.7v1.8h-1.7c-.6 1.5-2.6 2.3-5.8 2.2h-1.6v-2h1.8c1.7 0 2.3-.4 2.3-1.1s-.6-1.1-2.3-1.2c-1.7 0-2.9.3-4.9 1.8-2.4 1.7-4.3 2.3-7 2.3-3 .1-5-.7-5.6-2.2z" fill="#f8c24d"/><path d="m489.3 369.4h-1.5c-1.2-1.9-3.2-3.8-5.8-5.3-9.8-5.7-25.7-5.7-35.5 0-2.7 1.6-4.6 3.4-5.8 5.3h-1.5v4.9c0 3.7 2.4 7.5 7.3 10.3 9.8 5.7 25.7 5.7 35.5 0 4.9-2.8 7.4-6.6 7.3-10.3z" fill="#f8c24d"/><path d="m482 359.3c-9.8-5.7-25.7-5.7-35.5 0s-9.8 14.8 0 20.5 25.7 5.7 35.5 0 9.8-14.9 0-20.5z" fill="#ffd569"/><path d="m479.7 378.4c-8.5 4.9-22.4 4.9-30.9 0s-8.5-12.9 0-17.9c8.5-4.9 22.4-4.9 30.9 0 8.6 5 8.6 13 0 17.9z" fill="#ffd569"/><path d="m479.7 378.4c-8.5 4.9-22.4 4.9-30.9 0s-8.5-12.9 0-17.9c8.5-4.9 22.4-4.9 30.9 0 8.6 5 8.6 13 0 17.9z" fill="url(#s)" opacity=".5"/><path d="m452.2 368.9h-1.7v-1.8h1.7c.6-1.5 2.6-2.3 5.8-2.2h.7v2h-1c-1.7 0-2.3.4-2.3 1 0 .7.6 1.1 2.3 1.1s2.9-.3 4.9-1.8c2.5-1.7 4.3-2.3 7-2.3 3.2.1 5.2.9 5.7 2.4h1.7v1.8h-1.7c-.6 1.5-2.6 2.3-5.8 2.2h-1.6v-2h1.8c1.7 0 2.3-.4 2.3-1.1s-.6-1.1-2.3-1.2c-1.7 0-2.9.3-4.9 1.8-2.4 1.7-4.3 2.3-7 2.3-3 .1-5-.7-5.6-2.2z" fill="#f8c24d"/><path d="m508.2 440.4h-1.5c-1.2-1.9-3.2-3.8-5.8-5.3-9.8-5.7-25.7-5.7-35.5 0-2.7 1.6-4.6 3.4-5.8 5.3h-1.6v4.9c0 3.7 2.4 7.5 7.3 10.3 9.8 5.7 25.7 5.7 35.5 0 4.9-2.8 7.4-6.6 7.3-10.3v-4.9z" fill="#f8c24d"/><path d="m500.9 430.3c-9.8-5.7-25.7-5.7-35.5 0s-9.8 14.8 0 20.5 25.7 5.7 35.5 0 9.8-14.9 0-20.5z" fill="#ffd569"/><path d="m498.6 449.5c-8.5 4.9-22.4 4.9-30.9 0s-8.5-12.9 0-17.9c8.5-4.9 22.4-4.9 30.9 0s8.5 12.9 0 17.9z" fill="#ffd569"/><path d="m498.6 449.5c-8.5 4.9-22.4 4.9-30.9 0s-8.5-12.9 0-17.9c8.5-4.9 22.4-4.9 30.9 0s8.5 12.9 0 17.9z" fill="url(#t)" opacity=".5"/><path d="m471.1 439.9h-1.7v-1.8h1.7c.6-1.5 2.6-2.3 5.8-2.2h.7v2h-1c-1.7 0-2.3.4-2.3 1 0 .7.6 1.1 2.3 1.1s2.9-.3 4.9-1.8c2.5-1.7 4.3-2.3 7-2.3 3.2.1 5.2.9 5.7 2.4h1.7v1.8h-1.7c-.6 1.5-2.6 2.3-5.8 2.2h-1.6v-2h1.8c1.7 0 2.3-.4 2.3-1.1s-.6-1.1-2.3-1.2c-1.7 0-2.9.3-4.9 1.8-2.4 1.7-4.3 2.3-7 2.3-3.1.2-5.1-.7-5.6-2.2z" fill="#f8c24d"/><path d="m508.2 432.4h-1.5c-1.2-1.9-3.2-3.8-5.8-5.3-9.8-5.7-25.7-5.7-35.5 0-2.7 1.6-4.6 3.4-5.8 5.3h-1.6v4.9c0 3.7 2.4 7.5 7.3 10.3 9.8 5.7 25.7 5.7 35.5 0 4.9-2.8 7.4-6.6 7.3-10.3v-4.9z" fill="#f8c24d"/><path d="m500.9 422.3c-9.8-5.7-25.7-5.7-35.5 0s-9.8 14.8 0 20.5 25.7 5.7 35.5 0 9.8-14.9 0-20.5z" fill="#ffd569"/><path d="m498.6 441.5c-8.5 4.9-22.4 4.9-30.9 0s-8.5-12.9 0-17.9c8.5-4.9 22.4-4.9 30.9 0s8.5 12.9 0 17.9z" fill="#ffd569"/><path d="m498.6 441.5c-8.5 4.9-22.4 4.9-30.9 0s-8.5-12.9 0-17.9c8.5-4.9 22.4-4.9 30.9 0s8.5 12.9 0 17.9z" fill="url(#u)" opacity=".5"/><path d="m471.1 431.9h-1.7v-1.8h1.7c.6-1.5 2.6-2.3 5.8-2.2h.7v2h-1c-1.7 0-2.3.4-2.3 1 0 .7.6 1.1 2.3 1.1s2.9-.3 4.9-1.8c2.5-1.7 4.3-2.3 7-2.3 3.2.1 5.2.9 5.7 2.4h1.7v1.8h-1.7c-.6 1.5-2.6 2.3-5.8 2.2h-1.6v-2h1.8c1.7 0 2.3-.4 2.3-1.1s-.6-1.1-2.3-1.2c-1.7 0-2.9.3-4.9 1.8-2.4 1.7-4.3 2.3-7 2.3-3.1.2-5.1-.7-5.6-2.2z" fill="#f8c24d"/><path d="m508.2 424.4h-1.5c-1.2-1.9-3.2-3.8-5.8-5.3-9.8-5.7-25.7-5.7-35.5 0-2.7 1.6-4.6 3.4-5.8 5.3h-1.6v4.9c0 3.7 2.4 7.5 7.3 10.3 9.8 5.7 25.7 5.7 35.5 0 4.9-2.8 7.4-6.6 7.3-10.3v-4.9z" fill="#f8c24d"/><path d="m500.9 414.3c-9.8-5.7-25.7-5.7-35.5 0s-9.8 14.8 0 20.5 25.7 5.7 35.5 0 9.8-14.9 0-20.5z" fill="#ffd569"/><path d="m498.6 433.5c-8.5 4.9-22.4 4.9-30.9 0s-8.5-12.9 0-17.9c8.5-4.9 22.4-4.9 30.9 0s8.5 12.9 0 17.9z" fill="#ffd569"/><path d="m498.6 433.5c-8.5 4.9-22.4 4.9-30.9 0s-8.5-12.9 0-17.9c8.5-4.9 22.4-4.9 30.9 0s8.5 12.9 0 17.9z" fill="url(#v)" opacity=".5"/><path d="m471.1 423.9h-1.7v-1.8h1.7c.6-1.5 2.6-2.3 5.8-2.2h.7v2h-1c-1.7 0-2.3.4-2.3 1 0 .7.6 1.1 2.3 1.1s2.9-.3 4.9-1.8c2.5-1.7 4.3-2.3 7-2.3 3.2.1 5.2.9 5.7 2.4h1.7v1.8h-1.7c-.6 1.5-2.6 2.3-5.8 2.2h-1.6v-2h1.8c1.7 0 2.3-.4 2.3-1.1s-.6-1.1-2.3-1.2c-1.7 0-2.9.3-4.9 1.8-2.4 1.7-4.3 2.3-7 2.3-3.1.2-5.1-.7-5.6-2.2z" fill="#f8c24d"/><path d="m508.2 416.4h-1.5c-1.2-1.9-3.2-3.8-5.8-5.3-9.8-5.7-25.7-5.7-35.5 0-2.7 1.6-4.6 3.4-5.8 5.3h-1.6v4.9c0 3.7 2.4 7.5 7.3 10.3 9.8 5.7 25.7 5.7 35.5 0 4.9-2.8 7.4-6.6 7.3-10.3v-4.9z" fill="#f8c24d"/><path d="m500.9 406.3c-9.8-5.7-25.7-5.7-35.5 0s-9.8 14.8 0 20.5 25.7 5.7 35.5 0 9.8-14.9 0-20.5z" fill="#ffd569"/><path d="m498.6 425.5c-8.5 4.9-22.4 4.9-30.9 0s-8.5-12.9 0-17.9c8.5-4.9 22.4-4.9 30.9 0s8.5 12.9 0 17.9z" fill="#ffd569"/><path d="m498.6 425.5c-8.5 4.9-22.4 4.9-30.9 0s-8.5-12.9 0-17.9c8.5-4.9 22.4-4.9 30.9 0s8.5 12.9 0 17.9z" fill="url(#w)" opacity=".5"/><path d="m471.1 415.9h-1.7v-1.8h1.7c.6-1.5 2.6-2.3 5.8-2.2h.7v2h-1c-1.7 0-2.3.4-2.3 1 0 .7.6 1.1 2.3 1.1s2.9-.3 4.9-1.8c2.5-1.7 4.3-2.3 7-2.3 3.2.1 5.2.9 5.7 2.4h1.7v1.8h-1.7c-.6 1.5-2.6 2.3-5.8 2.2h-1.6v-2h1.8c1.7 0 2.3-.4 2.3-1.1s-.6-1.1-2.3-1.2c-1.7 0-2.9.3-4.9 1.8-2.4 1.7-4.3 2.3-7 2.3-3.1.2-5.1-.7-5.6-2.2z" fill="#f8c24d"/><path d="m430.2 439.7-107.8 62.3c-2.2 1.3-5.4 1.4-7.3.3l-66-38.1c-1.9-1.1-1.6-3 .5-4.2l107.8-62.3c2.2-1.3 5.4-1.4 7.3-.3l66 38.1c1.9 1.1 1.7 3-.5 4.2z" fill="#4a72b2"/><path d="m418.9 441-94.4 54.5c-1.9 1.1-4.8 1.2-6.4.3l-57.8-33.4c-1.6-.9-1.4-2.6.5-3.7l94.4-54.5c1.9-1.1 4.8-1.2 6.4-.3l57.8 33.4c1.6.9 1.4 2.6-.5 3.7z" fill="#131e5e" opacity=".2"/><path d="m318.3 503.4c-1.3 0-2.5-.3-3.4-.8l-66-38.1c-.9-.5-1.5-1.3-1.5-2.2 0-1 .7-2 2-2.7l107.8-62.3c2.3-1.3 5.7-1.4 7.7-.3l66 38.1c.9.5 1.5 1.3 1.5 2.2 0 1-.7 2-2 2.7l-107.8 62.3c-1.2.7-2.8 1.1-4.3 1.1zm43.3-106.4c-1.4 0-2.8.3-3.9 1l-107.8 62.3c-1 .6-1.6 1.3-1.6 2.1 0 .6.4 1.1 1.1 1.5l66 38.1c1.8 1 4.9.9 6.9-.3l107.8-62.3c1-.6 1.6-1.3 1.6-2.1 0-.6-.4-1.1-1.1-1.5l-66-38.1c-.8-.5-1.9-.7-3-.7z" fill="#fff"/><path d="m432 421.5-1.2.9s0 0-.1 0l-66-38.1c-1.9-1.1-5.2-.9-7.3.3l-107.8 62.3c-.3.1-.5.3-.7.5l-1.1-.8v2.7c0 .7.4 1.4 1.3 1.9l66 38.1c1.9 1.1 5.2.9 7.3-.3l107.8-62.3c1.2-.7 1.8-1.6 1.8-2.4z" fill="#fff"/><path d="m430.2 423.9-107.8 62.3c-2.2 1.3-5.4 1.4-7.3.3l-66-38.1c-1.9-1.1-1.6-3 .5-4.2l107.8-62.3c2.2-1.3 5.4-1.4 7.3-.3l66 38.1c1.9 1.1 1.7 2.9-.5 4.2z" fill="url(#x)"/><path d="m430.2 423.9-107.8 62.3c-2.2 1.3-5.4 1.4-7.3.3l-66-38.1c-1.9-1.1-1.6-3 .5-4.2l107.8-62.3c2.2-1.3 5.4-1.4 7.3-.3l66 38.1c1.9 1.1 1.7 2.9-.5 4.2z" fill="#009bdb" opacity=".5"/><path d="m430.2 420.9-107.8 62.3c-2.2 1.3-5.4 1.4-7.3.3l-66-38.1c-1.9-1.1-1.6-3 .5-4.2l107.8-62.3c2.2-1.3 5.4-1.4 7.3-.3l66 38.1c1.9 1.1 1.7 2.9-.5 4.2z" fill="#009bdb" opacity=".5"/><g fill="#fff"><path d="m335.1 463.3-20.7 11.9-2.4-1.4 20.7-11.9z"/><path d="m360.5 448.6-20.7 11.9-2.4-1.3 20.7-12z"/><path d="m385.9 433.9-20.7 12-2.4-1.4 20.7-11.9z"/><path d="m411.3 419.3-20.7 11.9-2.4-1.4 20.7-11.9z"/></g><path clip-path="url(#y)" d="m303.4 234.5h180.6v155h-180.6z" fill="#651b7d"/><path clip-path="url(#y)" d="m302.4 369.4v-78.4h-6.1c12.3-24.1 30.2-45.8 52.3-64v6.4h136.4v157h-182.6z" fill="#651b7d"/><path clip-path="url(#y)" d="m302.4 369.4v-77.8h-4.4c12.3-23.9 30-45.4 51.9-63.5v5.3h135.1v157h-182.6z" fill="#651b7d"/><path clip-path="url(#y)" d="m302.4 369.4v-77.2h-2.7c12.2-23.7 29.8-45.1 51.5-63v4.3h133.8v157h-182.6z" fill="#651c7d"/><path clip-path="url(#y)" d="m302.4 369.4v-76.6h-.9c12.1-23.5 29.5-44.7 51.1-62.5v3.2h132.4v157h-182.6z" fill="#651c7d"/><path clip-path="url(#y)" d="m302.4 369.4v-39.3-27.8h-3.5c1.3-3 2.7-5.9 4.2-8.9 12-23.3 29.3-44.4 50.7-62v2.1h131.2v157h-182.6z" fill="#661c7d"/><path clip-path="url(#y)" d="m302.4 369.4v-39-18.6h-5.4c2.3-6.1 4.9-12 7.9-17.8 11.9-23.2 29.1-44 50.3-61.5v1h129.8v157h-182.6z" fill="#661c7d"/><path clip-path="url(#y)" d="m302.4 369.4v-38.7-18.4h-3.6c2.3-6 4.9-11.9 7.8-17.6 11.8-23 28.8-43.7 49.9-61.1 2.6-2.2 5.3-4.3 8.1-6.4v6.3h120.4v157h-182.6z" fill="#4a72b2"/><path clip-path="url(#y)" d="m302.4 369.4v-38.7-18.4h-3.6c2.3-6 4.9-11.9 7.8-17.6 11.8-23 28.8-43.7 49.9-61.1 2.6-2.2 5.3-4.3 8.1-6.4v6.3h120.4v157h-182.6z" opacity=".5"/><path clip-path="url(#y)" d="m338.6 369.4c0-41.6 20.4-79.2 53.5-106.5 16.5-13.6 36.2-24.7 58-32.3v2.9h34.9v157h-144.3v1.9c-.5-2.5-.8-5-1.2-7.5-.6-5.1-.9-10.3-.9-15.5z" fill="#7a2e80"/><path clip-path="url(#y)" d="m340.4 369.4c0-41.2 20.2-78.4 52.9-105.4 16.3-13.5 35.8-24.4 57.4-31.9v1.4h34.3v157h-142.5v1.6c-.5-2.5-.8-5-1.1-7.5-.6-4.9-1-10-1-15.2z" fill="#7b2e80"/><path clip-path="url(#y)" d="m342.3 369.4c0-40.7 20-77.6 52.4-104.3 16.2-13.3 35.4-24.2 56.8-31.6h33.5v157h-140.6v1.4c-.5-2.4-.8-4.9-1.1-7.4-.7-5-1-10-1-15.1z" fill="#7c2f80"/><path clip-path="url(#y)" d="m344.2 369.4c0-40.3 19.8-76.8 51.8-103.2 16-13.2 35.1-23.9 56.2-31.3 5.3-1.8 10.7-3.5 16.3-4.9v3.5h16.5v157h-138.8v1.2c-.4-2.4-.8-4.9-1.1-7.3-.6-5-.9-9.9-.9-15z" fill="#7c3080"/><path clip-path="url(#y)" d="m346 369.4c0-39.9 19.6-76 51.3-102.1 15.8-13.1 34.7-23.6 55.7-31 10.5-3.7 21.5-6.5 32.9-8.4l-.9 5.6v157h-137v.9c-.4-2.4-.8-4.8-1.1-7.2-.6-4.9-.9-9.8-.9-14.8z" fill="#7d3180"/><path clip-path="url(#y)" d="m347.9 369.4c0-39.5 19.4-75.2 50.7-101.1 15.7-12.9 34.3-23.4 55.1-30.6 10.4-3.6 21.2-6.4 32.5-8.3l-1.2 4.1v157h-135.1v.7c-.4-2.4-.8-4.8-1.1-7.2-.6-4.8-.9-9.6-.9-14.6z" fill="#7d3280"/><path clip-path="url(#y)" d="m349.8 369.4c0-39 19.2-74.4 50.2-100 15.5-12.8 34-23.1 54.5-30.3 10.3-3.6 21-6.4 32.2-8.2l-1.6 2.6v157h-133.4v.5c-.4-2.3-.8-4.7-1.1-7.1-.5-4.8-.8-9.6-.8-14.5z" fill="#7e3380"/><path clip-path="url(#y)" d="m351.6 369.4c0-38.6 19-73.6 49.6-98.9 15.3-12.7 33.6-22.9 53.9-30 10.1-3.5 20.8-6.3 31.8-8.1l-2 1.1v157h-131.3v.2c-.4-2.3-.8-4.6-1.1-7-.6-4.7-.9-9.5-.9-14.3z" fill="#7f3380"/><path clip-path="url(#y)" d="m353.5 369.4c0-38.2 18.8-72.8 49.1-97.8 15.2-12.5 33.2-22.6 53.3-29.6 10-3.5 20.6-6.2 31.5-8.1h-2.4v156.6h-128.1v6.8c-2.3-9-3.4-18.3-3.4-27.9z" fill="#803381"/><path clip-path="url(#y)" d="m355.3 369.4c0-37.8 18.6-72 48.6-96.7 15-12.4 32.9-22.4 52.7-29.3 9.9-3.5 20.3-6.1 31.1-8h-2.7v155.1h-126.3v6.5c-2.2-8.9-3.4-18.1-3.4-27.6z" fill="#803481"/><path clip-path="url(#y)" d="m357.2 369.4c0-37.3 18.3-71.2 48-95.6 14.8-12.2 32.5-22.1 52.1-29 9.8-3.4 20.1-6.1 30.8-7.9h-3.1v153.6h-124.5v6.2c-2.2-8.8-3.3-17.9-3.3-27.3z" fill="#813581"/><path clip-path="url(#y)" d="m359.1 369.4c0-36.9 18.1-70.3 47.5-94.5 14.7-12.1 32.1-21.9 51.5-28.7 9.7-3.4 19.9-6 30.4-7.8h-3.5v152h-122.6v5.9c-2.2-8.6-3.3-17.6-3.3-26.9z" fill="#823681"/><path clip-path="url(#y)" d="m360.9 369.4c0-36.5 17.9-69.5 46.9-93.5 14.5-12 31.8-21.6 50.9-28.3 9.6-3.3 19.6-5.9 30.1-7.7h-3.8v150.5h-120.8v5.6c-2.2-8.5-3.3-17.5-3.3-26.6z" fill="#833781"/><path clip-path="url(#y)" d="m362.8 369.4c0-36.1 17.7-68.7 46.4-92.4 14.3-11.8 31.4-21.4 50.3-28 9.5-3.3 19.4-5.9 29.7-7.6h-4.2v149h-119v5.3c-2.1-8.5-3.2-17.3-3.2-26.3z" fill="#843881"/><path clip-path="url(#y)" d="m364.7 369.4c0-35.6 17.5-67.9 45.8-91.3 14.2-11.7 31-21.1 49.7-27.7 9.4-3.3 19.2-5.8 29.4-7.5h-4.6v147.5h-117.2v5c-2.1-8.4-3.1-17.1-3.1-26z" fill="#853881"/><path clip-path="url(#y)" d="m366.5 369.4c0-35.2 17.3-67.1 45.3-90.2 14-11.5 30.6-20.9 49.1-27.3 9.2-3.2 19-5.7 29-7.4h-5v146h-115.2v4.6c-2.1-8.3-3.2-16.9-3.2-25.7z" fill="#853981"/><path clip-path="url(#y)" d="m368.4 369.4c0-34.8 17.1-66.3 44.7-89.1 13.8-11.4 30.3-20.6 48.5-27 9.1-3.2 18.7-5.7 28.7-7.3h-5.3v144.5h-113.5v4.3c-2.1-8.2-3.1-16.7-3.1-25.4z" fill="#863a82"/><path clip-path="url(#y)" d="m370.2 369.4c0-34.4 16.9-65.5 44.2-88 13.7-11.3 29.9-20.4 48-26.7 9-3.1 18.5-5.6 28.3-7.3h-5.7v143h-111.7v4c-2-8-3.1-16.4-3.1-25z" fill="#873b82"/><path clip-path="url(#y)" d="m372.1 369.4c0-33.9 16.7-64.7 43.6-86.9 13.5-11.1 29.5-20.1 47.4-26.3 8.9-3.1 18.3-5.5 28-7.2h-6.1v141.5h-109.9v3.7c-2-8-3-16.3-3-24.8z" fill="#883c82"/><path clip-path="url(#y)" d="m374 369.4c0-33.5 16.5-63.9 43.1-85.8 13.3-11 29.2-19.9 46.8-26 8.8-3.1 18-5.5 27.6-7.1h-6.5v140h-108v3.4c-2-7.9-3-16.1-3-24.5z" fill="#893d82"/><path clip-path="url(#y)" d="m375.8 369.4c0-33.1 16.3-63.1 42.6-84.8 13.1-10.8 28.8-19.6 46.2-25.7 8.7-3 17.8-5.4 27.3-7h-6.9v138.5h-106.2v3.1c-2-7.7-3-15.8-3-24.1z" fill="#8a3d82"/><path clip-path="url(#y)" d="m377.7 369.4c0-32.7 16.1-62.3 42-83.7 13-10.7 28.4-19.4 45.6-25.4 4.3-1.5 8.7-2.8 13.2-4 2.2-.6 4.5-1.1 6.8-1.6h-.3v135.7h-104.4v2.8c-1.9-7.6-2.9-15.6-2.9-23.8z" fill="#8b3e82"/><path clip-path="url(#y)" d="m379.6 369.4c0-32.3 15.8-61.5 41.5-82.6 12.8-10.6 28.1-19.1 45-25 4.2-1.5 8.6-2.8 13-3.9 2.2-.6 4.5-1.1 6.7-1.6h-.8v134.2h-102.6v2.5c-1.9-7.6-2.8-15.5-2.8-23.6z" fill="#8c3f83"/><path clip-path="url(#y)" d="m381.4 369.4c0-31.8 15.6-60.6 40.9-81.5 12.6-10.4 27.7-18.9 44.4-24.7 4.2-1.5 8.5-2.8 12.8-3.9 2.2-.6 4.4-1.1 6.6-1.6h-1.1v132.7h-100.7v2.2c-1.9-7.5-2.9-15.2-2.9-23.2z" fill="#8d4083"/><path clip-path="url(#y)" d="m383.3 369.4c0-31.4 15.4-59.8 40.4-80.4 12.5-10.3 27.3-18.6 43.8-24.4 4.1-1.4 8.3-2.7 12.7-3.8 2.2-.6 4.3-1.1 6.5-1.5h-1.7v131.2h-98.9v1.9c-1.9-7.5-2.8-15.1-2.8-23z" fill="#8e4183"/><path clip-path="url(#y)" d="m385.1 369.4c0-31 15.2-59 39.8-79.3 12.3-10.2 27-18.4 43.2-24 4.1-1.4 8.2-2.7 12.5-3.8 2.1-.5 4.3-1.1 6.5-1.5h-2.1v129.7h-97.1v1.5c-1.8-7.3-2.8-14.8-2.8-22.6z" fill="#8f4283"/><path clip-path="url(#y)" d="m387 369.4c0-30.6 15-58.2 39.3-78.2 12.1-10 26.6-18.1 42.6-23.7 4-1.4 8.1-2.6 12.3-3.7 2.1-.5 4.2-1 6.4-1.5h-2.6v128.2h-95.2v1.2c-1.9-7.2-2.8-14.6-2.8-22.3z" fill="#904283"/><path clip-path="url(#y)" d="m388.9 369.4c0-30.1 14.8-57.4 38.7-77.2 12-9.9 26.2-17.9 42-23.4 4-1.4 8-2.6 12.2-3.7l6.3-1.5h-3.1v126.7h-93.4v.9c-1.8-6.9-2.7-14.2-2.7-21.8z" fill="#914383"/><path clip-path="url(#y)" d="m390.7 369.4c0-29.7 14.6-56.6 38.2-76.1 11.8-9.7 25.8-17.6 41.4-23.1 3.9-1.4 7.9-2.6 12-3.6 2-.5 4.1-1 6.2-1.4h-3.5v125.3h-91.6v.6c-1.8-7-2.7-14.3-2.7-21.7z" fill="#914483"/><path clip-path="url(#y)" d="m392.6 369.4c0-29.3 14.4-55.8 37.6-75 11.6-9.6 25.5-17.4 40.9-22.7 3.8-1.3 7.8-2.5 11.8-3.6 2-.5 4-1 6.1-1.4h-4v123.8h-89.8v.3c-1.7-6.9-2.6-14.1-2.6-21.4z" fill="#924584"/><path clip-path="url(#y)" d="m394.5 369.4c0-28.9 14.2-55 37.1-73.9 11.5-9.5 25.1-17.1 40.3-22.4 3.8-1.3 7.7-2.5 11.6-3.5 2-.5 4-1 6-1.4h-4.5v122.3h-86.5v5.1c-.5-1.7-1-3.4-1.4-5.1-1.8-6.8-2.6-13.9-2.6-21.1z" fill="#934684"/><path clip-path="url(#y)" d="m396.3 369.4c0-28.4 14-54.2 36.6-72.8 11.3-9.3 24.7-16.9 39.7-22.1 3.7-1.3 7.6-2.5 11.5-3.5 2-.5 3.9-1 5.9-1.4h-5v120.8h-84.7v4.7c-.5-1.6-1-3.3-1.4-5-1.7-6.6-2.6-13.6-2.6-20.7z" fill="#944784"/><path clip-path="url(#y)" d="m398.2 369.4c0-28 13.8-53.4 36-71.7 11.1-9.2 24.4-16.6 39.1-21.7 3.7-1.3 7.4-2.4 11.3-3.4 1.9-.5 3.9-.9 5.8-1.4h-5.4v119.3h-82.9v4.3c-.5-1.6-1-3.3-1.4-4.9-1.7-6.6-2.5-13.5-2.5-20.5z" fill="#954884"/><path clip-path="url(#y)" d="m400 369.4c0-27.6 13.6-52.6 35.5-70.6 11-9 24-16.4 38.5-21.4 3.6-1.3 7.3-2.4 11.1-3.4h-.1v116.5h-81.1v3.9c-.5-1.6-.9-3.2-1.4-4.8-1.6-6.5-2.5-13.3-2.5-20.2z" fill="#964984"/><path clip-path="url(#y)" d="m401.9 369.4c0-27.2 13.3-51.7 34.9-69.5 10.8-8.9 23.6-16.1 37.9-21.1 3.6-1.2 7.2-2.3 11-3.3h-.7v115h-79.3v3.5c-.5-1.6-.9-3.2-1.3-4.8-1.7-6.4-2.5-13-2.5-19.8z" fill="#974984"/><path clip-path="url(#y)" d="m403.8 369.4c0-26.7 13.1-50.9 34.4-68.5 10.6-8.8 23.3-15.8 37.3-20.7 3.5-1.2 7.1-2.3 10.8-3.3h-1.3v113.5h-77.5v3.1c-.5-1.5-.9-3.1-1.3-4.7-1.6-6.2-2.4-12.7-2.4-19.4z" fill="#984a84"/><path clip-path="url(#y)" d="m405.6 369.4c0-26.3 12.9-50.1 33.8-67.4 10.4-8.6 22.9-15.6 36.7-20.4 3.5-1.2 7-2.3 10.6-3.2h-1.7v112.1h-75.7v2.7c-.5-1.5-.9-3.1-1.3-4.6-1.6-6.2-2.4-12.6-2.4-19.2z" fill="#994b85"/><path clip-path="url(#y)" d="m407.5 369.4c0-25.9 12.7-49.3 33.3-66.3 10.3-8.5 22.5-15.3 36.1-20.1 3.4-1.2 6.9-2.2 10.4-3.2h-2.3v110.6h-72.4v6.8c-1.1-2.9-2-5.9-2.8-9-1.5-6-2.3-12.3-2.3-18.8z" fill="#9b4c85"/><path clip-path="url(#y)" d="m409.4 369.4c0-25.5 12.5-48.5 32.7-65.2 10.1-8.3 22.2-15.1 35.5-19.8 3.3-1.2 6.8-2.2 10.3-3.1h-2.9v109.1h-70.6v6.4c-1.1-2.9-2-5.8-2.8-8.8-1.5-6-2.2-12.2-2.2-18.6z" fill="#9c4d85"/><path clip-path="url(#y)" d="m411.2 369.4c0-25 12.3-47.7 32.2-64.1 9.9-8.2 21.8-14.8 34.9-19.4 3.3-1.1 6.7-2.2 10.1-3h-3.4v107.7h-68.8v5.9c-1.1-2.8-2-5.7-2.7-8.7-1.5-6-2.3-12.1-2.3-18.4z" fill="#9d4e85"/><path clip-path="url(#y)" d="m413.1 369.4c0-24.6 12.1-46.9 31.6-63 9.8-8.1 21.4-14.6 34.3-19.1 3.2-1.1 6.5-2.1 9.9-3h-4v106.2h-67v5.4c-1.1-2.8-1.9-5.6-2.7-8.5-1.4-5.8-2.1-11.8-2.1-18z" fill="#9e4f85"/><path clip-path="url(#y)" d="m414.9 369.4c0-24.2 11.9-46.1 31.1-61.9 9.6-7.9 21-14.3 33.7-18.8 3.2-1.1 6.4-2.1 9.8-2.9h-4.5v104.7h-65.2v5c-1-2.7-1.9-5.5-2.6-8.4-1.5-5.7-2.3-11.6-2.3-17.7z" fill="#9f5085"/><path clip-path="url(#y)" d="m416.8 369.4c0-23.8 11.7-45.3 30.6-60.9 9.4-7.8 20.7-14.1 33.2-18.4 3.1-1.1 6.3-2.1 9.6-2.9h-5.2v103.3h-63.5v4.5c-1-2.7-1.9-5.4-2.6-8.2-1.4-5.6-2.1-11.4-2.1-17.4z" fill="#a05186"/><path clip-path="url(#y)" d="m418.7 369.4c0-23.3 11.5-44.5 30-59.8 9.3-7.6 20.3-13.8 32.6-18.1 3.1-1.1 6.2-2 9.4-2.8h-5.7v101.8h-61.7v4.1c-1-2.6-1.8-5.3-2.5-8.1-1.4-5.5-2.1-11.2-2.1-17.1z" fill="#a05286"/><path clip-path="url(#y)" d="m420.5 369.4c0-22.9 11.3-43.7 29.5-58.7 9.1-7.5 19.9-13.6 32-17.8 3-1 6.1-2 9.2-2.8h-6.2v100.3h-59.9v3.6c-1-2.6-1.8-5.3-2.5-8-1.4-5.3-2.1-10.8-2.1-16.6z" fill="#a15386"/><path clip-path="url(#y)" d="m422.4 369.4c0-22.5 11-42.9 28.9-57.6 8.9-7.4 19.6-13.3 31.4-17.5 3-1 6-1.9 9.1-2.7h-6.8v98.9h-58.1v3.2c-1-2.6-1.8-5.2-2.4-7.8-1.4-5.4-2.1-10.9-2.1-16.5z" fill="#a25486"/><path clip-path="url(#y)" d="m424.3 369.4c0-22.1 10.8-42 28.4-56.5 8.8-7.2 19.2-13.1 30.8-17.1 1.4-.5 2.9-1 4.4-1.4h-2.9v96.1h-56.3v2.7c-.9-2.5-1.7-5.1-2.4-7.7-1.4-5.2-2-10.6-2-16.1z" fill="#a35586"/><path clip-path="url(#y)" d="m426.1 369.4c0-21.6 10.6-41.2 27.8-55.4 8.6-7.1 18.8-12.8 30.2-16.8 1.4-.5 2.9-1 4.3-1.4h-3.4v94.7h-54.6v2.2c-.9-2.5-1.7-5-2.3-7.5-1.3-5.1-2-10.4-2-15.8z" fill="#a55686"/><path clip-path="url(#y)" d="m428 369.4c0-21.2 10.4-40.4 27.3-54.3 8.4-7 18.5-12.6 29.6-16.5 1.4-.5 2.8-.9 4.2-1.4h-4.1v93.2h-52.8v1.8c-.9-2.4-1.7-4.9-2.3-7.4-1.3-4.9-1.9-10.1-1.9-15.4z" fill="#a65787"/><path clip-path="url(#y)" d="m429.8 369.4c0-20.8 10.2-39.6 26.7-53.2 8.3-6.8 18.1-12.3 29-16.1h-.5v90.4h-51v1.3c-.9-2.4-1.6-4.8-2.2-7.2-1.3-4.9-2-10-2-15.2z" fill="#a75887"/><path clip-path="url(#y)" d="m431.7 369.4c0-20.4 10-38.8 26.2-52.2 8.1-6.7 17.7-12.1 28.4-15.8h-1.3v89h-49.2v.9c-.9-2.3-1.6-4.7-2.2-7.1-1.3-4.7-1.9-9.7-1.9-14.8z" fill="#a85987"/><path clip-path="url(#y)" d="m433.6 369.4c0-19.9 9.8-38 25.6-51.1 7.9-6.5 17.4-11.8 27.8-15.5h-2v87.6h-47.5v.4c-.9-2.3-1.6-4.6-2.2-6.9-1.1-4.6-1.7-9.5-1.7-14.5z" fill="#a95987"/><path clip-path="url(#y)" d="m435.4 369.4c0-19.5 9.6-37.2 25.1-50 7.8-6.4 17-11.6 27.2-15.1h-2.7v86.2h-42.8v6.5c-4.4-8.5-6.8-17.8-6.8-27.6z" fill="#aa5a87"/><path clip-path="url(#y)" d="m437.3 369.4c0-19.1 9.4-36.4 24.6-48.9 7.6-6.3 16.6-11.3 26.6-14.8h-3.5v84.8h-41.1v5.9c-4.3-8.3-6.6-17.4-6.6-27z" fill="#ab5b87"/><path clip-path="url(#y)" d="m439.2 369.4c0-18.7 9.2-35.6 24-47.8 7.4-6.1 16.2-11.1 26.1-14.5h-4.3v83.4h-39.4v5.3c-4.1-8.1-6.4-17-6.4-26.4z" fill="#ac5c88"/><path clip-path="url(#y)" d="m441 369.4c0-18.2 9-34.8 23.5-46.7 7.2-6 15.9-10.8 25.5-14.2h-5v82h-37.6v4.7c-4.1-8-6.4-16.7-6.4-25.8z" fill="#ae5d88"/><path clip-path="url(#y)" d="m442.9 369.4c0-17.8 8.8-34 22.9-45.6 7.1-5.8 15.5-10.6 24.9-13.8h-5.7v80.5h-36v4.1c-3.9-7.8-6.1-16.3-6.1-25.2z" fill="#af5e88"/><path clip-path="url(#y)" d="m444.7 369.4c0-17.4 8.5-33.2 22.4-44.6 6.9-5.7 15.1-10.3 24.3-13.5h-6.4v79.1h-34.2v3.5c-3.9-7.5-6.1-15.8-6.1-24.5z" fill="#b05f88"/><path clip-path="url(#y)" d="m446.6 369.4c0-17 8.3-32.3 21.8-43.5 3.4-2.8 7.1-5.3 11-7.5 2-1.1 4-2.1 6.1-3.1h-.5v75.1h-32.5v2.9c-3.8-7.3-5.9-15.4-5.9-23.9z" fill="#b16088"/><path clip-path="url(#y)" d="m448.5 369.4c0-16.6 8.1-31.5 21.3-42.4 3.3-2.7 6.9-5.2 10.8-7.3 1.9-1.1 3.9-2.1 6-3h-1.6v73.8h-30.8v2.3c-3.7-7.2-5.7-15.1-5.7-23.4z" fill="#b26188"/><path clip-path="url(#y)" d="m450.3 369.4c0-16.1 7.9-30.7 20.7-41.3 3.2-2.6 6.7-5 10.5-7.1 1.9-1 3.8-2 5.8-2.9h-2.3v72.4h-29.1v1.7c-3.6-7-5.6-14.7-5.6-22.8z" fill="#b26289"/><path clip-path="url(#y)" d="m452.2 369.4c0-15.7 7.7-29.9 20.2-40.2 3.1-2.6 6.5-4.9 10.2-6.9 1.8-1 3.7-2 5.7-2.8h-3.3v71.1h-27.3v1.1c-3.6-6.9-5.5-14.4-5.5-22.3z" fill="#b36389"/><path clip-path="url(#y)" d="m454.1 369.4c0-15.3 7.5-29.1 19.6-39.1 3-2.5 6.4-4.8 9.9-6.8 1.8-1 3.6-1.9 5.5-2.8h-4.1v69.7h-25.6v.5c-3.5-6.6-5.3-13.8-5.3-21.5z" fill="#b56489"/><path clip-path="url(#y)" d="m455.9 369.4c0-14.9 7.3-28.3 19.1-38 2.9-2.4 6.2-4.6 9.6-6.6 1.7-1 3.5-1.9 5.4-2.7h-5v68.4h-21.2v4.6c-1-1.5-1.9-3.1-2.7-4.7-3.4-6.5-5.2-13.6-5.2-21z" fill="#b66689"/><path clip-path="url(#y)" d="m457.8 369.4c0-14.4 7.1-27.5 18.5-36.9 2.9-2.4 6-4.5 9.4-6.4h-.7v64.4h-19.5v3.8c-1-1.5-1.9-3-2.7-4.6-3.2-6.2-5-13.1-5-20.3z" fill="#b76789"/><path clip-path="url(#y)" d="m459.6 369.4c0-14 6.9-26.7 18-35.9 2.8-2.3 5.8-4.4 9.1-6.2h-1.7v63.1h-17.9v3.1c-.9-1.4-1.8-2.9-2.6-4.4-3.1-6-4.9-12.7-4.9-19.7z" fill="#b86889"/><path clip-path="url(#y)" d="m461.5 369.4c0-13.6 6.7-25.9 17.5-34.8 2.7-2.2 5.7-4.2 8.8-6h-2.8v61.8h-13.3v6.4c-2.1-2.6-4-5.4-5.5-8.4-3-5.7-4.7-12.2-4.7-19z" fill="#b9698a"/><path clip-path="url(#y)" d="m463.4 369.4c0-13.2 6.5-25.1 16.9-33.7 2.6-2.2 5.5-4.1 8.5-5.8h-3.8v60.6h-11.7v5.6c-2.1-2.5-3.9-5.2-5.3-8.1-3-5.7-4.6-12-4.6-18.6z" fill="#ba6a8a"/><path clip-path="url(#y)" d="m465.2 369.4c0-12.7 6.3-24.3 16.4-32.6 2.5-2.1 5.3-4 8.3-5.6h-4.9v59.3h-10.2v4.7c-2-2.5-3.7-5.1-5.2-7.8-2.8-5.5-4.4-11.6-4.4-18z" fill="#bc6b8a"/><path clip-path="url(#y)" d="m467.1 369.4c0-12.3 6-23.4 15.8-31.5 2.4-2 5.1-3.8 8-5.4h-6v58h-8.6v3.9c-1.9-2.4-3.6-4.9-5-7.6-2.7-5.4-4.2-11.2-4.2-17.4z" fill="#bd6c8b"/><path clip-path="url(#y)" d="m469 369.4c0-11.9 5.8-22.6 15.3-30.4 2.4-1.9 4.9-3.7 7.7-5.3h-7v56.7h-7.1v3c-1.9-2.3-3.5-4.7-4.8-7.3-2.7-5.1-4.1-10.7-4.1-16.7z" fill="#be6d8b"/><path clip-path="url(#y)" d="m470.8 369.4c0-11.5 5.6-21.8 14.7-29.3h-.5v50.4h-5.5v2.1c-1.8-2.2-3.4-4.6-4.6-7-2.7-5-4.1-10.4-4.1-16.2z" fill="#bf6e8b"/><path clip-path="url(#y)" d="m472.7 369.4c0-11 5.4-21 14.2-28.3h-1.9v49.3h-4v1.3c-1.7-2.1-3.2-4.4-4.5-6.8-2.5-4.7-3.8-10-3.8-15.5z" fill="#c06f8c"/><path clip-path="url(#y)" d="m474.5 369.4c0-10.6 5.2-20.2 13.6-27.2h-3.1v48.2l3.2 6.1c-8.4-6.9-13.7-16.5-13.7-27.1z" fill="#c26f8c"/><path clip-path="url(#y)" d="m476.4 369.4c0-10.2 5-19.4 13.1-26.1h-4.5v47.1l4.5 5c-8.1-6.6-13.1-15.8-13.1-26z" fill="#c3708c"/><path clip-path="url(#y)" d="m478.3 369.4c0-9.8 4.8-18.6 12.5-25h-5.8v46.1l5.9 3.9c-7.8-6.4-12.6-15.2-12.6-25z" fill="#c4718c"/><path clip-path="url(#y)" d="m480.1 369.4c0-4.7 1.1-9.1 3.2-13.2 1-2 2.3-3.9 3.8-5.7h-2.1v37.8h2.2c-1.5-1.8-2.7-3.7-3.8-5.7-2.1-4.1-3.3-8.5-3.3-13.2z" fill="#c5738c"/><path clip-path="url(#y)" d="m482 369.4c0-4.5 1.1-8.7 3.1-12.6h-.1v25.2h.1c-2-3.9-3.1-8.1-3.1-12.6z" fill="#c6748c"/><path clip-path="url(#y)" d="m483.9 369.4c0-4.2 1-8.3 2.9-12h-1.8v23.9h1.8c-1.9-3.6-2.9-7.6-2.9-11.9z" fill="#c8758d"/><path clip-path="url(#y)" d="m485 369.4v-29.2z" fill="#c9768d"/><path clip-path="url(#y)" d="m485 369.4v-27.7z" fill="#ca778d"/><path clip-path="url(#y)" d="m485 369.4v-26.1z" fill="#cb788d"/><path clip-path="url(#y)" d="m485 369.4v-24.6z" fill="#cc798d"/><path clip-path="url(#y)" d="m485 369.4v-23.1z" fill="#cd7a8d"/><path clip-path="url(#y)" d="m485 369.4v-21.5z" fill="#ce7b8e"/><path clip-path="url(#y)" d="m485 369.4v-20z" fill="#cf7c8e"/><path clip-path="url(#y)" d="m485 369.4v-18.4z" fill="#d07e8e"/><path clip-path="url(#y)" d="m485 369.4v-16.9z" fill="#d27f8e"/><path clip-path="url(#y)" d="m485 369.4v-15.4z" fill="#d3808e"/><path clip-path="url(#y)" d="m485 369.4v-13.8z" fill="#d4808f"/><path clip-path="url(#y)" d="m485 369.4v-12.3z" fill="#d5818f"/><path clip-path="url(#y)" d="m485 369.4v-10.8z" fill="#d7828f"/><path clip-path="url(#y)" d="m485 369.4v-9.2z" fill="#d8838f"/><path clip-path="url(#y)" d="m485 369.4v-7.7z" fill="#d9848f"/><path clip-path="url(#y)" d="m485 369.4v-6.1z" fill="#da868f"/><path clip-path="url(#y)" d="m485 369.4v-4.6z" fill="#db8790"/><path clip-path="url(#y)" d="m485 369.4v-3.1z" fill="#dd8890"/><path clip-path="url(#y)" d="m485 369.4v-1.5z" fill="#de8990"/><path d="m484 234.5-196.4 95.2-64.5-37.3z" fill="#009bdb"/><path d="m484 234.5-164.9 113.4 64.5 37.2z" fill="#009bdb"/><path d="m319.1 347.9 164.9-113.4-196.4 95.2 15.8 59.8z" fill="#4a72b2"/><g fill="#fff"><path d="m284.8 328 199.2-93.5-196.4 95.2z" opacity=".5"/><path d="m319.1 347.9 164.9-113.4-162.3 114.8z" opacity=".5"/><path d="m484 234.5-196.4 95.2"/><path d="m319.1 347.9 164.9-113.4"/></g><path clip-path="url(#z)" d="m303.4 234.5h180.6v155h-180.6z" fill="#651b7d"/><path clip-path="url(#z)" d="m302.4 369.4v-78.4h-6.1c12.3-24.1 30.2-45.8 52.3-64v6.4h136.4v157h-182.6z" fill="#651b7d"/><path clip-path="url(#z)" d="m302.4 369.4v-77.8h-4.4c12.3-23.9 30-45.4 51.9-63.5v5.3h135.1v157h-182.6z" fill="#651b7d"/><path clip-path="url(#z)" d="m302.4 369.4v-77.2h-2.7c12.2-23.7 29.8-45.1 51.5-63v4.3h133.8v157h-182.6z" fill="#651c7d"/><path clip-path="url(#z)" d="m302.4 369.4v-76.6h-.9c12.1-23.5 29.5-44.7 51.1-62.5v3.2h132.4v157h-182.6z" fill="#651c7d"/><path clip-path="url(#z)" d="m302.4 369.4v-39.3-27.8h-3.5c1.3-3 2.7-5.9 4.2-8.9 12-23.3 29.3-44.4 50.7-62v2.1h131.2v157h-182.6z" fill="#661c7d"/><path clip-path="url(#z)" d="m302.4 369.4v-39-18.6h-5.4c2.3-6.1 4.9-12 7.9-17.8 11.9-23.2 29.1-44 50.3-61.5v1h129.8v157h-182.6z" fill="#661c7d"/><path clip-path="url(#z)" d="m302.4 369.4v-38.7-18.4h-3.6c2.3-6 4.9-11.9 7.8-17.6 11.8-23 28.8-43.7 49.9-61.1 2.6-2.2 5.3-4.3 8.1-6.4v6.3h120.4v157h-182.6z" fill="#4a72b2"/><path clip-path="url(#z)" d="m302.4 369.4v-38.7-18.4h-3.6c2.3-6 4.9-11.9 7.8-17.6 11.8-23 28.8-43.7 49.9-61.1 2.6-2.2 5.3-4.3 8.1-6.4v6.3h120.4v157h-182.6z" opacity=".5"/><path clip-path="url(#z)" d="m338.6 369.4c0-41.6 20.4-79.2 53.5-106.5 16.5-13.6 36.2-24.7 58-32.3v2.9h34.9v157h-144.3v1.9c-.5-2.5-.8-5-1.2-7.5-.6-5.1-.9-10.3-.9-15.5z" fill="#7a2e80"/><path clip-path="url(#z)" d="m340.4 369.4c0-41.2 20.2-78.4 52.9-105.4 16.3-13.5 35.8-24.4 57.4-31.9v1.4h34.3v157h-142.5v1.6c-.5-2.5-.8-5-1.1-7.5-.6-4.9-1-10-1-15.2z" fill="#7b2e80"/><path clip-path="url(#z)" d="m342.3 369.4c0-40.7 20-77.6 52.4-104.3 16.2-13.3 35.4-24.2 56.8-31.6h33.5v157h-140.6v1.4c-.5-2.4-.8-4.9-1.1-7.4-.7-5-1-10-1-15.1z" fill="#7c2f80"/><path clip-path="url(#z)" d="m344.2 369.4c0-40.3 19.8-76.8 51.8-103.2 16-13.2 35.1-23.9 56.2-31.3 5.3-1.8 10.7-3.5 16.3-4.9v3.5h16.5v157h-138.8v1.2c-.4-2.4-.8-4.9-1.1-7.3-.6-5-.9-9.9-.9-15z" fill="#7c3080"/><path clip-path="url(#z)" d="m346 369.4c0-39.9 19.6-76 51.3-102.1 15.8-13.1 34.7-23.6 55.7-31 10.5-3.7 21.5-6.5 32.9-8.4l-.9 5.6v157h-137v.9c-.4-2.4-.8-4.8-1.1-7.2-.6-4.9-.9-9.8-.9-14.8z" fill="#7d3180"/><path clip-path="url(#z)" d="m347.9 369.4c0-39.5 19.4-75.2 50.7-101.1 15.7-12.9 34.3-23.4 55.1-30.6 10.4-3.6 21.2-6.4 32.5-8.3l-1.2 4.1v157h-135.1v.7c-.4-2.4-.8-4.8-1.1-7.2-.6-4.8-.9-9.6-.9-14.6z" fill="#7d3280"/><path clip-path="url(#z)" d="m349.8 369.4c0-39 19.2-74.4 50.2-100 15.5-12.8 34-23.1 54.5-30.3 10.3-3.6 21-6.4 32.2-8.2l-1.6 2.6v157h-133.4v.5c-.4-2.3-.8-4.7-1.1-7.1-.5-4.8-.8-9.6-.8-14.5z" fill="#7e3380"/><path clip-path="url(#z)" d="m351.6 369.4c0-38.6 19-73.6 49.6-98.9 15.3-12.7 33.6-22.9 53.9-30 10.1-3.5 20.8-6.3 31.8-8.1l-2 1.1v157h-131.3v.2c-.4-2.3-.8-4.6-1.1-7-.6-4.7-.9-9.5-.9-14.3z" fill="#7f3380"/><path clip-path="url(#z)" d="m353.5 369.4c0-38.2 18.8-72.8 49.1-97.8 15.2-12.5 33.2-22.6 53.3-29.6 10-3.5 20.6-6.2 31.5-8.1h-2.4v156.6h-128.1v6.8c-2.3-9-3.4-18.3-3.4-27.9z" fill="#803381"/><path clip-path="url(#z)" d="m355.3 369.4c0-37.8 18.6-72 48.6-96.7 15-12.4 32.9-22.4 52.7-29.3 9.9-3.5 20.3-6.1 31.1-8h-2.7v155.1h-126.3v6.5c-2.2-8.9-3.4-18.1-3.4-27.6z" fill="#803481"/><path clip-path="url(#z)" d="m357.2 369.4c0-37.3 18.3-71.2 48-95.6 14.8-12.2 32.5-22.1 52.1-29 9.8-3.4 20.1-6.1 30.8-7.9h-3.1v153.6h-124.5v6.2c-2.2-8.8-3.3-17.9-3.3-27.3z" fill="#813581"/><path clip-path="url(#z)" d="m359.1 369.4c0-36.9 18.1-70.3 47.5-94.5 14.7-12.1 32.1-21.9 51.5-28.7 9.7-3.4 19.9-6 30.4-7.8h-3.5v152h-122.6v5.9c-2.2-8.6-3.3-17.6-3.3-26.9z" fill="#823681"/><path clip-path="url(#z)" d="m360.9 369.4c0-36.5 17.9-69.5 46.9-93.5 14.5-12 31.8-21.6 50.9-28.3 9.6-3.3 19.6-5.9 30.1-7.7h-3.8v150.5h-120.8v5.6c-2.2-8.5-3.3-17.5-3.3-26.6z" fill="#833781"/><path clip-path="url(#z)" d="m362.8 369.4c0-36.1 17.7-68.7 46.4-92.4 14.3-11.8 31.4-21.4 50.3-28 9.5-3.3 19.4-5.9 29.7-7.6h-4.2v149h-119v5.3c-2.1-8.5-3.2-17.3-3.2-26.3z" fill="#843881"/><path clip-path="url(#z)" d="m364.7 369.4c0-35.6 17.5-67.9 45.8-91.3 14.2-11.7 31-21.1 49.7-27.7 9.4-3.3 19.2-5.8 29.4-7.5h-4.6v147.5h-117.2v5c-2.1-8.4-3.1-17.1-3.1-26z" fill="#853881"/><path clip-path="url(#z)" d="m366.5 369.4c0-35.2 17.3-67.1 45.3-90.2 14-11.5 30.6-20.9 49.1-27.3 9.2-3.2 19-5.7 29-7.4h-5v146h-115.2v4.6c-2.1-8.3-3.2-16.9-3.2-25.7z" fill="#853981"/><path clip-path="url(#z)" d="m368.4 369.4c0-34.8 17.1-66.3 44.7-89.1 13.8-11.4 30.3-20.6 48.5-27 9.1-3.2 18.7-5.7 28.7-7.3h-5.3v144.5h-113.5v4.3c-2.1-8.2-3.1-16.7-3.1-25.4z" fill="#863a82"/><path clip-path="url(#z)" d="m370.2 369.4c0-34.4 16.9-65.5 44.2-88 13.7-11.3 29.9-20.4 48-26.7 9-3.1 18.5-5.6 28.3-7.3h-5.7v143h-111.7v4c-2-8-3.1-16.4-3.1-25z" fill="#873b82"/><path clip-path="url(#z)" d="m372.1 369.4c0-33.9 16.7-64.7 43.6-86.9 13.5-11.1 29.5-20.1 47.4-26.3 8.9-3.1 18.3-5.5 28-7.2h-6.1v141.5h-109.9v3.7c-2-8-3-16.3-3-24.8z" fill="#883c82"/><path clip-path="url(#z)" d="m374 369.4c0-33.5 16.5-63.9 43.1-85.8 13.3-11 29.2-19.9 46.8-26 8.8-3.1 18-5.5 27.6-7.1h-6.5v140h-108v3.4c-2-7.9-3-16.1-3-24.5z" fill="#893d82"/><path clip-path="url(#z)" d="m375.8 369.4c0-33.1 16.3-63.1 42.6-84.8 13.1-10.8 28.8-19.6 46.2-25.7 8.7-3 17.8-5.4 27.3-7h-6.9v138.5h-106.2v3.1c-2-7.7-3-15.8-3-24.1z" fill="#8a3d82"/><path clip-path="url(#z)" d="m377.7 369.4c0-32.7 16.1-62.3 42-83.7 13-10.7 28.4-19.4 45.6-25.4 4.3-1.5 8.7-2.8 13.2-4 2.2-.6 4.5-1.1 6.8-1.6h-.3v135.7h-104.4v2.8c-1.9-7.6-2.9-15.6-2.9-23.8z" fill="#8b3e82"/><path clip-path="url(#z)" d="m379.6 369.4c0-32.3 15.8-61.5 41.5-82.6 12.8-10.6 28.1-19.1 45-25 4.2-1.5 8.6-2.8 13-3.9 2.2-.6 4.5-1.1 6.7-1.6h-.8v134.2h-102.6v2.5c-1.9-7.6-2.8-15.5-2.8-23.6z" fill="#8c3f83"/><path clip-path="url(#z)" d="m381.4 369.4c0-31.8 15.6-60.6 40.9-81.5 12.6-10.4 27.7-18.9 44.4-24.7 4.2-1.5 8.5-2.8 12.8-3.9 2.2-.6 4.4-1.1 6.6-1.6h-1.1v132.7h-100.7v2.2c-1.9-7.5-2.9-15.2-2.9-23.2z" fill="#8d4083"/><path clip-path="url(#z)" d="m383.3 369.4c0-31.4 15.4-59.8 40.4-80.4 12.5-10.3 27.3-18.6 43.8-24.4 4.1-1.4 8.3-2.7 12.7-3.8 2.2-.6 4.3-1.1 6.5-1.5h-1.7v131.2h-98.9v1.9c-1.9-7.5-2.8-15.1-2.8-23z" fill="#8e4183"/><path clip-path="url(#z)" d="m385.1 369.4c0-31 15.2-59 39.8-79.3 12.3-10.2 27-18.4 43.2-24 4.1-1.4 8.2-2.7 12.5-3.8 2.1-.5 4.3-1.1 6.5-1.5h-2.1v129.7h-97.1v1.5c-1.8-7.3-2.8-14.8-2.8-22.6z" fill="#8f4283"/><path clip-path="url(#z)" d="m387 369.4c0-30.6 15-58.2 39.3-78.2 12.1-10 26.6-18.1 42.6-23.7 4-1.4 8.1-2.6 12.3-3.7 2.1-.5 4.2-1 6.4-1.5h-2.6v128.2h-95.2v1.2c-1.9-7.2-2.8-14.6-2.8-22.3z" fill="#904283"/><path clip-path="url(#z)" d="m388.9 369.4c0-30.1 14.8-57.4 38.7-77.2 12-9.9 26.2-17.9 42-23.4 4-1.4 8-2.6 12.2-3.7l6.3-1.5h-3.1v126.7h-93.4v.9c-1.8-6.9-2.7-14.2-2.7-21.8z" fill="#914383"/><path clip-path="url(#z)" d="m390.7 369.4c0-29.7 14.6-56.6 38.2-76.1 11.8-9.7 25.8-17.6 41.4-23.1 3.9-1.4 7.9-2.6 12-3.6 2-.5 4.1-1 6.2-1.4h-3.5v125.3h-91.6v.6c-1.8-7-2.7-14.3-2.7-21.7z" fill="#914483"/><path clip-path="url(#z)" d="m392.6 369.4c0-29.3 14.4-55.8 37.6-75 11.6-9.6 25.5-17.4 40.9-22.7 3.8-1.3 7.8-2.5 11.8-3.6 2-.5 4-1 6.1-1.4h-4v123.8h-89.8v.3c-1.7-6.9-2.6-14.1-2.6-21.4z" fill="#924584"/><path clip-path="url(#z)" d="m394.5 369.4c0-28.9 14.2-55 37.1-73.9 11.5-9.5 25.1-17.1 40.3-22.4 3.8-1.3 7.7-2.5 11.6-3.5 2-.5 4-1 6-1.4h-4.5v122.3h-86.5v5.1c-.5-1.7-1-3.4-1.4-5.1-1.8-6.8-2.6-13.9-2.6-21.1z" fill="#934684"/><path clip-path="url(#z)" d="m396.3 369.4c0-28.4 14-54.2 36.6-72.8 11.3-9.3 24.7-16.9 39.7-22.1 3.7-1.3 7.6-2.5 11.5-3.5 2-.5 3.9-1 5.9-1.4h-5v120.8h-84.7v4.7c-.5-1.6-1-3.3-1.4-5-1.7-6.6-2.6-13.6-2.6-20.7z" fill="#944784"/><path clip-path="url(#z)" d="m398.2 369.4c0-28 13.8-53.4 36-71.7 11.1-9.2 24.4-16.6 39.1-21.7 3.7-1.3 7.4-2.4 11.3-3.4 1.9-.5 3.9-.9 5.8-1.4h-5.4v119.3h-82.9v4.3c-.5-1.6-1-3.3-1.4-4.9-1.7-6.6-2.5-13.5-2.5-20.5z" fill="#954884"/><path clip-path="url(#z)" d="m400 369.4c0-27.6 13.6-52.6 35.5-70.6 11-9 24-16.4 38.5-21.4 3.6-1.3 7.3-2.4 11.1-3.4h-.1v116.5h-81.1v3.9c-.5-1.6-.9-3.2-1.4-4.8-1.6-6.5-2.5-13.3-2.5-20.2z" fill="#964984"/><path clip-path="url(#z)" d="m401.9 369.4c0-27.2 13.3-51.7 34.9-69.5 10.8-8.9 23.6-16.1 37.9-21.1 3.6-1.2 7.2-2.3 11-3.3h-.7v115h-79.3v3.5c-.5-1.6-.9-3.2-1.3-4.8-1.7-6.4-2.5-13-2.5-19.8z" fill="#974984"/><path clip-path="url(#z)" d="m403.8 369.4c0-26.7 13.1-50.9 34.4-68.5 10.6-8.8 23.3-15.8 37.3-20.7 3.5-1.2 7.1-2.3 10.8-3.3h-1.3v113.5h-77.5v3.1c-.5-1.5-.9-3.1-1.3-4.7-1.6-6.2-2.4-12.7-2.4-19.4z" fill="#984a84"/><path clip-path="url(#z)" d="m405.6 369.4c0-26.3 12.9-50.1 33.8-67.4 10.4-8.6 22.9-15.6 36.7-20.4 3.5-1.2 7-2.3 10.6-3.2h-1.7v112.1h-75.7v2.7c-.5-1.5-.9-3.1-1.3-4.6-1.6-6.2-2.4-12.6-2.4-19.2z" fill="#994b85"/><path clip-path="url(#z)" d="m407.5 369.4c0-25.9 12.7-49.3 33.3-66.3 10.3-8.5 22.5-15.3 36.1-20.1 3.4-1.2 6.9-2.2 10.4-3.2h-2.3v110.6h-72.4v6.8c-1.1-2.9-2-5.9-2.8-9-1.5-6-2.3-12.3-2.3-18.8z" fill="#9b4c85"/><path clip-path="url(#z)" d="m409.4 369.4c0-25.5 12.5-48.5 32.7-65.2 10.1-8.3 22.2-15.1 35.5-19.8 3.3-1.2 6.8-2.2 10.3-3.1h-2.9v109.1h-70.6v6.4c-1.1-2.9-2-5.8-2.8-8.8-1.5-6-2.2-12.2-2.2-18.6z" fill="#9c4d85"/><path clip-path="url(#z)" d="m411.2 369.4c0-25 12.3-47.7 32.2-64.1 9.9-8.2 21.8-14.8 34.9-19.4 3.3-1.1 6.7-2.2 10.1-3h-3.4v107.7h-68.8v5.9c-1.1-2.8-2-5.7-2.7-8.7-1.5-6-2.3-12.1-2.3-18.4z" fill="#9d4e85"/><path clip-path="url(#z)" d="m413.1 369.4c0-24.6 12.1-46.9 31.6-63 9.8-8.1 21.4-14.6 34.3-19.1 3.2-1.1 6.5-2.1 9.9-3h-4v106.2h-67v5.4c-1.1-2.8-1.9-5.6-2.7-8.5-1.4-5.8-2.1-11.8-2.1-18z" fill="#9e4f85"/><path clip-path="url(#z)" d="m414.9 369.4c0-24.2 11.9-46.1 31.1-61.9 9.6-7.9 21-14.3 33.7-18.8 3.2-1.1 6.4-2.1 9.8-2.9h-4.5v104.7h-65.2v5c-1-2.7-1.9-5.5-2.6-8.4-1.5-5.7-2.3-11.6-2.3-17.7z" fill="#9f5085"/><path clip-path="url(#z)" d="m416.8 369.4c0-23.8 11.7-45.3 30.6-60.9 9.4-7.8 20.7-14.1 33.2-18.4 3.1-1.1 6.3-2.1 9.6-2.9h-5.2v103.3h-63.5v4.5c-1-2.7-1.9-5.4-2.6-8.2-1.4-5.6-2.1-11.4-2.1-17.4z" fill="#a05186"/><path clip-path="url(#z)" d="m418.7 369.4c0-23.3 11.5-44.5 30-59.8 9.3-7.6 20.3-13.8 32.6-18.1 3.1-1.1 6.2-2 9.4-2.8h-5.7v101.8h-61.7v4.1c-1-2.6-1.8-5.3-2.5-8.1-1.4-5.5-2.1-11.2-2.1-17.1z" fill="#a05286"/><path clip-path="url(#z)" d="m420.5 369.4c0-22.9 11.3-43.7 29.5-58.7 9.1-7.5 19.9-13.6 32-17.8 3-1 6.1-2 9.2-2.8h-6.2v100.3h-59.9v3.6c-1-2.6-1.8-5.3-2.5-8-1.4-5.3-2.1-10.8-2.1-16.6z" fill="#a15386"/><path clip-path="url(#z)" d="m422.4 369.4c0-22.5 11-42.9 28.9-57.6 8.9-7.4 19.6-13.3 31.4-17.5 3-1 6-1.9 9.1-2.7h-6.8v98.9h-58.1v3.2c-1-2.6-1.8-5.2-2.4-7.8-1.4-5.4-2.1-10.9-2.1-16.5z" fill="#a25486"/><path clip-path="url(#z)" d="m424.3 369.4c0-22.1 10.8-42 28.4-56.5 8.8-7.2 19.2-13.1 30.8-17.1 1.4-.5 2.9-1 4.4-1.4h-2.9v96.1h-56.3v2.7c-.9-2.5-1.7-5.1-2.4-7.7-1.4-5.2-2-10.6-2-16.1z" fill="#a35586"/><path clip-path="url(#z)" d="m426.1 369.4c0-21.6 10.6-41.2 27.8-55.4 8.6-7.1 18.8-12.8 30.2-16.8 1.4-.5 2.9-1 4.3-1.4h-3.4v94.7h-54.6v2.2c-.9-2.5-1.7-5-2.3-7.5-1.3-5.1-2-10.4-2-15.8z" fill="#a55686"/><path clip-path="url(#z)" d="m428 369.4c0-21.2 10.4-40.4 27.3-54.3 8.4-7 18.5-12.6 29.6-16.5 1.4-.5 2.8-.9 4.2-1.4h-4.1v93.2h-52.8v1.8c-.9-2.4-1.7-4.9-2.3-7.4-1.3-4.9-1.9-10.1-1.9-15.4z" fill="#a65787"/><path clip-path="url(#z)" d="m429.8 369.4c0-20.8 10.2-39.6 26.7-53.2 8.3-6.8 18.1-12.3 29-16.1h-.5v90.4h-51v1.3c-.9-2.4-1.6-4.8-2.2-7.2-1.3-4.9-2-10-2-15.2z" fill="#a75887"/><path clip-path="url(#z)" d="m431.7 369.4c0-20.4 10-38.8 26.2-52.2 8.1-6.7 17.7-12.1 28.4-15.8h-1.3v89h-49.2v.9c-.9-2.3-1.6-4.7-2.2-7.1-1.3-4.7-1.9-9.7-1.9-14.8z" fill="#a85987"/><path clip-path="url(#z)" d="m433.6 369.4c0-19.9 9.8-38 25.6-51.1 7.9-6.5 17.4-11.8 27.8-15.5h-2v87.6h-47.5v.4c-.9-2.3-1.6-4.6-2.2-6.9-1.1-4.6-1.7-9.5-1.7-14.5z" fill="#a95987"/><path clip-path="url(#z)" d="m435.4 369.4c0-19.5 9.6-37.2 25.1-50 7.8-6.4 17-11.6 27.2-15.1h-2.7v86.2h-42.8v6.5c-4.4-8.5-6.8-17.8-6.8-27.6z" fill="#aa5a87"/><path clip-path="url(#z)" d="m437.3 369.4c0-19.1 9.4-36.4 24.6-48.9 7.6-6.3 16.6-11.3 26.6-14.8h-3.5v84.8h-41.1v5.9c-4.3-8.3-6.6-17.4-6.6-27z" fill="#ab5b87"/><path clip-path="url(#z)" d="m439.2 369.4c0-18.7 9.2-35.6 24-47.8 7.4-6.1 16.2-11.1 26.1-14.5h-4.3v83.4h-39.4v5.3c-4.1-8.1-6.4-17-6.4-26.4z" fill="#ac5c88"/><path clip-path="url(#z)" d="m441 369.4c0-18.2 9-34.8 23.5-46.7 7.2-6 15.9-10.8 25.5-14.2h-5v82h-37.6v4.7c-4.1-8-6.4-16.7-6.4-25.8z" fill="#ae5d88"/><path clip-path="url(#z)" d="m442.9 369.4c0-17.8 8.8-34 22.9-45.6 7.1-5.8 15.5-10.6 24.9-13.8h-5.7v80.5h-36v4.1c-3.9-7.8-6.1-16.3-6.1-25.2z" fill="#af5e88"/><path clip-path="url(#z)" d="m444.7 369.4c0-17.4 8.5-33.2 22.4-44.6 6.9-5.7 15.1-10.3 24.3-13.5h-6.4v79.1h-34.2v3.5c-3.9-7.5-6.1-15.8-6.1-24.5z" fill="#b05f88"/><path clip-path="url(#z)" d="m446.6 369.4c0-17 8.3-32.3 21.8-43.5 3.4-2.8 7.1-5.3 11-7.5 2-1.1 4-2.1 6.1-3.1h-.5v75.1h-32.5v2.9c-3.8-7.3-5.9-15.4-5.9-23.9z" fill="#b16088"/><path clip-path="url(#z)" d="m448.5 369.4c0-16.6 8.1-31.5 21.3-42.4 3.3-2.7 6.9-5.2 10.8-7.3 1.9-1.1 3.9-2.1 6-3h-1.6v73.8h-30.8v2.3c-3.7-7.2-5.7-15.1-5.7-23.4z" fill="#b26188"/><path clip-path="url(#z)" d="m450.3 369.4c0-16.1 7.9-30.7 20.7-41.3 3.2-2.6 6.7-5 10.5-7.1 1.9-1 3.8-2 5.8-2.9h-2.3v72.4h-29.1v1.7c-3.6-7-5.6-14.7-5.6-22.8z" fill="#b26289"/><path clip-path="url(#z)" d="m452.2 369.4c0-15.7 7.7-29.9 20.2-40.2 3.1-2.6 6.5-4.9 10.2-6.9 1.8-1 3.7-2 5.7-2.8h-3.3v71.1h-27.3v1.1c-3.6-6.9-5.5-14.4-5.5-22.3z" fill="#b36389"/><path clip-path="url(#z)" d="m454.1 369.4c0-15.3 7.5-29.1 19.6-39.1 3-2.5 6.4-4.8 9.9-6.8 1.8-1 3.6-1.9 5.5-2.8h-4.1v69.7h-25.6v.5c-3.5-6.6-5.3-13.8-5.3-21.5z" fill="#b56489"/><path clip-path="url(#z)" d="m455.9 369.4c0-14.9 7.3-28.3 19.1-38 2.9-2.4 6.2-4.6 9.6-6.6 1.7-1 3.5-1.9 5.4-2.7h-5v68.4h-21.2v4.6c-1-1.5-1.9-3.1-2.7-4.7-3.4-6.5-5.2-13.6-5.2-21z" fill="#b66689"/><path clip-path="url(#z)" d="m457.8 369.4c0-14.4 7.1-27.5 18.5-36.9 2.9-2.4 6-4.5 9.4-6.4h-.7v64.4h-19.5v3.8c-1-1.5-1.9-3-2.7-4.6-3.2-6.2-5-13.1-5-20.3z" fill="#b76789"/><path clip-path="url(#z)" d="m459.6 369.4c0-14 6.9-26.7 18-35.9 2.8-2.3 5.8-4.4 9.1-6.2h-1.7v63.1h-17.9v3.1c-.9-1.4-1.8-2.9-2.6-4.4-3.1-6-4.9-12.7-4.9-19.7z" fill="#b86889"/><path clip-path="url(#z)" d="m461.5 369.4c0-13.6 6.7-25.9 17.5-34.8 2.7-2.2 5.7-4.2 8.8-6h-2.8v61.8h-13.3v6.4c-2.1-2.6-4-5.4-5.5-8.4-3-5.7-4.7-12.2-4.7-19z" fill="#b9698a"/><path clip-path="url(#z)" d="m463.4 369.4c0-13.2 6.5-25.1 16.9-33.7 2.6-2.2 5.5-4.1 8.5-5.8h-3.8v60.6h-11.7v5.6c-2.1-2.5-3.9-5.2-5.3-8.1-3-5.7-4.6-12-4.6-18.6z" fill="#ba6a8a"/><path clip-path="url(#z)" d="m465.2 369.4c0-12.7 6.3-24.3 16.4-32.6 2.5-2.1 5.3-4 8.3-5.6h-4.9v59.3h-10.2v4.7c-2-2.5-3.7-5.1-5.2-7.8-2.8-5.5-4.4-11.6-4.4-18z" fill="#bc6b8a"/><path clip-path="url(#z)" d="m467.1 369.4c0-12.3 6-23.4 15.8-31.5 2.4-2 5.1-3.8 8-5.4h-6v58h-8.6v3.9c-1.9-2.4-3.6-4.9-5-7.6-2.7-5.4-4.2-11.2-4.2-17.4z" fill="#bd6c8b"/><path clip-path="url(#z)" d="m469 369.4c0-11.9 5.8-22.6 15.3-30.4 2.4-1.9 4.9-3.7 7.7-5.3h-7v56.7h-7.1v3c-1.9-2.3-3.5-4.7-4.8-7.3-2.7-5.1-4.1-10.7-4.1-16.7z" fill="#be6d8b"/><path clip-path="url(#z)" d="m470.8 369.4c0-11.5 5.6-21.8 14.7-29.3h-.5v50.4h-5.5v2.1c-1.8-2.2-3.4-4.6-4.6-7-2.7-5-4.1-10.4-4.1-16.2z" fill="#bf6e8b"/><path clip-path="url(#z)" d="m472.7 369.4c0-11 5.4-21 14.2-28.3h-1.9v49.3h-4v1.3c-1.7-2.1-3.2-4.4-4.5-6.8-2.5-4.7-3.8-10-3.8-15.5z" fill="#c06f8c"/><path clip-path="url(#z)" d="m474.5 369.4c0-10.6 5.2-20.2 13.6-27.2h-3.1v48.2l3.2 6.1c-8.4-6.9-13.7-16.5-13.7-27.1z" fill="#c26f8c"/><path clip-path="url(#z)" d="m476.4 369.4c0-10.2 5-19.4 13.1-26.1h-4.5v47.1l4.5 5c-8.1-6.6-13.1-15.8-13.1-26z" fill="#c3708c"/><path clip-path="url(#z)" d="m478.3 369.4c0-9.8 4.8-18.6 12.5-25h-5.8v46.1l5.9 3.9c-7.8-6.4-12.6-15.2-12.6-25z" fill="#c4718c"/><path clip-path="url(#z)" d="m480.1 369.4c0-4.7 1.1-9.1 3.2-13.2 1-2 2.3-3.9 3.8-5.7h-2.1v37.8h2.2c-1.5-1.8-2.7-3.7-3.8-5.7-2.1-4.1-3.3-8.5-3.3-13.2z" fill="#c5738c"/><path clip-path="url(#z)" d="m482 369.4c0-4.5 1.1-8.7 3.1-12.6h-.1v25.2h.1c-2-3.9-3.1-8.1-3.1-12.6z" fill="#c6748c"/><path clip-path="url(#z)" d="m483.9 369.4c0-4.2 1-8.3 2.9-12h-1.8v23.9h1.8c-1.9-3.6-2.9-7.6-2.9-11.9z" fill="#c8758d"/><path clip-path="url(#z)" d="m485 369.4v-29.2z" fill="#c9768d"/><path clip-path="url(#z)" d="m485 369.4v-27.7z" fill="#ca778d"/><path clip-path="url(#z)" d="m485 369.4v-26.1z" fill="#cb788d"/><path clip-path="url(#z)" d="m485 369.4v-24.6z" fill="#cc798d"/><path clip-path="url(#z)" d="m485 369.4v-23.1z" fill="#cd7a8d"/><path clip-path="url(#z)" d="m485 369.4v-21.5z" fill="#ce7b8e"/><path clip-path="url(#z)" d="m485 369.4v-20z" fill="#cf7c8e"/><path clip-path="url(#z)" d="m485 369.4v-18.4z" fill="#d07e8e"/><path clip-path="url(#z)" d="m485 369.4v-16.9z" fill="#d27f8e"/><path clip-path="url(#z)" d="m485 369.4v-15.4z" fill="#d3808e"/><path clip-path="url(#z)" d="m485 369.4v-13.8z" fill="#d4808f"/><path clip-path="url(#z)" d="m485 369.4v-12.3z" fill="#d5818f"/><path clip-path="url(#z)" d="m485 369.4v-10.8z" fill="#d7828f"/><path clip-path="url(#z)" d="m485 369.4v-9.2z" fill="#d8838f"/><path clip-path="url(#z)" d="m485 369.4v-7.7z" fill="#d9848f"/><path clip-path="url(#z)" d="m485 369.4v-6.1z" fill="#da868f"/><path clip-path="url(#z)" d="m485 369.4v-4.6z" fill="#db8790"/><path clip-path="url(#z)" d="m485 369.4v-3.1z" fill="#dd8890"/><path clip-path="url(#z)" d="m485 369.4v-1.5z" fill="#de8990"/><path d="m484 234.5-196.4 95.2-64.5-37.3z" fill="#009bdb"/><path d="m484 234.5-196.4 95.2-64.5-37.3z" fill="#fff" opacity=".5"/><path d="m484 234.5-164.9 113.4 64.5 37.2z" fill="#009bdb"/><path d="m484 234.5-164.9 113.4 64.5 37.2z" fill="#fff" opacity=".5"/><path d="m319.1 347.9 164.9-113.4-196.4 95.2 15.8 59.8z" fill="#34b1e2"/><g fill="#fff"><path d="m284.8 328 199.2-93.5-196.4 95.2z" opacity=".5"/><path d="m319.1 347.9 164.9-113.4-162.3 114.8z" opacity=".5"/><path d="m484 234.5-196.4 95.2"/><path d="m319.1 347.9 164.9-113.4"/></g><path d="m434.2 393.5-177.3 39.4 41.9 24.2 2 1.1 23.4-1.7 11.3 21.7 30.5 17.6z" fill="#4a72b2" opacity=".3"/></svg>