<svg enable-background="new 0 0 513.1 567.1" viewBox="0 0 513.1 567.1" xmlns="http://www.w3.org/2000/svg" xmlns:xlink="http://www.w3.org/1999/xlink"><linearGradient id="a" gradientUnits="userSpaceOnUse" x1="537.1395" x2="326.075" y1="469.5916" y2="256.961"><stop offset="0" stop-color="#5a61d2"/><stop offset=".1831" stop-color="#5f66d4"/><stop offset=".3991" stop-color="#6d73da"/><stop offset=".6315" stop-color="#858ae5"/><stop offset=".874" stop-color="#a6a9f3"/><stop offset="1" stop-color="#babcfc"/></linearGradient><linearGradient id="b" gradientUnits="userSpaceOnUse" x1="279.7226" x2="267.8812" y1="337.8737" y2="507.2136"><stop offset="0" stop-color="#fff"/><stop offset=".07695442" stop-color="#fff" stop-opacity=".923"/><stop offset="1" stop-color="#fff" stop-opacity="0"/></linearGradient><text style="opacity:.5;fill:#009bdb;stroke:#009bdb;stroke-width:20;stroke-miterlimit:10;font-family:'BebasNeueBold';font-size:432.6742;letter-spacing:8" transform="translate(10 377.769)">09</text><path d="m277.2 494.1 62.3-36.7 62.8 36.3-62.8 35.9z" fill="#009bdb" opacity=".5"/><path d="m211.9 531.5 62.3-36.7 62.8 36.3-62.8 36z" fill="#009bdb" opacity=".3"/><path d="m147.1 493.7 62.2-36.7 62.9 36.3-62.9 35.9z" fill="#009bdb" opacity=".1"/><g enable-background="new"><path d="m302 249.4 5.3-3.1c1.3-.7 3.1-.6 5 .5l-5.3 3.1c-1.9-1.2-3.7-1.3-5-.5z" fill="none"/><path d="m498.3 496.9-5.3 3.1c1.3-.7 2.1-2.3 2.1-4.5l5.3-3.1c-.1 2.2-.9 3.7-2.1 4.5z" fill="none"/><path d="m500.7 363.4c0-.1 0-.2 0-.3s0-.1 0-.2c0 0 0 0 0-.1v-.1c0-.1 0-.2 0-.3s0-.2-.1-.4c0-.1 0-.2-.1-.3 0-.1 0-.2-.1-.4v-.1-.1c0-.1 0-.1 0-.2s-.1-.3-.1-.4-.1-.2-.1-.3c0 0 0 0 0-.1 0 0 0 0 0-.1s-.1-.2-.1-.4c0-.1-.1-.2-.1-.4 0 0 0 0 0-.1 0 0 0 0 0-.1s-.1-.2-.1-.2c0-.1-.1-.2-.1-.3s-.1-.2-.1-.2 0 0 0-.1c-.1-.1-.1-.2-.2-.3s-.1-.2-.2-.4c0 0 0 0 0-.1 0 0 0 0 0-.1-.1-.1-.1-.2-.2-.3s-.1-.2-.2-.4c0-.1-.1-.1-.1-.2 0 0 0 0 0-.1-.1-.1-.1-.2-.2-.3-.1-.2-.2-.3-.3-.5v-.1c-.1-.2-.3-.4-.4-.6-.1-.1-.2-.3-.3-.4s-.2-.2-.3-.3c-.1-.1-.2-.2-.3-.3s-.2-.2-.3-.3c-.1-.1-.1-.1-.2-.2s-.2-.2-.3-.3c0 0-.1-.1-.1-.1s0 0-.1-.1c0 0-.1-.1-.1-.1-.1-.1-.2-.2-.3-.3 0 0-.1-.1-.1-.1s0 0-.1-.1c0 0-.1-.1-.1-.1-.1-.1-.2-.2-.3-.2-.1-.1-.2-.1-.2-.2-.1-.1-.2-.1-.3-.2s-.2-.1-.3-.2c0 0 0 0-.1 0l-181.7-104.5c-.1 0-.2-.1-.2-.1-.1-.1-.2-.1-.3-.2-.1 0-.2-.1-.3-.1s-.2-.1-.3-.1-.2-.1-.3-.1-.2-.1-.3-.1-.2-.1-.3-.1-.2 0-.3-.1c-.1 0-.2 0-.3-.1-.1 0-.2 0-.3 0s-.2 0-.3 0-.2 0-.4 0c-.1 0-.3 0-.4.1-.2 0-.3.1-.5.1-.2.1-.4.2-.6.3l-5.3 3.1c.2-.1.4-.2.6-.3s.3-.1.5-.1c.1 0 .3 0 .4-.1h.4.3.3c.1 0 .2 0 .3.1.1 0 .2 0 .3.1.1 0 .2.1.3.1s.2.1.3.1.2.1.3.1.2.1.3.1.2.1.3.1.2.1.3.2c.1 0 .2.1.2.1l181.2 104.6c.2.1.5.3.7.5.2.2.4.3.6.5 0 0 0 0 .1.1.2.2.4.3.6.5 0 0 0 0 .1.1l.6.6c.2.2.4.4.6.7.2.2.4.5.6.7.2.2.3.4.5.7.1.2.2.3.3.5.1.1.2.2.2.4 0 .1.1.1.1.2.1.2.2.4.4.7v.1c.1.3.3.5.4.8.1.3.2.5.3.8v.1c.1.3.2.6.3.8v.1c.1.3.2.5.2.8v.1c.1.3.1.6.2.8 0 .3.1.6.1.8v.1.8l-.2 128.6v.3.3.3c0 .1 0 .2-.1.3 0 .1 0 .2-.1.3 0 .1-.1.2-.1.4 0 .1-.1.3-.1.4-.1.1-.1.3-.2.4-.1.2-.2.3-.3.5-.3.5-.7.9-1.2 1.2l5.3-3.1c.5-.3.9-.7 1.2-1.2.1-.2.2-.3.3-.5.1-.1.1-.3.2-.4 0-.1.1-.2.1-.4 0-.1.1-.2.1-.4 0-.1 0-.2.1-.3 0-.1 0-.2.1-.3 0-.1 0-.2 0-.3s0-.2 0-.3 0-.2 0-.3l.4-128.6c0-.1 0-.2 0-.3z" fill="url(#a)"/><path d="m488.3 354.5c3.9 2.3 7.1 7.7 7.1 12.2l-.4 128.7c0 4.5-3.2 6.3-7.1 4.1l-181.2-104.7c-3.9-2.3-7.1-7.7-7.1-12.2l.4-128.6c0-4.5 3.2-6.3 7.1-4.1z" fill="#1b2d88"/></g><path d="m488.5 358.7c2 1.2 3.6 3.9 3.6 6.2l-.4 129.8c0 2.3-1.6 3.2-3.6 2.1l-182.2-105.3c-2-1.1-3.6-3.9-3.6-6.2l.4-129.8c0-2.3 1.6-3.2 3.6-2.1z" fill="#fff"/><path d="m465.5 367.8c2.1 1.2 3.8 4.2 3.8 6.7l-.2 86c0 2.5-1.7 3.4-3.9 2.2l-138.9-80.2c-2.1-1.2-3.9-4.2-3.8-6.7l.2-86c0-2.5 1.7-3.4 3.9-2.2z" fill="#009bdb" opacity=".1"/><g fill="#009bdb" opacity=".5"><path d="m383.2 339.9-.2 60.3-51.7-29.8.2-60.3z"/><path d="m421.2 386.4-.1 35.5-30.4-17.6.1-35.4z"/><path d="m459.3 408.2-.1 35.5-30.4-17.6.1-35.5z"/></g><path d="m391.4 343.3v3.7l69.6 38.7.1-3.8z" fill="#fff" opacity=".56"/><path d="m391.4 349v3.7l57.2 31.8v-3.8z" fill="#fff" opacity=".56"/><path d="m391.4 354.8v3.7l63.6 35.2.1-3.8z" fill="#fff" opacity=".56"/><path d="m391.4 360.5v3.7l38.1 21.2.1-3.8z" fill="#fff" opacity=".56"/><path d="m513.1 437.4v35.4l-3.7 1.9-23.7-19.4-5.2-32.6 3.8-2.1z" fill="#f8c24d"/><path d="m513.1 437.4v35.4l-3.8 2.1-25.3-21.3 25.3-14.1z" fill="#f8c24d"/><path d="m509.5 439.4v35.5l-29-16.7v-35.5z" fill="#ffd569"/><path d="m383.9 423.1-5.6-9.3 4 .4c.3 0 .5-.2.5-.6s-.3-.8-.6-1.2l-17.7-19c-.3-.4-.7-.6-1-.5s-.3.4-.2.9l7 22.4c.1.4.4.9.8 1.1.4.3.7.3.9.1l2.3-2.4 5.6 9.3c.2.3.4.6.7.7.2.2.5.2.7.2l2.7-.9c.2 0 .2-.6-.1-1.2zm0 0" fill="#365ddd"/><path d="m496.7 456c0 .6 0 1.2.1 1.6s.2.7.4 1.1c.2.3.5.6.9.9s.9.7 1.5 1.1c.1.1.2.2.3.4.1.1.1.3.1.4s0 .2-.1.3-.2 0-.3 0c-.8-.5-1.5-.9-2.2-1.4s-1.4-.9-2.1-1.3-1.5-.8-2.3-1.2-1.5-.8-2.2-1.1c-.1-.1-.2-.2-.3-.3s-.1-.3-.1-.4 0-.2.1-.3.1-.1.3 0c.6.3 1.1.5 1.4.6.4.1.6.1.8.1.2-.1.3-.3.4-.6s.1-.8.1-1.4v-13c0-.7-.2-1.3-.5-1.7-.4-.4-1-.8-1.8-1.3-.7-.4-1.3-.7-1.8-.9s-.9-.2-1.2-.1-.5.4-.7.7c-.2.4-.4.9-.5 1.6 0 .1-.1.1-.2.1s-.2-.1-.3-.1c-.1-.1-.2-.2-.3-.3s-.1-.2-.1-.3c.1-.7.1-1.4.1-2.1s0-1.5-.1-2.3c0-.2.1-.3.4-.2s.6.2.9.4l15.7 9c.4.2.7.4.9.6s.4.4.4.6-.1.5-.1.8v1.1 1.3c0 .4.1.9.1 1.3 0 .1 0 .1-.1.1s-.2 0-.3-.1-.2-.1-.3-.2-.2-.2-.2-.3c-.1-.8-.3-1.6-.5-2.2s-.5-1.2-.8-1.6c-.3-.5-.7-.9-1.2-1.3s-1-.8-1.7-1.1c-.9-.5-1.5-.8-1.9-.8s-.6.3-.6 1v12.8z" fill="#365ddd"/><path d="m406.6 245.1v35.5l-3.7 1.8-23.7-19.3-5.1-32.6 3.7-2.1z" fill="#f8c24d"/><path d="m406.6 245.1v35.5l-3.8 2.1-25.3-21.3 25.3-14.2z" fill="#f8c24d"/><path d="m403 247.2v35.4l-28.9-16.7v-35.4z" fill="#ffd569"/><path d="m446.4 267.2v35.4l-3.6 1.9-23.7-19.4-5.2-32.6 3.8-2.1z" fill="#f8c24d"/><path d="m446.4 267.2v35.4l-3.7 2.1-25.4-21.3 25.4-14.2z" fill="#f8c24d"/><path d="m442.8 269.2v35.4l-28.9-16.7v-35.4z" fill="#ffd569"/><path d="m486 290.2v35.5l-3.6 1.8-23.7-19.3-5.2-32.6 3.8-2.1z" fill="#f8c24d"/><path d="m486 290.2v35.5l-3.7 2.1-25.3-21.3 25.3-14.2z" fill="#f8c24d"/><path d="m482.4 292.3v35.4l-28.9-16.7v-35.4z" fill="#ffd569"/><g fill="#365ddd"><path d="m427.5 268.5-1.6.8-3.4-5c-.9-1.1-2.3-1.8-3.1-1.5-.3.3-.5.7-.5 1.3s.3 1.3.6 1.9l3.5 5.1-5.1 2.7 9.4 13.6 9.3-5.4zm-7-3.1c0-.1-.2-.5-.2-.6s.1-.4.1-.5c.3 0 .8.3 1.1.5l3.5 5.1-1.1.5zm.5 8.8 5-2.9 1.8 2.6c.2.2.3.3.6.4s.4.2.6.1c.1-.2.1-.6-.2-1.1l-1.8-2.5.5-.3 7.4 10.5zm0 0"/><path d="m438.4 288.6c0 1.2-.9 1.7-2.1 1.1s-2.2-2.1-2.3-3.3c0-1.2 1.9-2.7 2.1-2.5.9 1.4 2.3 3.5 2.3 4.7z"/><path d="m466.1 295.4c0 2.1-1.7 2.9-3.8 1.7s-3.8-3.8-3.8-6c0-2.1 1.7-2.9 3.8-1.7s3.8 3.9 3.8 6z"/><path d="m473.2 295.8-4.1 4.8 8.2 4.6z"/><path d="m465.9 310-7.3-4.1v-7.2l7.3 4z"/><path d="m473.2 306.5-4.1.7 1.6 5.7 5 2.8 1.6-3.9z"/></g><path d="m381.6 260.1-1.1-.8v-16.6l1.1.7z" fill="#b3c4f2"/><path d="m397.1 262.7v4.2l-14.3-8.9v-4.2z" fill="#365ddd"/><path d="m393.4 254.1v4.2l-10.6-6.5v-4.3z" fill="#365ddd"/><path d="m249.3 531.2c0-4.6 5.9-8.4 13.2-8.4s13.2 3.8 13.2 8.4-5.9 8.4-13.2 8.4-13.2-3.8-13.2-8.4z" fill="#34445f"/><path d="m274.2 531.2c0-4.6 5.9-8.4 13.2-8.4s13.2 3.8 13.2 8.4-5.9 8.4-13.2 8.4-13.2-3.8-13.2-8.4z" fill="#34445f"/><path d="m244.2 516.1c0-10.8 13.8-19.5 30.7-19.5 17 0 30.7 8.7 30.7 19.5s-13.8 19.5-30.7 19.5c-16.9.1-30.7-8.7-30.7-19.5z" fill="#f8c24d"/><path d="m302.8 513.9c0-4.3-2.2-8.3-5.9-11.5-5.6-3.6-13.3-5.8-21.9-5.8-17 0-30.7 8.7-30.7 19.5 0 4.3 2.2 8.3 5.9 11.5 5.6 3.6 13.3 5.8 21.9 5.8 16.9.1 30.7-8.7 30.7-19.5z" fill="#c49602"/><path d="m244.2 507.4c0-10.8 13.8-19.5 30.7-19.5 17 0 30.7 8.7 30.7 19.5s-13.8 19.5-30.7 19.5-30.7-8.7-30.7-19.5z" fill="#f8c24d"/><path d="m302.8 505.2c0-4.3-2.2-8.3-5.9-11.5-5.6-3.6-13.3-5.8-21.9-5.8-17 0-30.7 8.7-30.7 19.5 0 4.3 2.2 8.3 5.9 11.5 5.6 3.6 13.3 5.8 21.9 5.8 16.9 0 30.7-8.7 30.7-19.5z" fill="#c49602"/><path d="m244.2 498.7c0-10.8 13.8-19.5 30.7-19.5 17 0 30.7 8.7 30.7 19.5s-13.8 19.5-30.7 19.5-30.7-8.7-30.7-19.5z" fill="#f8c24d"/><path d="m302.8 496.5c0-4.3-2.2-8.3-5.9-11.5-5.6-3.6-13.3-5.8-21.9-5.8-17 0-30.7 8.7-30.7 19.5 0 4.3 2.2 8.3 5.9 11.5 5.6 3.6 13.3 5.8 21.9 5.8 16.9 0 30.7-8.7 30.7-19.5z" fill="#c49602"/><path d="m275 337.7c-37.7 0-68.3 30.6-68.3 68.3 0 8.3 1.5 16.2 4.2 23.6 5.6 15.2 16.4 31.5 30.3 42.5v14c0 11.9 15.1 21.6 33.8 21.6s33.8-9.7 33.8-21.6c0-1.8 0-9.3 0-14 14-11.1 24.9-27.5 30.5-42.9 2.6-7.2 4-15 4-23.1-.1-37.8-30.6-68.4-68.3-68.4z" fill="#ffd569"/><path d="m275 337.7c-37.7 0-68.3 30.6-68.3 68.3 0 8.3 1.5 16.2 4.2 23.6 5.6 15.2 16.4 31.5 30.3 42.5v14c0 11.9 15.1 21.6 33.8 21.6s33.8-9.7 33.8-21.6c0-1.8 0-9.3 0-14 14-11.1 24.9-27.5 30.5-42.9 2.6-7.2 4-15 4-23.1-.1-37.8-30.6-68.4-68.3-68.4z" fill="url(#b)" opacity=".7"/><path d="m275 454.2c-4.3 0-7.8 2.2-7.8 4.9v7.2 17.3 7.2c0 2.7 3.5 4.9 7.8 4.9s7.8-2.2 7.8-4.9v-7.2-17.3-7.2c-.1-2.7-3.5-4.9-7.8-4.9z" fill="#f8c24d"/></svg>