<svg enable-background="new 0 0 541.3 563.1" viewBox="0 0 541.3 563.1" xmlns="http://www.w3.org/2000/svg" xmlns:xlink="http://www.w3.org/1999/xlink"><linearGradient id="a"><stop offset=".2742" stop-color="#d6d5d5"/><stop offset=".412" stop-color="#9c9b9b"/><stop offset=".5593" stop-color="#656464"/><stop offset=".6964" stop-color="#393939"/><stop offset=".8189" stop-color="#1a1a1a"/><stop offset=".9222" stop-color="#070707"/><stop offset=".994"/></linearGradient><radialGradient id="b" cx="418.6151" cy="254.7537" gradientUnits="userSpaceOnUse" r="37.0524" xlink:href="#a"/><radialGradient id="c" cx="359.3747" cy="333.2585" gradientUnits="userSpaceOnUse" r="37.0524" xlink:href="#a"/><radialGradient id="d" cx="300.1356" cy="380.6278" gradientUnits="userSpaceOnUse" r="37.0524" xlink:href="#a"/><radialGradient id="e" cx="240.8141" cy="447.7648" gradientUnits="userSpaceOnUse" r="37.0524" xlink:href="#a"/><g fill="#009bdb"><text style="opacity:.5;stroke:#009bdb;stroke-width:20;stroke-miterlimit:10;font-family:'BebasNeueBold';font-size:432.6742;letter-spacing:8" transform="translate(10 377.769)">10</text><path d="m271.1 527.6 62.3-36.7 62.9 36.3-62.9 35.9z" opacity=".3"/><path d="m342.1 486.6 62.3-36.7 62.9 36.3-62.9 35.9z" opacity=".1"/><path d="m412.1 445.2 62.2-36.7 62.9 36.3-62.9 36z" opacity=".3"/><path d="m418.6 281-45.4-26.2 45.4-26.2 45.4 26.2z"/></g><path d="m418.6 281-45.4-26.2 45.4-26.2 45.4 26.2z" fill="url(#b)" opacity=".5"/><path d="m418.6 270-45.4-26.2 45.4-26.2 45.4 26.2z" fill="#009bdb" opacity=".5"/><path d="m418.6 259-45.4-26.2 45.4-26.2 45.4 26.2z" fill="#009bdb" opacity=".5"/><path d="m418.6 279.9-44.4-25.7-1 .6 45.4 26.2 45.4-26.2-.9-.6z" fill="#fff"/><path d="m464 406.8-45.4 26.2v-152l45.4-26.2z" fill="#009bdb"/><path d="m418.6 433-45.4-26.2v-152l45.4 26.2z" fill="#009bdb"/><path d="m418.6 433-45.4-26.2v-152l45.4 26.2z" opacity=".2"/><path d="m359.4 359.5-45.4-26.2 45.4-26.2 45.4 26.2z" fill="#009bdb"/><path d="m359.4 359.5-45.4-26.2 45.4-26.2 45.4 26.2z" fill="url(#c)" opacity=".5"/><path d="m359.4 348.5-45.4-26.2 45.4-26.2 45.4 26.2z" fill="#009bdb" opacity=".5"/><path d="m359.4 358.4-44.5-25.7-.9.6 45.4 26.2 45.4-26.2-1-.6z" fill="#fff"/><path d="m404.8 441.1-45.4 26.2v-107.8l45.4-26.2z" fill="#009bdb"/><path d="m359.4 467.3-45.4-26.2v-107.8l45.4 26.2z" fill="#009bdb"/><path d="m359.4 467.3-45.4-26.2v-107.8l45.4 26.2z" opacity=".2"/><path d="m300.1 406.8-45.3-26.2 45.3-26.2 45.4 26.2z" fill="#009bdb"/><path d="m300.1 406.8-45.3-26.2 45.3-26.2 45.4 26.2z" fill="url(#d)" opacity=".5"/><path d="m300.1 395.9-45.3-26.2 45.3-26.2 45.4 26.2z" fill="#009bdb" opacity=".5"/><path d="m300.1 405.7-44.4-25.6-.9.5 45.3 26.2 45.4-26.2-.9-.5z" fill="#fff"/><path d="m345.5 475.4-45.4 26.2v-94.8l45.4-26.2z" fill="#009bdb"/><path d="m300.1 501.6-45.3-26.2v-94.8l45.3 26.2z" fill="#009bdb"/><path d="m300.1 501.6-45.3-26.2v-94.8l45.3 26.2z" opacity=".2"/><path d="m240.8 474-45.4-26.2 45.4-26.2 45.4 26.2z" fill="#009bdb"/><path d="m240.8 474-45.4-26.2 45.4-26.2 45.4 26.2z" fill="url(#e)" opacity=".5"/><path d="m240.8 474-45.4-26.2 45.4-26.2 45.4 26.2z" fill="#009bdb" opacity=".5"/><path d="m240.8 474-45.4-26.2 45.4-26.2 45.4 26.2z" fill="#009bdb" opacity=".5"/><path d="m240.8 472.9-44.4-25.7-1 .6 45.4 26.2 45.4-26.2-.9-.6z" fill="#fff"/><path d="m286.2 510.3-45.4 26.2v-62.5l45.4-26.2z" fill="#009bdb"/><path d="m240.8 536.5-45.4-26.2v-62.5l45.4 26.2z" fill="#009bdb"/><path d="m240.8 536.5-45.4-26.2v-62.5l45.4 26.2z" opacity=".2"/><path d="m503.5 435.2h-6.8c-.5-.3-1-.7-1.6-1-11.1-6.4-29-6.4-40.1 0-.7.4-1.3.8-2 1.2h-6.4v10.3c0 4.2 2.8 8.4 8.3 11.6 11.1 6.4 29 6.4 40.1 0 5.5-3.2 8.3-7.4 8.3-11.6v-10.5z" fill="#22c7dd"/><path d="m503.5 435.2h-6.8c-.5-.3-1-.7-1.6-1-11.1-6.4-29-6.4-40.1 0-.7.4-1.3.8-2 1.2h-6.4v10.3c0 4.2 2.8 8.4 8.3 11.6 11.1 6.4 29 6.4 40.1 0 5.5-3.2 8.3-7.4 8.3-11.6v-10.5z" fill="#020202" opacity=".2"/><path d="m474.2 429.5c-6.9.1-13.8 1.7-19.1 4.8-.7.4-1.3.8-2 1.2h-6.4v10.3c0 4.2 2.8 8.4 8.3 11.6 5.3 3.1 12.2 4.6 19.1 4.8v-32.7z" fill="#22c7dd"/><path d="m450.7 435.5h-3.9v10.3c0 2.9 1.3 5.7 3.9 8.3z" fill="#22c7dd"/><path d="m495.2 446.8c-11.1 6.4-29 6.4-40.1 0s-11.1-16.8 0-23.1 29-6.4 40.1 0 11.1 16.7 0 23.1z" fill="#22c7dd"/><path d="m495.2 446.8c-11.1 6.4-29 6.4-40.1 0-5.3-3-8-7-8.3-10.9-.3 4.4 2.5 8.8 8.3 12.2 11.1 6.4 29 6.4 40.1 0 5.8-3.4 8.6-7.8 8.3-12.2-.3 3.9-3.1 7.8-8.3 10.9z" fill="#020202" opacity=".2"/><path d="m495.7 430.7h-4.9c-.4-.2-.7-.5-1.1-.7-8-4.6-21.1-4.6-29.1 0-.5.3-1 .6-1.4.9h-4.6v3.5c0 3 2 6.1 6 8.4 8 4.6 21.1 4.6 29.1 0 4-2.3 6-5.4 6-8.4z" fill="#020202" opacity=".2"/><path d="m474.5 426.6c-5 .1-10 1.3-13.9 3.5-.5.3-1 .6-1.4.9h-4.6v3.5c0 3 2 6.1 6 8.4 3.8 2.2 8.8 3.4 13.9 3.5z" fill="#22c7dd"/><path d="m457.4 430.9h-2.8v3.5c0 2.1.9 4.2 2.8 6z" fill="#22c7dd"/><path d="m489.7 439.1c-8 4.6-21.1 4.6-29.1 0s-8-12.2 0-16.8 21.1-4.6 29.1 0c8 4.7 8 12.2 0 16.8z" fill="#772edd"/><path d="m437.6 394.9c-6.9 0-13.3-3.6-16.8-9.5l-10.8-17.9c-1.3-2.1-1.3-4.7-.1-6.9s3.4-3.5 5.9-3.5h21.3v5.5h-21.3c-.6 0-1 .4-1.1.6s-.3.7 0 1.3l10.8 17.9c2.6 4.3 7.3 6.9 12.3 6.8l18.5-.3.1 5.5-18.5.3c-.1.2-.2.2-.3.2z" fill="#ffd569"/><path d="m512.7 394.9c-.1 0-.2 0-.3 0l-18.5-.3.1-5.5 18.5.3c5 .1 9.7-2.5 12.3-6.8l10.8-17.9c.3-.6.2-1 0-1.3-.1-.2-.5-.6-1.1-.6h-21.3v-5.5h21.3c2.5 0 4.7 1.3 5.9 3.5s1.2 4.7-.1 6.9l-10.8 17.9c-3.5 5.7-9.9 9.3-16.8 9.3z" fill="#ffd569"/><path d="m464.1 421c6.1 3.5 15.9 3.5 22 0s6.1-9.2 0-12.7-15.9-3.5-22 0-6.1 9.2 0 12.7z" fill="#fff"/><path d="m457 423.7c3.3-2.4 2.6-4.8 2.6-4.8l2.5 3c7.5-3.6 18.6-3.6 26.1 0l2.5-3s-.6 2.4 2.6 4.8c3.3 2.4 2.2 7.2 2.2 7.2 0 3-2 6-6 8.3-8 4.6-20.9 4.6-28.8 0-4-2.3-6-5.3-6-8.3 0 0-1-4.8 2.3-7.2z" fill="#f8c24d"/><path d="m486.5 424.4s-5.9-3.5-5.9-4.2c0-.1.1-.3.3-.5 2.6.4 5.1 1.2 7.2 2.2l2.5-3s-.6 2.4 2.6 4.8c3.3 2.4 2.2 7.2 2.2 7.2 0 1.6-.6 3.3-1.8 4.8.1-.4.7-5.3-3-6.9-3.7-1.7-4.1-4.4-4.1-4.4z" fill="#f8c24d"/><path d="m464.1 424.6c6.1 3.5 15.9 3.5 22 0s6.1-9.2 0-12.7-15.9-3.5-22 0-6.1 9.2 0 12.7z" fill="#f8c24d"/><path d="m493.3 423.7c-3.3-2.4-2.6-4.8-2.6-4.8.3-2.5-1.2-5.1-4.5-7-6.1-3.5-15.9-3.5-22 0s-6.1 9.2 0 12.7 15.9 3.5 22 0c.1-.1.2-.2.4-.2s.3 2.7 4.2 4.4c3.7 1.6 3.1 6.5 3 6.9 1.2-1.5 1.8-3.2 1.8-4.8-.1 0 1-4.8-2.3-7.2z" opacity=".2"/><path d="m515.9 357.5c-.4 22.7-12.1 25.5-18.4 34-5.8 7.9-5.2 19.4-5.1 20.9v.2c0 2.6-1.7 5.1-5.1 7.1-6.8 3.9-17.7 3.9-24.5 0-3.2-1.8-4.8-4.2-5-6.6v-.5c0-.1 0-.1 0-.2.1-1.5.8-13-5.1-20.9-6.3-8.5-18-11.2-18.4-34z" fill="#f8c24d"/><path d="m486.1 382.3s-1 2.7-3.9 10.5c-2.9 7.5-1.6 28-1.6 29.3 0 0 0 .1.1 0 0 0 4.4-1 6.7-2.4 3.3-2.1 5.1-4.5 5.1-7.1 0-.1 0-.1 0-.2-.1-1.5-.8-13 5.1-20.9 6.3-8.5 18-11.2 18.4-34h-4.5z" fill="#d5a026" opacity=".5"/><path d="m446.3 374.2c15.9 9.2 41.7 9.2 57.6 0s15.9-24.1 0-33.3-41.7-9.2-57.6 0-15.9 24.1 0 33.3z" fill="#ffd569"/><path d="m446.3 374.2c15.9 9.2 41.7 9.2 57.6 0 7.5-4.3 11.5-9.9 11.9-15.6.5 6.4-3.5 12.8-11.9 17.7-15.9 9.2-41.7 9.2-57.6 0-8.4-4.9-12.4-11.3-11.9-17.7.5 5.7 4.4 11.3 11.9 15.6z" fill="#fff"/><path d="m451 371.5c13.4 7.7 35 7.7 48.4 0s13.4-20.2 0-27.9-35-7.7-48.4 0-13.4 20.2 0 27.9z" fill="#e1b23c"/><path d="m451 371.5c5.6 3.2 12.7 5.1 19.9 5.6 1.1-1.4 1.6-3 1-4.6-3.6-10.6-2.2-32.7-2.2-32.7l-6.4-.8c-4.5 1-8.7 2.5-12.4 4.5-13.3 7.8-13.3 20.3.1 28z" fill="#d5a026" opacity=".5"/><path d="m499.3 345.3c-13.4-7.7-35-7.7-48.4 0-6.3 3.6-9.6 8.3-10 13.1-.4-5.3 2.9-10.8 10-14.8 13.4-7.7 35-7.7 48.4 0 7.1 4.1 10.4 9.5 10 14.8-.4-4.7-3.7-9.4-10-13.1z" fill="#fff"/><path d="m491.9 374.8c-10.4 3.4-23.1 3.4-33.5 0 .4-.2.7-.5 1.1-.7 8.6-5 22.6-5 31.3 0 .4.2.7.4 1.1.7z" fill="#d5a026"/><path d="m457.8 412.4c0-.2 0-.5.1-1 .3 2.3 1.9 4.6 5 6.4 6.8 3.9 17.7 3.9 24.5 0 3-1.7 4.7-4 5-6.3v.8.2c0 2.6-1.7 5.1-5.1 7.1-6.8 3.9-17.7 3.9-24.5 0-3.2-1.8-4.8-4.2-5-6.6v-.5s0 0 0-.1z" fill="#fff"/><path d="m325.7 513.9s3.1 1.8 6.1 1.4 6.8-.2 7.2 2.3-3.4 5.2-7.2 5.8c-3.9.5-9.9.7-9.9.7l-.7 1.2s-6.2.9-8.5-.7c0 0-1.1-3.9.7-7.1.1-.1.1-.2.2-.3 0-.2 8 1.8 12.1-3.3z" fill="#0c0c0c"/><path d="m331.7 439.5s1 19-2.5 32.1-3.5 42.3-3.5 42.3-3.8 7-12 4.8c0 0-1.3-26.5 0-35.6 1.3-9-.5-26.3-3.3-32.8s-.2-12.1-.2-12.1z" fill="#0c0c0c"/><path d="m345.3 446.3s1 19-2.5 32.1c-3.5 13-3.5 42.3-3.5 42.3s-3.8 7-12 4.8c0 0-1.3-26.5 0-35.6 1.3-9-.5-26.3-3.3-32.8s-2.3-14-2.3-14z" fill="#1e1e1e"/><path d="m339.3 520.7s3.1 1.8 6.1 1.4 6.8-.2 7.2 2.3-3.4 5.2-7.2 5.8c-3.9.5-9.9.7-9.9.7l-.7 1.2s-6.2.9-8.5-.7c0 0-1.1-3.9.7-7.1.1-.1.1-.2.2-.3 0-.2 8 1.8 12.1-3.3z" fill="#0c0c0c"/><path d="m321.2 378.2c-4.7.3-8.2 6.3-9.2 10.4-.8 3.1-1.3 7.9-.5 13 2.1 13.7 1.2 12.9-1 26.2-2.1 12.3-4.8 19-4.8 19s4.9 7.6 36 5.6l4.9-.6c.8-.1 1.3-.9 1.1-1.6-1.3-4.3-4.9-17.2-4.9-24.2 0-8.5 1.2-23.6-1.4-32.5-2.7-9-5.7-11.6-8.8-12.7-1.7-.5-6.8-2.8-11.4-2.6z" fill="#f64444"/><path d="m303.7 337.8s-1-5.6 1.2-7.3 2.9-2.9 4-2.8c1.1 0 4.4-3.8 4.7-1.1s-1.2 4.6-2.3 5.4c-.8.6-.8 2.6-.7 3.7 0 .4-.1.7-.4 1l-1.7 1.6z" fill="#facaa9"/><path d="m374.2 354.9s4.6-3.3 4.3-6.1c-.4-2.8-.1-4.1-.8-4.8-.8-.7-.5-5.8-2.6-4.1s-2.4 4.1-2.1 5.4c.2 1-1.3 2.4-2 3.1-.3.3-.4.6-.4 1l.1 2.4z" fill="#facaa9"/><path d="m332.1 381.6s-.3-4.4.6-5.7c2.9-4 6.8 1.1 8-8.4.3-2.2-.3-4.4-.4-6.4-.3-6.1-1.5-10.9-7.6-11.3-8.1-.5-10.8 5.9-10.9 10.2-.1 4.2 2.7 14.4 2.7 14.4l-.4 6.8c0-.1 3.3 3.7 8 .4z" fill="#facaa9"/><path d="m322.7 381.3s3.2 3.8 8.6 1.7c0 0 1.5-.8 2.9-.4l-2.2-3.2s-3 1.7-7.9-.5z" fill="#f64444"/><path d="m322.7 381.3s3.2 3.8 8.6 1.7c0 0 1.5-.8 2.9-.4l-2.2-3.2s-3 1.7-7.9-.5z" opacity=".1"/><path d="m339.8 361.9 1.5 4.5c.3.8-.1 1.6-.9 1.9l-.6.2z" fill="#facaa9"/><path d="m340.3 353.6s-3.1 8.5-18.9 4.8c0 0-.9-5.2 2.8-7.9s11.3-2.2 12.5-3.3c3.5-3.1 7.8 2.3 3.6 6.4z" fill="#0c0c0c"/><path d="m321.4 358.4s-.8 3.6 3.1 15.9l3.5 1.3c2.5.2 5.1-4.1 4.8-6.6v-.1c-.4-2.9-1.4-4.9-.3-6.5 1.1-1.5 1.9.1 1.8 2.1l1.2-1c.3-.3.5-.6.4-1-.1-.9-.1-2.4.5-3.1 1-1 2.8-2.2 2.6-3.8-.2-1.7-17.6 2.8-17.6 2.8z" fill="#0c0c0c"/><path d="m367 379.3 7.9-25.8-4.2-1.7-9.3 20.2z" fill="#facaa9"/><path d="m297.8 364.6 5.9-26.9 4.7.1-1.8 22.3z" fill="#facaa9"/><path d="m337.5 385.1s14.2 2.8 23.2-13.7c.8-1.5 2.9-1.7 3.7-.4 1.4 2.2 3.4 5.6 2.4 9.2-4.4 16.1-28.2 19.7-32.5 29.1s3.2-24.2 3.2-24.2z" fill="#f64444"/><path d="m321.7 378.6s-11.2.9-12.8-8.9c-.8-5-1.1-8-1.1-9.7 0-1.2-1-2-2.2-1.9-2.7.3-6.9 1.1-7.4 2.9-.8 2.7-2.6 17.8 13.4 38.1 9.3 12 10.1-20.5 10.1-20.5z" fill="#f64444"/></svg>