<svg enable-background="new 0 0 487.7 564.8" viewBox="0 0 487.7 564.8" xmlns="http://www.w3.org/2000/svg" xmlns:xlink="http://www.w3.org/1999/xlink"><linearGradient id="a" gradientUnits="userSpaceOnUse" x1="335.9129" x2="335.9129" y1="434.9189" y2="359.08"><stop offset=".01075269" stop-color="#f8c24d"/><stop offset="1" stop-color="#f8824d"/></linearGradient><linearGradient id="b"><stop offset="0" stop-color="#1e34b4"/><stop offset="1" stop-color="#4d87f4"/></linearGradient><linearGradient id="c" gradientTransform="matrix(1.121 -.121 .121 .879 -237.7938 237.7938)" gradientUnits="userSpaceOnUse" x1="479.7446" x2="438.1361" xlink:href="#b" y1="113.6739" y2="140.3257"/><linearGradient id="d"><stop offset="0" stop-color="#1b2d88"/><stop offset="1" stop-color="#009bdb"/></linearGradient><linearGradient id="e" gradientTransform="matrix(-1.1198 .1984 .1209 .8716 5080.8149 -518.9661)" gradientUnits="userSpaceOnUse" x1="4283.8701" x2="4254.5166" xlink:href="#d" y1="-49.2586" y2="-37.7487"/><linearGradient id="f"><stop offset=".0375744" stop-color="#fdfcf4"/><stop offset="1" stop-color="#ece9d9"/></linearGradient><linearGradient id="g" gradientUnits="userSpaceOnUse" x1="335.6255" x2="335.6255" xlink:href="#f" y1="363.6584" y2="353.4263"/><linearGradient id="h" gradientUnits="userSpaceOnUse" x1="335.6255" x2="335.6255" xlink:href="#f" y1="353.2373" y2="341.9892"/><linearGradient id="i" gradientUnits="userSpaceOnUse" x1="287.5417" x2="383.7089" xlink:href="#f" y1="255.8752" y2="255.8752"/><linearGradient id="j" gradientTransform="matrix(1.0083 .08695666 -.00079576 .9917 -19.587 -204.7525)" gradientUnits="userSpaceOnUse" x1="380.5626" x2="432.0062" xlink:href="#b" y1="475.4157" y2="504.3943"/><linearGradient id="k" gradientTransform="matrix(1.0083 .08695666 -.00079576 .9917 -19.587 -204.7525)" gradientUnits="userSpaceOnUse" x1="385.999" x2="418.0829" xlink:href="#d" y1="499.4601" y2="479.2927"/><linearGradient id="l" gradientUnits="userSpaceOnUse" x1="300.6543" x2="371.5996" xlink:href="#d" y1="195.577" y2="195.577"/><linearGradient id="m" gradientTransform="matrix(.8188 .5741 -.5741 .8188 220.0411 -271.8932)" gradientUnits="userSpaceOnUse" x1="401.6597" x2="373.4327" xlink:href="#d" y1="401.5161" y2="365.9256"/><linearGradient id="n" gradientTransform="matrix(.8188 .5741 -.5741 .8188 220.0411 -271.8932)" gradientUnits="userSpaceOnUse" x1="371.4251" x2="397.4637" xlink:href="#d" y1="366.8799" y2="404.019"/><linearGradient id="o" gradientUnits="userSpaceOnUse" x1="356.8241" x2="318.8063" xlink:href="#b" y1="251.1121" y2="203.1767"/><linearGradient id="p" gradientTransform="matrix(.587 .9047 -.5741 .8188 764.2739 -1048.1405)" gradientUnits="userSpaceOnUse" x1="393.0834" x2="375.8054" xlink:href="#d" y1="1189.1356" y2="1167.3503"/><linearGradient id="q"><stop offset=".2742" stop-color="#d6d5d5"/><stop offset=".3829" stop-color="#9e9d9d"/><stop offset=".4915" stop-color="#6e6d6d"/><stop offset=".5988" stop-color="#464646"/><stop offset=".7039" stop-color="#282727"/><stop offset=".8062" stop-color="#121212"/><stop offset=".9044" stop-color="#040404"/><stop offset=".994"/></linearGradient><radialGradient id="r" cx="381.0855" cy="497.7196" gradientUnits="userSpaceOnUse" r="17.8554" xlink:href="#q"/><radialGradient id="s" cx="381.0855" cy="490.7196" gradientUnits="userSpaceOnUse" r="17.8554" xlink:href="#q"/><radialGradient id="t" cx="381.0855" cy="483.7196" gradientUnits="userSpaceOnUse" r="17.8554" xlink:href="#q"/><radialGradient id="u" cx="381.0855" cy="476.7196" gradientUnits="userSpaceOnUse" r="17.8554" xlink:href="#q"/><radialGradient id="v" cx="337.004" cy="520.282" gradientUnits="userSpaceOnUse" r="17.8554" xlink:href="#q"/><radialGradient id="w" cx="337.004" cy="513.282" gradientUnits="userSpaceOnUse" r="17.8554" xlink:href="#q"/><radialGradient id="x" cx="337.004" cy="506.282" gradientUnits="userSpaceOnUse" r="17.8554" xlink:href="#q"/><radialGradient id="y" cx="337.004" cy="499.282" gradientUnits="userSpaceOnUse" r="17.8554" xlink:href="#q"/><radialGradient id="z" cx="295.754" cy="545.4904" gradientUnits="userSpaceOnUse" r="17.8554" xlink:href="#q"/><radialGradient id="A" cx="295.754" cy="538.4904" gradientUnits="userSpaceOnUse" r="17.8554" xlink:href="#q"/><radialGradient id="B" cx="295.754" cy="531.4904" gradientUnits="userSpaceOnUse" r="17.8554" xlink:href="#q"/><radialGradient id="C" cx="381.0945" cy="469.7761" gradientUnits="userSpaceOnUse" r="17.8554" xlink:href="#q"/><radialGradient id="D" cx="381.0945" cy="462.7761" gradientUnits="userSpaceOnUse" r="17.8554" xlink:href="#q"/><radialGradient id="E" cx="381.0945" cy="455.7761" gradientUnits="userSpaceOnUse" r="17.8554" xlink:href="#q"/><radialGradient id="F" cx="381.0945" cy="448.7761" gradientUnits="userSpaceOnUse" r="17.8554" xlink:href="#q"/><linearGradient id="G"><stop offset="0" stop-color="#3e6ee1"/><stop offset=".9792" stop-color="#6bbdf6"/></linearGradient><linearGradient id="H" gradientTransform="matrix(.9959 .0907255 -.0907255 .9959 34.533 -201.4861)" gradientUnits="userSpaceOnUse" x1="293.5372" x2="389.3729" xlink:href="#G" y1="684.0017" y2="563.9438"/><linearGradient id="I"><stop offset="0" stop-color="#6bbdf6"/><stop offset="1" stop-color="#83e8f7"/></linearGradient><linearGradient id="J" gradientTransform="matrix(.9959 .0907255 -.0907255 .9959 34.533 -201.4861)" gradientUnits="userSpaceOnUse" x1="291.3238" x2="387.1553" xlink:href="#I" y1="685.2803" y2="571.4402"/><linearGradient id="K" gradientTransform="matrix(.9959 .0907255 -.0907255 .9959 34.533 -201.4861)" gradientUnits="userSpaceOnUse" x1="291.9551" x2="387.7866" xlink:href="#I" y1="685.8118" y2="571.9717"/><linearGradient id="L" gradientTransform="matrix(.9959 .0907255 -.0907255 .9959 34.533 -201.4861)" gradientUnits="userSpaceOnUse" x1="360.8227" x2="381.4526" xlink:href="#G" y1="589.6348" y2="563.7907"/><g fill="#009bdb" opacity=".5" stroke="#009bdb" stroke-miterlimit="10" stroke-width="20"><path d="m56.7 113c36.8 0 45-17.7 52.4-38.1h32v302.9h-47.6v-231.1h-36.8z"/><path d="m208.6 113c36.8 0 45-17.7 52.4-38.1h32v302.9h-47.6v-231.1h-36.8z"/></g><path d="m271.1 527.6 62.3-36.7 62.9 36.3-62.9 35.9z" fill="#009bdb" opacity=".3"/><path d="m342.1 486.6 62.3-36.7 62.9 36.3-62.9 35.9z" fill="#009bdb" opacity=".1"/><path d="m200.8 568.7 62.3-36.6 62.8 36.3-62.8 35.9z" fill="#009bdb" opacity=".1"/><path d="m273.1 446.2 62.2-36.7 62.9 36.3-62.9 36z" fill="#009bdb" opacity=".3"/><path d="m340.1 567.4 62.3-36.7 62.9 36.3-62.9 36z" fill="#009bdb" opacity=".1"/><path d="m445.1 379.3 39.6 22.8v47.3l-39.6-22.9z" fill="#beccde"/><path d="m484.7 402.1 3-1.8v47.4l-3 1.7z" fill="#abbacb"/><path d="m445.1 379.3 3.1-1.7 39.5 22.7-3 1.8z" fill="#fff"/><path d="m448.5 385.3 32.9 18.9v39.3l-32.9-19z" fill="#f4f6ff"/><path d="m450.9 412v10.6l6 3.5v-10.7z" fill="#1a40c6"/><g fill="#beccde"><path d="m447.9 419.9v1.1l1.8 1v-1z"/><path d="m447.9 416v1l1.8 1.1v-1.1z"/><path d="m447.9 412v1l1.8 1.1v-1z"/><path d="m447.9 408.1v1l1.8 1.1v-1.1z"/><path d="m447.9 404.1v1l1.8 1.1v-1z"/><path d="m447.9 400.1v1.1l1.8 1.1v-1.1z"/><path d="m447.9 396.2v1l1.8 1.1v-1z"/><path d="m447.9 392.2v1.1l1.8 1v-1z"/></g><path d="m458.3 407.3v19.6l5.9 3.5v-19.6z" fill="#1a40c6"/><path d="m465.7 414.3v16.9l5.9 3.4v-16.9z" fill="#1a40c6"/><path d="m473 408.3v27.2l6 3.4v-27.2z" fill="#1a40c6"/><path d="m424.4 298.5 39.6 22.8v47.3l-39.6-22.9z" fill="#beccde"/><path d="m464 321.3 3-1.8v47.3l-3 1.8z" fill="#abbacb"/><path d="m424.4 298.5 3.1-1.7 39.5 22.7-3 1.8z" fill="#fff"/><path d="m427.8 304.4 32.9 18.9v39.4l-32.9-19.1z" fill="#f4f6ff"/><path d="m427.2 339.1v1l1.8 1.1v-1z" fill="#beccde"/><path d="m427.2 335.1v1.1l1.8 1v-1z" fill="#beccde"/><path d="m427.2 331.2v1l1.8 1.1v-1.1z" fill="#beccde"/><path d="m427.2 327.2v1l1.8 1.1v-1z" fill="#beccde"/><path d="m427.2 323.3v1l1.8 1.1v-1.1z" fill="#beccde"/><path d="m427.2 319.3v1l1.8 1.1v-1z" fill="#beccde"/><path d="m427.2 315.3v1.1l1.8 1.1v-1.1z" fill="#beccde"/><path d="m427.2 311.4v1l1.8 1.1v-1z" fill="#beccde"/><path d="m435 329.1 5.3 10.4 15.2-11.1" style="fill:none;stroke:#ffd569;stroke-width:4.1604;stroke-linecap:round;stroke-linejoin:round;stroke-miterlimit:10"/><g fill="#fff" opacity=".4"><path d="m198.1 268.1v1.6l6.8 3.9v-1.6z"/><path d="m198.1 271v1.7l6.8 3.9v-1.6z"/><path d="m198.1 274v1.6l6.8 3.9v-1.6z"/><path d="m249.5 308.2v-1.6l-42.1-24.2v1.6z"/><path d="m198.1 277v1.6l6.8 3.9v-1.6z"/><path d="m198.1 279.9v1.6l6.8 4v-1.7z"/><path d="m249.5 311.2v-1.6l-42.1-24.3v1.6z"/><path d="m198.1 288.8v1.6l6.8 4v-1.7z"/><path d="m198.1 291.8v1.6l6.8 3.9v-1.6z"/><path d="m198.1 303.6v1.6l6.8 4v-1.7z"/><path d="m198.1 306.6v1.6l6.8 3.9v-1.6z"/><path d="m234 327.3-26.6-15.3v1.6l26.6 15.3z"/><path d="m235.4 328.1v1.6l14.1 8.1v-1.6z"/><path d="m220.8 316.7-13.4-7.7v1.6l13.4 7.7z"/><path d="m222.2 317.5v1.6l27.3 15.8v-1.6z"/><path d="m245.9 322.3v1.6l3.6 2.1v-1.6z"/><path d="m226.3 308.1-18.9-10.9v1.6l18.9 10.9z"/><path d="m218.6 279.9-11.2-6.4v1.6l11.2 6.4z"/><path d="m236.9 290.4-16.9-9.7v1.6l16.9 9.8z"/><path d="m227 287.7-11.8-6.8v1.6l11.8 6.9z"/><path d="m239.5 294.9-11.1-6.4v1.7l11.1 6.3z"/><path d="m240.9 295.7v1.6l8.6 5v-1.6z"/><path d="m209.6 280.7v1.6l9 5.1v-1.6z"/><path d="m246 301.6-26-15v1.7l26 14.9z"/><path d="m231.1 301.9-17-9.8v1.7l17 9.7z"/><path d="m246 310.5-13.5-7.8v1.7l13.5 7.7z"/><path d="m244.5 318.5-16.8-9.6v1.6l16.8 9.7z"/><path d="m235.4 316.2v1.7l9.1 5.2v-1.6z"/><path d="m210.7 302-3.3-1.9v1.6l3.3 1.9z"/><path d="m216.9 305.6v1.6l17.1 9.8v-1.6z"/><path d="m215.5 304.8-3.4-2v1.7l3.4 1.9z"/><path d="m230.8 316.6-18.7-10.8v1.6l18.7 10.8z"/></g><g fill="#fff" opacity=".4"><path d="m412.3 383.5-28.3-16.4v1.5l28.3 16.3z"/><path d="m384 371.4 43.4 25v-1.4l-43.4-25.1z"/><path d="m414.2 384.5v1.5l13.2 7.6v-1.4z"/><path d="m412.3 389-28.3-16.4v1.5l28.3 16.3z"/><path d="m384 376.9 43.4 25v-1.4l-43.4-25.1z"/><path d="m414.2 391.5 13.2 7.6v-1.4l-13.2-7.7z"/><path d="m412.3 398.1-28.3-16.4v1.5l28.3 16.3z"/><path d="m384 386 43.4 25v-1.4l-43.4-25.1z"/><path d="m414.2 400.6 13.2 7.6v-1.4l-13.2-7.7z"/><path d="m412.3 403.6-28.3-16.4v1.5l28.3 16.3z"/><path d="m384 391.5 43.4 25v-1.4l-43.4-25.1z"/><path d="m414.2 406.1 13.2 7.6v-1.4l-13.2-7.7z"/><path d="m412.3 412.7-28.3-16.4v1.4l28.3 16.4z"/><path d="m384 400.6 43.4 25v-1.4l-43.4-25.1z"/><path d="m414.2 415.2 13.2 7.6v-1.4l-13.2-7.7z"/><path d="m412.3 418.2-28.3-16.4v1.4l28.3 16.4z"/><path d="m384 406.1 43.4 25v-1.4l-43.4-25.1z"/><path d="m414.2 420.7 13.2 7.6v-1.4l-13.2-7.7z"/></g><path d="m351.5 375.3c0-15.2-7-27.6-15.6-27.6s-15.6 12.3-15.6 27.6c0 15.2 15.6 70.7 15.6 70.7s15.6-55.5 15.6-70.7z" fill="url(#a)"/><path d="m313.3 267.9-39.5 23.8.3 18.9-1.4-.1-.9 2.4 2.7 1c.3.1.6 0 .8-.2l11.8-12.3 29.8-9.7z" fill="url(#c)"/><path d="m271.1 290.7 39.5-23.8 3.7 23.8-29.8 9.7-11.8 12.3c-.4.4-1.2.3-1.2-.2z" fill="url(#e)"/><path d="m360.3 358.9s-7.2 4.4-24.7 4.4c-15.2 0-24.7-4.4-24.7-4.4l4.8-18.6h39.2z" fill="url(#g)"/><path d="m358.8 350.7s-4.8 3.5-16.7 4c-22.2 1-29.7-4-29.7-4v-10.4h46.3v10.4z" fill="url(#h)"/><path d="m335.6 165c-91.5 106.4-24.3 179-24.3 179s13.7 2.9 24.3 2.9c11.8 0 24.3-2.9 24.3-2.9s67.2-72.6-24.3-179z" fill="url(#i)"/><path d="m413 341.9-3.1-31.2-46.7-26.3-2.8 1.6.5 1.5 1.2-.1v29.8l34.5 9.2 12.6 13.1 1.1 5.5 2.2-1.4c.3-.4.5-1 .5-1.7z" fill="url(#j)"/><path d="m407.7 313.7-47.3-27.6-.4 34.2 34.5 9.2 14.9 15.5c.5.6 1.4.2 1.3-.5z" fill="url(#k)"/><path d="m371.6 220.4c-7.5-17.2-19-35.7-36-55.5-16.2 18.9-27.5 36.7-35 53.2 9.5 5 34.1 14.1 71 2.3z" fill="url(#l)"/><path d="m335.6 165c-91.5 106.4-24.3 179-24.3 179l16.1 2.4c-30.3-95.3 8.2-181.4 8.2-181.4z" fill="#bfba99" opacity=".38"/><path d="m306.4 280c-6-9.3-6.1-23.7-.2-32 5.9-8.4 15.6-7.7 21.6 1.6s6.1 23.7.2 32c-5.9 8.4-15.6 7.7-21.6-1.6zm18.7-26.6c-4.5-6.9-11.7-7.5-16.1-1.2s-4.3 17 .2 24 11.7 7.5 16.1 1.2 4.3-17.1-.2-24z" fill="url(#m)"/><path d="m302.9 279.6c-6-9.3-6.1-23.7-.2-32 5.9-8.4 15.6-7.7 21.6 1.6s6.1 23.7.2 32c-5.9 8.4-15.6 7.7-21.6-1.6zm18.6-26.6c-4.5-6.9-11.7-7.5-16.1-1.2s-4.3 17 .2 24c4.5 6.9 11.7 7.5 16.1 1.2s4.3-17-.2-24z" fill="url(#n)"/><circle cx="318.1" cy="348.6" fill="#bfba99" opacity=".38" r="1.8"/><circle cx="326.7" cy="349.7" fill="#bfba99" opacity=".38" r="1.8"/><circle cx="335.6" cy="350.7" fill="#bfba99" opacity=".38" r="1.8"/><circle cx="344.4" cy="350.3" fill="#bfba99" opacity=".38" r="1.8"/><circle cx="353.1" cy="348.6" fill="#bfba99" opacity=".38" r="1.8"/><path d="m374.3 227.1c-.4-1-.8-1.9-1.2-2.9-40.8 13.6-66.9 1.4-74-2.6-.4 1-.8 1.9-1.2 2.9 5.3 3 18.7 9.1 38.9 9.1 10.8 0 23.3-1.8 37.5-6.5z" fill="url(#o)"/><path d="m321.5 253c-4.5-6.9-11.7-7.5-16.1-1.2s-4.3 17 .2 24c4.5 6.9 11.7 7.5 16.1 1.2s4.3-17-.2-24z" fill="url(#p)"/><path d="m189.5 371.2s.1 2.9.5 4c.4 1.2 2.8 5.1 2.8 12-.1 11.8 3.2 21.5 3.2 21.5s2.7 3 2.1 6.5c-.3 2.1-3.7 4-5.8 5.2s-5.1-2.4-3.5-4.4-7.7-32.9-7.7-32.9l1.6-14.8 5.7-.5z" fill="#e4c6a6"/><path d="m181.5 344.8s8.2 2.4 8.4 12.5c.1 6.3 6.1 45.4 6.1 45.4s-2.8 1-8.1-2c0-2.6-9-45.3-9-45.3l-2.5-8 2.4-3.3z" fill="#d44646"/><path d="m181.5 344.8s8.2 2.4 8.4 12.5c.1 6.3 6.1 45.4 6.1 45.4s-2.8 1-8.1-2c0-2.6-9-45.3-9-45.3l-2.5-8 2.4-3.3z" opacity=".1"/><path d="m186.5 487.5c2.4 2.6 8.3 5.2 10.7 6.5s2.5 5.6 0 6.3c-4.1 1.1-15.6-4.4-15.6-4.4s-6.8 0-8.8-2.2c-1.3-1.4.2-7.4.2-7.4l4.4-.8s8.6 1.1 9.1 2z" fill="#19191b"/><path d="m188.4 396.7c4.1 23.6-1 41-1.8 56.8s.4 29.6 0 32.9c-.4 3.8-14.7 4.6-14.9-.5-.2-5.2-1.5-18.6 1.7-34 .3-5.7-1.9-20.2-1.9-20.2l-1.7-12.5 3.7-9.7c-.1-.2 13.4-15.5 14.9-12.8z" fill="#0c0c0c"/><path d="m161.3 494.2c.1 2.5 1.6 6 2.2 7.3 1.7 3.4.6 5.7.3 6.3-.7 1.5-13 5.4-13-5.8 0-3.2 0-10.2 0-10.2s10.4-.1 10.5 2.4z" fill="#19191b"/><path d="m157.2 400.8c-6.2 8.9-2.8 45.5-4.5 52.5-3.8 14.6-4.4 38.4-3.2 40.5 2.4 6.6 13.8 3.7 13.7-1 .6-34.4 10.7-70.5 10.7-70.5s12.9-7.2 14.6-25.5c-1.8-2-29.6 1.8-31.3 4z" fill="#1e1e1e"/><path d="m158.8 397.2-1.6 3.5s7.3 15.2 31.2-4.1c0-1-.1-3.1-.1-3.1z" fill="#19191b"/><path d="m177 346.2c.9 4.7-4.1 6.3-6.4 8.1-5.6 1.6 3.2-.2-5.1-3.8-8.1-1-17.1 12-17.1 12s2 9.9 6.8 20.6c2.5 5.6 3.9 12.6 3.6 14.1 6.6 14.8 29.5-3.6 29.5-3.6s.7-28.3-1.2-36.6c-2.1-8.8-11.5-12-10.1-10.8z" fill="#d44646"/><path d="m159.7 391.6s2.2 3 7.2-1c4.8-3.8 1.9-7.5 1.9-7.5l-2-1.8-7.8 1.7-1 2.7z" fill="#dd4e73"/><path d="m211.5 419-6.8 1.3-3.7-2.6-.7-5.1 4.7-.4 5.1 2 1.2 2.4z" fill="#bba294"/><path d="m168.1 383.3c3.8 5.6 5.3 10.7 5.3 10.7 8.8 3.8 18.8 13 24.7 14.7.8.2 4.6-.2 6.3 1.7.6.9.3 3.7.3 3.7l2.4 2.2s3.8 2 3.8 2.7c.1 1.9-7.5 4-9.7 2.9-3.7-1.9-7.7-8.2-7.7-8.2-4-2.5-22-6.5-27-12.8-1.5-1.7-7.5-12.2-7.5-12.2l.6-5.4 5.5-1c.1 0 1.9-.4 3 1z" fill="#e4c6a6"/><path d="m152.1 358.7c-9.3 4.6-.1 17.9-.1 17.9l13.9 24.6c.7 1.1 1.7 1.9 2.9 2.5l16 7.5s-2.5-1.1 3.8-9.1l-14.3-8.6-11-24.4c-.1-.1-4-14-11.2-10.4z" fill="#d44646"/><path d="m204.5 410.4s-6.4 2.9-5.2 5.1c1.2 2.4 5.5-1.4 5.5-1.4z" fill="#bba294"/><path d="m225.3 407.4s-10.4 3.6-13.4 3.7c-1 .1-5.7-1.2-7.4-.7s-5.4 3.9-4.7 4.9 4.6-1.1 5-1.2c2 2 4.4 1.7 4.4 1.7s.3 2.8 1.8 3.2 2.4-1.5 3.6-1.8c2.3-.7 9.8 0 9.8 0l2.6-7.1z" fill="#e4c6a6"/><path d="m254.9 388.9s8.6-3.9 12.4 1.2c3.7 5.1-2.4 12.4-2.4 12.4z" fill="#8bdaf0"/><path d="m249.1 524.3s-4.3-.4-3.8 3c.4 2.6 5.1 7.6 5.1 7.6s1.4 5.1 3.9 6.1 4.3 0 4.9-1-.2-8.5-.2-9.8c.1-1.3-9.9-5.9-9.9-5.9z"/><path d="m242.4 464.8s2 17.6 5.1 28.8c2.3 8.3.9 26.6.7 32.3-.1 5.6 12.3 8.2 13 1.6.8-6.6 3.8-26 0-35.1-.6-3.6 0-40.8 0-40.8l-22.5-2.8-.2 13.5z" fill="#0c0c0c"/><path d="m223 532.6c-3.2 1.6-11.9 2-13.7 3.1s-1.8 5.3 2.8 6.6 22.2 2.4 24.2 1c1.9-1.5.7-9.4.7-9.4s-12.3-2.5-14-1.3z"/><path d="m225.3 446.3c-3.5 18.7-3.2 40.1-2.7 48.1.3 22.1 0 33.2-.6 36.2-1.1 6.5 16.4 7.1 16.8 1.4.5-5.7 1.2-15.1-1-34.1.2-7.5 6.6-31.9 6.6-31.9s13.9-5.9 16.5-12.7c1.6-4.1-3.8-19.6-3.8-19.6h-4.3l-16.4 4.5-8 1.9c.1-.1-1.7 3.1-3.1 6.2z" fill="#0c0c0c"/><path d="m225.8 441.8 1.7-5.4 28.3-6.6s1.2 2.6 1.3 3.8" fill="#19191b"/><path d="m235.2 397c-5.5 3.4-8.5 8-8.5 8s-1.6 29.5-1.4 32c7.5 8.5 29.8-5.9 30.1-6.5 3.6-2.5 1.2-4.6 2.6-7.8 4.3-9.8 10.4-21.2 7.5-27.2-3-5.9-9.3-7-9.3-7l-16.3 4.5c0-.1-2.1 2.6-4.7 4z" fill="#8bdaf0"/><path d="m237.7 415.3-4 20.3c-.8 1.5-5.5 1.4-5.5 1.4v-8.7z" opacity=".1"/><path d="m220.8 431.5s-.2 2-1.2 3.6c-3.9 6.7-3.9 18.9-7.3 23.4-1.7 2.2-6.8 5-6.8 8.2s2.2 4.3 3.8 4.7 4.9 1.2 6 0-.8-2.5-.8-2.5 3.1-3.8 3.6-5.8 0-2.9.1-3.7c.1-1.2 10.4-12.4 11.6-20.5.2-1.4.5-4.1.5-4.1z" fill="#e4c6a6"/><path d="m233.7 401.6c-7.5-2-10.9 12.3-10.9 12.3s-2.1 9.2-3.5 16.8c-1.1 5.3 11.9 6.7 12.7 4.1s5.6-19.3 5.6-19.3 3.6-12-3.9-13.9z" fill="#8bdaf0"/><path d="m240.6 393s.9-3.6-.3-4.8c-3.9-3.8-6.4 1.7-9.4-8.5-.7-2.3-.4-4.9-.6-6.9-.8-6.7-.3-12 6.3-13.5 8.6-2 12.7 4.6 13.5 9.1s-.4 16-.4 16l2.3 6.2s-.7 6.6-11.4 2.4z" fill="#eec6a5"/><path d="m229 364.8s4.8 8.7 21.3 2c0 0 .1-5.7-4.4-8s-12.5-.5-14.1-1.5c-4.3-2.7-8 3.7-2.8 7.5z" fill="#0c0c0c"/><path d="m250.3 366.8s1.5 3.8-.6 17.7l-3.6 2c-2.6.7-6.2-3.6-6.3-6.3v-.1c0-3.2.7-5.6-.8-7-1.4-1.5-2.1.4-1.6 2.5l-1.5-.9c-.4-.2-.6-.6-.6-1-.1-.9-.3-2.6-1.1-3.2-1.2-.9-3.4-1.9-3.5-3.7 0-1.9 19.6 0 19.6 0z" fill="#0c0c0c"/><path clip-rule="evenodd" d="m162.8 341c.5 2.5.5 7.9.2 10.2-.6 4.1 11.5 7 10.5-.6-.1-1.1-.1-2.2-.1-3.4z" fill="#f0c8a7" fill-rule="evenodd"/><path clip-rule="evenodd" d="m173.9 328.1c2.6.6 4.8 2.4 5.4 8.9.4 3.5-1.9 12.7-4.4 14.9-.6.5-2 .9-2.8.9-1.6 0-5.4-3.1-6.4-4-1.5-1.5-1.7-2.7-2.4-5.8l-1.1-2.6-.3-8.9" fill="#f0c8a7" fill-rule="evenodd"/><path clip-rule="evenodd" d="m181.1 337.9c2.4-2.2-.7-6.2-1.6-8.4-1.5-3.7-5.6-5.7-9.5-5.5-3.8.2-7.7 2.1-9.6 5.5-2.5 4.4-.3 9.2 1.9 13.2.4.7.6 1.4.9 2.1.6-1.7-.3-3-.4-4.6-.1-.8-.1-1.8.4-2.5.5-.6 1.3-.8 2-.3s.4 1.9 1.1 2.2c1.2.6 2-2.3 2.3-3 .4-.9.7-1.5 1.7-1.6 1.2-.1 2.3.4 3.4 1 1.5.9 3.4 2 5.2 2.3.8.3 1.6.1 2.2-.4z" fill="#271c0e" fill-rule="evenodd"/><path d="m369.1 505.1h-1.7v-1.8h1.7c.6-1.5 2.6-2.3 5.8-2.2h.7v2h-1c-1.7 0-2.3.4-2.3 1 0 .7.6 1.1 2.3 1.1s2.9-.3 4.9-1.8c2.5-1.7 4.3-2.3 7-2.3 3.2.1 5.2.9 5.7 2.4h1.7v1.8h-1.7c-.6 1.5-2.6 2.3-5.8 2.2h-1.6v-2h1.8c1.7 0 2.3-.4 2.3-1.1s-.6-1.1-2.3-1.2c-1.7 0-2.9.3-4.9 1.8-2.4 1.7-4.3 2.3-7 2.3-3.1.1-5.1-.7-5.6-2.2z" fill="#f8c24d"/><path d="m406.2 497.6h-1.5c-1.2-1.9-3.2-3.8-5.8-5.3-9.8-5.7-25.7-5.7-35.5 0-2.7 1.6-4.6 3.4-5.8 5.3h-1.6v4.9c0 3.7 2.4 7.5 7.3 10.3 9.8 5.7 25.7 5.7 35.5 0 4.9-2.8 7.4-6.6 7.3-10.3v-4.9z" fill="#f8c24d"/><path d="m398.8 487.5c-9.8-5.7-25.7-5.7-35.5 0s-9.8 14.8 0 20.5 25.7 5.7 35.5 0 9.8-14.9 0-20.5z" fill="#ffd569"/><path d="m396.5 506.6c-8.5 4.9-22.4 4.9-30.9 0s-8.5-12.9 0-17.9c8.5-4.9 22.4-4.9 30.9 0 8.6 5 8.6 13 0 17.9z" fill="#ffd569"/><path d="m396.5 506.6c-8.5 4.9-22.4 4.9-30.9 0s-8.5-12.9 0-17.9c8.5-4.9 22.4-4.9 30.9 0 8.6 5 8.6 13 0 17.9z" fill="url(#r)" opacity=".5"/><path d="m369.1 497.1h-1.7v-1.8h1.7c.6-1.5 2.6-2.3 5.8-2.2h.7v2h-1c-1.7 0-2.3.4-2.3 1 0 .7.6 1.1 2.3 1.1s2.9-.3 4.9-1.8c2.5-1.7 4.3-2.3 7-2.3 3.2.1 5.2.9 5.7 2.4h1.7v1.8h-1.7c-.6 1.5-2.6 2.3-5.8 2.2h-1.6v-2h1.8c1.7 0 2.3-.4 2.3-1.1s-.6-1.1-2.3-1.2c-1.7 0-2.9.3-4.9 1.8-2.4 1.7-4.3 2.3-7 2.3-3.1.1-5.1-.7-5.6-2.2z" fill="#f8c24d"/><path d="m369.1 498.1h-1.7v-1.8h1.7c.6-1.5 2.6-2.3 5.8-2.2h.7v2h-1c-1.7 0-2.3.4-2.3 1 0 .7.6 1.1 2.3 1.1s2.9-.3 4.9-1.8c2.5-1.7 4.3-2.3 7-2.3 3.2.1 5.2.9 5.7 2.4h1.7v1.8h-1.7c-.6 1.5-2.6 2.3-5.8 2.2h-1.6v-2h1.8c1.7 0 2.3-.4 2.3-1.1s-.6-1.1-2.3-1.2c-1.7 0-2.9.3-4.9 1.8-2.4 1.7-4.3 2.3-7 2.3-3.1.1-5.1-.7-5.6-2.2z" fill="#f8c24d"/><path d="m406.2 490.6h-1.5c-1.2-1.9-3.2-3.8-5.8-5.3-9.8-5.7-25.7-5.7-35.5 0-2.7 1.6-4.6 3.4-5.8 5.3h-1.6v4.9c0 3.7 2.4 7.5 7.3 10.3 9.8 5.7 25.7 5.7 35.5 0 4.9-2.8 7.4-6.6 7.3-10.3v-4.9z" fill="#f8c24d"/><path d="m398.8 480.5c-9.8-5.7-25.7-5.7-35.5 0s-9.8 14.8 0 20.5 25.7 5.7 35.5 0 9.8-14.9 0-20.5z" fill="#ffd569"/><path d="m396.5 499.6c-8.5 4.9-22.4 4.9-30.9 0s-8.5-12.9 0-17.9c8.5-4.9 22.4-4.9 30.9 0 8.6 5 8.6 13 0 17.9z" fill="#ffd569"/><path d="m396.5 499.6c-8.5 4.9-22.4 4.9-30.9 0s-8.5-12.9 0-17.9c8.5-4.9 22.4-4.9 30.9 0 8.6 5 8.6 13 0 17.9z" fill="url(#s)" opacity=".5"/><path d="m369.1 490.1h-1.7v-1.8h1.7c.6-1.5 2.6-2.3 5.8-2.2h.7v2h-1c-1.7 0-2.3.4-2.3 1 0 .7.6 1.1 2.3 1.1s2.9-.3 4.9-1.8c2.5-1.7 4.3-2.3 7-2.3 3.2.1 5.2.9 5.7 2.4h1.7v1.8h-1.7c-.6 1.5-2.6 2.3-5.8 2.2h-1.6v-2h1.8c1.7 0 2.3-.4 2.3-1.1s-.6-1.1-2.3-1.2c-1.7 0-2.9.3-4.9 1.8-2.4 1.7-4.3 2.3-7 2.3-3.1.1-5.1-.7-5.6-2.2z" fill="#f8c24d"/><path d="m369.1 491.1h-1.7v-1.8h1.7c.6-1.5 2.6-2.3 5.8-2.2h.7v2h-1c-1.7 0-2.3.4-2.3 1 0 .7.6 1.1 2.3 1.1s2.9-.3 4.9-1.8c2.5-1.7 4.3-2.3 7-2.3 3.2.1 5.2.9 5.7 2.4h1.7v1.8h-1.7c-.6 1.5-2.6 2.3-5.8 2.2h-1.6v-2h1.8c1.7 0 2.3-.4 2.3-1.1s-.6-1.1-2.3-1.2c-1.7 0-2.9.3-4.9 1.8-2.4 1.7-4.3 2.3-7 2.3-3.1.1-5.1-.7-5.6-2.2z" fill="#f8c24d"/><path d="m406.2 483.6h-1.5c-1.2-1.9-3.2-3.8-5.8-5.3-9.8-5.7-25.7-5.7-35.5 0-2.7 1.6-4.6 3.4-5.8 5.3h-1.6v4.9c0 3.7 2.4 7.5 7.3 10.3 9.8 5.7 25.7 5.7 35.5 0 4.9-2.8 7.4-6.6 7.3-10.3v-4.9z" fill="#f8c24d"/><path d="m398.8 473.5c-9.8-5.7-25.7-5.7-35.5 0s-9.8 14.8 0 20.5 25.7 5.7 35.5 0 9.8-14.9 0-20.5z" fill="#ffd569"/><path d="m396.5 492.6c-8.5 4.9-22.4 4.9-30.9 0s-8.5-12.9 0-17.9c8.5-4.9 22.4-4.9 30.9 0 8.6 5 8.6 13 0 17.9z" fill="#ffd569"/><path d="m396.5 492.6c-8.5 4.9-22.4 4.9-30.9 0s-8.5-12.9 0-17.9c8.5-4.9 22.4-4.9 30.9 0 8.6 5 8.6 13 0 17.9z" fill="url(#t)" opacity=".5"/><path d="m369.1 483.1h-1.7v-1.8h1.7c.6-1.5 2.6-2.3 5.8-2.2h.7v2h-1c-1.7 0-2.3.4-2.3 1 0 .7.6 1.1 2.3 1.1s2.9-.3 4.9-1.8c2.5-1.7 4.3-2.3 7-2.3 3.2.1 5.2.9 5.7 2.4h1.7v1.8h-1.7c-.6 1.5-2.6 2.3-5.8 2.2h-1.6v-2h1.8c1.7 0 2.3-.4 2.3-1.1s-.6-1.1-2.3-1.2c-1.7 0-2.9.3-4.9 1.8-2.4 1.7-4.3 2.3-7 2.3-3.1.1-5.1-.7-5.6-2.2z" fill="#f8c24d"/><path d="m369.1 484.1h-1.7v-1.8h1.7c.6-1.5 2.6-2.3 5.8-2.2h.7v2h-1c-1.7 0-2.3.4-2.3 1 0 .7.6 1.1 2.3 1.1s2.9-.3 4.9-1.8c2.5-1.7 4.3-2.3 7-2.3 3.2.1 5.2.9 5.7 2.4h1.7v1.8h-1.7c-.6 1.5-2.6 2.3-5.8 2.2h-1.6v-2h1.8c1.7 0 2.3-.4 2.3-1.1s-.6-1.1-2.3-1.2c-1.7 0-2.9.3-4.9 1.8-2.4 1.7-4.3 2.3-7 2.3-3.1.1-5.1-.7-5.6-2.2z" fill="#f8c24d"/><path d="m406.2 476.6h-1.5c-1.2-1.9-3.2-3.8-5.8-5.3-9.8-5.7-25.7-5.7-35.5 0-2.7 1.6-4.6 3.4-5.8 5.3h-1.6v4.9c0 3.7 2.4 7.5 7.3 10.3 9.8 5.7 25.7 5.7 35.5 0 4.9-2.8 7.4-6.6 7.3-10.3v-4.9z" fill="#f8c24d"/><path d="m398.8 466.5c-9.8-5.7-25.7-5.7-35.5 0s-9.8 14.8 0 20.5 25.7 5.7 35.5 0 9.8-14.9 0-20.5z" fill="#ffd569"/><path d="m396.5 485.6c-8.5 4.9-22.4 4.9-30.9 0s-8.5-12.9 0-17.9c8.5-4.9 22.4-4.9 30.9 0 8.6 5 8.6 13 0 17.9z" fill="#ffd569"/><path d="m396.5 485.6c-8.5 4.9-22.4 4.9-30.9 0s-8.5-12.9 0-17.9c8.5-4.9 22.4-4.9 30.9 0 8.6 5 8.6 13 0 17.9z" fill="url(#u)" opacity=".5"/><path d="m369.1 476.1h-1.7v-1.8h1.7c.6-1.5 2.6-2.3 5.8-2.2h.7v2h-1c-1.7 0-2.3.4-2.3 1 0 .7.6 1.1 2.3 1.1s2.9-.3 4.9-1.8c2.5-1.7 4.3-2.3 7-2.3 3.2.1 5.2.9 5.7 2.4h1.7v1.8h-1.7c-.6 1.5-2.6 2.3-5.8 2.2h-1.6v-2h1.8c1.7 0 2.3-.4 2.3-1.1s-.6-1.1-2.3-1.2c-1.7 0-2.9.3-4.9 1.8-2.4 1.7-4.3 2.3-7 2.3-3.1.1-5.1-.7-5.6-2.2z" fill="#f8c24d"/><path d="m369.1 505.1h-1.7v-1.8h1.7c.6-1.5 2.6-2.3 5.8-2.2h.7v2h-1c-1.7 0-2.3.4-2.3 1 0 .7.6 1.1 2.3 1.1s2.9-.3 4.9-1.8c2.5-1.7 4.3-2.3 7-2.3 3.2.1 5.2.9 5.7 2.4h1.7v1.8h-1.7c-.6 1.5-2.6 2.3-5.8 2.2h-1.6v-2h1.8c1.7 0 2.3-.4 2.3-1.1s-.6-1.1-2.3-1.2c-1.7 0-2.9.3-4.9 1.8-2.4 1.7-4.3 2.3-7 2.3-3.1.1-5.1-.7-5.6-2.2z" fill="#f8c24d"/><path d="m406.2 497.6h-1.5c-1.2-1.9-3.2-3.8-5.8-5.3-9.8-5.7-25.7-5.7-35.5 0-2.7 1.6-4.6 3.4-5.8 5.3h-1.6v4.9c0 3.7 2.4 7.5 7.3 10.3 9.8 5.7 25.7 5.7 35.5 0 4.9-2.8 7.4-6.6 7.3-10.3v-4.9z" fill="#f8c24d"/><path d="m398.8 487.5c-9.8-5.7-25.7-5.7-35.5 0s-9.8 14.8 0 20.5 25.7 5.7 35.5 0 9.8-14.9 0-20.5z" fill="#ffd569"/><path d="m396.5 506.6c-8.5 4.9-22.4 4.9-30.9 0s-8.5-12.9 0-17.9c8.5-4.9 22.4-4.9 30.9 0 8.6 5 8.6 13 0 17.9z" fill="#ffd569"/><path d="m396.5 506.6c-8.5 4.9-22.4 4.9-30.9 0s-8.5-12.9 0-17.9c8.5-4.9 22.4-4.9 30.9 0 8.6 5 8.6 13 0 17.9z" fill="url(#r)" opacity=".5"/><path d="m369.1 497.1h-1.7v-1.8h1.7c.6-1.5 2.6-2.3 5.8-2.2h.7v2h-1c-1.7 0-2.3.4-2.3 1 0 .7.6 1.1 2.3 1.1s2.9-.3 4.9-1.8c2.5-1.7 4.3-2.3 7-2.3 3.2.1 5.2.9 5.7 2.4h1.7v1.8h-1.7c-.6 1.5-2.6 2.3-5.8 2.2h-1.6v-2h1.8c1.7 0 2.3-.4 2.3-1.1s-.6-1.1-2.3-1.2c-1.7 0-2.9.3-4.9 1.8-2.4 1.7-4.3 2.3-7 2.3-3.1.1-5.1-.7-5.6-2.2z" fill="#f8c24d"/><path d="m369.1 498.1h-1.7v-1.8h1.7c.6-1.5 2.6-2.3 5.8-2.2h.7v2h-1c-1.7 0-2.3.4-2.3 1 0 .7.6 1.1 2.3 1.1s2.9-.3 4.9-1.8c2.5-1.7 4.3-2.3 7-2.3 3.2.1 5.2.9 5.7 2.4h1.7v1.8h-1.7c-.6 1.5-2.6 2.3-5.8 2.2h-1.6v-2h1.8c1.7 0 2.3-.4 2.3-1.1s-.6-1.1-2.3-1.2c-1.7 0-2.9.3-4.9 1.8-2.4 1.7-4.3 2.3-7 2.3-3.1.1-5.1-.7-5.6-2.2z" fill="#f8c24d"/><path d="m406.2 490.6h-1.5c-1.2-1.9-3.2-3.8-5.8-5.3-9.8-5.7-25.7-5.7-35.5 0-2.7 1.6-4.6 3.4-5.8 5.3h-1.6v4.9c0 3.7 2.4 7.5 7.3 10.3 9.8 5.7 25.7 5.7 35.5 0 4.9-2.8 7.4-6.6 7.3-10.3v-4.9z" fill="#f8c24d"/><path d="m398.8 480.5c-9.8-5.7-25.7-5.7-35.5 0s-9.8 14.8 0 20.5 25.7 5.7 35.5 0 9.8-14.9 0-20.5z" fill="#ffd569"/><path d="m396.5 499.6c-8.5 4.9-22.4 4.9-30.9 0s-8.5-12.9 0-17.9c8.5-4.9 22.4-4.9 30.9 0 8.6 5 8.6 13 0 17.9z" fill="#ffd569"/><path d="m396.5 499.6c-8.5 4.9-22.4 4.9-30.9 0s-8.5-12.9 0-17.9c8.5-4.9 22.4-4.9 30.9 0 8.6 5 8.6 13 0 17.9z" fill="url(#s)" opacity=".5"/><path d="m369.1 490.1h-1.7v-1.8h1.7c.6-1.5 2.6-2.3 5.8-2.2h.7v2h-1c-1.7 0-2.3.4-2.3 1 0 .7.6 1.1 2.3 1.1s2.9-.3 4.9-1.8c2.5-1.7 4.3-2.3 7-2.3 3.2.1 5.2.9 5.7 2.4h1.7v1.8h-1.7c-.6 1.5-2.6 2.3-5.8 2.2h-1.6v-2h1.8c1.7 0 2.3-.4 2.3-1.1s-.6-1.1-2.3-1.2c-1.7 0-2.9.3-4.9 1.8-2.4 1.7-4.3 2.3-7 2.3-3.1.1-5.1-.7-5.6-2.2z" fill="#f8c24d"/><path d="m369.1 491.1h-1.7v-1.8h1.7c.6-1.5 2.6-2.3 5.8-2.2h.7v2h-1c-1.7 0-2.3.4-2.3 1 0 .7.6 1.1 2.3 1.1s2.9-.3 4.9-1.8c2.5-1.7 4.3-2.3 7-2.3 3.2.1 5.2.9 5.7 2.4h1.7v1.8h-1.7c-.6 1.5-2.6 2.3-5.8 2.2h-1.6v-2h1.8c1.7 0 2.3-.4 2.3-1.1s-.6-1.1-2.3-1.2c-1.7 0-2.9.3-4.9 1.8-2.4 1.7-4.3 2.3-7 2.3-3.1.1-5.1-.7-5.6-2.2z" fill="#f8c24d"/><path d="m406.2 483.6h-1.5c-1.2-1.9-3.2-3.8-5.8-5.3-9.8-5.7-25.7-5.7-35.5 0-2.7 1.6-4.6 3.4-5.8 5.3h-1.6v4.9c0 3.7 2.4 7.5 7.3 10.3 9.8 5.7 25.7 5.7 35.5 0 4.9-2.8 7.4-6.6 7.3-10.3v-4.9z" fill="#f8c24d"/><path d="m398.8 473.5c-9.8-5.7-25.7-5.7-35.5 0s-9.8 14.8 0 20.5 25.7 5.7 35.5 0 9.8-14.9 0-20.5z" fill="#ffd569"/><path d="m396.5 492.6c-8.5 4.9-22.4 4.9-30.9 0s-8.5-12.9 0-17.9c8.5-4.9 22.4-4.9 30.9 0 8.6 5 8.6 13 0 17.9z" fill="#ffd569"/><path d="m396.5 492.6c-8.5 4.9-22.4 4.9-30.9 0s-8.5-12.9 0-17.9c8.5-4.9 22.4-4.9 30.9 0 8.6 5 8.6 13 0 17.9z" fill="url(#t)" opacity=".5"/><path d="m369.1 483.1h-1.7v-1.8h1.7c.6-1.5 2.6-2.3 5.8-2.2h.7v2h-1c-1.7 0-2.3.4-2.3 1 0 .7.6 1.1 2.3 1.1s2.9-.3 4.9-1.8c2.5-1.7 4.3-2.3 7-2.3 3.2.1 5.2.9 5.7 2.4h1.7v1.8h-1.7c-.6 1.5-2.6 2.3-5.8 2.2h-1.6v-2h1.8c1.7 0 2.3-.4 2.3-1.1s-.6-1.1-2.3-1.2c-1.7 0-2.9.3-4.9 1.8-2.4 1.7-4.3 2.3-7 2.3-3.1.1-5.1-.7-5.6-2.2z" fill="#f8c24d"/><path d="m369.1 484.1h-1.7v-1.8h1.7c.6-1.5 2.6-2.3 5.8-2.2h.7v2h-1c-1.7 0-2.3.4-2.3 1 0 .7.6 1.1 2.3 1.1s2.9-.3 4.9-1.8c2.5-1.7 4.3-2.3 7-2.3 3.2.1 5.2.9 5.7 2.4h1.7v1.8h-1.7c-.6 1.5-2.6 2.3-5.8 2.2h-1.6v-2h1.8c1.7 0 2.3-.4 2.3-1.1s-.6-1.1-2.3-1.2c-1.7 0-2.9.3-4.9 1.8-2.4 1.7-4.3 2.3-7 2.3-3.1.1-5.1-.7-5.6-2.2z" fill="#f8c24d"/><path d="m406.2 476.6h-1.5c-1.2-1.9-3.2-3.8-5.8-5.3-9.8-5.7-25.7-5.7-35.5 0-2.7 1.6-4.6 3.4-5.8 5.3h-1.6v4.9c0 3.7 2.4 7.5 7.3 10.3 9.8 5.7 25.7 5.7 35.5 0 4.9-2.8 7.4-6.6 7.3-10.3v-4.9z" fill="#f8c24d"/><path d="m398.8 466.5c-9.8-5.7-25.7-5.7-35.5 0s-9.8 14.8 0 20.5 25.7 5.7 35.5 0 9.8-14.9 0-20.5z" fill="#ffd569"/><path d="m396.5 485.6c-8.5 4.9-22.4 4.9-30.9 0s-8.5-12.9 0-17.9c8.5-4.9 22.4-4.9 30.9 0 8.6 5 8.6 13 0 17.9z" fill="#ffd569"/><path d="m396.5 485.6c-8.5 4.9-22.4 4.9-30.9 0s-8.5-12.9 0-17.9c8.5-4.9 22.4-4.9 30.9 0 8.6 5 8.6 13 0 17.9z" fill="url(#u)" opacity=".5"/><path d="m369.1 476.1h-1.7v-1.8h1.7c.6-1.5 2.6-2.3 5.8-2.2h.7v2h-1c-1.7 0-2.3.4-2.3 1 0 .7.6 1.1 2.3 1.1s2.9-.3 4.9-1.8c2.5-1.7 4.3-2.3 7-2.3 3.2.1 5.2.9 5.7 2.4h1.7v1.8h-1.7c-.6 1.5-2.6 2.3-5.8 2.2h-1.6v-2h1.8c1.7 0 2.3-.4 2.3-1.1s-.6-1.1-2.3-1.2c-1.7 0-2.9.3-4.9 1.8-2.4 1.7-4.3 2.3-7 2.3-3.1.1-5.1-.7-5.6-2.2z" fill="#f8c24d"/><path d="m325 527.7h-1.7v-1.8h1.7c.6-1.5 2.6-2.3 5.8-2.2h.7v2h-1c-1.7 0-2.3.4-2.3 1 0 .7.6 1.1 2.3 1.1s2.9-.3 4.9-1.8c2.5-1.7 4.3-2.3 7-2.3 3.2.1 5.2.9 5.7 2.4h1.7v1.8h-1.7c-.6 1.5-2.6 2.3-5.8 2.2h-1.6v-2h1.8c1.7 0 2.3-.4 2.3-1.1s-.6-1.1-2.3-1.2c-1.7 0-2.9.3-4.9 1.8-2.4 1.7-4.3 2.3-7 2.3-3.1.1-5.1-.7-5.6-2.2z" fill="#f8c24d"/><path d="m362.1 520.2h-1.5c-1.2-1.9-3.2-3.8-5.8-5.3-9.8-5.7-25.7-5.7-35.5 0-2.7 1.6-4.6 3.4-5.8 5.3h-1.5v4.9c0 3.7 2.4 7.5 7.3 10.3 9.8 5.7 25.7 5.7 35.5 0 4.9-2.8 7.4-6.6 7.3-10.3z" fill="#f8c24d"/><path d="m354.7 510c-9.8-5.7-25.7-5.7-35.5 0s-9.8 14.8 0 20.5 25.7 5.7 35.5 0c9.8-5.6 9.8-14.8 0-20.5z" fill="#ffd569"/><path d="m352.5 529.2c-8.5 4.9-22.4 4.9-30.9 0s-8.5-12.9 0-17.9c8.5-4.9 22.4-4.9 30.9 0 8.5 5 8.5 13 0 17.9z" fill="#ffd569"/><path d="m352.5 529.2c-8.5 4.9-22.4 4.9-30.9 0s-8.5-12.9 0-17.9c8.5-4.9 22.4-4.9 30.9 0 8.5 5 8.5 13 0 17.9z" fill="url(#v)" opacity=".5"/><path d="m325 519.7h-1.7v-1.8h1.7c.6-1.5 2.6-2.3 5.8-2.2h.7v2h-1c-1.7 0-2.3.4-2.3 1 0 .7.6 1.1 2.3 1.1s2.9-.3 4.9-1.8c2.5-1.7 4.3-2.3 7-2.3 3.2.1 5.2.9 5.7 2.4h1.7v1.8h-1.7c-.6 1.5-2.6 2.3-5.8 2.2h-1.6v-2h1.8c1.7 0 2.3-.4 2.3-1.1s-.6-1.1-2.3-1.2c-1.7 0-2.9.3-4.9 1.8-2.4 1.7-4.3 2.3-7 2.3-3.1.1-5.1-.7-5.6-2.2z" fill="#f8c24d"/><path d="m325 520.7h-1.7v-1.8h1.7c.6-1.5 2.6-2.3 5.8-2.2h.7v2h-1c-1.7 0-2.3.4-2.3 1 0 .7.6 1.1 2.3 1.1s2.9-.3 4.9-1.8c2.5-1.7 4.3-2.3 7-2.3 3.2.1 5.2.9 5.7 2.4h1.7v1.8h-1.7c-.6 1.5-2.6 2.3-5.8 2.2h-1.6v-2h1.8c1.7 0 2.3-.4 2.3-1.1s-.6-1.1-2.3-1.2c-1.7 0-2.9.3-4.9 1.8-2.4 1.7-4.3 2.3-7 2.3-3.1.1-5.1-.7-5.6-2.2z" fill="#f8c24d"/><path d="m362.1 513.2h-1.5c-1.2-1.9-3.2-3.8-5.8-5.3-9.8-5.7-25.7-5.7-35.5 0-2.7 1.6-4.6 3.4-5.8 5.3h-1.5v4.9c0 3.7 2.4 7.5 7.3 10.3 9.8 5.7 25.7 5.7 35.5 0 4.9-2.8 7.4-6.6 7.3-10.3z" fill="#f8c24d"/><path d="m354.7 503c-9.8-5.7-25.7-5.7-35.5 0s-9.8 14.8 0 20.5 25.7 5.7 35.5 0c9.8-5.6 9.8-14.8 0-20.5z" fill="#ffd569"/><path d="m352.5 522.2c-8.5 4.9-22.4 4.9-30.9 0s-8.5-12.9 0-17.9c8.5-4.9 22.4-4.9 30.9 0 8.5 5 8.5 13 0 17.9z" fill="#ffd569"/><path d="m352.5 522.2c-8.5 4.9-22.4 4.9-30.9 0s-8.5-12.9 0-17.9c8.5-4.9 22.4-4.9 30.9 0 8.5 5 8.5 13 0 17.9z" fill="url(#w)" opacity=".5"/><path d="m325 512.7h-1.7v-1.8h1.7c.6-1.5 2.6-2.3 5.8-2.2h.7v2h-1c-1.7 0-2.3.4-2.3 1 0 .7.6 1.1 2.3 1.1s2.9-.3 4.9-1.8c2.5-1.7 4.3-2.3 7-2.3 3.2.1 5.2.9 5.7 2.4h1.7v1.8h-1.7c-.6 1.5-2.6 2.3-5.8 2.2h-1.6v-2h1.8c1.7 0 2.3-.4 2.3-1.1s-.6-1.1-2.3-1.2c-1.7 0-2.9.3-4.9 1.8-2.4 1.7-4.3 2.3-7 2.3-3.1.1-5.1-.7-5.6-2.2z" fill="#f8c24d"/><path d="m325 513.7h-1.7v-1.8h1.7c.6-1.5 2.6-2.3 5.8-2.2h.7v2h-1c-1.7 0-2.3.4-2.3 1 0 .7.6 1.1 2.3 1.1s2.9-.3 4.9-1.8c2.5-1.7 4.3-2.3 7-2.3 3.2.1 5.2.9 5.7 2.4h1.7v1.8h-1.7c-.6 1.5-2.6 2.3-5.8 2.2h-1.6v-2h1.8c1.7 0 2.3-.4 2.3-1.1s-.6-1.1-2.3-1.2c-1.7 0-2.9.3-4.9 1.8-2.4 1.7-4.3 2.3-7 2.3-3.1.1-5.1-.7-5.6-2.2z" fill="#f8c24d"/><path d="m362.1 506.2h-1.5c-1.2-1.9-3.2-3.8-5.8-5.3-9.8-5.7-25.7-5.7-35.5 0-2.7 1.6-4.6 3.4-5.8 5.3h-1.5v4.9c0 3.7 2.4 7.5 7.3 10.3 9.8 5.7 25.7 5.7 35.5 0 4.9-2.8 7.4-6.6 7.3-10.3z" fill="#f8c24d"/><path d="m354.7 496c-9.8-5.7-25.7-5.7-35.5 0s-9.8 14.8 0 20.5 25.7 5.7 35.5 0c9.8-5.6 9.8-14.8 0-20.5z" fill="#ffd569"/><path d="m352.5 515.2c-8.5 4.9-22.4 4.9-30.9 0s-8.5-12.9 0-17.9c8.5-4.9 22.4-4.9 30.9 0 8.5 5 8.5 13 0 17.9z" fill="#ffd569"/><path d="m352.5 515.2c-8.5 4.9-22.4 4.9-30.9 0s-8.5-12.9 0-17.9c8.5-4.9 22.4-4.9 30.9 0 8.5 5 8.5 13 0 17.9z" fill="url(#x)" opacity=".5"/><path d="m325 505.7h-1.7v-1.8h1.7c.6-1.5 2.6-2.3 5.8-2.2h.7v2h-1c-1.7 0-2.3.4-2.3 1 0 .7.6 1.1 2.3 1.1s2.9-.3 4.9-1.8c2.5-1.7 4.3-2.3 7-2.3 3.2.1 5.2.9 5.7 2.4h1.7v1.8h-1.7c-.6 1.5-2.6 2.3-5.8 2.2h-1.6v-2h1.8c1.7 0 2.3-.4 2.3-1.1s-.6-1.1-2.3-1.2c-1.7 0-2.9.3-4.9 1.8-2.4 1.7-4.3 2.3-7 2.3-3.1.1-5.1-.7-5.6-2.2z" fill="#f8c24d"/><path d="m325 506.7h-1.7v-1.8h1.7c.6-1.5 2.6-2.3 5.8-2.2h.7v2h-1c-1.7 0-2.3.4-2.3 1 0 .7.6 1.1 2.3 1.1s2.9-.3 4.9-1.8c2.5-1.7 4.3-2.3 7-2.3 3.2.1 5.2.9 5.7 2.4h1.7v1.8h-1.7c-.6 1.5-2.6 2.3-5.8 2.2h-1.6v-2h1.8c1.7 0 2.3-.4 2.3-1.1s-.6-1.1-2.3-1.2c-1.7 0-2.9.3-4.9 1.8-2.4 1.7-4.3 2.3-7 2.3-3.1.1-5.1-.7-5.6-2.2z" fill="#f8c24d"/><path d="m362.1 499.2h-1.5c-1.2-1.9-3.2-3.8-5.8-5.3-9.8-5.7-25.7-5.7-35.5 0-2.7 1.6-4.6 3.4-5.8 5.3h-1.5v4.9c0 3.7 2.4 7.5 7.3 10.3 9.8 5.7 25.7 5.7 35.5 0 4.9-2.8 7.4-6.6 7.3-10.3z" fill="#f8c24d"/><path d="m354.7 489c-9.8-5.7-25.7-5.7-35.5 0s-9.8 14.8 0 20.5 25.7 5.7 35.5 0c9.8-5.6 9.8-14.8 0-20.5z" fill="#ffd569"/><path d="m352.5 508.2c-8.5 4.9-22.4 4.9-30.9 0s-8.5-12.9 0-17.9c8.5-4.9 22.4-4.9 30.9 0 8.5 5 8.5 13 0 17.9z" fill="#ffd569"/><path d="m352.5 508.2c-8.5 4.9-22.4 4.9-30.9 0s-8.5-12.9 0-17.9c8.5-4.9 22.4-4.9 30.9 0 8.5 5 8.5 13 0 17.9z" fill="url(#y)" opacity=".5"/><path d="m325 498.7h-1.7v-1.8h1.7c.6-1.5 2.6-2.3 5.8-2.2h.7v2h-1c-1.7 0-2.3.4-2.3 1 0 .7.6 1.1 2.3 1.1s2.9-.3 4.9-1.8c2.5-1.7 4.3-2.3 7-2.3 3.2.1 5.2.9 5.7 2.4h1.7v1.8h-1.7c-.6 1.5-2.6 2.3-5.8 2.2h-1.6v-2h1.8c1.7 0 2.3-.4 2.3-1.1s-.6-1.1-2.3-1.2c-1.7 0-2.9.3-4.9 1.8-2.4 1.7-4.3 2.3-7 2.3-3.1.1-5.1-.7-5.6-2.2z" fill="#f8c24d"/><path d="m325 527.7h-1.7v-1.8h1.7c.6-1.5 2.6-2.3 5.8-2.2h.7v2h-1c-1.7 0-2.3.4-2.3 1 0 .7.6 1.1 2.3 1.1s2.9-.3 4.9-1.8c2.5-1.7 4.3-2.3 7-2.3 3.2.1 5.2.9 5.7 2.4h1.7v1.8h-1.7c-.6 1.5-2.6 2.3-5.8 2.2h-1.6v-2h1.8c1.7 0 2.3-.4 2.3-1.1s-.6-1.1-2.3-1.2c-1.7 0-2.9.3-4.9 1.8-2.4 1.7-4.3 2.3-7 2.3-3.1.1-5.1-.7-5.6-2.2z" fill="#f8c24d"/><path d="m362.1 520.2h-1.5c-1.2-1.9-3.2-3.8-5.8-5.3-9.8-5.7-25.7-5.7-35.5 0-2.7 1.6-4.6 3.4-5.8 5.3h-1.5v4.9c0 3.7 2.4 7.5 7.3 10.3 9.8 5.7 25.7 5.7 35.5 0 4.9-2.8 7.4-6.6 7.3-10.3z" fill="#f8c24d"/><path d="m354.7 510c-9.8-5.7-25.7-5.7-35.5 0s-9.8 14.8 0 20.5 25.7 5.7 35.5 0c9.8-5.6 9.8-14.8 0-20.5z" fill="#ffd569"/><path d="m352.5 529.2c-8.5 4.9-22.4 4.9-30.9 0s-8.5-12.9 0-17.9c8.5-4.9 22.4-4.9 30.9 0 8.5 5 8.5 13 0 17.9z" fill="#ffd569"/><path d="m352.5 529.2c-8.5 4.9-22.4 4.9-30.9 0s-8.5-12.9 0-17.9c8.5-4.9 22.4-4.9 30.9 0 8.5 5 8.5 13 0 17.9z" fill="url(#v)" opacity=".5"/><path d="m325 519.7h-1.7v-1.8h1.7c.6-1.5 2.6-2.3 5.8-2.2h.7v2h-1c-1.7 0-2.3.4-2.3 1 0 .7.6 1.1 2.3 1.1s2.9-.3 4.9-1.8c2.5-1.7 4.3-2.3 7-2.3 3.2.1 5.2.9 5.7 2.4h1.7v1.8h-1.7c-.6 1.5-2.6 2.3-5.8 2.2h-1.6v-2h1.8c1.7 0 2.3-.4 2.3-1.1s-.6-1.1-2.3-1.2c-1.7 0-2.9.3-4.9 1.8-2.4 1.7-4.3 2.3-7 2.3-3.1.1-5.1-.7-5.6-2.2z" fill="#f8c24d"/><path d="m325 520.7h-1.7v-1.8h1.7c.6-1.5 2.6-2.3 5.8-2.2h.7v2h-1c-1.7 0-2.3.4-2.3 1 0 .7.6 1.1 2.3 1.1s2.9-.3 4.9-1.8c2.5-1.7 4.3-2.3 7-2.3 3.2.1 5.2.9 5.7 2.4h1.7v1.8h-1.7c-.6 1.5-2.6 2.3-5.8 2.2h-1.6v-2h1.8c1.7 0 2.3-.4 2.3-1.1s-.6-1.1-2.3-1.2c-1.7 0-2.9.3-4.9 1.8-2.4 1.7-4.3 2.3-7 2.3-3.1.1-5.1-.7-5.6-2.2z" fill="#f8c24d"/><path d="m362.1 513.2h-1.5c-1.2-1.9-3.2-3.8-5.8-5.3-9.8-5.7-25.7-5.7-35.5 0-2.7 1.6-4.6 3.4-5.8 5.3h-1.5v4.9c0 3.7 2.4 7.5 7.3 10.3 9.8 5.7 25.7 5.7 35.5 0 4.9-2.8 7.4-6.6 7.3-10.3z" fill="#f8c24d"/><path d="m354.7 503c-9.8-5.7-25.7-5.7-35.5 0s-9.8 14.8 0 20.5 25.7 5.7 35.5 0c9.8-5.6 9.8-14.8 0-20.5z" fill="#ffd569"/><path d="m352.5 522.2c-8.5 4.9-22.4 4.9-30.9 0s-8.5-12.9 0-17.9c8.5-4.9 22.4-4.9 30.9 0 8.5 5 8.5 13 0 17.9z" fill="#ffd569"/><path d="m352.5 522.2c-8.5 4.9-22.4 4.9-30.9 0s-8.5-12.9 0-17.9c8.5-4.9 22.4-4.9 30.9 0 8.5 5 8.5 13 0 17.9z" fill="url(#w)" opacity=".5"/><path d="m325 512.7h-1.7v-1.8h1.7c.6-1.5 2.6-2.3 5.8-2.2h.7v2h-1c-1.7 0-2.3.4-2.3 1 0 .7.6 1.1 2.3 1.1s2.9-.3 4.9-1.8c2.5-1.7 4.3-2.3 7-2.3 3.2.1 5.2.9 5.7 2.4h1.7v1.8h-1.7c-.6 1.5-2.6 2.3-5.8 2.2h-1.6v-2h1.8c1.7 0 2.3-.4 2.3-1.1s-.6-1.1-2.3-1.2c-1.7 0-2.9.3-4.9 1.8-2.4 1.7-4.3 2.3-7 2.3-3.1.1-5.1-.7-5.6-2.2z" fill="#f8c24d"/><path d="m325 513.7h-1.7v-1.8h1.7c.6-1.5 2.6-2.3 5.8-2.2h.7v2h-1c-1.7 0-2.3.4-2.3 1 0 .7.6 1.1 2.3 1.1s2.9-.3 4.9-1.8c2.5-1.7 4.3-2.3 7-2.3 3.2.1 5.2.9 5.7 2.4h1.7v1.8h-1.7c-.6 1.5-2.6 2.3-5.8 2.2h-1.6v-2h1.8c1.7 0 2.3-.4 2.3-1.1s-.6-1.1-2.3-1.2c-1.7 0-2.9.3-4.9 1.8-2.4 1.7-4.3 2.3-7 2.3-3.1.1-5.1-.7-5.6-2.2z" fill="#f8c24d"/><path d="m362.1 506.2h-1.5c-1.2-1.9-3.2-3.8-5.8-5.3-9.8-5.7-25.7-5.7-35.5 0-2.7 1.6-4.6 3.4-5.8 5.3h-1.5v4.9c0 3.7 2.4 7.5 7.3 10.3 9.8 5.7 25.7 5.7 35.5 0 4.9-2.8 7.4-6.6 7.3-10.3z" fill="#f8c24d"/><path d="m354.7 496c-9.8-5.7-25.7-5.7-35.5 0s-9.8 14.8 0 20.5 25.7 5.7 35.5 0c9.8-5.6 9.8-14.8 0-20.5z" fill="#ffd569"/><path d="m352.5 515.2c-8.5 4.9-22.4 4.9-30.9 0s-8.5-12.9 0-17.9c8.5-4.9 22.4-4.9 30.9 0 8.5 5 8.5 13 0 17.9z" fill="#ffd569"/><path d="m352.5 515.2c-8.5 4.9-22.4 4.9-30.9 0s-8.5-12.9 0-17.9c8.5-4.9 22.4-4.9 30.9 0 8.5 5 8.5 13 0 17.9z" fill="url(#x)" opacity=".5"/><path d="m325 505.7h-1.7v-1.8h1.7c.6-1.5 2.6-2.3 5.8-2.2h.7v2h-1c-1.7 0-2.3.4-2.3 1 0 .7.6 1.1 2.3 1.1s2.9-.3 4.9-1.8c2.5-1.7 4.3-2.3 7-2.3 3.2.1 5.2.9 5.7 2.4h1.7v1.8h-1.7c-.6 1.5-2.6 2.3-5.8 2.2h-1.6v-2h1.8c1.7 0 2.3-.4 2.3-1.1s-.6-1.1-2.3-1.2c-1.7 0-2.9.3-4.9 1.8-2.4 1.7-4.3 2.3-7 2.3-3.1.1-5.1-.7-5.6-2.2z" fill="#f8c24d"/><path d="m325 506.7h-1.7v-1.8h1.7c.6-1.5 2.6-2.3 5.8-2.2h.7v2h-1c-1.7 0-2.3.4-2.3 1 0 .7.6 1.1 2.3 1.1s2.9-.3 4.9-1.8c2.5-1.7 4.3-2.3 7-2.3 3.2.1 5.2.9 5.7 2.4h1.7v1.8h-1.7c-.6 1.5-2.6 2.3-5.8 2.2h-1.6v-2h1.8c1.7 0 2.3-.4 2.3-1.1s-.6-1.1-2.3-1.2c-1.7 0-2.9.3-4.9 1.8-2.4 1.7-4.3 2.3-7 2.3-3.1.1-5.1-.7-5.6-2.2z" fill="#f8c24d"/><path d="m362.1 499.2h-1.5c-1.2-1.9-3.2-3.8-5.8-5.3-9.8-5.7-25.7-5.7-35.5 0-2.7 1.6-4.6 3.4-5.8 5.3h-1.5v4.9c0 3.7 2.4 7.5 7.3 10.3 9.8 5.7 25.7 5.7 35.5 0 4.9-2.8 7.4-6.6 7.3-10.3z" fill="#f8c24d"/><path d="m354.7 489c-9.8-5.7-25.7-5.7-35.5 0s-9.8 14.8 0 20.5 25.7 5.7 35.5 0c9.8-5.6 9.8-14.8 0-20.5z" fill="#ffd569"/><path d="m352.5 508.2c-8.5 4.9-22.4 4.9-30.9 0s-8.5-12.9 0-17.9c8.5-4.9 22.4-4.9 30.9 0 8.5 5 8.5 13 0 17.9z" fill="#ffd569"/><path d="m352.5 508.2c-8.5 4.9-22.4 4.9-30.9 0s-8.5-12.9 0-17.9c8.5-4.9 22.4-4.9 30.9 0 8.5 5 8.5 13 0 17.9z" fill="url(#y)" opacity=".5"/><path d="m325 498.7h-1.7v-1.8h1.7c.6-1.5 2.6-2.3 5.8-2.2h.7v2h-1c-1.7 0-2.3.4-2.3 1 0 .7.6 1.1 2.3 1.1s2.9-.3 4.9-1.8c2.5-1.7 4.3-2.3 7-2.3 3.2.1 5.2.9 5.7 2.4h1.7v1.8h-1.7c-.6 1.5-2.6 2.3-5.8 2.2h-1.6v-2h1.8c1.7 0 2.3-.4 2.3-1.1s-.6-1.1-2.3-1.2c-1.7 0-2.9.3-4.9 1.8-2.4 1.7-4.3 2.3-7 2.3-3.1.1-5.1-.7-5.6-2.2z" fill="#f8c24d"/><path d="m283.7 552.9h-1.7v-1.8h1.7c.6-1.5 2.6-2.3 5.8-2.2h.7v2h-1c-1.7 0-2.3.4-2.3 1 0 .7.6 1.1 2.3 1.1s2.9-.3 4.9-1.8c2.5-1.7 4.3-2.3 7-2.3 3.2.1 5.2.9 5.7 2.4h1.7v1.8h-1.7c-.6 1.5-2.6 2.3-5.8 2.2h-1.6v-2h1.8c1.7 0 2.3-.4 2.3-1.1s-.6-1.1-2.3-1.2c-1.7 0-2.9.3-4.9 1.8-2.4 1.7-4.3 2.3-7 2.3-3 .1-5-.7-5.6-2.2z" fill="#f8c24d"/><path d="m320.8 545.4h-1.5c-1.2-1.9-3.2-3.8-5.8-5.3-9.8-5.7-25.7-5.7-35.5 0-2.7 1.6-4.6 3.4-5.8 5.3h-1.5v4.9c0 3.7 2.4 7.5 7.3 10.3 9.8 5.7 25.7 5.7 35.5 0 4.9-2.8 7.4-6.6 7.3-10.3z" fill="#f8c24d"/><path d="m313.5 535.2c-9.8-5.7-25.7-5.7-35.5 0s-9.8 14.8 0 20.5 25.7 5.7 35.5 0c9.8-5.6 9.8-14.8 0-20.5z" fill="#ffd569"/><path d="m311.2 554.4c-8.5 4.9-22.4 4.9-30.9 0s-8.5-12.9 0-17.9c8.5-4.9 22.4-4.9 30.9 0 8.6 5 8.6 13 0 17.9z" fill="#ffd569"/><path d="m311.2 554.4c-8.5 4.9-22.4 4.9-30.9 0s-8.5-12.9 0-17.9c8.5-4.9 22.4-4.9 30.9 0 8.6 5 8.6 13 0 17.9z" fill="url(#z)" opacity=".5"/><path d="m283.7 544.9h-1.7v-1.8h1.7c.6-1.5 2.6-2.3 5.8-2.2h.7v2h-1c-1.7 0-2.3.4-2.3 1 0 .7.6 1.1 2.3 1.1s2.9-.3 4.9-1.8c2.5-1.7 4.3-2.3 7-2.3 3.2.1 5.2.9 5.7 2.4h1.7v1.8h-1.7c-.6 1.5-2.6 2.3-5.8 2.2h-1.6v-2h1.8c1.7 0 2.3-.4 2.3-1.1s-.6-1.1-2.3-1.2c-1.7 0-2.9.3-4.9 1.8-2.4 1.7-4.3 2.3-7 2.3-3 .1-5-.7-5.6-2.2z" fill="#f8c24d"/><path d="m283.7 545.9h-1.7v-1.8h1.7c.6-1.5 2.6-2.3 5.8-2.2h.7v2h-1c-1.7 0-2.3.4-2.3 1 0 .7.6 1.1 2.3 1.1s2.9-.3 4.9-1.8c2.5-1.7 4.3-2.3 7-2.3 3.2.1 5.2.9 5.7 2.4h1.7v1.8h-1.7c-.6 1.5-2.6 2.3-5.8 2.2h-1.6v-2h1.8c1.7 0 2.3-.4 2.3-1.1s-.6-1.1-2.3-1.2c-1.7 0-2.9.3-4.9 1.8-2.4 1.7-4.3 2.3-7 2.3-3 .1-5-.7-5.6-2.2z" fill="#f8c24d"/><path d="m320.8 538.4h-1.5c-1.2-1.9-3.2-3.8-5.8-5.3-9.8-5.7-25.7-5.7-35.5 0-2.7 1.6-4.6 3.4-5.8 5.3h-1.5v4.9c0 3.7 2.4 7.5 7.3 10.3 9.8 5.7 25.7 5.7 35.5 0 4.9-2.8 7.4-6.6 7.3-10.3z" fill="#f8c24d"/><path d="m313.5 528.2c-9.8-5.7-25.7-5.7-35.5 0s-9.8 14.8 0 20.5 25.7 5.7 35.5 0c9.8-5.6 9.8-14.8 0-20.5z" fill="#ffd569"/><path d="m311.2 547.4c-8.5 4.9-22.4 4.9-30.9 0s-8.5-12.9 0-17.9c8.5-4.9 22.4-4.9 30.9 0 8.6 5 8.6 13 0 17.9z" fill="#ffd569"/><path d="m311.2 547.4c-8.5 4.9-22.4 4.9-30.9 0s-8.5-12.9 0-17.9c8.5-4.9 22.4-4.9 30.9 0 8.6 5 8.6 13 0 17.9z" fill="url(#A)" opacity=".5"/><path d="m283.7 537.9h-1.7v-1.8h1.7c.6-1.5 2.6-2.3 5.8-2.2h.7v2h-1c-1.7 0-2.3.4-2.3 1 0 .7.6 1.1 2.3 1.1s2.9-.3 4.9-1.8c2.5-1.7 4.3-2.3 7-2.3 3.2.1 5.2.9 5.7 2.4h1.7v1.8h-1.7c-.6 1.5-2.6 2.3-5.8 2.2h-1.6v-2h1.8c1.7 0 2.3-.4 2.3-1.1s-.6-1.1-2.3-1.2c-1.7 0-2.9.3-4.9 1.8-2.4 1.7-4.3 2.3-7 2.3-3 .1-5-.7-5.6-2.2z" fill="#f8c24d"/><path d="m283.7 538.9h-1.7v-1.8h1.7c.6-1.5 2.6-2.3 5.8-2.2h.7v2h-1c-1.7 0-2.3.4-2.3 1 0 .7.6 1.1 2.3 1.1s2.9-.3 4.9-1.8c2.5-1.7 4.3-2.3 7-2.3 3.2.1 5.2.9 5.7 2.4h1.7v1.8h-1.7c-.6 1.5-2.6 2.3-5.8 2.2h-1.6v-2h1.8c1.7 0 2.3-.4 2.3-1.1s-.6-1.1-2.3-1.2c-1.7 0-2.9.3-4.9 1.8-2.4 1.7-4.3 2.3-7 2.3-3 .1-5-.7-5.6-2.2z" fill="#f8c24d"/><path d="m320.8 531.4h-1.5c-1.2-1.9-3.2-3.8-5.8-5.3-9.8-5.7-25.7-5.7-35.5 0-2.7 1.6-4.6 3.4-5.8 5.3h-1.5v4.9c0 3.7 2.4 7.5 7.3 10.3 9.8 5.7 25.7 5.7 35.5 0 4.9-2.8 7.4-6.6 7.3-10.3z" fill="#f8c24d"/><path d="m313.5 521.2c-9.8-5.7-25.7-5.7-35.5 0s-9.8 14.8 0 20.5 25.7 5.7 35.5 0c9.8-5.6 9.8-14.8 0-20.5z" fill="#ffd569"/><path d="m311.2 540.4c-8.5 4.9-22.4 4.9-30.9 0s-8.5-12.9 0-17.9c8.5-4.9 22.4-4.9 30.9 0 8.6 5 8.6 13 0 17.9z" fill="#ffd569"/><path d="m311.2 540.4c-8.5 4.9-22.4 4.9-30.9 0s-8.5-12.9 0-17.9c8.5-4.9 22.4-4.9 30.9 0 8.6 5 8.6 13 0 17.9z" fill="url(#B)" opacity=".5"/><path d="m283.7 530.9h-1.7v-1.8h1.7c.6-1.5 2.6-2.3 5.8-2.2h.7v2h-1c-1.7 0-2.3.4-2.3 1 0 .7.6 1.1 2.3 1.1s2.9-.3 4.9-1.8c2.5-1.7 4.3-2.3 7-2.3 3.2.1 5.2.9 5.7 2.4h1.7v1.8h-1.7c-.6 1.5-2.6 2.3-5.8 2.2h-1.6v-2h1.8c1.7 0 2.3-.4 2.3-1.1s-.6-1.1-2.3-1.2c-1.7 0-2.9.3-4.9 1.8-2.4 1.7-4.3 2.3-7 2.3-3 .1-5-.7-5.6-2.2z" fill="#f8c24d"/><path d="m369.1 477.2h-1.7v-1.8h1.7c.6-1.5 2.6-2.3 5.8-2.2h.7v2h-1c-1.7 0-2.3.4-2.3 1 0 .7.6 1.1 2.3 1.1s2.9-.3 4.9-1.8c2.5-1.7 4.3-2.3 7-2.3 3.2.1 5.2.9 5.7 2.4h1.7v1.8h-1.7c-.6 1.5-2.6 2.3-5.8 2.2h-1.6v-2h1.8c1.7 0 2.3-.4 2.3-1.1s-.6-1.1-2.3-1.2c-1.7 0-2.9.3-4.9 1.8-2.4 1.7-4.3 2.3-7 2.3-3.1.1-5.1-.7-5.6-2.2z" fill="#f8c24d"/><path d="m406.2 469.7h-1.5c-1.2-1.9-3.2-3.8-5.8-5.3-9.8-5.7-25.7-5.7-35.5 0-2.7 1.6-4.6 3.4-5.8 5.3h-1.6v4.9c0 3.7 2.4 7.5 7.3 10.3 9.8 5.7 25.7 5.7 35.5 0 4.9-2.8 7.4-6.6 7.3-10.3v-4.9z" fill="#f8c24d"/><path d="m398.8 459.5c-9.8-5.7-25.7-5.7-35.5 0s-9.8 14.8 0 20.5 25.7 5.7 35.5 0c9.8-5.6 9.8-14.8 0-20.5z" fill="#ffd569"/><path d="m396.6 478.7c-8.5 4.9-22.4 4.9-30.9 0s-8.5-12.9 0-17.9c8.5-4.9 22.4-4.9 30.9 0 8.5 5 8.5 13 0 17.9z" fill="#ffd569"/><path d="m396.6 478.7c-8.5 4.9-22.4 4.9-30.9 0s-8.5-12.9 0-17.9c8.5-4.9 22.4-4.9 30.9 0 8.5 5 8.5 13 0 17.9z" fill="url(#C)" opacity=".5"/><path d="m369.1 469.2h-1.7v-1.8h1.7c.6-1.5 2.6-2.3 5.8-2.2h.7v2h-1c-1.7 0-2.3.4-2.3 1 0 .7.6 1.1 2.3 1.1s2.9-.3 4.9-1.8c2.5-1.7 4.3-2.3 7-2.3 3.2.1 5.2.9 5.7 2.4h1.7v1.8h-1.7c-.6 1.5-2.6 2.3-5.8 2.2h-1.6v-2h1.8c1.7 0 2.3-.4 2.3-1.1s-.6-1.1-2.3-1.2c-1.7 0-2.9.3-4.9 1.8-2.4 1.7-4.3 2.3-7 2.3-3.1.1-5.1-.7-5.6-2.2z" fill="#f8c24d"/><path d="m369.1 470.2h-1.7v-1.8h1.7c.6-1.5 2.6-2.3 5.8-2.2h.7v2h-1c-1.7 0-2.3.4-2.3 1 0 .7.6 1.1 2.3 1.1s2.9-.3 4.9-1.8c2.5-1.7 4.3-2.3 7-2.3 3.2.1 5.2.9 5.7 2.4h1.7v1.8h-1.7c-.6 1.5-2.6 2.3-5.8 2.2h-1.6v-2h1.8c1.7 0 2.3-.4 2.3-1.1s-.6-1.1-2.3-1.2c-1.7 0-2.9.3-4.9 1.8-2.4 1.7-4.3 2.3-7 2.3-3.1.1-5.1-.7-5.6-2.2z" fill="#f8c24d"/><path d="m406.2 462.7h-1.5c-1.2-1.9-3.2-3.8-5.8-5.3-9.8-5.7-25.7-5.7-35.5 0-2.7 1.6-4.6 3.4-5.8 5.3h-1.6v4.9c0 3.7 2.4 7.5 7.3 10.3 9.8 5.7 25.7 5.7 35.5 0 4.9-2.8 7.4-6.6 7.3-10.3v-4.9z" fill="#f8c24d"/><path d="m398.8 452.5c-9.8-5.7-25.7-5.7-35.5 0s-9.8 14.8 0 20.5 25.7 5.7 35.5 0c9.8-5.6 9.8-14.8 0-20.5z" fill="#ffd569"/><path d="m396.6 471.7c-8.5 4.9-22.4 4.9-30.9 0s-8.5-12.9 0-17.9c8.5-4.9 22.4-4.9 30.9 0 8.5 5 8.5 13 0 17.9z" fill="#ffd569"/><path d="m396.6 471.7c-8.5 4.9-22.4 4.9-30.9 0s-8.5-12.9 0-17.9c8.5-4.9 22.4-4.9 30.9 0 8.5 5 8.5 13 0 17.9z" fill="url(#D)" opacity=".5"/><path d="m369.1 462.2h-1.7v-1.8h1.7c.6-1.5 2.6-2.3 5.8-2.2h.7v2h-1c-1.7 0-2.3.4-2.3 1 0 .7.6 1.1 2.3 1.1s2.9-.3 4.9-1.8c2.5-1.7 4.3-2.3 7-2.3 3.2.1 5.2.9 5.7 2.4h1.7v1.8h-1.7c-.6 1.5-2.6 2.3-5.8 2.2h-1.6v-2h1.8c1.7 0 2.3-.4 2.3-1.1s-.6-1.1-2.3-1.2c-1.7 0-2.9.3-4.9 1.8-2.4 1.7-4.3 2.3-7 2.3-3.1.1-5.1-.7-5.6-2.2z" fill="#f8c24d"/><path d="m369.1 463.2h-1.7v-1.8h1.7c.6-1.5 2.6-2.3 5.8-2.2h.7v2h-1c-1.7 0-2.3.4-2.3 1 0 .7.6 1.1 2.3 1.1s2.9-.3 4.9-1.8c2.5-1.7 4.3-2.3 7-2.3 3.2.1 5.2.9 5.7 2.4h1.7v1.8h-1.7c-.6 1.5-2.6 2.3-5.8 2.2h-1.6v-2h1.8c1.7 0 2.3-.4 2.3-1.1s-.6-1.1-2.3-1.2c-1.7 0-2.9.3-4.9 1.8-2.4 1.7-4.3 2.3-7 2.3-3.1.1-5.1-.7-5.6-2.2z" fill="#f8c24d"/><path d="m406.2 455.7h-1.5c-1.2-1.9-3.2-3.8-5.8-5.3-9.8-5.7-25.7-5.7-35.5 0-2.7 1.6-4.6 3.4-5.8 5.3h-1.6v4.9c0 3.7 2.4 7.5 7.3 10.3 9.8 5.7 25.7 5.7 35.5 0 4.9-2.8 7.4-6.6 7.3-10.3v-4.9z" fill="#f8c24d"/><path d="m398.8 445.5c-9.8-5.7-25.7-5.7-35.5 0s-9.8 14.8 0 20.5 25.7 5.7 35.5 0c9.8-5.6 9.8-14.8 0-20.5z" fill="#ffd569"/><path d="m396.6 464.7c-8.5 4.9-22.4 4.9-30.9 0s-8.5-12.9 0-17.9c8.5-4.9 22.4-4.9 30.9 0 8.5 5 8.5 13 0 17.9z" fill="#ffd569"/><path d="m396.6 464.7c-8.5 4.9-22.4 4.9-30.9 0s-8.5-12.9 0-17.9c8.5-4.9 22.4-4.9 30.9 0 8.5 5 8.5 13 0 17.9z" fill="url(#E)" opacity=".5"/><path d="m369.1 455.2h-1.7v-1.8h1.7c.6-1.5 2.6-2.3 5.8-2.2h.7v2h-1c-1.7 0-2.3.4-2.3 1 0 .7.6 1.1 2.3 1.1s2.9-.3 4.9-1.8c2.5-1.7 4.3-2.3 7-2.3 3.2.1 5.2.9 5.7 2.4h1.7v1.8h-1.7c-.6 1.5-2.6 2.3-5.8 2.2h-1.6v-2h1.8c1.7 0 2.3-.4 2.3-1.1s-.6-1.1-2.3-1.2c-1.7 0-2.9.3-4.9 1.8-2.4 1.7-4.3 2.3-7 2.3-3.1.1-5.1-.7-5.6-2.2z" fill="#f8c24d"/><path d="m369.1 456.2h-1.7v-1.8h1.7c.6-1.5 2.6-2.3 5.8-2.2h.7v2h-1c-1.7 0-2.3.4-2.3 1 0 .7.6 1.1 2.3 1.1s2.9-.3 4.9-1.8c2.5-1.7 4.3-2.3 7-2.3 3.2.1 5.2.9 5.7 2.4h1.7v1.8h-1.7c-.6 1.5-2.6 2.3-5.8 2.2h-1.6v-2h1.8c1.7 0 2.3-.4 2.3-1.1s-.6-1.1-2.3-1.2c-1.7 0-2.9.3-4.9 1.8-2.4 1.7-4.3 2.3-7 2.3-3.1.1-5.1-.7-5.6-2.2z" fill="#f8c24d"/><path d="m406.2 448.7h-1.5c-1.2-1.9-3.2-3.8-5.8-5.3-9.8-5.7-25.7-5.7-35.5 0-2.7 1.6-4.6 3.4-5.8 5.3h-1.6v4.9c0 3.7 2.4 7.5 7.3 10.3 9.8 5.7 25.7 5.7 35.5 0 4.9-2.8 7.4-6.6 7.3-10.3v-4.9z" fill="#f8c24d"/><path d="m398.8 438.5c-9.8-5.7-25.7-5.7-35.5 0s-9.8 14.8 0 20.5 25.7 5.7 35.5 0c9.8-5.6 9.8-14.8 0-20.5z" fill="#ffd569"/><path d="m396.6 457.7c-8.5 4.9-22.4 4.9-30.9 0s-8.5-12.9 0-17.9c8.5-4.9 22.4-4.9 30.9 0 8.5 5 8.5 13 0 17.9z" fill="#ffd569"/><path d="m396.6 457.7c-8.5 4.9-22.4 4.9-30.9 0s-8.5-12.9 0-17.9c8.5-4.9 22.4-4.9 30.9 0 8.5 5 8.5 13 0 17.9z" fill="url(#F)" opacity=".5"/><path d="m369.1 448.2h-1.7v-1.8h1.7c.6-1.5 2.6-2.3 5.8-2.2h.7v2h-1c-1.7 0-2.3.4-2.3 1 0 .7.6 1.1 2.3 1.1s2.9-.3 4.9-1.8c2.5-1.7 4.3-2.3 7-2.3 3.2.1 5.2.9 5.7 2.4h1.7v1.8h-1.7c-.6 1.5-2.6 2.3-5.8 2.2h-1.6v-2h1.8c1.7 0 2.3-.4 2.3-1.1s-.6-1.1-2.3-1.2c-1.7 0-2.9.3-4.9 1.8-2.4 1.7-4.3 2.3-7 2.3-3.1.1-5.1-.7-5.6-2.2z" fill="#f8c24d"/><path d="m369.1 477.2h-1.7v-1.8h1.7c.6-1.5 2.6-2.3 5.8-2.2h.7v2h-1c-1.7 0-2.3.4-2.3 1 0 .7.6 1.1 2.3 1.1s2.9-.3 4.9-1.8c2.5-1.7 4.3-2.3 7-2.3 3.2.1 5.2.9 5.7 2.4h1.7v1.8h-1.7c-.6 1.5-2.6 2.3-5.8 2.2h-1.6v-2h1.8c1.7 0 2.3-.4 2.3-1.1s-.6-1.1-2.3-1.2c-1.7 0-2.9.3-4.9 1.8-2.4 1.7-4.3 2.3-7 2.3-3.1.1-5.1-.7-5.6-2.2z" fill="#f8c24d"/><path d="m406.2 469.7h-1.5c-1.2-1.9-3.2-3.8-5.8-5.3-9.8-5.7-25.7-5.7-35.5 0-2.7 1.6-4.6 3.4-5.8 5.3h-1.6v4.9c0 3.7 2.4 7.5 7.3 10.3 9.8 5.7 25.7 5.7 35.5 0 4.9-2.8 7.4-6.6 7.3-10.3v-4.9z" fill="#f8c24d"/><path d="m398.8 459.5c-9.8-5.7-25.7-5.7-35.5 0s-9.8 14.8 0 20.5 25.7 5.7 35.5 0c9.8-5.6 9.8-14.8 0-20.5z" fill="#ffd569"/><path d="m396.6 478.7c-8.5 4.9-22.4 4.9-30.9 0s-8.5-12.9 0-17.9c8.5-4.9 22.4-4.9 30.9 0 8.5 5 8.5 13 0 17.9z" fill="#ffd569"/><path d="m396.6 478.7c-8.5 4.9-22.4 4.9-30.9 0s-8.5-12.9 0-17.9c8.5-4.9 22.4-4.9 30.9 0 8.5 5 8.5 13 0 17.9z" fill="url(#C)" opacity=".5"/><path d="m369.1 469.2h-1.7v-1.8h1.7c.6-1.5 2.6-2.3 5.8-2.2h.7v2h-1c-1.7 0-2.3.4-2.3 1 0 .7.6 1.1 2.3 1.1s2.9-.3 4.9-1.8c2.5-1.7 4.3-2.3 7-2.3 3.2.1 5.2.9 5.7 2.4h1.7v1.8h-1.7c-.6 1.5-2.6 2.3-5.8 2.2h-1.6v-2h1.8c1.7 0 2.3-.4 2.3-1.1s-.6-1.1-2.3-1.2c-1.7 0-2.9.3-4.9 1.8-2.4 1.7-4.3 2.3-7 2.3-3.1.1-5.1-.7-5.6-2.2z" fill="#f8c24d"/><path d="m369.1 470.2h-1.7v-1.8h1.7c.6-1.5 2.6-2.3 5.8-2.2h.7v2h-1c-1.7 0-2.3.4-2.3 1 0 .7.6 1.1 2.3 1.1s2.9-.3 4.9-1.8c2.5-1.7 4.3-2.3 7-2.3 3.2.1 5.2.9 5.7 2.4h1.7v1.8h-1.7c-.6 1.5-2.6 2.3-5.8 2.2h-1.6v-2h1.8c1.7 0 2.3-.4 2.3-1.1s-.6-1.1-2.3-1.2c-1.7 0-2.9.3-4.9 1.8-2.4 1.7-4.3 2.3-7 2.3-3.1.1-5.1-.7-5.6-2.2z" fill="#f8c24d"/><path d="m406.2 462.7h-1.5c-1.2-1.9-3.2-3.8-5.8-5.3-9.8-5.7-25.7-5.7-35.5 0-2.7 1.6-4.6 3.4-5.8 5.3h-1.6v4.9c0 3.7 2.4 7.5 7.3 10.3 9.8 5.7 25.7 5.7 35.5 0 4.9-2.8 7.4-6.6 7.3-10.3v-4.9z" fill="#f8c24d"/><path d="m398.8 452.5c-9.8-5.7-25.7-5.7-35.5 0s-9.8 14.8 0 20.5 25.7 5.7 35.5 0c9.8-5.6 9.8-14.8 0-20.5z" fill="#ffd569"/><path d="m396.6 471.7c-8.5 4.9-22.4 4.9-30.9 0s-8.5-12.9 0-17.9c8.5-4.9 22.4-4.9 30.9 0 8.5 5 8.5 13 0 17.9z" fill="#ffd569"/><path d="m396.6 471.7c-8.5 4.9-22.4 4.9-30.9 0s-8.5-12.9 0-17.9c8.5-4.9 22.4-4.9 30.9 0 8.5 5 8.5 13 0 17.9z" fill="url(#D)" opacity=".5"/><path d="m369.1 462.2h-1.7v-1.8h1.7c.6-1.5 2.6-2.3 5.8-2.2h.7v2h-1c-1.7 0-2.3.4-2.3 1 0 .7.6 1.1 2.3 1.1s2.9-.3 4.9-1.8c2.5-1.7 4.3-2.3 7-2.3 3.2.1 5.2.9 5.7 2.4h1.7v1.8h-1.7c-.6 1.5-2.6 2.3-5.8 2.2h-1.6v-2h1.8c1.7 0 2.3-.4 2.3-1.1s-.6-1.1-2.3-1.2c-1.7 0-2.9.3-4.9 1.8-2.4 1.7-4.3 2.3-7 2.3-3.1.1-5.1-.7-5.6-2.2z" fill="#f8c24d"/><path d="m369.1 463.2h-1.7v-1.8h1.7c.6-1.5 2.6-2.3 5.8-2.2h.7v2h-1c-1.7 0-2.3.4-2.3 1 0 .7.6 1.1 2.3 1.1s2.9-.3 4.9-1.8c2.5-1.7 4.3-2.3 7-2.3 3.2.1 5.2.9 5.7 2.4h1.7v1.8h-1.7c-.6 1.5-2.6 2.3-5.8 2.2h-1.6v-2h1.8c1.7 0 2.3-.4 2.3-1.1s-.6-1.1-2.3-1.2c-1.7 0-2.9.3-4.9 1.8-2.4 1.7-4.3 2.3-7 2.3-3.1.1-5.1-.7-5.6-2.2z" fill="#f8c24d"/><path d="m406.2 455.7h-1.5c-1.2-1.9-3.2-3.8-5.8-5.3-9.8-5.7-25.7-5.7-35.5 0-2.7 1.6-4.6 3.4-5.8 5.3h-1.6v4.9c0 3.7 2.4 7.5 7.3 10.3 9.8 5.7 25.7 5.7 35.5 0 4.9-2.8 7.4-6.6 7.3-10.3v-4.9z" fill="#f8c24d"/><path d="m398.8 445.5c-9.8-5.7-25.7-5.7-35.5 0s-9.8 14.8 0 20.5 25.7 5.7 35.5 0c9.8-5.6 9.8-14.8 0-20.5z" fill="#ffd569"/><path d="m396.6 464.7c-8.5 4.9-22.4 4.9-30.9 0s-8.5-12.9 0-17.9c8.5-4.9 22.4-4.9 30.9 0 8.5 5 8.5 13 0 17.9z" fill="#ffd569"/><path d="m396.6 464.7c-8.5 4.9-22.4 4.9-30.9 0s-8.5-12.9 0-17.9c8.5-4.9 22.4-4.9 30.9 0 8.5 5 8.5 13 0 17.9z" fill="url(#E)" opacity=".5"/><path d="m369.1 455.2h-1.7v-1.8h1.7c.6-1.5 2.6-2.3 5.8-2.2h.7v2h-1c-1.7 0-2.3.4-2.3 1 0 .7.6 1.1 2.3 1.1s2.9-.3 4.9-1.8c2.5-1.7 4.3-2.3 7-2.3 3.2.1 5.2.9 5.7 2.4h1.7v1.8h-1.7c-.6 1.5-2.6 2.3-5.8 2.2h-1.6v-2h1.8c1.7 0 2.3-.4 2.3-1.1s-.6-1.1-2.3-1.2c-1.7 0-2.9.3-4.9 1.8-2.4 1.7-4.3 2.3-7 2.3-3.1.1-5.1-.7-5.6-2.2z" fill="#f8c24d"/><path d="m369.1 456.2h-1.7v-1.8h1.7c.6-1.5 2.6-2.3 5.8-2.2h.7v2h-1c-1.7 0-2.3.4-2.3 1 0 .7.6 1.1 2.3 1.1s2.9-.3 4.9-1.8c2.5-1.7 4.3-2.3 7-2.3 3.2.1 5.2.9 5.7 2.4h1.7v1.8h-1.7c-.6 1.5-2.6 2.3-5.8 2.2h-1.6v-2h1.8c1.7 0 2.3-.4 2.3-1.1s-.6-1.1-2.3-1.2c-1.7 0-2.9.3-4.9 1.8-2.4 1.7-4.3 2.3-7 2.3-3.1.1-5.1-.7-5.6-2.2z" fill="#f8c24d"/><path d="m406.2 448.7h-1.5c-1.2-1.9-3.2-3.8-5.8-5.3-9.8-5.7-25.7-5.7-35.5 0-2.7 1.6-4.6 3.4-5.8 5.3h-1.6v4.9c0 3.7 2.4 7.5 7.3 10.3 9.8 5.7 25.7 5.7 35.5 0 4.9-2.8 7.4-6.6 7.3-10.3v-4.9z" fill="#f8c24d"/><path d="m398.8 438.5c-9.8-5.7-25.7-5.7-35.5 0s-9.8 14.8 0 20.5 25.7 5.7 35.5 0c9.8-5.6 9.8-14.8 0-20.5z" fill="#ffd569"/><path d="m396.6 457.7c-8.5 4.9-22.4 4.9-30.9 0s-8.5-12.9 0-17.9c8.5-4.9 22.4-4.9 30.9 0 8.5 5 8.5 13 0 17.9z" fill="#ffd569"/><path d="m396.6 457.7c-8.5 4.9-22.4 4.9-30.9 0s-8.5-12.9 0-17.9c8.5-4.9 22.4-4.9 30.9 0 8.5 5 8.5 13 0 17.9z" fill="url(#F)" opacity=".5"/><path d="m369.1 448.2h-1.7v-1.8h1.7c.6-1.5 2.6-2.3 5.8-2.2h.7v2h-1c-1.7 0-2.3.4-2.3 1 0 .7.6 1.1 2.3 1.1s2.9-.3 4.9-1.8c2.5-1.7 4.3-2.3 7-2.3 3.2.1 5.2.9 5.7 2.4h1.7v1.8h-1.7c-.6 1.5-2.6 2.3-5.8 2.2h-1.6v-2h1.8c1.7 0 2.3-.4 2.3-1.1s-.6-1.1-2.3-1.2c-1.7 0-2.9.3-4.9 1.8-2.4 1.7-4.3 2.3-7 2.3-3.1.1-5.1-.7-5.6-2.2z" fill="#f8c24d"/><path d="m362.1 403.4 4.3-4h-4.9l-25.6 15.7 7.2 4.3-22.8 33.8-22.8-2.1-38.7 53.7 4.7 3.4 36.8-51 22.9 2.1 24.9-37 8 4.8 4.7.2-4-3z" fill="url(#H)"/><path d="m266.6 510.4-4.7-3.4 40.3-55.7 22.7 2.1 31-45.9 4.8 3.2-32.9 48.8-22.9-2.1z" fill="url(#J)"/><path d="m366.4 399.4-25.9 15.9 20.3 12z" fill="url(#K)"/><path d="m340.5 415.3-4.6-.2 25.6-15.7h4.9z" fill="url(#L)"/></svg>