<?xml version="1.0" encoding="utf-8"?>
<!-- Generator: Adobe Illustrator 18.1.1, SVG Export Plug-In . SVG Version: 6.00 Build 0)  -->
<svg version="1.1" xmlns="http://www.w3.org/2000/svg" xmlns:xlink="http://www.w3.org/1999/xlink" x="0px" y="0px"
	 viewBox="0 0 487.7 604.3" enable-background="new 0 0 487.7 604.3" xml:space="preserve">
<g id="Layer_4">
	
		<text id="XMLID_2_" transform="matrix(1 0 0 1 10 377.769)" opacity="0.5" fill="#009BDB" stroke="#009BDB" stroke-width="20" stroke-miterlimit="10" font-family="'BebasNeueBold'" font-size="432.6742" letter-spacing="-19">11</text>
</g>
<g id="Layer_6">
	<polygon id="XMLID_133_" opacity="0.3" fill="#009BDB" points="271.1,527.6 333.4,490.9 396.3,527.2 333.4,563.1 	"/>
	<polygon id="XMLID_21_" opacity="0.1" fill="#009BDB" points="342.1,486.6 404.4,449.9 467.3,486.2 404.4,522.1 	"/>
	<polygon id="XMLID_31_" opacity="0.1" fill="#009BDB" points="200.8,568.7 263.1,532.1 325.9,568.4 263.1,604.3 	"/>
	<polygon id="XMLID_25_" opacity="0.3" fill="#009BDB" points="273.1,446.2 335.3,409.5 398.2,445.8 335.3,481.8 	"/>
	<polygon id="XMLID_420_" opacity="0.1" fill="#009BDB" points="340.1,567.4 402.4,530.7 465.3,567 402.4,603 	"/>
</g>
<g id="Layer_11">
	<g id="XMLID_399_">
		<g id="XMLID_414_">
			<g id="XMLID_415_">
				<polygon id="XMLID_418_" fill="#BECCDE" points="445.1,379.3 484.7,402.1 484.7,449.4 445.1,426.5 				"/>
				<polygon id="XMLID_417_" fill="#ABBACB" points="484.7,402.1 487.7,400.3 487.7,447.7 484.7,449.4 				"/>
				<polygon id="XMLID_416_" fill="#FFFFFF" points="445.1,379.3 448.2,377.6 487.7,400.3 484.7,402.1 				"/>
			</g>
		</g>
		<polygon id="XMLID_413_" fill="#F4F6FF" points="448.5,385.3 481.4,404.2 481.4,443.5 448.5,424.5 		"/>
		<polygon id="XMLID_412_" fill="#1A40C6" points="450.9,412 450.9,422.6 456.9,426.1 456.9,415.4 		"/>
		<g id="XMLID_403_">
			<polygon id="XMLID_411_" fill="#BECCDE" points="447.9,419.9 447.9,421 449.7,422 449.7,421 			"/>
			<polygon id="XMLID_410_" fill="#BECCDE" points="447.9,416 447.9,417 449.7,418.1 449.7,417 			"/>
			<polygon id="XMLID_409_" fill="#BECCDE" points="447.9,412 447.9,413 449.7,414.1 449.7,413.1 			"/>
			<polygon id="XMLID_408_" fill="#BECCDE" points="447.9,408.1 447.9,409.1 449.7,410.2 449.7,409.1 			"/>
			<polygon id="XMLID_407_" fill="#BECCDE" points="447.9,404.1 447.9,405.1 449.7,406.2 449.7,405.2 			"/>
			<polygon id="XMLID_406_" fill="#BECCDE" points="447.9,400.1 447.9,401.2 449.7,402.3 449.7,401.2 			"/>
			<polygon id="XMLID_405_" fill="#BECCDE" points="447.9,396.2 447.9,397.2 449.7,398.3 449.7,397.3 			"/>
			<polygon id="XMLID_404_" fill="#BECCDE" points="447.9,392.2 447.9,393.3 449.7,394.3 449.7,393.3 			"/>
		</g>
		<polygon id="XMLID_402_" fill="#1A40C6" points="458.3,407.3 458.3,426.9 464.2,430.4 464.2,410.8 		"/>
		<polygon id="XMLID_401_" fill="#1A40C6" points="465.7,414.3 465.7,431.2 471.6,434.6 471.6,417.7 		"/>
		<polygon id="XMLID_400_" fill="#1A40C6" points="473,408.3 473,435.5 479,438.9 479,411.7 		"/>
	</g>
	<g id="XMLID_35_">
		<g id="XMLID_394_">
			<g id="XMLID_395_">
				<polygon id="XMLID_398_" fill="#BECCDE" points="424.4,298.5 464,321.3 464,368.6 424.4,345.7 				"/>
				<polygon id="XMLID_397_" fill="#ABBACB" points="464,321.3 467,319.5 467,366.8 464,368.6 				"/>
				<polygon id="XMLID_396_" fill="#FFFFFF" points="424.4,298.5 427.5,296.8 467,319.5 464,321.3 				"/>
			</g>
		</g>
		<polygon id="XMLID_393_" fill="#F4F6FF" points="427.8,304.4 460.7,323.3 460.7,362.7 427.8,343.6 		"/>
		<g id="XMLID_36_">
			<polygon id="XMLID_392_" fill="#BECCDE" points="427.2,339.1 427.2,340.1 429,341.2 429,340.2 			"/>
			<polygon id="XMLID_192_" fill="#BECCDE" points="427.2,335.1 427.2,336.2 429,337.2 429,336.2 			"/>
			<polygon id="XMLID_191_" fill="#BECCDE" points="427.2,331.2 427.2,332.2 429,333.3 429,332.2 			"/>
			<polygon id="XMLID_47_" fill="#BECCDE" points="427.2,327.2 427.2,328.2 429,329.3 429,328.3 			"/>
			<polygon id="XMLID_44_" fill="#BECCDE" points="427.2,323.3 427.2,324.3 429,325.4 429,324.3 			"/>
			<polygon id="XMLID_43_" fill="#BECCDE" points="427.2,319.3 427.2,320.3 429,321.4 429,320.4 			"/>
			<polygon id="XMLID_41_" fill="#BECCDE" points="427.2,315.3 427.2,316.4 429,317.5 429,316.4 			"/>
			<polygon id="XMLID_39_" fill="#BECCDE" points="427.2,311.4 427.2,312.4 429,313.5 429,312.5 			"/>
		</g>
	</g>
	
		<polyline id="XMLID_419_" fill="none" stroke="#FFD569" stroke-width="4.1604" stroke-linecap="round" stroke-linejoin="round" stroke-miterlimit="10" points="
		435,329.1 440.3,339.5 455.5,328.4 	"/>
</g>
<g id="Layer_16">
	<g id="XMLID_581_" opacity="0.4">
		<g id="XMLID_582_">
			<polygon id="XMLID_620_" fill="#FFFFFF" points="198.1,268.1 198.1,269.7 204.9,273.6 204.9,272 			"/>
			<polygon id="XMLID_619_" fill="#FFFFFF" points="198.1,271 198.1,272.7 204.9,276.6 204.9,275 			"/>
			<polygon id="XMLID_618_" fill="#FFFFFF" points="198.1,274 198.1,275.6 204.9,279.5 204.9,277.9 			"/>
			<polygon id="XMLID_617_" fill="#FFFFFF" points="249.5,308.2 249.5,306.6 207.4,282.4 207.4,284 			"/>
			<polygon id="XMLID_616_" fill="#FFFFFF" points="198.1,277 198.1,278.6 204.9,282.5 204.9,280.9 			"/>
			<polygon id="XMLID_615_" fill="#FFFFFF" points="198.1,279.9 198.1,281.5 204.9,285.5 204.9,283.8 			"/>
			<polygon id="XMLID_614_" fill="#FFFFFF" points="249.5,311.2 249.5,309.6 207.4,285.3 207.4,286.9 			"/>
			<polygon id="XMLID_613_" fill="#FFFFFF" points="198.1,288.8 198.1,290.4 204.9,294.4 204.9,292.7 			"/>
			<polygon id="XMLID_612_" fill="#FFFFFF" points="198.1,291.8 198.1,293.4 204.9,297.3 204.9,295.7 			"/>
			<polygon id="XMLID_611_" fill="#FFFFFF" points="198.1,303.6 198.1,305.2 204.9,309.2 204.9,307.5 			"/>
			<polygon id="XMLID_610_" fill="#FFFFFF" points="198.1,306.6 198.1,308.2 204.9,312.1 204.9,310.5 			"/>
			<g id="XMLID_607_">
				<polygon id="XMLID_609_" fill="#FFFFFF" points="234,327.3 207.4,312 207.4,313.6 234,328.9 				"/>
				<polygon id="XMLID_608_" fill="#FFFFFF" points="235.4,328.1 235.4,329.7 249.5,337.8 249.5,336.2 				"/>
			</g>
			<g id="XMLID_604_">
				<polygon id="XMLID_606_" fill="#FFFFFF" points="220.8,316.7 207.4,309 207.4,310.6 220.8,318.3 				"/>
				<polygon id="XMLID_605_" fill="#FFFFFF" points="222.2,317.5 222.2,319.1 249.5,334.9 249.5,333.3 				"/>
			</g>
			<polygon id="XMLID_603_" fill="#FFFFFF" points="245.9,322.3 245.9,323.9 249.5,326 249.5,324.4 			"/>
			<polygon id="XMLID_602_" fill="#FFFFFF" points="226.3,308.1 207.4,297.2 207.4,298.8 226.3,309.7 			"/>
			<polygon id="XMLID_601_" fill="#FFFFFF" points="218.6,279.9 207.4,273.5 207.4,275.1 218.6,281.5 			"/>
			<g id="XMLID_599_">
				<polygon id="XMLID_600_" fill="#FFFFFF" points="236.9,290.4 220,280.7 220,282.3 236.9,292.1 				"/>
			</g>
			<polygon id="XMLID_598_" fill="#FFFFFF" points="227,287.7 215.2,280.9 215.2,282.5 227,289.4 			"/>
			<g id="XMLID_595_">
				<polygon id="XMLID_597_" fill="#FFFFFF" points="239.5,294.9 228.4,288.5 228.4,290.2 239.5,296.5 				"/>
				<polygon id="XMLID_596_" fill="#FFFFFF" points="240.9,295.7 240.9,297.3 249.5,302.3 249.5,300.7 				"/>
			</g>
			<polygon id="XMLID_594_" fill="#FFFFFF" points="209.6,280.7 209.6,282.3 218.6,287.4 218.6,285.8 			"/>
			<polygon id="XMLID_593_" fill="#FFFFFF" points="246,301.6 220,286.6 220,288.3 246,303.2 			"/>
			<polygon id="XMLID_592_" fill="#FFFFFF" points="231.1,301.9 214.1,292.1 214.1,293.8 231.1,303.5 			"/>
			<polygon id="XMLID_591_" fill="#FFFFFF" points="246,310.5 232.5,302.7 232.5,304.4 246,312.1 			"/>
			<g id="XMLID_589_">
				<polygon id="XMLID_590_" fill="#FFFFFF" points="244.5,318.5 227.7,308.9 227.7,310.5 244.5,320.2 				"/>
			</g>
			<polygon id="XMLID_588_" fill="#FFFFFF" points="235.4,316.2 235.4,317.9 244.5,323.1 244.5,321.5 			"/>
			<polygon id="XMLID_587_" fill="#FFFFFF" points="210.7,302 207.4,300.1 207.4,301.7 210.7,303.6 			"/>
			<g id="XMLID_584_">
				<polygon id="XMLID_586_" fill="#FFFFFF" points="216.9,305.6 216.9,307.2 234,317 234,315.4 				"/>
				<polygon id="XMLID_585_" fill="#FFFFFF" points="215.5,304.8 212.1,302.8 212.1,304.5 215.5,306.4 				"/>
			</g>
			<polygon id="XMLID_583_" fill="#FFFFFF" points="230.8,316.6 212.1,305.8 212.1,307.4 230.8,318.2 			"/>
		</g>
	</g>
	<g id="XMLID_651_" opacity="0.4">
		<polygon id="XMLID_669_" fill="#FFFFFF" points="412.3,383.5 384,367.1 384,368.6 412.3,384.9 		"/>
		<polygon id="XMLID_668_" fill="#FFFFFF" points="384,371.4 427.4,396.4 427.4,395 384,369.9 		"/>
		<polygon id="XMLID_667_" fill="#FFFFFF" points="414.2,384.5 414.2,386 427.4,393.6 427.4,392.2 		"/>
		<polygon id="XMLID_666_" fill="#FFFFFF" points="412.3,389 384,372.6 384,374.1 412.3,390.4 		"/>
		<polygon id="XMLID_665_" fill="#FFFFFF" points="384,376.9 427.4,401.9 427.4,400.5 384,375.4 		"/>
		<polygon id="XMLID_664_" fill="#FFFFFF" points="414.2,391.5 427.4,399.1 427.4,397.7 414.2,390 		"/>
		<polygon id="XMLID_663_" fill="#FFFFFF" points="412.3,398.1 384,381.7 384,383.2 412.3,399.5 		"/>
		<polygon id="XMLID_662_" fill="#FFFFFF" points="384,386 427.4,411 427.4,409.6 384,384.5 		"/>
		<polygon id="XMLID_661_" fill="#FFFFFF" points="414.2,400.6 427.4,408.2 427.4,406.8 414.2,399.1 		"/>
		<polygon id="XMLID_660_" fill="#FFFFFF" points="412.3,403.6 384,387.2 384,388.7 412.3,405 		"/>
		<polygon id="XMLID_659_" fill="#FFFFFF" points="384,391.5 427.4,416.5 427.4,415.1 384,390 		"/>
		<polygon id="XMLID_658_" fill="#FFFFFF" points="414.2,406.1 427.4,413.7 427.4,412.3 414.2,404.6 		"/>
		<polygon id="XMLID_657_" fill="#FFFFFF" points="412.3,412.7 384,396.3 384,397.7 412.3,414.1 		"/>
		<polygon id="XMLID_656_" fill="#FFFFFF" points="384,400.6 427.4,425.6 427.4,424.2 384,399.1 		"/>
		<polygon id="XMLID_655_" fill="#FFFFFF" points="414.2,415.2 427.4,422.8 427.4,421.4 414.2,413.7 		"/>
		<polygon id="XMLID_654_" fill="#FFFFFF" points="412.3,418.2 384,401.8 384,403.2 412.3,419.6 		"/>
		<polygon id="XMLID_653_" fill="#FFFFFF" points="384,406.1 427.4,431.1 427.4,429.7 384,404.6 		"/>
		<polygon id="XMLID_652_" fill="#FFFFFF" points="414.2,420.7 427.4,428.3 427.4,426.9 414.2,419.2 		"/>
	</g>
</g>
<g id="Layer_13">
</g>
<g id="Layer_5">
	<g id="XMLID_758_">
		<linearGradient id="XMLID_422_" gradientUnits="userSpaceOnUse" x1="335.9129" y1="434.9189" x2="335.9129" y2="359.08">
			<stop  offset="1.075269e-02" style="stop-color:#F8C24D"/>
			<stop  offset="1" style="stop-color:#F8824D"/>
		</linearGradient>
		<path id="XMLID_759_" fill="url(#XMLID_422_)" d="M351.5,375.3c0-15.2-7-27.6-15.6-27.6c-8.6,0-15.6,12.3-15.6,27.6
			c0,15.2,15.6,70.7,15.6,70.7S351.5,390.5,351.5,375.3z"/>
	</g>
	<g id="XMLID_691_">
		
			<linearGradient id="XMLID_423_" gradientUnits="userSpaceOnUse" x1="479.7446" y1="113.6739" x2="438.1361" y2="140.3257" gradientTransform="matrix(1.121 -0.121 0.121 0.879 -237.7938 237.7938)">
			<stop  offset="0" style="stop-color:#1E34B4"/>
			<stop  offset="1" style="stop-color:#4D87F4"/>
		</linearGradient>
		<path id="XMLID_761_" fill="url(#XMLID_423_)" d="M313.3,267.9l-39.5,23.8l0.3,18.9l-1.4-0.1l-0.9,2.4l2.7,1l0,0
			c0.3,0.1,0.6,0,0.8-0.2l11.8-12.3l29.8-9.7L313.3,267.9z"/>
		<g id="XMLID_756_">
			
				<linearGradient id="XMLID_424_" gradientUnits="userSpaceOnUse" x1="4283.8701" y1="-49.2586" x2="4254.5166" y2="-37.7487" gradientTransform="matrix(-1.1198 0.1984 0.1209 0.8716 5080.8149 -518.9661)">
				<stop  offset="0" style="stop-color:#1B2D88"/>
				<stop  offset="1" style="stop-color:#009BDB"/>
			</linearGradient>
			<path id="XMLID_757_" fill="url(#XMLID_424_)" d="M271.1,290.7l39.5-23.8l3.7,23.8l-29.8,9.7l-11.8,12.3
				c-0.4,0.4-1.2,0.3-1.2-0.2L271.1,290.7z"/>
		</g>
	</g>
	<linearGradient id="XMLID_425_" gradientUnits="userSpaceOnUse" x1="335.6255" y1="363.6584" x2="335.6255" y2="353.4263">
		<stop  offset="3.757440e-02" style="stop-color:#FDFCF4"/>
		<stop  offset="1" style="stop-color:#ECE9D9"/>
	</linearGradient>
	<path id="XMLID_760_" fill="url(#XMLID_425_)" d="M360.3,358.9c0,0-7.2,4.4-24.7,4.4c-15.2,0-24.7-4.4-24.7-4.4l4.8-18.6h39.2
		L360.3,358.9z"/>
	<linearGradient id="XMLID_426_" gradientUnits="userSpaceOnUse" x1="335.6255" y1="353.2373" x2="335.6255" y2="341.9892">
		<stop  offset="3.757440e-02" style="stop-color:#FDFCF4"/>
		<stop  offset="1" style="stop-color:#ECE9D9"/>
	</linearGradient>
	<path id="XMLID_762_" fill="url(#XMLID_426_)" d="M358.8,350.7c0,0-4.8,3.5-16.7,4c-22.2,1-29.7-4-29.7-4v-10.4h46.3V350.7z"/>
	<linearGradient id="XMLID_427_" gradientUnits="userSpaceOnUse" x1="287.5417" y1="255.8752" x2="383.7089" y2="255.8752">
		<stop  offset="3.757440e-02" style="stop-color:#FDFCF4"/>
		<stop  offset="1" style="stop-color:#ECE9D9"/>
	</linearGradient>
	<path id="XMLID_674_" fill="url(#XMLID_427_)" d="M335.6,165c-91.5,106.4-24.3,179-24.3,179s13.7,2.9,24.3,2.9
		c11.8,0,24.3-2.9,24.3-2.9S427.1,271.4,335.6,165z"/>
	<g id="XMLID_689_">
		
			<linearGradient id="XMLID_428_" gradientUnits="userSpaceOnUse" x1="380.5626" y1="475.4157" x2="432.0062" y2="504.3943" gradientTransform="matrix(1.0083 8.695666e-02 -7.957563e-04 0.9917 -19.587 -204.7525)">
			<stop  offset="0" style="stop-color:#1E34B4"/>
			<stop  offset="1" style="stop-color:#4D87F4"/>
		</linearGradient>
		<path id="XMLID_694_" fill="url(#XMLID_428_)" d="M413,341.9l-3.1-31.2l-46.7-26.3l-2.8,1.6l0.5,1.5l1.2-0.1l0,29.8l34.5,9.2
			l12.6,13.1l1.1,5.5l2.2-1.4C412.8,343.2,413,342.6,413,341.9z"/>
		
			<linearGradient id="XMLID_429_" gradientUnits="userSpaceOnUse" x1="385.999" y1="499.4601" x2="418.0829" y2="479.2927" gradientTransform="matrix(1.0083 8.695666e-02 -7.957563e-04 0.9917 -19.587 -204.7525)">
			<stop  offset="0" style="stop-color:#1B2D88"/>
			<stop  offset="1" style="stop-color:#009BDB"/>
		</linearGradient>
		<path id="XMLID_707_" fill="url(#XMLID_429_)" d="M407.7,313.7l-47.3-27.6l-0.4,34.2l34.5,9.2l14.9,15.5c0.5,0.6,1.4,0.2,1.3-0.5
			L407.7,313.7z"/>
	</g>
	<linearGradient id="XMLID_430_" gradientUnits="userSpaceOnUse" x1="300.6543" y1="195.577" x2="371.5996" y2="195.577">
		<stop  offset="0" style="stop-color:#1B2D88"/>
		<stop  offset="1" style="stop-color:#009BDB"/>
	</linearGradient>
	<path id="XMLID_695_" fill="url(#XMLID_430_)" d="M371.6,220.4c-7.5-17.2-19-35.7-36-55.5c-16.2,18.9-27.5,36.7-35,53.2
		C310.1,223.1,334.7,232.2,371.6,220.4z"/>
	<path id="XMLID_675_" opacity="0.38" fill="#BFBA99" d="M335.6,165c-91.5,106.4-24.3,179-24.3,179l16.1,2.4
		C297.1,251.1,335.6,165,335.6,165z"/>
	<g id="XMLID_673_">
		
			<linearGradient id="XMLID_431_" gradientUnits="userSpaceOnUse" x1="401.6597" y1="401.5161" x2="373.4327" y2="365.9256" gradientTransform="matrix(0.8188 0.5741 -0.5741 0.8188 220.0411 -271.8932)">
			<stop  offset="0" style="stop-color:#1B2D88"/>
			<stop  offset="1" style="stop-color:#009BDB"/>
		</linearGradient>
		<path id="XMLID_684_" fill="url(#XMLID_431_)" d="M306.4,280c-6-9.3-6.1-23.7-0.2-32c5.9-8.4,15.6-7.7,21.6,1.6
			c6,9.3,6.1,23.7,0.2,32C322.1,290,312.4,289.3,306.4,280z M325.1,253.4c-4.5-6.9-11.7-7.5-16.1-1.2c-4.4,6.3-4.3,17,0.2,24
			s11.7,7.5,16.1,1.2C329.7,271.1,329.6,260.3,325.1,253.4z"/>
		<g id="XMLID_679_">
			
				<linearGradient id="XMLID_432_" gradientUnits="userSpaceOnUse" x1="371.4251" y1="366.8799" x2="397.4637" y2="404.019" gradientTransform="matrix(0.8188 0.5741 -0.5741 0.8188 220.0411 -271.8932)">
				<stop  offset="0" style="stop-color:#1B2D88"/>
				<stop  offset="1" style="stop-color:#009BDB"/>
			</linearGradient>
			<path id="XMLID_680_" fill="url(#XMLID_432_)" d="M302.9,279.6c-6-9.3-6.1-23.7-0.2-32c5.9-8.4,15.6-7.7,21.6,1.6
				s6.1,23.7,0.2,32C318.6,289.6,308.9,288.9,302.9,279.6z M321.5,253c-4.5-6.9-11.7-7.5-16.1-1.2c-4.4,6.3-4.3,17,0.2,24
				c4.5,6.9,11.7,7.5,16.1,1.2C326.1,270.7,326,260,321.5,253z"/>
		</g>
	</g>
	<g id="XMLID_765_">
		<circle id="XMLID_763_" opacity="0.38" fill="#BFBA99" cx="318.1" cy="348.6" r="1.8"/>
		<circle id="XMLID_766_" opacity="0.38" fill="#BFBA99" cx="326.7" cy="349.7" r="1.8"/>
		<circle id="XMLID_767_" opacity="0.38" fill="#BFBA99" cx="335.6" cy="350.7" r="1.8"/>
		<circle id="XMLID_768_" opacity="0.38" fill="#BFBA99" cx="344.4" cy="350.3" r="1.8"/>
		<circle id="XMLID_769_" opacity="0.38" fill="#BFBA99" cx="353.1" cy="348.6" r="1.8"/>
	</g>
	<linearGradient id="XMLID_433_" gradientUnits="userSpaceOnUse" x1="356.8241" y1="251.1121" x2="318.8063" y2="203.1767">
		<stop  offset="0" style="stop-color:#1E34B4"/>
		<stop  offset="1" style="stop-color:#4D87F4"/>
	</linearGradient>
	<path id="XMLID_776_" fill="url(#XMLID_433_)" d="M374.3,227.1c-0.4-1-0.8-1.9-1.2-2.9c-40.8,13.6-66.9,1.4-74-2.6
		c-0.4,1-0.8,1.9-1.2,2.9c5.3,3,18.7,9.1,38.9,9.1C347.6,233.6,360.1,231.8,374.3,227.1z"/>
	
		<linearGradient id="XMLID_434_" gradientUnits="userSpaceOnUse" x1="393.0834" y1="1189.1356" x2="375.8054" y2="1167.3503" gradientTransform="matrix(0.587 0.9047 -0.5741 0.8188 764.2739 -1048.1405)">
		<stop  offset="0" style="stop-color:#1B2D88"/>
		<stop  offset="1" style="stop-color:#009BDB"/>
	</linearGradient>
	<path id="XMLID_770_" fill="url(#XMLID_434_)" d="M321.5,253c-4.5-6.9-11.7-7.5-16.1-1.2c-4.4,6.3-4.3,17,0.2,24
		c4.5,6.9,11.7,7.5,16.1,1.2C326.1,270.7,326,260,321.5,253z"/>
</g>
<g id="Layer_7">
	<g id="XMLID_48_">
		<g id="XMLID_173_">
			<path id="XMLID_186_" fill="#E4C6A6" d="M189.5,371.2c0,0,0.1,2.9,0.5,4c0.4,1.2,2.8,5.1,2.8,12c-0.1,11.8,3.2,21.5,3.2,21.5
				s2.7,3,2.1,6.5c-0.3,2.1-3.7,4-5.8,5.2c-2.1,1.2-5.1-2.4-3.5-4.4c1.6-2-7.7-32.9-7.7-32.9l1.6-14.8l5.7-0.5L189.5,371.2z"/>
			<path id="XMLID_185_" fill="#D44646" d="M181.5,344.8c0,0,8.2,2.4,8.4,12.5c0.1,6.3,6.1,45.4,6.1,45.4s-2.8,1-8.1-2
				c0-2.6-9-45.3-9-45.3l-2.5-8l2.4-3.3L181.5,344.8z"/>
			<path id="XMLID_184_" opacity="0.1" d="M181.5,344.8c0,0,8.2,2.4,8.4,12.5c0.1,6.3,6.1,45.4,6.1,45.4s-2.8,1-8.1-2
				c0-2.6-9-45.3-9-45.3l-2.5-8l2.4-3.3L181.5,344.8z"/>
			<path id="XMLID_183_" fill="#19191B" d="M186.5,487.5c2.4,2.6,8.3,5.2,10.7,6.5c2.4,1.3,2.5,5.6,0,6.3
				c-4.1,1.1-15.6-4.4-15.6-4.4s-6.8,0-8.8-2.2c-1.3-1.4,0.2-7.4,0.2-7.4l4.4-0.8C177.4,485.5,186,486.6,186.5,487.5z"/>
			<path id="XMLID_182_" fill="#0C0C0C" d="M188.4,396.7c4.1,23.6-1,41-1.8,56.8c-0.8,15.8,0.4,29.6,0,32.9
				c-0.4,3.8-14.7,4.6-14.9-0.5c-0.2-5.2-1.5-18.6,1.7-34c0.3-5.7-1.9-20.2-1.9-20.2l-1.7-12.5l3.7-9.7
				C173.4,409.3,186.9,394,188.4,396.7z"/>
			<path id="XMLID_181_" fill="#19191B" d="M161.3,494.2c0.1,2.5,1.6,6,2.2,7.3c1.7,3.4,0.6,5.7,0.3,6.3c-0.7,1.5-13,5.4-13-5.8
				c0-3.2,0-10.2,0-10.2S161.2,491.7,161.3,494.2z"/>
			<path id="XMLID_180_" fill="#1E1E1E" d="M157.2,400.8c-6.2,8.9-2.8,45.5-4.5,52.5c-3.8,14.6-4.4,38.4-3.2,40.5
				c2.4,6.6,13.8,3.7,13.7-1c0.6-34.4,10.7-70.5,10.7-70.5s12.9-7.2,14.6-25.5C186.7,394.8,158.9,398.6,157.2,400.8z"/>
			<path id="XMLID_179_" fill="#19191B" d="M158.8,397.2l-1.6,3.5c0,0,7.3,15.2,31.2-4.1c0-1-0.1-3.1-0.1-3.1L158.8,397.2z"/>
			<path id="XMLID_178_" fill="#D44646" d="M177,346.2c0.9,4.7-4.1,6.3-6.4,8.1c-5.6,1.6,3.2-0.2-5.1-3.8c-8.1-1-17.1,12-17.1,12
				s2,9.9,6.8,20.6c2.5,5.6,3.9,12.6,3.6,14.1c6.6,14.8,29.5-3.6,29.5-3.6s0.7-28.3-1.2-36.6C185,348.2,175.6,345,177,346.2z"/>
			<path id="XMLID_177_" fill="#DD4E73" d="M159.7,391.6c0,0,2.2,3,7.2-1c4.8-3.8,1.9-7.5,1.9-7.5l-2-1.8l-7.8,1.7l-1,2.7
				L159.7,391.6z"/>
			<polygon id="XMLID_176_" fill="#BBA294" points="211.5,419 204.7,420.3 201,417.7 200.3,412.6 205,412.2 210.1,414.2 
				211.3,416.6 			"/>
			<path id="XMLID_175_" fill="#E4C6A6" d="M168.1,383.3c3.8,5.6,5.3,10.7,5.3,10.7c8.8,3.8,18.8,13,24.7,14.7
				c0.8,0.2,4.6-0.2,6.3,1.7c0.6,0.9,0.3,3.7,0.3,3.7l2.4,2.2c0,0,3.8,2,3.8,2.7c0.1,1.9-7.5,4-9.7,2.9c-3.7-1.9-7.7-8.2-7.7-8.2
				c-4-2.5-22-6.5-27-12.8c-1.5-1.7-7.5-12.2-7.5-12.2l0.6-5.4l5.5-1C165.2,382.3,167,381.9,168.1,383.3z"/>
			<path id="XMLID_174_" fill="#D44646" d="M152.1,358.7c-9.3,4.6-0.1,17.9-0.1,17.9l13.9,24.6c0.7,1.1,1.7,1.9,2.9,2.5l16,7.5
				c0,0-2.5-1.1,3.8-9.1l-14.3-8.6l-11-24.4C163.2,369,159.3,355.1,152.1,358.7z"/>
		</g>
		<g id="XMLID_49_">
			<path id="XMLID_74_" fill="#BBA294" d="M204.5,410.4c0,0-6.4,2.9-5.2,5.1c1.2,2.4,5.5-1.4,5.5-1.4L204.5,410.4z"/>
			<path id="XMLID_63_" fill="#E4C6A6" d="M225.3,407.4c0,0-10.4,3.6-13.4,3.7c-1,0.1-5.7-1.2-7.4-0.7c-1.7,0.5-5.4,3.9-4.7,4.9
				c0.7,1,4.6-1.1,5-1.2c2,2,4.4,1.7,4.4,1.7s0.3,2.8,1.8,3.2c1.5,0.4,2.4-1.5,3.6-1.8c2.3-0.7,9.8,0,9.8,0l2.6-7.1L225.3,407.4z"/>
			<path id="XMLID_61_" fill="#8BDAF0" d="M254.9,388.9c0,0,8.6-3.9,12.4,1.2c3.7,5.1-2.4,12.4-2.4,12.4L254.9,388.9z"/>
			<path id="XMLID_60_" d="M249.1,524.3c0,0-4.3-0.4-3.8,3c0.4,2.6,5.1,7.6,5.1,7.6s1.4,5.1,3.9,6.1c2.5,1,4.3,0,4.9-1
				c0.6-1-0.2-8.5-0.2-9.8C259.1,528.9,249.1,524.3,249.1,524.3z"/>
			<path id="XMLID_59_" fill="#0C0C0C" d="M242.4,464.8c0,0,2,17.6,5.1,28.8c2.3,8.3,0.9,26.6,0.7,32.3c-0.1,5.6,12.3,8.2,13,1.6
				c0.8-6.6,3.8-26,0-35.1c-0.6-3.6,0-40.8,0-40.8l-22.5-2.8l-0.2,13.5L242.4,464.8z"/>
			<path id="XMLID_57_" d="M223,532.6c-3.2,1.6-11.9,2-13.7,3.1c-1.8,1.1-1.8,5.3,2.8,6.6c4.6,1.3,22.2,2.4,24.2,1
				c1.9-1.5,0.7-9.4,0.7-9.4S224.7,531.4,223,532.6z"/>
			<path id="XMLID_56_" fill="#0C0C0C" d="M225.3,446.3c-3.5,18.7-3.2,40.1-2.7,48.1c0.3,22.1,0,33.2-0.6,36.2
				c-1.1,6.5,16.4,7.1,16.8,1.4c0.5-5.7,1.2-15.1-1-34.1c0.2-7.5,6.6-31.9,6.6-31.9s13.9-5.9,16.5-12.7c1.6-4.1-3.8-19.6-3.8-19.6
				h-4.3l-16.4,4.5l-8,1.9C228.5,440,226.7,443.2,225.3,446.3z"/>
			<path id="XMLID_55_" fill="#19191B" d="M225.8,441.8l1.7-5.4l28.3-6.6c0,0,1.2,2.6,1.3,3.8"/>
			<path id="XMLID_54_" fill="#8BDAF0" d="M235.2,397c-5.5,3.4-8.5,8-8.5,8s-1.6,29.5-1.4,32c7.5,8.5,29.8-5.9,30.1-6.5
				c3.6-2.5,1.2-4.6,2.6-7.8c4.3-9.8,10.4-21.2,7.5-27.2c-3-5.9-9.3-7-9.3-7l-16.3,4.5C239.9,392.9,237.8,395.6,235.2,397z"/>
			<path id="XMLID_53_" opacity="0.1" d="M237.7,415.3l-4,20.3c-0.8,1.5-5.5,1.4-5.5,1.4v-8.7L237.7,415.3z"/>
			<path id="XMLID_52_" fill="#E4C6A6" d="M220.8,431.5c0,0-0.2,2-1.2,3.6c-3.9,6.7-3.9,18.9-7.3,23.4c-1.7,2.2-6.8,5-6.8,8.2
				c0,3.2,2.2,4.3,3.8,4.7c1.6,0.4,4.9,1.2,6,0c1.1-1.2-0.8-2.5-0.8-2.5s3.1-3.8,3.6-5.8c0.5-2,0-2.9,0.1-3.7
				c0.1-1.2,10.4-12.4,11.6-20.5c0.2-1.4,0.5-4.1,0.5-4.1L220.8,431.5z"/>
			<path id="XMLID_51_" fill="#8BDAF0" d="M233.7,401.6c-7.5-2-10.9,12.3-10.9,12.3s-2.1,9.2-3.5,16.8c-1.1,5.3,11.9,6.7,12.7,4.1
				c0.8-2.6,5.6-19.3,5.6-19.3S241.2,403.5,233.7,401.6z"/>
			<path id="XMLID_50_" fill="#39291C" d="M237.4,362.1"/>
		</g>
	</g>
	<path id="XMLID_24_" fill="#EEC6A5" d="M240.6,393c0,0,0.9-3.6-0.3-4.8c-3.9-3.8-6.4,1.7-9.4-8.5c-0.7-2.3-0.4-4.9-0.6-6.9
		c-0.8-6.7-0.3-12,6.3-13.5c8.6-2,12.7,4.6,13.5,9.1c0.8,4.5-0.4,16-0.4,16l2.3,6.2C252,390.6,251.3,397.2,240.6,393z"/>
	<path id="XMLID_23_" fill="#0C0C0C" d="M229,364.8c0,0,4.8,8.7,21.3,2c0,0,0.1-5.7-4.4-8c-4.5-2.3-12.5-0.5-14.1-1.5
		C227.5,354.6,223.8,361,229,364.8z"/>
	<path id="XMLID_22_" fill="#0C0C0C" d="M250.3,366.8c0,0,1.5,3.8-0.6,17.7l-3.6,2c-2.6,0.7-6.2-3.6-6.3-6.3c0,0,0-0.1,0-0.1
		c0-3.2,0.7-5.6-0.8-7c-1.4-1.5-2.1,0.4-1.6,2.5l-1.5-0.9c-0.4-0.2-0.6-0.6-0.6-1c-0.1-0.9-0.3-2.6-1.1-3.2
		c-1.2-0.9-3.4-1.9-3.5-3.7C230.7,364.9,250.3,366.8,250.3,366.8z"/>
	<path id="XMLID_37_" fill-rule="evenodd" clip-rule="evenodd" fill="#F0C8A7" d="M162.8,341c0.5,2.5,0.5,7.9,0.2,10.2
		c-0.6,4.1,11.5,7,10.5-0.6c-0.1-1.1-0.1-2.2-0.1-3.4L162.8,341z"/>
	<path id="XMLID_34_" fill-rule="evenodd" clip-rule="evenodd" fill="#F0C8A7" d="M173.9,328.1c2.6,0.6,4.8,2.4,5.4,8.9
		c0.4,3.5-1.9,12.7-4.4,14.9c-0.6,0.5-2,0.9-2.8,0.9c-1.6,0-5.4-3.1-6.4-4c-1.5-1.5-1.7-2.7-2.4-5.8l-1.1-2.6l-0.3-8.9"/>
	<path id="XMLID_33_" fill-rule="evenodd" clip-rule="evenodd" fill="#271C0E" d="M181.1,337.9c2.4-2.2-0.7-6.2-1.6-8.4
		c-1.5-3.7-5.6-5.7-9.5-5.5c-3.8,0.2-7.7,2.1-9.6,5.5c-2.5,4.4-0.3,9.2,1.9,13.2c0.4,0.7,0.6,1.4,0.9,2.1c0.6-1.7-0.3-3-0.4-4.6
		c-0.1-0.8-0.1-1.8,0.4-2.5c0.5-0.6,1.3-0.8,2-0.3c0.7,0.5,0.4,1.9,1.1,2.2c1.2,0.6,2-2.3,2.3-3c0.4-0.9,0.7-1.5,1.7-1.6
		c1.2-0.1,2.3,0.4,3.4,1c1.5,0.9,3.4,2,5.2,2.3C179.7,338.6,180.5,338.4,181.1,337.9z"/>
</g>
<g id="Layer_9">
</g>
<g id="Layer_8">
	<g id="XMLID_309_">
		<path id="XMLID_310_" fill="#F8C24D" d="M369.1,505.1l-1.7,0l0-1.8l1.7,0c0.6-1.5,2.6-2.3,5.8-2.2l0.7,0l0,2l-1,0
			c-1.7,0-2.3,0.4-2.3,1c0,0.7,0.6,1.1,2.3,1.1c1.7,0,2.9-0.3,4.9-1.8c2.5-1.7,4.3-2.3,7-2.3c3.2,0.1,5.2,0.9,5.7,2.4l1.7,0l0,1.8
			l-1.7,0c-0.6,1.5-2.6,2.3-5.8,2.2l-1.6,0l0-2l1.8,0c1.7,0,2.3-0.4,2.3-1.1c0-0.7-0.6-1.1-2.3-1.2c-1.7,0-2.9,0.3-4.9,1.8
			c-2.4,1.7-4.3,2.3-7,2.3C371.6,507.4,369.6,506.6,369.1,505.1z"/>
	</g>
	<path id="XMLID_308_" fill="#F8C24D" d="M406.2,497.6h-1.5c-1.2-1.9-3.2-3.8-5.8-5.3c-9.8-5.7-25.7-5.7-35.5,0
		c-2.7,1.6-4.6,3.4-5.8,5.3H356v4.9c0,3.7,2.4,7.5,7.3,10.3c9.8,5.7,25.7,5.7,35.5,0c4.9-2.8,7.4-6.6,7.3-10.3h0V497.6z"/>
	<path id="XMLID_307_" fill="#FFD569" d="M398.8,487.5c-9.8-5.7-25.7-5.7-35.5,0c-9.8,5.7-9.8,14.8,0,20.5c9.8,5.7,25.7,5.7,35.5,0
		C408.6,502.3,408.6,493.1,398.8,487.5z"/>
	<path id="XMLID_306_" fill="#FFD569" d="M396.5,506.6c-8.5,4.9-22.4,4.9-30.9,0c-8.5-4.9-8.5-12.9,0-17.9c8.5-4.9,22.4-4.9,30.9,0
		C405.1,493.7,405.1,501.7,396.5,506.6z"/>
	<radialGradient id="XMLID_435_" cx="381.0855" cy="497.7196" r="17.8554" gradientUnits="userSpaceOnUse">
		<stop  offset="0.2742" style="stop-color:#D6D5D5"/>
		<stop  offset="0.3829" style="stop-color:#9E9D9D"/>
		<stop  offset="0.4915" style="stop-color:#6E6D6D"/>
		<stop  offset="0.5988" style="stop-color:#464646"/>
		<stop  offset="0.7039" style="stop-color:#282727"/>
		<stop  offset="0.8062" style="stop-color:#121212"/>
		<stop  offset="0.9044" style="stop-color:#040404"/>
		<stop  offset="0.994" style="stop-color:#000000"/>
	</radialGradient>
	<path id="XMLID_305_" opacity="0.5" fill="url(#XMLID_435_)" d="M396.5,506.6c-8.5,4.9-22.4,4.9-30.9,0c-8.5-4.9-8.5-12.9,0-17.9
		c8.5-4.9,22.4-4.9,30.9,0C405.1,493.7,405.1,501.7,396.5,506.6z"/>
	<g id="XMLID_302_">
		<path id="XMLID_303_" fill="#F8C24D" d="M369.1,497.1l-1.7,0l0-1.8l1.7,0c0.6-1.5,2.6-2.3,5.8-2.2l0.7,0l0,2l-1,0
			c-1.7,0-2.3,0.4-2.3,1c0,0.7,0.6,1.1,2.3,1.1c1.7,0,2.9-0.3,4.9-1.8c2.5-1.7,4.3-2.3,7-2.3c3.2,0.1,5.2,0.9,5.7,2.4l1.7,0l0,1.8
			l-1.7,0c-0.6,1.5-2.6,2.3-5.8,2.2l-1.6,0l0-2l1.8,0c1.7,0,2.3-0.4,2.3-1.1c0-0.7-0.6-1.1-2.3-1.2c-1.7,0-2.9,0.3-4.9,1.8
			c-2.4,1.7-4.3,2.3-7,2.3C371.6,499.4,369.6,498.6,369.1,497.1z"/>
	</g>
	<g id="XMLID_299_">
		<path id="XMLID_300_" fill="#F8C24D" d="M369.1,498.1l-1.7,0l0-1.8l1.7,0c0.6-1.5,2.6-2.3,5.8-2.2l0.7,0l0,2l-1,0
			c-1.7,0-2.3,0.4-2.3,1c0,0.7,0.6,1.1,2.3,1.1c1.7,0,2.9-0.3,4.9-1.8c2.5-1.7,4.3-2.3,7-2.3c3.2,0.1,5.2,0.9,5.7,2.4l1.7,0l0,1.8
			l-1.7,0c-0.6,1.5-2.6,2.3-5.8,2.2l-1.6,0l0-2l1.8,0c1.7,0,2.3-0.4,2.3-1.1c0-0.7-0.6-1.1-2.3-1.2c-1.7,0-2.9,0.3-4.9,1.8
			c-2.4,1.7-4.3,2.3-7,2.3C371.6,500.4,369.6,499.6,369.1,498.1z"/>
	</g>
	<path id="XMLID_298_" fill="#F8C24D" d="M406.2,490.6h-1.5c-1.2-1.9-3.2-3.8-5.8-5.3c-9.8-5.7-25.7-5.7-35.5,0
		c-2.7,1.6-4.6,3.4-5.8,5.3H356v4.9c0,3.7,2.4,7.5,7.3,10.3c9.8,5.7,25.7,5.7,35.5,0c4.9-2.8,7.4-6.6,7.3-10.3h0V490.6z"/>
	<path id="XMLID_297_" fill="#FFD569" d="M398.8,480.5c-9.8-5.7-25.7-5.7-35.5,0c-9.8,5.7-9.8,14.8,0,20.5c9.8,5.7,25.7,5.7,35.5,0
		C408.6,495.3,408.6,486.1,398.8,480.5z"/>
	<path id="XMLID_296_" fill="#FFD569" d="M396.5,499.6c-8.5,4.9-22.4,4.9-30.9,0c-8.5-4.9-8.5-12.9,0-17.9c8.5-4.9,22.4-4.9,30.9,0
		C405.1,486.7,405.1,494.7,396.5,499.6z"/>
	<radialGradient id="XMLID_436_" cx="381.0855" cy="490.7196" r="17.8554" gradientUnits="userSpaceOnUse">
		<stop  offset="0.2742" style="stop-color:#D6D5D5"/>
		<stop  offset="0.3829" style="stop-color:#9E9D9D"/>
		<stop  offset="0.4915" style="stop-color:#6E6D6D"/>
		<stop  offset="0.5988" style="stop-color:#464646"/>
		<stop  offset="0.7039" style="stop-color:#282727"/>
		<stop  offset="0.8062" style="stop-color:#121212"/>
		<stop  offset="0.9044" style="stop-color:#040404"/>
		<stop  offset="0.994" style="stop-color:#000000"/>
	</radialGradient>
	<path id="XMLID_295_" opacity="0.5" fill="url(#XMLID_436_)" d="M396.5,499.6c-8.5,4.9-22.4,4.9-30.9,0c-8.5-4.9-8.5-12.9,0-17.9
		c8.5-4.9,22.4-4.9,30.9,0C405.1,486.7,405.1,494.7,396.5,499.6z"/>
	<g id="XMLID_292_">
		<path id="XMLID_293_" fill="#F8C24D" d="M369.1,490.1l-1.7,0l0-1.8l1.7,0c0.6-1.5,2.6-2.3,5.8-2.2l0.7,0l0,2l-1,0
			c-1.7,0-2.3,0.4-2.3,1c0,0.7,0.6,1.1,2.3,1.1c1.7,0,2.9-0.3,4.9-1.8c2.5-1.7,4.3-2.3,7-2.3c3.2,0.1,5.2,0.9,5.7,2.4l1.7,0l0,1.8
			l-1.7,0c-0.6,1.5-2.6,2.3-5.8,2.2l-1.6,0l0-2l1.8,0c1.7,0,2.3-0.4,2.3-1.1c0-0.7-0.6-1.1-2.3-1.2c-1.7,0-2.9,0.3-4.9,1.8
			c-2.4,1.7-4.3,2.3-7,2.3C371.6,492.4,369.6,491.6,369.1,490.1z"/>
	</g>
	<g id="XMLID_289_">
		<path id="XMLID_290_" fill="#F8C24D" d="M369.1,491.1l-1.7,0l0-1.8l1.7,0c0.6-1.5,2.6-2.3,5.8-2.2l0.7,0l0,2l-1,0
			c-1.7,0-2.3,0.4-2.3,1c0,0.7,0.6,1.1,2.3,1.1c1.7,0,2.9-0.3,4.9-1.8c2.5-1.7,4.3-2.3,7-2.3c3.2,0.1,5.2,0.9,5.7,2.4l1.7,0l0,1.8
			l-1.7,0c-0.6,1.5-2.6,2.3-5.8,2.2l-1.6,0l0-2l1.8,0c1.7,0,2.3-0.4,2.3-1.1c0-0.7-0.6-1.1-2.3-1.2c-1.7,0-2.9,0.3-4.9,1.8
			c-2.4,1.7-4.3,2.3-7,2.3C371.6,493.4,369.6,492.6,369.1,491.1z"/>
	</g>
	<path id="XMLID_288_" fill="#F8C24D" d="M406.2,483.6h-1.5c-1.2-1.9-3.2-3.8-5.8-5.3c-9.8-5.7-25.7-5.7-35.5,0
		c-2.7,1.6-4.6,3.4-5.8,5.3H356v4.9c0,3.7,2.4,7.5,7.3,10.3c9.8,5.7,25.7,5.7,35.5,0c4.9-2.8,7.4-6.6,7.3-10.3h0V483.6z"/>
	<path id="XMLID_287_" fill="#FFD569" d="M398.8,473.5c-9.8-5.7-25.7-5.7-35.5,0c-9.8,5.7-9.8,14.8,0,20.5c9.8,5.7,25.7,5.7,35.5,0
		C408.6,488.3,408.6,479.1,398.8,473.5z"/>
	<path id="XMLID_286_" fill="#FFD569" d="M396.5,492.6c-8.5,4.9-22.4,4.9-30.9,0c-8.5-4.9-8.5-12.9,0-17.9c8.5-4.9,22.4-4.9,30.9,0
		C405.1,479.7,405.1,487.7,396.5,492.6z"/>
	<radialGradient id="XMLID_437_" cx="381.0855" cy="483.7196" r="17.8554" gradientUnits="userSpaceOnUse">
		<stop  offset="0.2742" style="stop-color:#D6D5D5"/>
		<stop  offset="0.3829" style="stop-color:#9E9D9D"/>
		<stop  offset="0.4915" style="stop-color:#6E6D6D"/>
		<stop  offset="0.5988" style="stop-color:#464646"/>
		<stop  offset="0.7039" style="stop-color:#282727"/>
		<stop  offset="0.8062" style="stop-color:#121212"/>
		<stop  offset="0.9044" style="stop-color:#040404"/>
		<stop  offset="0.994" style="stop-color:#000000"/>
	</radialGradient>
	<path id="XMLID_285_" opacity="0.5" fill="url(#XMLID_437_)" d="M396.5,492.6c-8.5,4.9-22.4,4.9-30.9,0c-8.5-4.9-8.5-12.9,0-17.9
		c8.5-4.9,22.4-4.9,30.9,0C405.1,479.7,405.1,487.7,396.5,492.6z"/>
	<g id="XMLID_282_">
		<path id="XMLID_283_" fill="#F8C24D" d="M369.1,483.1l-1.7,0l0-1.8l1.7,0c0.6-1.5,2.6-2.3,5.8-2.2l0.7,0l0,2l-1,0
			c-1.7,0-2.3,0.4-2.3,1c0,0.7,0.6,1.1,2.3,1.1c1.7,0,2.9-0.3,4.9-1.8c2.5-1.7,4.3-2.3,7-2.3c3.2,0.1,5.2,0.9,5.7,2.4l1.7,0l0,1.8
			l-1.7,0c-0.6,1.5-2.6,2.3-5.8,2.2l-1.6,0l0-2l1.8,0c1.7,0,2.3-0.4,2.3-1.1c0-0.7-0.6-1.1-2.3-1.2c-1.7,0-2.9,0.3-4.9,1.8
			c-2.4,1.7-4.3,2.3-7,2.3C371.6,485.4,369.6,484.6,369.1,483.1z"/>
	</g>
	<g id="XMLID_279_">
		<path id="XMLID_280_" fill="#F8C24D" d="M369.1,484.1l-1.7,0l0-1.8l1.7,0c0.6-1.5,2.6-2.3,5.8-2.2l0.7,0l0,2l-1,0
			c-1.7,0-2.3,0.4-2.3,1c0,0.7,0.6,1.1,2.3,1.1c1.7,0,2.9-0.3,4.9-1.8c2.5-1.7,4.3-2.3,7-2.3c3.2,0.1,5.2,0.9,5.7,2.4l1.7,0l0,1.8
			l-1.7,0c-0.6,1.5-2.6,2.3-5.8,2.2l-1.6,0l0-2l1.8,0c1.7,0,2.3-0.4,2.3-1.1c0-0.7-0.6-1.1-2.3-1.2c-1.7,0-2.9,0.3-4.9,1.8
			c-2.4,1.7-4.3,2.3-7,2.3C371.6,486.4,369.6,485.6,369.1,484.1z"/>
	</g>
	<path id="XMLID_278_" fill="#F8C24D" d="M406.2,476.6h-1.5c-1.2-1.9-3.2-3.8-5.8-5.3c-9.8-5.7-25.7-5.7-35.5,0
		c-2.7,1.6-4.6,3.4-5.8,5.3H356v4.9c0,3.7,2.4,7.5,7.3,10.3c9.8,5.7,25.7,5.7,35.5,0c4.9-2.8,7.4-6.6,7.3-10.3h0V476.6z"/>
	<path id="XMLID_277_" fill="#FFD569" d="M398.8,466.5c-9.8-5.7-25.7-5.7-35.5,0c-9.8,5.7-9.8,14.8,0,20.5c9.8,5.7,25.7,5.7,35.5,0
		C408.6,481.3,408.6,472.1,398.8,466.5z"/>
	<path id="XMLID_276_" fill="#FFD569" d="M396.5,485.6c-8.5,4.9-22.4,4.9-30.9,0c-8.5-4.9-8.5-12.9,0-17.9c8.5-4.9,22.4-4.9,30.9,0
		C405.1,472.7,405.1,480.7,396.5,485.6z"/>
	<radialGradient id="XMLID_438_" cx="381.0855" cy="476.7196" r="17.8554" gradientUnits="userSpaceOnUse">
		<stop  offset="0.2742" style="stop-color:#D6D5D5"/>
		<stop  offset="0.3829" style="stop-color:#9E9D9D"/>
		<stop  offset="0.4915" style="stop-color:#6E6D6D"/>
		<stop  offset="0.5988" style="stop-color:#464646"/>
		<stop  offset="0.7039" style="stop-color:#282727"/>
		<stop  offset="0.8062" style="stop-color:#121212"/>
		<stop  offset="0.9044" style="stop-color:#040404"/>
		<stop  offset="0.994" style="stop-color:#000000"/>
	</radialGradient>
	<path id="XMLID_275_" opacity="0.5" fill="url(#XMLID_438_)" d="M396.5,485.6c-8.5,4.9-22.4,4.9-30.9,0c-8.5-4.9-8.5-12.9,0-17.9
		c8.5-4.9,22.4-4.9,30.9,0C405.1,472.7,405.1,480.7,396.5,485.6z"/>
	<g id="XMLID_272_">
		<path id="XMLID_273_" fill="#F8C24D" d="M369.1,476.1l-1.7,0l0-1.8l1.7,0c0.6-1.5,2.6-2.3,5.8-2.2l0.7,0l0,2l-1,0
			c-1.7,0-2.3,0.4-2.3,1c0,0.7,0.6,1.1,2.3,1.1c1.7,0,2.9-0.3,4.9-1.8c2.5-1.7,4.3-2.3,7-2.3c3.2,0.1,5.2,0.9,5.7,2.4l1.7,0l0,1.8
			l-1.7,0c-0.6,1.5-2.6,2.3-5.8,2.2l-1.6,0l0-2l1.8,0c1.7,0,2.3-0.4,2.3-1.1c0-0.7-0.6-1.1-2.3-1.2c-1.7,0-2.9,0.3-4.9,1.8
			c-2.4,1.7-4.3,2.3-7,2.3C371.6,478.4,369.6,477.6,369.1,476.1z"/>
	</g>
	<g id="XMLID_269_">
		<path id="XMLID_270_" fill="#F8C24D" d="M369.1,505.1l-1.7,0l0-1.8l1.7,0c0.6-1.5,2.6-2.3,5.8-2.2l0.7,0l0,2l-1,0
			c-1.7,0-2.3,0.4-2.3,1c0,0.7,0.6,1.1,2.3,1.1c1.7,0,2.9-0.3,4.9-1.8c2.5-1.7,4.3-2.3,7-2.3c3.2,0.1,5.2,0.9,5.7,2.4l1.7,0l0,1.8
			l-1.7,0c-0.6,1.5-2.6,2.3-5.8,2.2l-1.6,0l0-2l1.8,0c1.7,0,2.3-0.4,2.3-1.1c0-0.7-0.6-1.1-2.3-1.2c-1.7,0-2.9,0.3-4.9,1.8
			c-2.4,1.7-4.3,2.3-7,2.3C371.6,507.4,369.6,506.6,369.1,505.1z"/>
	</g>
	<path id="XMLID_268_" fill="#F8C24D" d="M406.2,497.6h-1.5c-1.2-1.9-3.2-3.8-5.8-5.3c-9.8-5.7-25.7-5.7-35.5,0
		c-2.7,1.6-4.6,3.4-5.8,5.3H356v4.9c0,3.7,2.4,7.5,7.3,10.3c9.8,5.7,25.7,5.7,35.5,0c4.9-2.8,7.4-6.6,7.3-10.3h0V497.6z"/>
	<path id="XMLID_267_" fill="#FFD569" d="M398.8,487.5c-9.8-5.7-25.7-5.7-35.5,0c-9.8,5.7-9.8,14.8,0,20.5c9.8,5.7,25.7,5.7,35.5,0
		C408.6,502.3,408.6,493.1,398.8,487.5z"/>
	<path id="XMLID_266_" fill="#FFD569" d="M396.5,506.6c-8.5,4.9-22.4,4.9-30.9,0c-8.5-4.9-8.5-12.9,0-17.9c8.5-4.9,22.4-4.9,30.9,0
		C405.1,493.7,405.1,501.7,396.5,506.6z"/>
	<radialGradient id="XMLID_439_" cx="381.0855" cy="497.7196" r="17.8554" gradientUnits="userSpaceOnUse">
		<stop  offset="0.2742" style="stop-color:#D6D5D5"/>
		<stop  offset="0.3829" style="stop-color:#9E9D9D"/>
		<stop  offset="0.4915" style="stop-color:#6E6D6D"/>
		<stop  offset="0.5988" style="stop-color:#464646"/>
		<stop  offset="0.7039" style="stop-color:#282727"/>
		<stop  offset="0.8062" style="stop-color:#121212"/>
		<stop  offset="0.9044" style="stop-color:#040404"/>
		<stop  offset="0.994" style="stop-color:#000000"/>
	</radialGradient>
	<path id="XMLID_265_" opacity="0.5" fill="url(#XMLID_439_)" d="M396.5,506.6c-8.5,4.9-22.4,4.9-30.9,0c-8.5-4.9-8.5-12.9,0-17.9
		c8.5-4.9,22.4-4.9,30.9,0C405.1,493.7,405.1,501.7,396.5,506.6z"/>
	<g id="XMLID_172_">
		<path id="XMLID_263_" fill="#F8C24D" d="M369.1,497.1l-1.7,0l0-1.8l1.7,0c0.6-1.5,2.6-2.3,5.8-2.2l0.7,0l0,2l-1,0
			c-1.7,0-2.3,0.4-2.3,1c0,0.7,0.6,1.1,2.3,1.1c1.7,0,2.9-0.3,4.9-1.8c2.5-1.7,4.3-2.3,7-2.3c3.2,0.1,5.2,0.9,5.7,2.4l1.7,0l0,1.8
			l-1.7,0c-0.6,1.5-2.6,2.3-5.8,2.2l-1.6,0l0-2l1.8,0c1.7,0,2.3-0.4,2.3-1.1c0-0.7-0.6-1.1-2.3-1.2c-1.7,0-2.9,0.3-4.9,1.8
			c-2.4,1.7-4.3,2.3-7,2.3C371.6,499.4,369.6,498.6,369.1,497.1z"/>
	</g>
	<g id="XMLID_169_">
		<path id="XMLID_170_" fill="#F8C24D" d="M369.1,498.1l-1.7,0l0-1.8l1.7,0c0.6-1.5,2.6-2.3,5.8-2.2l0.7,0l0,2l-1,0
			c-1.7,0-2.3,0.4-2.3,1c0,0.7,0.6,1.1,2.3,1.1c1.7,0,2.9-0.3,4.9-1.8c2.5-1.7,4.3-2.3,7-2.3c3.2,0.1,5.2,0.9,5.7,2.4l1.7,0l0,1.8
			l-1.7,0c-0.6,1.5-2.6,2.3-5.8,2.2l-1.6,0l0-2l1.8,0c1.7,0,2.3-0.4,2.3-1.1c0-0.7-0.6-1.1-2.3-1.2c-1.7,0-2.9,0.3-4.9,1.8
			c-2.4,1.7-4.3,2.3-7,2.3C371.6,500.4,369.6,499.6,369.1,498.1z"/>
	</g>
	<path id="XMLID_168_" fill="#F8C24D" d="M406.2,490.6h-1.5c-1.2-1.9-3.2-3.8-5.8-5.3c-9.8-5.7-25.7-5.7-35.5,0
		c-2.7,1.6-4.6,3.4-5.8,5.3H356v4.9c0,3.7,2.4,7.5,7.3,10.3c9.8,5.7,25.7,5.7,35.5,0c4.9-2.8,7.4-6.6,7.3-10.3h0V490.6z"/>
	<path id="XMLID_167_" fill="#FFD569" d="M398.8,480.5c-9.8-5.7-25.7-5.7-35.5,0c-9.8,5.7-9.8,14.8,0,20.5c9.8,5.7,25.7,5.7,35.5,0
		C408.6,495.3,408.6,486.1,398.8,480.5z"/>
	<path id="XMLID_166_" fill="#FFD569" d="M396.5,499.6c-8.5,4.9-22.4,4.9-30.9,0c-8.5-4.9-8.5-12.9,0-17.9c8.5-4.9,22.4-4.9,30.9,0
		C405.1,486.7,405.1,494.7,396.5,499.6z"/>
	<radialGradient id="XMLID_440_" cx="381.0855" cy="490.7196" r="17.8554" gradientUnits="userSpaceOnUse">
		<stop  offset="0.2742" style="stop-color:#D6D5D5"/>
		<stop  offset="0.3829" style="stop-color:#9E9D9D"/>
		<stop  offset="0.4915" style="stop-color:#6E6D6D"/>
		<stop  offset="0.5988" style="stop-color:#464646"/>
		<stop  offset="0.7039" style="stop-color:#282727"/>
		<stop  offset="0.8062" style="stop-color:#121212"/>
		<stop  offset="0.9044" style="stop-color:#040404"/>
		<stop  offset="0.994" style="stop-color:#000000"/>
	</radialGradient>
	<path id="XMLID_165_" opacity="0.5" fill="url(#XMLID_440_)" d="M396.5,499.6c-8.5,4.9-22.4,4.9-30.9,0c-8.5-4.9-8.5-12.9,0-17.9
		c8.5-4.9,22.4-4.9,30.9,0C405.1,486.7,405.1,494.7,396.5,499.6z"/>
	<g id="XMLID_162_">
		<path id="XMLID_163_" fill="#F8C24D" d="M369.1,490.1l-1.7,0l0-1.8l1.7,0c0.6-1.5,2.6-2.3,5.8-2.2l0.7,0l0,2l-1,0
			c-1.7,0-2.3,0.4-2.3,1c0,0.7,0.6,1.1,2.3,1.1c1.7,0,2.9-0.3,4.9-1.8c2.5-1.7,4.3-2.3,7-2.3c3.2,0.1,5.2,0.9,5.7,2.4l1.7,0l0,1.8
			l-1.7,0c-0.6,1.5-2.6,2.3-5.8,2.2l-1.6,0l0-2l1.8,0c1.7,0,2.3-0.4,2.3-1.1c0-0.7-0.6-1.1-2.3-1.2c-1.7,0-2.9,0.3-4.9,1.8
			c-2.4,1.7-4.3,2.3-7,2.3C371.6,492.4,369.6,491.6,369.1,490.1z"/>
	</g>
	<g id="XMLID_159_">
		<path id="XMLID_160_" fill="#F8C24D" d="M369.1,491.1l-1.7,0l0-1.8l1.7,0c0.6-1.5,2.6-2.3,5.8-2.2l0.7,0l0,2l-1,0
			c-1.7,0-2.3,0.4-2.3,1c0,0.7,0.6,1.1,2.3,1.1c1.7,0,2.9-0.3,4.9-1.8c2.5-1.7,4.3-2.3,7-2.3c3.2,0.1,5.2,0.9,5.7,2.4l1.7,0l0,1.8
			l-1.7,0c-0.6,1.5-2.6,2.3-5.8,2.2l-1.6,0l0-2l1.8,0c1.7,0,2.3-0.4,2.3-1.1c0-0.7-0.6-1.1-2.3-1.2c-1.7,0-2.9,0.3-4.9,1.8
			c-2.4,1.7-4.3,2.3-7,2.3C371.6,493.4,369.6,492.6,369.1,491.1z"/>
	</g>
	<path id="XMLID_158_" fill="#F8C24D" d="M406.2,483.6h-1.5c-1.2-1.9-3.2-3.8-5.8-5.3c-9.8-5.7-25.7-5.7-35.5,0
		c-2.7,1.6-4.6,3.4-5.8,5.3H356v4.9c0,3.7,2.4,7.5,7.3,10.3c9.8,5.7,25.7,5.7,35.5,0c4.9-2.8,7.4-6.6,7.3-10.3h0V483.6z"/>
	<path id="XMLID_157_" fill="#FFD569" d="M398.8,473.5c-9.8-5.7-25.7-5.7-35.5,0c-9.8,5.7-9.8,14.8,0,20.5c9.8,5.7,25.7,5.7,35.5,0
		C408.6,488.3,408.6,479.1,398.8,473.5z"/>
	<path id="XMLID_156_" fill="#FFD569" d="M396.5,492.6c-8.5,4.9-22.4,4.9-30.9,0c-8.5-4.9-8.5-12.9,0-17.9c8.5-4.9,22.4-4.9,30.9,0
		C405.1,479.7,405.1,487.7,396.5,492.6z"/>
	<radialGradient id="XMLID_441_" cx="381.0855" cy="483.7196" r="17.8554" gradientUnits="userSpaceOnUse">
		<stop  offset="0.2742" style="stop-color:#D6D5D5"/>
		<stop  offset="0.3829" style="stop-color:#9E9D9D"/>
		<stop  offset="0.4915" style="stop-color:#6E6D6D"/>
		<stop  offset="0.5988" style="stop-color:#464646"/>
		<stop  offset="0.7039" style="stop-color:#282727"/>
		<stop  offset="0.8062" style="stop-color:#121212"/>
		<stop  offset="0.9044" style="stop-color:#040404"/>
		<stop  offset="0.994" style="stop-color:#000000"/>
	</radialGradient>
	<path id="XMLID_155_" opacity="0.5" fill="url(#XMLID_441_)" d="M396.5,492.6c-8.5,4.9-22.4,4.9-30.9,0c-8.5-4.9-8.5-12.9,0-17.9
		c8.5-4.9,22.4-4.9,30.9,0C405.1,479.7,405.1,487.7,396.5,492.6z"/>
	<g id="XMLID_152_">
		<path id="XMLID_153_" fill="#F8C24D" d="M369.1,483.1l-1.7,0l0-1.8l1.7,0c0.6-1.5,2.6-2.3,5.8-2.2l0.7,0l0,2l-1,0
			c-1.7,0-2.3,0.4-2.3,1c0,0.7,0.6,1.1,2.3,1.1c1.7,0,2.9-0.3,4.9-1.8c2.5-1.7,4.3-2.3,7-2.3c3.2,0.1,5.2,0.9,5.7,2.4l1.7,0l0,1.8
			l-1.7,0c-0.6,1.5-2.6,2.3-5.8,2.2l-1.6,0l0-2l1.8,0c1.7,0,2.3-0.4,2.3-1.1c0-0.7-0.6-1.1-2.3-1.2c-1.7,0-2.9,0.3-4.9,1.8
			c-2.4,1.7-4.3,2.3-7,2.3C371.6,485.4,369.6,484.6,369.1,483.1z"/>
	</g>
	<g id="XMLID_149_">
		<path id="XMLID_150_" fill="#F8C24D" d="M369.1,484.1l-1.7,0l0-1.8l1.7,0c0.6-1.5,2.6-2.3,5.8-2.2l0.7,0l0,2l-1,0
			c-1.7,0-2.3,0.4-2.3,1c0,0.7,0.6,1.1,2.3,1.1c1.7,0,2.9-0.3,4.9-1.8c2.5-1.7,4.3-2.3,7-2.3c3.2,0.1,5.2,0.9,5.7,2.4l1.7,0l0,1.8
			l-1.7,0c-0.6,1.5-2.6,2.3-5.8,2.2l-1.6,0l0-2l1.8,0c1.7,0,2.3-0.4,2.3-1.1c0-0.7-0.6-1.1-2.3-1.2c-1.7,0-2.9,0.3-4.9,1.8
			c-2.4,1.7-4.3,2.3-7,2.3C371.6,486.4,369.6,485.6,369.1,484.1z"/>
	</g>
	<path id="XMLID_148_" fill="#F8C24D" d="M406.2,476.6h-1.5c-1.2-1.9-3.2-3.8-5.8-5.3c-9.8-5.7-25.7-5.7-35.5,0
		c-2.7,1.6-4.6,3.4-5.8,5.3H356v4.9c0,3.7,2.4,7.5,7.3,10.3c9.8,5.7,25.7,5.7,35.5,0c4.9-2.8,7.4-6.6,7.3-10.3h0V476.6z"/>
	<path id="XMLID_147_" fill="#FFD569" d="M398.8,466.5c-9.8-5.7-25.7-5.7-35.5,0c-9.8,5.7-9.8,14.8,0,20.5c9.8,5.7,25.7,5.7,35.5,0
		C408.6,481.3,408.6,472.1,398.8,466.5z"/>
	<path id="XMLID_146_" fill="#FFD569" d="M396.5,485.6c-8.5,4.9-22.4,4.9-30.9,0c-8.5-4.9-8.5-12.9,0-17.9c8.5-4.9,22.4-4.9,30.9,0
		C405.1,472.7,405.1,480.7,396.5,485.6z"/>
	<radialGradient id="XMLID_442_" cx="381.0855" cy="476.7196" r="17.8554" gradientUnits="userSpaceOnUse">
		<stop  offset="0.2742" style="stop-color:#D6D5D5"/>
		<stop  offset="0.3829" style="stop-color:#9E9D9D"/>
		<stop  offset="0.4915" style="stop-color:#6E6D6D"/>
		<stop  offset="0.5988" style="stop-color:#464646"/>
		<stop  offset="0.7039" style="stop-color:#282727"/>
		<stop  offset="0.8062" style="stop-color:#121212"/>
		<stop  offset="0.9044" style="stop-color:#040404"/>
		<stop  offset="0.994" style="stop-color:#000000"/>
	</radialGradient>
	<path id="XMLID_145_" opacity="0.5" fill="url(#XMLID_442_)" d="M396.5,485.6c-8.5,4.9-22.4,4.9-30.9,0c-8.5-4.9-8.5-12.9,0-17.9
		c8.5-4.9,22.4-4.9,30.9,0C405.1,472.7,405.1,480.7,396.5,485.6z"/>
	<g id="XMLID_142_">
		<path id="XMLID_143_" fill="#F8C24D" d="M369.1,476.1l-1.7,0l0-1.8l1.7,0c0.6-1.5,2.6-2.3,5.8-2.2l0.7,0l0,2l-1,0
			c-1.7,0-2.3,0.4-2.3,1c0,0.7,0.6,1.1,2.3,1.1c1.7,0,2.9-0.3,4.9-1.8c2.5-1.7,4.3-2.3,7-2.3c3.2,0.1,5.2,0.9,5.7,2.4l1.7,0l0,1.8
			l-1.7,0c-0.6,1.5-2.6,2.3-5.8,2.2l-1.6,0l0-2l1.8,0c1.7,0,2.3-0.4,2.3-1.1c0-0.7-0.6-1.1-2.3-1.2c-1.7,0-2.9,0.3-4.9,1.8
			c-2.4,1.7-4.3,2.3-7,2.3C371.6,478.4,369.6,477.6,369.1,476.1z"/>
	</g>
	<g id="XMLID_139_">
		<path id="XMLID_140_" fill="#F8C24D" d="M325,527.7l-1.7,0l0-1.8l1.7,0c0.6-1.5,2.6-2.3,5.8-2.2l0.7,0l0,2l-1,0
			c-1.7,0-2.3,0.4-2.3,1c0,0.7,0.6,1.1,2.3,1.1c1.7,0,2.9-0.3,4.9-1.8c2.5-1.7,4.3-2.3,7-2.3c3.2,0.1,5.2,0.9,5.7,2.4l1.7,0l0,1.8
			l-1.7,0c-0.6,1.5-2.6,2.3-5.8,2.2l-1.6,0l0-2l1.8,0c1.7,0,2.3-0.4,2.3-1.1c0-0.7-0.6-1.1-2.3-1.2c-1.7,0-2.9,0.3-4.9,1.8
			c-2.4,1.7-4.3,2.3-7,2.3C327.5,530,325.5,529.2,325,527.7z"/>
	</g>
	<path id="XMLID_138_" fill="#F8C24D" d="M362.1,520.2h-1.5c-1.2-1.9-3.2-3.8-5.8-5.3c-9.8-5.7-25.7-5.7-35.5,0
		c-2.7,1.6-4.6,3.4-5.8,5.3h-1.5v4.9c0,3.7,2.4,7.5,7.3,10.3c9.8,5.7,25.7,5.7,35.5,0c4.9-2.8,7.4-6.6,7.3-10.3h0V520.2z"/>
	<path id="XMLID_130_" fill="#FFD569" d="M354.7,510c-9.8-5.7-25.7-5.7-35.5,0c-9.8,5.7-9.8,14.8,0,20.5c9.8,5.7,25.7,5.7,35.5,0
		C364.5,524.9,364.5,515.7,354.7,510z"/>
	<path id="XMLID_121_" fill="#FFD569" d="M352.5,529.2c-8.5,4.9-22.4,4.9-30.9,0c-8.5-4.9-8.5-12.9,0-17.9c8.5-4.9,22.4-4.9,30.9,0
		C361,516.3,361,524.3,352.5,529.2z"/>
	<radialGradient id="XMLID_443_" cx="337.004" cy="520.282" r="17.8554" gradientUnits="userSpaceOnUse">
		<stop  offset="0.2742" style="stop-color:#D6D5D5"/>
		<stop  offset="0.3829" style="stop-color:#9E9D9D"/>
		<stop  offset="0.4915" style="stop-color:#6E6D6D"/>
		<stop  offset="0.5988" style="stop-color:#464646"/>
		<stop  offset="0.7039" style="stop-color:#282727"/>
		<stop  offset="0.8062" style="stop-color:#121212"/>
		<stop  offset="0.9044" style="stop-color:#040404"/>
		<stop  offset="0.994" style="stop-color:#000000"/>
	</radialGradient>
	<path id="XMLID_116_" opacity="0.5" fill="url(#XMLID_443_)" d="M352.5,529.2c-8.5,4.9-22.4,4.9-30.9,0c-8.5-4.9-8.5-12.9,0-17.9
		c8.5-4.9,22.4-4.9,30.9,0C361,516.3,361,524.3,352.5,529.2z"/>
	<g id="XMLID_94_">
		<path id="XMLID_95_" fill="#F8C24D" d="M325,519.7l-1.7,0l0-1.8l1.7,0c0.6-1.5,2.6-2.3,5.8-2.2l0.7,0l0,2l-1,0
			c-1.7,0-2.3,0.4-2.3,1c0,0.7,0.6,1.1,2.3,1.1c1.7,0,2.9-0.3,4.9-1.8c2.5-1.7,4.3-2.3,7-2.3c3.2,0.1,5.2,0.9,5.7,2.4l1.7,0l0,1.8
			l-1.7,0c-0.6,1.5-2.6,2.3-5.8,2.2l-1.6,0l0-2l1.8,0c1.7,0,2.3-0.4,2.3-1.1c0-0.7-0.6-1.1-2.3-1.2c-1.7,0-2.9,0.3-4.9,1.8
			c-2.4,1.7-4.3,2.3-7,2.3C327.5,522,325.5,521.2,325,519.7z"/>
	</g>
	<g id="XMLID_91_">
		<path id="XMLID_92_" fill="#F8C24D" d="M325,520.7l-1.7,0l0-1.8l1.7,0c0.6-1.5,2.6-2.3,5.8-2.2l0.7,0l0,2l-1,0
			c-1.7,0-2.3,0.4-2.3,1c0,0.7,0.6,1.1,2.3,1.1c1.7,0,2.9-0.3,4.9-1.8c2.5-1.7,4.3-2.3,7-2.3c3.2,0.1,5.2,0.9,5.7,2.4l1.7,0l0,1.8
			l-1.7,0c-0.6,1.5-2.6,2.3-5.8,2.2l-1.6,0l0-2l1.8,0c1.7,0,2.3-0.4,2.3-1.1c0-0.7-0.6-1.1-2.3-1.2c-1.7,0-2.9,0.3-4.9,1.8
			c-2.4,1.7-4.3,2.3-7,2.3C327.5,523,325.5,522.2,325,520.7z"/>
	</g>
	<path id="XMLID_90_" fill="#F8C24D" d="M362.1,513.2h-1.5c-1.2-1.9-3.2-3.8-5.8-5.3c-9.8-5.7-25.7-5.7-35.5,0
		c-2.7,1.6-4.6,3.4-5.8,5.3h-1.5v4.9c0,3.7,2.4,7.5,7.3,10.3c9.8,5.7,25.7,5.7,35.5,0c4.9-2.8,7.4-6.6,7.3-10.3h0V513.2z"/>
	<path id="XMLID_89_" fill="#FFD569" d="M354.7,503c-9.8-5.7-25.7-5.7-35.5,0c-9.8,5.7-9.8,14.8,0,20.5c9.8,5.7,25.7,5.7,35.5,0
		C364.5,517.9,364.5,508.7,354.7,503z"/>
	<path id="XMLID_88_" fill="#FFD569" d="M352.5,522.2c-8.5,4.9-22.4,4.9-30.9,0c-8.5-4.9-8.5-12.9,0-17.9c8.5-4.9,22.4-4.9,30.9,0
		C361,509.3,361,517.3,352.5,522.2z"/>
	<radialGradient id="XMLID_444_" cx="337.004" cy="513.282" r="17.8554" gradientUnits="userSpaceOnUse">
		<stop  offset="0.2742" style="stop-color:#D6D5D5"/>
		<stop  offset="0.3829" style="stop-color:#9E9D9D"/>
		<stop  offset="0.4915" style="stop-color:#6E6D6D"/>
		<stop  offset="0.5988" style="stop-color:#464646"/>
		<stop  offset="0.7039" style="stop-color:#282727"/>
		<stop  offset="0.8062" style="stop-color:#121212"/>
		<stop  offset="0.9044" style="stop-color:#040404"/>
		<stop  offset="0.994" style="stop-color:#000000"/>
	</radialGradient>
	<path id="XMLID_87_" opacity="0.5" fill="url(#XMLID_444_)" d="M352.5,522.2c-8.5,4.9-22.4,4.9-30.9,0c-8.5-4.9-8.5-12.9,0-17.9
		c8.5-4.9,22.4-4.9,30.9,0C361,509.3,361,517.3,352.5,522.2z"/>
	<g id="XMLID_84_">
		<path id="XMLID_85_" fill="#F8C24D" d="M325,512.7l-1.7,0l0-1.8l1.7,0c0.6-1.5,2.6-2.3,5.8-2.2l0.7,0l0,2l-1,0
			c-1.7,0-2.3,0.4-2.3,1c0,0.7,0.6,1.1,2.3,1.1c1.7,0,2.9-0.3,4.9-1.8c2.5-1.7,4.3-2.3,7-2.3c3.2,0.1,5.2,0.9,5.7,2.4l1.7,0l0,1.8
			l-1.7,0c-0.6,1.5-2.6,2.3-5.8,2.2l-1.6,0l0-2l1.8,0c1.7,0,2.3-0.4,2.3-1.1c0-0.7-0.6-1.1-2.3-1.2c-1.7,0-2.9,0.3-4.9,1.8
			c-2.4,1.7-4.3,2.3-7,2.3C327.5,515,325.5,514.2,325,512.7z"/>
	</g>
	<g id="XMLID_81_">
		<path id="XMLID_82_" fill="#F8C24D" d="M325,513.7l-1.7,0l0-1.8l1.7,0c0.6-1.5,2.6-2.3,5.8-2.2l0.7,0l0,2l-1,0
			c-1.7,0-2.3,0.4-2.3,1c0,0.7,0.6,1.1,2.3,1.1c1.7,0,2.9-0.3,4.9-1.8c2.5-1.7,4.3-2.3,7-2.3c3.2,0.1,5.2,0.9,5.7,2.4l1.7,0l0,1.8
			l-1.7,0c-0.6,1.5-2.6,2.3-5.8,2.2l-1.6,0l0-2l1.8,0c1.7,0,2.3-0.4,2.3-1.1c0-0.7-0.6-1.1-2.3-1.2c-1.7,0-2.9,0.3-4.9,1.8
			c-2.4,1.7-4.3,2.3-7,2.3C327.5,516,325.5,515.2,325,513.7z"/>
	</g>
	<path id="XMLID_80_" fill="#F8C24D" d="M362.1,506.2h-1.5c-1.2-1.9-3.2-3.8-5.8-5.3c-9.8-5.7-25.7-5.7-35.5,0
		c-2.7,1.6-4.6,3.4-5.8,5.3h-1.5v4.9c0,3.7,2.4,7.5,7.3,10.3c9.8,5.7,25.7,5.7,35.5,0c4.9-2.8,7.4-6.6,7.3-10.3h0V506.2z"/>
	<path id="XMLID_79_" fill="#FFD569" d="M354.7,496c-9.8-5.7-25.7-5.7-35.5,0c-9.8,5.7-9.8,14.8,0,20.5c9.8,5.7,25.7,5.7,35.5,0
		C364.5,510.9,364.5,501.7,354.7,496z"/>
	<path id="XMLID_78_" fill="#FFD569" d="M352.5,515.2c-8.5,4.9-22.4,4.9-30.9,0c-8.5-4.9-8.5-12.9,0-17.9c8.5-4.9,22.4-4.9,30.9,0
		C361,502.3,361,510.3,352.5,515.2z"/>
	<radialGradient id="XMLID_445_" cx="337.004" cy="506.282" r="17.8554" gradientUnits="userSpaceOnUse">
		<stop  offset="0.2742" style="stop-color:#D6D5D5"/>
		<stop  offset="0.3829" style="stop-color:#9E9D9D"/>
		<stop  offset="0.4915" style="stop-color:#6E6D6D"/>
		<stop  offset="0.5988" style="stop-color:#464646"/>
		<stop  offset="0.7039" style="stop-color:#282727"/>
		<stop  offset="0.8062" style="stop-color:#121212"/>
		<stop  offset="0.9044" style="stop-color:#040404"/>
		<stop  offset="0.994" style="stop-color:#000000"/>
	</radialGradient>
	<path id="XMLID_77_" opacity="0.5" fill="url(#XMLID_445_)" d="M352.5,515.2c-8.5,4.9-22.4,4.9-30.9,0c-8.5-4.9-8.5-12.9,0-17.9
		c8.5-4.9,22.4-4.9,30.9,0C361,502.3,361,510.3,352.5,515.2z"/>
	<g id="XMLID_72_">
		<path id="XMLID_73_" fill="#F8C24D" d="M325,505.7l-1.7,0l0-1.8l1.7,0c0.6-1.5,2.6-2.3,5.8-2.2l0.7,0l0,2l-1,0
			c-1.7,0-2.3,0.4-2.3,1c0,0.7,0.6,1.1,2.3,1.1c1.7,0,2.9-0.3,4.9-1.8c2.5-1.7,4.3-2.3,7-2.3c3.2,0.1,5.2,0.9,5.7,2.4l1.7,0l0,1.8
			l-1.7,0c-0.6,1.5-2.6,2.3-5.8,2.2l-1.6,0l0-2l1.8,0c1.7,0,2.3-0.4,2.3-1.1c0-0.7-0.6-1.1-2.3-1.2c-1.7,0-2.9,0.3-4.9,1.8
			c-2.4,1.7-4.3,2.3-7,2.3C327.5,508,325.5,507.2,325,505.7z"/>
	</g>
	<g id="XMLID_69_">
		<path id="XMLID_70_" fill="#F8C24D" d="M325,506.7l-1.7,0l0-1.8l1.7,0c0.6-1.5,2.6-2.3,5.8-2.2l0.7,0l0,2l-1,0
			c-1.7,0-2.3,0.4-2.3,1c0,0.7,0.6,1.1,2.3,1.1c1.7,0,2.9-0.3,4.9-1.8c2.5-1.7,4.3-2.3,7-2.3c3.2,0.1,5.2,0.9,5.7,2.4l1.7,0l0,1.8
			l-1.7,0c-0.6,1.5-2.6,2.3-5.8,2.2l-1.6,0l0-2l1.8,0c1.7,0,2.3-0.4,2.3-1.1c0-0.7-0.6-1.1-2.3-1.2c-1.7,0-2.9,0.3-4.9,1.8
			c-2.4,1.7-4.3,2.3-7,2.3C327.5,509,325.5,508.2,325,506.7z"/>
	</g>
	<path id="XMLID_68_" fill="#F8C24D" d="M362.1,499.2h-1.5c-1.2-1.9-3.2-3.8-5.8-5.3c-9.8-5.7-25.7-5.7-35.5,0
		c-2.7,1.6-4.6,3.4-5.8,5.3h-1.5v4.9c0,3.7,2.4,7.5,7.3,10.3c9.8,5.7,25.7,5.7,35.5,0c4.9-2.8,7.4-6.6,7.3-10.3h0V499.2z"/>
	<path id="XMLID_67_" fill="#FFD569" d="M354.7,489c-9.8-5.7-25.7-5.7-35.5,0c-9.8,5.7-9.8,14.8,0,20.5c9.8,5.7,25.7,5.7,35.5,0
		C364.5,503.9,364.5,494.7,354.7,489z"/>
	<path id="XMLID_66_" fill="#FFD569" d="M352.5,508.2c-8.5,4.9-22.4,4.9-30.9,0c-8.5-4.9-8.5-12.9,0-17.9c8.5-4.9,22.4-4.9,30.9,0
		C361,495.3,361,503.3,352.5,508.2z"/>
	<radialGradient id="XMLID_446_" cx="337.004" cy="499.282" r="17.8554" gradientUnits="userSpaceOnUse">
		<stop  offset="0.2742" style="stop-color:#D6D5D5"/>
		<stop  offset="0.3829" style="stop-color:#9E9D9D"/>
		<stop  offset="0.4915" style="stop-color:#6E6D6D"/>
		<stop  offset="0.5988" style="stop-color:#464646"/>
		<stop  offset="0.7039" style="stop-color:#282727"/>
		<stop  offset="0.8062" style="stop-color:#121212"/>
		<stop  offset="0.9044" style="stop-color:#040404"/>
		<stop  offset="0.994" style="stop-color:#000000"/>
	</radialGradient>
	<path id="XMLID_65_" opacity="0.5" fill="url(#XMLID_446_)" d="M352.5,508.2c-8.5,4.9-22.4,4.9-30.9,0c-8.5-4.9-8.5-12.9,0-17.9
		c8.5-4.9,22.4-4.9,30.9,0C361,495.3,361,503.3,352.5,508.2z"/>
	<g id="XMLID_30_">
		<path id="XMLID_62_" fill="#F8C24D" d="M325,498.7l-1.7,0l0-1.8l1.7,0c0.6-1.5,2.6-2.3,5.8-2.2l0.7,0l0,2l-1,0
			c-1.7,0-2.3,0.4-2.3,1c0,0.7,0.6,1.1,2.3,1.1c1.7,0,2.9-0.3,4.9-1.8c2.5-1.7,4.3-2.3,7-2.3c3.2,0.1,5.2,0.9,5.7,2.4l1.7,0l0,1.8
			l-1.7,0c-0.6,1.5-2.6,2.3-5.8,2.2l-1.6,0l0-2l1.8,0c1.7,0,2.3-0.4,2.3-1.1c0-0.7-0.6-1.1-2.3-1.2c-1.7,0-2.9,0.3-4.9,1.8
			c-2.4,1.7-4.3,2.3-7,2.3C327.5,501,325.5,500.2,325,498.7z"/>
	</g>
	<g id="XMLID_260_">
		<path id="XMLID_261_" fill="#F8C24D" d="M325,527.7l-1.7,0l0-1.8l1.7,0c0.6-1.5,2.6-2.3,5.8-2.2l0.7,0l0,2l-1,0
			c-1.7,0-2.3,0.4-2.3,1c0,0.7,0.6,1.1,2.3,1.1c1.7,0,2.9-0.3,4.9-1.8c2.5-1.7,4.3-2.3,7-2.3c3.2,0.1,5.2,0.9,5.7,2.4l1.7,0l0,1.8
			l-1.7,0c-0.6,1.5-2.6,2.3-5.8,2.2l-1.6,0l0-2l1.8,0c1.7,0,2.3-0.4,2.3-1.1c0-0.7-0.6-1.1-2.3-1.2c-1.7,0-2.9,0.3-4.9,1.8
			c-2.4,1.7-4.3,2.3-7,2.3C327.5,530,325.5,529.2,325,527.7z"/>
	</g>
	<path id="XMLID_259_" fill="#F8C24D" d="M362.1,520.2h-1.5c-1.2-1.9-3.2-3.8-5.8-5.3c-9.8-5.7-25.7-5.7-35.5,0
		c-2.7,1.6-4.6,3.4-5.8,5.3h-1.5v4.9c0,3.7,2.4,7.5,7.3,10.3c9.8,5.7,25.7,5.7,35.5,0c4.9-2.8,7.4-6.6,7.3-10.3h0V520.2z"/>
	<path id="XMLID_258_" fill="#FFD569" d="M354.7,510c-9.8-5.7-25.7-5.7-35.5,0c-9.8,5.7-9.8,14.8,0,20.5c9.8,5.7,25.7,5.7,35.5,0
		C364.5,524.9,364.5,515.7,354.7,510z"/>
	<path id="XMLID_257_" fill="#FFD569" d="M352.5,529.2c-8.5,4.9-22.4,4.9-30.9,0c-8.5-4.9-8.5-12.9,0-17.9c8.5-4.9,22.4-4.9,30.9,0
		C361,516.3,361,524.3,352.5,529.2z"/>
	<radialGradient id="XMLID_447_" cx="337.004" cy="520.282" r="17.8554" gradientUnits="userSpaceOnUse">
		<stop  offset="0.2742" style="stop-color:#D6D5D5"/>
		<stop  offset="0.3829" style="stop-color:#9E9D9D"/>
		<stop  offset="0.4915" style="stop-color:#6E6D6D"/>
		<stop  offset="0.5988" style="stop-color:#464646"/>
		<stop  offset="0.7039" style="stop-color:#282727"/>
		<stop  offset="0.8062" style="stop-color:#121212"/>
		<stop  offset="0.9044" style="stop-color:#040404"/>
		<stop  offset="0.994" style="stop-color:#000000"/>
	</radialGradient>
	<path id="XMLID_256_" opacity="0.5" fill="url(#XMLID_447_)" d="M352.5,529.2c-8.5,4.9-22.4,4.9-30.9,0c-8.5-4.9-8.5-12.9,0-17.9
		c8.5-4.9,22.4-4.9,30.9,0C361,516.3,361,524.3,352.5,529.2z"/>
	<g id="XMLID_253_">
		<path id="XMLID_254_" fill="#F8C24D" d="M325,519.7l-1.7,0l0-1.8l1.7,0c0.6-1.5,2.6-2.3,5.8-2.2l0.7,0l0,2l-1,0
			c-1.7,0-2.3,0.4-2.3,1c0,0.7,0.6,1.1,2.3,1.1c1.7,0,2.9-0.3,4.9-1.8c2.5-1.7,4.3-2.3,7-2.3c3.2,0.1,5.2,0.9,5.7,2.4l1.7,0l0,1.8
			l-1.7,0c-0.6,1.5-2.6,2.3-5.8,2.2l-1.6,0l0-2l1.8,0c1.7,0,2.3-0.4,2.3-1.1c0-0.7-0.6-1.1-2.3-1.2c-1.7,0-2.9,0.3-4.9,1.8
			c-2.4,1.7-4.3,2.3-7,2.3C327.5,522,325.5,521.2,325,519.7z"/>
	</g>
	<g id="XMLID_250_">
		<path id="XMLID_251_" fill="#F8C24D" d="M325,520.7l-1.7,0l0-1.8l1.7,0c0.6-1.5,2.6-2.3,5.8-2.2l0.7,0l0,2l-1,0
			c-1.7,0-2.3,0.4-2.3,1c0,0.7,0.6,1.1,2.3,1.1c1.7,0,2.9-0.3,4.9-1.8c2.5-1.7,4.3-2.3,7-2.3c3.2,0.1,5.2,0.9,5.7,2.4l1.7,0l0,1.8
			l-1.7,0c-0.6,1.5-2.6,2.3-5.8,2.2l-1.6,0l0-2l1.8,0c1.7,0,2.3-0.4,2.3-1.1c0-0.7-0.6-1.1-2.3-1.2c-1.7,0-2.9,0.3-4.9,1.8
			c-2.4,1.7-4.3,2.3-7,2.3C327.5,523,325.5,522.2,325,520.7z"/>
	</g>
	<path id="XMLID_249_" fill="#F8C24D" d="M362.1,513.2h-1.5c-1.2-1.9-3.2-3.8-5.8-5.3c-9.8-5.7-25.7-5.7-35.5,0
		c-2.7,1.6-4.6,3.4-5.8,5.3h-1.5v4.9c0,3.7,2.4,7.5,7.3,10.3c9.8,5.7,25.7,5.7,35.5,0c4.9-2.8,7.4-6.6,7.3-10.3h0V513.2z"/>
	<path id="XMLID_248_" fill="#FFD569" d="M354.7,503c-9.8-5.7-25.7-5.7-35.5,0c-9.8,5.7-9.8,14.8,0,20.5c9.8,5.7,25.7,5.7,35.5,0
		C364.5,517.9,364.5,508.7,354.7,503z"/>
	<path id="XMLID_247_" fill="#FFD569" d="M352.5,522.2c-8.5,4.9-22.4,4.9-30.9,0c-8.5-4.9-8.5-12.9,0-17.9c8.5-4.9,22.4-4.9,30.9,0
		C361,509.3,361,517.3,352.5,522.2z"/>
	<radialGradient id="XMLID_448_" cx="337.004" cy="513.282" r="17.8554" gradientUnits="userSpaceOnUse">
		<stop  offset="0.2742" style="stop-color:#D6D5D5"/>
		<stop  offset="0.3829" style="stop-color:#9E9D9D"/>
		<stop  offset="0.4915" style="stop-color:#6E6D6D"/>
		<stop  offset="0.5988" style="stop-color:#464646"/>
		<stop  offset="0.7039" style="stop-color:#282727"/>
		<stop  offset="0.8062" style="stop-color:#121212"/>
		<stop  offset="0.9044" style="stop-color:#040404"/>
		<stop  offset="0.994" style="stop-color:#000000"/>
	</radialGradient>
	<path id="XMLID_246_" opacity="0.5" fill="url(#XMLID_448_)" d="M352.5,522.2c-8.5,4.9-22.4,4.9-30.9,0c-8.5-4.9-8.5-12.9,0-17.9
		c8.5-4.9,22.4-4.9,30.9,0C361,509.3,361,517.3,352.5,522.2z"/>
	<g id="XMLID_243_">
		<path id="XMLID_244_" fill="#F8C24D" d="M325,512.7l-1.7,0l0-1.8l1.7,0c0.6-1.5,2.6-2.3,5.8-2.2l0.7,0l0,2l-1,0
			c-1.7,0-2.3,0.4-2.3,1c0,0.7,0.6,1.1,2.3,1.1c1.7,0,2.9-0.3,4.9-1.8c2.5-1.7,4.3-2.3,7-2.3c3.2,0.1,5.2,0.9,5.7,2.4l1.7,0l0,1.8
			l-1.7,0c-0.6,1.5-2.6,2.3-5.8,2.2l-1.6,0l0-2l1.8,0c1.7,0,2.3-0.4,2.3-1.1c0-0.7-0.6-1.1-2.3-1.2c-1.7,0-2.9,0.3-4.9,1.8
			c-2.4,1.7-4.3,2.3-7,2.3C327.5,515,325.5,514.2,325,512.7z"/>
	</g>
	<g id="XMLID_240_">
		<path id="XMLID_241_" fill="#F8C24D" d="M325,513.7l-1.7,0l0-1.8l1.7,0c0.6-1.5,2.6-2.3,5.8-2.2l0.7,0l0,2l-1,0
			c-1.7,0-2.3,0.4-2.3,1c0,0.7,0.6,1.1,2.3,1.1c1.7,0,2.9-0.3,4.9-1.8c2.5-1.7,4.3-2.3,7-2.3c3.2,0.1,5.2,0.9,5.7,2.4l1.7,0l0,1.8
			l-1.7,0c-0.6,1.5-2.6,2.3-5.8,2.2l-1.6,0l0-2l1.8,0c1.7,0,2.3-0.4,2.3-1.1c0-0.7-0.6-1.1-2.3-1.2c-1.7,0-2.9,0.3-4.9,1.8
			c-2.4,1.7-4.3,2.3-7,2.3C327.5,516,325.5,515.2,325,513.7z"/>
	</g>
	<path id="XMLID_239_" fill="#F8C24D" d="M362.1,506.2h-1.5c-1.2-1.9-3.2-3.8-5.8-5.3c-9.8-5.7-25.7-5.7-35.5,0
		c-2.7,1.6-4.6,3.4-5.8,5.3h-1.5v4.9c0,3.7,2.4,7.5,7.3,10.3c9.8,5.7,25.7,5.7,35.5,0c4.9-2.8,7.4-6.6,7.3-10.3h0V506.2z"/>
	<path id="XMLID_238_" fill="#FFD569" d="M354.7,496c-9.8-5.7-25.7-5.7-35.5,0c-9.8,5.7-9.8,14.8,0,20.5c9.8,5.7,25.7,5.7,35.5,0
		C364.5,510.9,364.5,501.7,354.7,496z"/>
	<path id="XMLID_237_" fill="#FFD569" d="M352.5,515.2c-8.5,4.9-22.4,4.9-30.9,0c-8.5-4.9-8.5-12.9,0-17.9c8.5-4.9,22.4-4.9,30.9,0
		C361,502.3,361,510.3,352.5,515.2z"/>
	<radialGradient id="XMLID_449_" cx="337.004" cy="506.282" r="17.8554" gradientUnits="userSpaceOnUse">
		<stop  offset="0.2742" style="stop-color:#D6D5D5"/>
		<stop  offset="0.3829" style="stop-color:#9E9D9D"/>
		<stop  offset="0.4915" style="stop-color:#6E6D6D"/>
		<stop  offset="0.5988" style="stop-color:#464646"/>
		<stop  offset="0.7039" style="stop-color:#282727"/>
		<stop  offset="0.8062" style="stop-color:#121212"/>
		<stop  offset="0.9044" style="stop-color:#040404"/>
		<stop  offset="0.994" style="stop-color:#000000"/>
	</radialGradient>
	<path id="XMLID_236_" opacity="0.5" fill="url(#XMLID_449_)" d="M352.5,515.2c-8.5,4.9-22.4,4.9-30.9,0c-8.5-4.9-8.5-12.9,0-17.9
		c8.5-4.9,22.4-4.9,30.9,0C361,502.3,361,510.3,352.5,515.2z"/>
	<g id="XMLID_233_">
		<path id="XMLID_234_" fill="#F8C24D" d="M325,505.7l-1.7,0l0-1.8l1.7,0c0.6-1.5,2.6-2.3,5.8-2.2l0.7,0l0,2l-1,0
			c-1.7,0-2.3,0.4-2.3,1c0,0.7,0.6,1.1,2.3,1.1c1.7,0,2.9-0.3,4.9-1.8c2.5-1.7,4.3-2.3,7-2.3c3.2,0.1,5.2,0.9,5.7,2.4l1.7,0l0,1.8
			l-1.7,0c-0.6,1.5-2.6,2.3-5.8,2.2l-1.6,0l0-2l1.8,0c1.7,0,2.3-0.4,2.3-1.1c0-0.7-0.6-1.1-2.3-1.2c-1.7,0-2.9,0.3-4.9,1.8
			c-2.4,1.7-4.3,2.3-7,2.3C327.5,508,325.5,507.2,325,505.7z"/>
	</g>
	<g id="XMLID_230_">
		<path id="XMLID_231_" fill="#F8C24D" d="M325,506.7l-1.7,0l0-1.8l1.7,0c0.6-1.5,2.6-2.3,5.8-2.2l0.7,0l0,2l-1,0
			c-1.7,0-2.3,0.4-2.3,1c0,0.7,0.6,1.1,2.3,1.1c1.7,0,2.9-0.3,4.9-1.8c2.5-1.7,4.3-2.3,7-2.3c3.2,0.1,5.2,0.9,5.7,2.4l1.7,0l0,1.8
			l-1.7,0c-0.6,1.5-2.6,2.3-5.8,2.2l-1.6,0l0-2l1.8,0c1.7,0,2.3-0.4,2.3-1.1c0-0.7-0.6-1.1-2.3-1.2c-1.7,0-2.9,0.3-4.9,1.8
			c-2.4,1.7-4.3,2.3-7,2.3C327.5,509,325.5,508.2,325,506.7z"/>
	</g>
	<path id="XMLID_229_" fill="#F8C24D" d="M362.1,499.2h-1.5c-1.2-1.9-3.2-3.8-5.8-5.3c-9.8-5.7-25.7-5.7-35.5,0
		c-2.7,1.6-4.6,3.4-5.8,5.3h-1.5v4.9c0,3.7,2.4,7.5,7.3,10.3c9.8,5.7,25.7,5.7,35.5,0c4.9-2.8,7.4-6.6,7.3-10.3h0V499.2z"/>
	<path id="XMLID_228_" fill="#FFD569" d="M354.7,489c-9.8-5.7-25.7-5.7-35.5,0c-9.8,5.7-9.8,14.8,0,20.5c9.8,5.7,25.7,5.7,35.5,0
		C364.5,503.9,364.5,494.7,354.7,489z"/>
	<path id="XMLID_227_" fill="#FFD569" d="M352.5,508.2c-8.5,4.9-22.4,4.9-30.9,0c-8.5-4.9-8.5-12.9,0-17.9c8.5-4.9,22.4-4.9,30.9,0
		C361,495.3,361,503.3,352.5,508.2z"/>
	<radialGradient id="XMLID_450_" cx="337.004" cy="499.282" r="17.8554" gradientUnits="userSpaceOnUse">
		<stop  offset="0.2742" style="stop-color:#D6D5D5"/>
		<stop  offset="0.3829" style="stop-color:#9E9D9D"/>
		<stop  offset="0.4915" style="stop-color:#6E6D6D"/>
		<stop  offset="0.5988" style="stop-color:#464646"/>
		<stop  offset="0.7039" style="stop-color:#282727"/>
		<stop  offset="0.8062" style="stop-color:#121212"/>
		<stop  offset="0.9044" style="stop-color:#040404"/>
		<stop  offset="0.994" style="stop-color:#000000"/>
	</radialGradient>
	<path id="XMLID_226_" opacity="0.5" fill="url(#XMLID_450_)" d="M352.5,508.2c-8.5,4.9-22.4,4.9-30.9,0c-8.5-4.9-8.5-12.9,0-17.9
		c8.5-4.9,22.4-4.9,30.9,0C361,495.3,361,503.3,352.5,508.2z"/>
	<g id="XMLID_223_">
		<path id="XMLID_224_" fill="#F8C24D" d="M325,498.7l-1.7,0l0-1.8l1.7,0c0.6-1.5,2.6-2.3,5.8-2.2l0.7,0l0,2l-1,0
			c-1.7,0-2.3,0.4-2.3,1c0,0.7,0.6,1.1,2.3,1.1c1.7,0,2.9-0.3,4.9-1.8c2.5-1.7,4.3-2.3,7-2.3c3.2,0.1,5.2,0.9,5.7,2.4l1.7,0l0,1.8
			l-1.7,0c-0.6,1.5-2.6,2.3-5.8,2.2l-1.6,0l0-2l1.8,0c1.7,0,2.3-0.4,2.3-1.1c0-0.7-0.6-1.1-2.3-1.2c-1.7,0-2.9,0.3-4.9,1.8
			c-2.4,1.7-4.3,2.3-7,2.3C327.5,501,325.5,500.2,325,498.7z"/>
	</g>
	<g id="XMLID_220_">
		<path id="XMLID_221_" fill="#F8C24D" d="M283.7,552.9l-1.7,0l0-1.8l1.7,0c0.6-1.5,2.6-2.3,5.8-2.2l0.7,0l0,2l-1,0
			c-1.7,0-2.3,0.4-2.3,1c0,0.7,0.6,1.1,2.3,1.1c1.7,0,2.9-0.3,4.9-1.8c2.5-1.7,4.3-2.3,7-2.3c3.2,0.1,5.2,0.9,5.7,2.4l1.7,0l0,1.8
			l-1.7,0c-0.6,1.5-2.6,2.3-5.8,2.2l-1.6,0l0-2l1.8,0c1.7,0,2.3-0.4,2.3-1.1c0-0.7-0.6-1.1-2.3-1.2c-1.7,0-2.9,0.3-4.9,1.8
			c-2.4,1.7-4.3,2.3-7,2.3C286.3,555.2,284.3,554.4,283.7,552.9z"/>
	</g>
	<path id="XMLID_219_" fill="#F8C24D" d="M320.8,545.4h-1.5c-1.2-1.9-3.2-3.8-5.8-5.3c-9.8-5.7-25.7-5.7-35.5,0
		c-2.7,1.6-4.6,3.4-5.8,5.3h-1.5v4.9c0,3.7,2.4,7.5,7.3,10.3c9.8,5.7,25.7,5.7,35.5,0c4.9-2.8,7.4-6.6,7.3-10.3h0V545.4z"/>
	<path id="XMLID_218_" fill="#FFD569" d="M313.5,535.2c-9.8-5.7-25.7-5.7-35.5,0c-9.8,5.7-9.8,14.8,0,20.5c9.8,5.7,25.7,5.7,35.5,0
		C323.3,550.1,323.3,540.9,313.5,535.2z"/>
	<path id="XMLID_217_" fill="#FFD569" d="M311.2,554.4c-8.5,4.9-22.4,4.9-30.9,0c-8.5-4.9-8.5-12.9,0-17.9c8.5-4.9,22.4-4.9,30.9,0
		C319.8,541.5,319.8,549.5,311.2,554.4z"/>
	<radialGradient id="XMLID_451_" cx="295.754" cy="545.4904" r="17.8554" gradientUnits="userSpaceOnUse">
		<stop  offset="0.2742" style="stop-color:#D6D5D5"/>
		<stop  offset="0.3829" style="stop-color:#9E9D9D"/>
		<stop  offset="0.4915" style="stop-color:#6E6D6D"/>
		<stop  offset="0.5988" style="stop-color:#464646"/>
		<stop  offset="0.7039" style="stop-color:#282727"/>
		<stop  offset="0.8062" style="stop-color:#121212"/>
		<stop  offset="0.9044" style="stop-color:#040404"/>
		<stop  offset="0.994" style="stop-color:#000000"/>
	</radialGradient>
	<path id="XMLID_216_" opacity="0.5" fill="url(#XMLID_451_)" d="M311.2,554.4c-8.5,4.9-22.4,4.9-30.9,0c-8.5-4.9-8.5-12.9,0-17.9
		c8.5-4.9,22.4-4.9,30.9,0C319.8,541.5,319.8,549.5,311.2,554.4z"/>
	<g id="XMLID_213_">
		<path id="XMLID_214_" fill="#F8C24D" d="M283.7,544.9l-1.7,0l0-1.8l1.7,0c0.6-1.5,2.6-2.3,5.8-2.2l0.7,0l0,2l-1,0
			c-1.7,0-2.3,0.4-2.3,1c0,0.7,0.6,1.1,2.3,1.1c1.7,0,2.9-0.3,4.9-1.8c2.5-1.7,4.3-2.3,7-2.3c3.2,0.1,5.2,0.9,5.7,2.4l1.7,0l0,1.8
			l-1.7,0c-0.6,1.5-2.6,2.3-5.8,2.2l-1.6,0l0-2l1.8,0c1.7,0,2.3-0.4,2.3-1.1c0-0.7-0.6-1.1-2.3-1.2c-1.7,0-2.9,0.3-4.9,1.8
			c-2.4,1.7-4.3,2.3-7,2.3C286.3,547.2,284.3,546.4,283.7,544.9z"/>
	</g>
	<g id="XMLID_210_">
		<path id="XMLID_211_" fill="#F8C24D" d="M283.7,545.9l-1.7,0l0-1.8l1.7,0c0.6-1.5,2.6-2.3,5.8-2.2l0.7,0l0,2l-1,0
			c-1.7,0-2.3,0.4-2.3,1c0,0.7,0.6,1.1,2.3,1.1c1.7,0,2.9-0.3,4.9-1.8c2.5-1.7,4.3-2.3,7-2.3c3.2,0.1,5.2,0.9,5.7,2.4l1.7,0l0,1.8
			l-1.7,0c-0.6,1.5-2.6,2.3-5.8,2.2l-1.6,0l0-2l1.8,0c1.7,0,2.3-0.4,2.3-1.1c0-0.7-0.6-1.1-2.3-1.2c-1.7,0-2.9,0.3-4.9,1.8
			c-2.4,1.7-4.3,2.3-7,2.3C286.3,548.2,284.3,547.4,283.7,545.9z"/>
	</g>
	<path id="XMLID_209_" fill="#F8C24D" d="M320.8,538.4h-1.5c-1.2-1.9-3.2-3.8-5.8-5.3c-9.8-5.7-25.7-5.7-35.5,0
		c-2.7,1.6-4.6,3.4-5.8,5.3h-1.5v4.9c0,3.7,2.4,7.5,7.3,10.3c9.8,5.7,25.7,5.7,35.5,0c4.9-2.8,7.4-6.6,7.3-10.3h0V538.4z"/>
	<path id="XMLID_208_" fill="#FFD569" d="M313.5,528.2c-9.8-5.7-25.7-5.7-35.5,0c-9.8,5.7-9.8,14.8,0,20.5c9.8,5.7,25.7,5.7,35.5,0
		C323.3,543.1,323.3,533.9,313.5,528.2z"/>
	<path id="XMLID_207_" fill="#FFD569" d="M311.2,547.4c-8.5,4.9-22.4,4.9-30.9,0c-8.5-4.9-8.5-12.9,0-17.9c8.5-4.9,22.4-4.9,30.9,0
		C319.8,534.5,319.8,542.5,311.2,547.4z"/>
	<radialGradient id="XMLID_452_" cx="295.754" cy="538.4904" r="17.8554" gradientUnits="userSpaceOnUse">
		<stop  offset="0.2742" style="stop-color:#D6D5D5"/>
		<stop  offset="0.3829" style="stop-color:#9E9D9D"/>
		<stop  offset="0.4915" style="stop-color:#6E6D6D"/>
		<stop  offset="0.5988" style="stop-color:#464646"/>
		<stop  offset="0.7039" style="stop-color:#282727"/>
		<stop  offset="0.8062" style="stop-color:#121212"/>
		<stop  offset="0.9044" style="stop-color:#040404"/>
		<stop  offset="0.994" style="stop-color:#000000"/>
	</radialGradient>
	<path id="XMLID_206_" opacity="0.5" fill="url(#XMLID_452_)" d="M311.2,547.4c-8.5,4.9-22.4,4.9-30.9,0c-8.5-4.9-8.5-12.9,0-17.9
		c8.5-4.9,22.4-4.9,30.9,0C319.8,534.5,319.8,542.5,311.2,547.4z"/>
	<g id="XMLID_203_">
		<path id="XMLID_204_" fill="#F8C24D" d="M283.7,537.9l-1.7,0l0-1.8l1.7,0c0.6-1.5,2.6-2.3,5.8-2.2l0.7,0l0,2l-1,0
			c-1.7,0-2.3,0.4-2.3,1c0,0.7,0.6,1.1,2.3,1.1c1.7,0,2.9-0.3,4.9-1.8c2.5-1.7,4.3-2.3,7-2.3c3.2,0.1,5.2,0.9,5.7,2.4l1.7,0l0,1.8
			l-1.7,0c-0.6,1.5-2.6,2.3-5.8,2.2l-1.6,0l0-2l1.8,0c1.7,0,2.3-0.4,2.3-1.1c0-0.7-0.6-1.1-2.3-1.2c-1.7,0-2.9,0.3-4.9,1.8
			c-2.4,1.7-4.3,2.3-7,2.3C286.3,540.2,284.3,539.4,283.7,537.9z"/>
	</g>
	<g id="XMLID_200_">
		<path id="XMLID_201_" fill="#F8C24D" d="M283.7,538.9l-1.7,0l0-1.8l1.7,0c0.6-1.5,2.6-2.3,5.8-2.2l0.7,0l0,2l-1,0
			c-1.7,0-2.3,0.4-2.3,1c0,0.7,0.6,1.1,2.3,1.1c1.7,0,2.9-0.3,4.9-1.8c2.5-1.7,4.3-2.3,7-2.3c3.2,0.1,5.2,0.9,5.7,2.4l1.7,0l0,1.8
			l-1.7,0c-0.6,1.5-2.6,2.3-5.8,2.2l-1.6,0l0-2l1.8,0c1.7,0,2.3-0.4,2.3-1.1c0-0.7-0.6-1.1-2.3-1.2c-1.7,0-2.9,0.3-4.9,1.8
			c-2.4,1.7-4.3,2.3-7,2.3C286.3,541.2,284.3,540.4,283.7,538.9z"/>
	</g>
	<path id="XMLID_199_" fill="#F8C24D" d="M320.8,531.4h-1.5c-1.2-1.9-3.2-3.8-5.8-5.3c-9.8-5.7-25.7-5.7-35.5,0
		c-2.7,1.6-4.6,3.4-5.8,5.3h-1.5v4.9c0,3.7,2.4,7.5,7.3,10.3c9.8,5.7,25.7,5.7,35.5,0c4.9-2.8,7.4-6.6,7.3-10.3h0V531.4z"/>
	<path id="XMLID_198_" fill="#FFD569" d="M313.5,521.2c-9.8-5.7-25.7-5.7-35.5,0c-9.8,5.7-9.8,14.8,0,20.5c9.8,5.7,25.7,5.7,35.5,0
		C323.3,536.1,323.3,526.9,313.5,521.2z"/>
	<path id="XMLID_197_" fill="#FFD569" d="M311.2,540.4c-8.5,4.9-22.4,4.9-30.9,0c-8.5-4.9-8.5-12.9,0-17.9c8.5-4.9,22.4-4.9,30.9,0
		C319.8,527.5,319.8,535.5,311.2,540.4z"/>
	<radialGradient id="XMLID_453_" cx="295.754" cy="531.4904" r="17.8554" gradientUnits="userSpaceOnUse">
		<stop  offset="0.2742" style="stop-color:#D6D5D5"/>
		<stop  offset="0.3829" style="stop-color:#9E9D9D"/>
		<stop  offset="0.4915" style="stop-color:#6E6D6D"/>
		<stop  offset="0.5988" style="stop-color:#464646"/>
		<stop  offset="0.7039" style="stop-color:#282727"/>
		<stop  offset="0.8062" style="stop-color:#121212"/>
		<stop  offset="0.9044" style="stop-color:#040404"/>
		<stop  offset="0.994" style="stop-color:#000000"/>
	</radialGradient>
	<path id="XMLID_196_" opacity="0.5" fill="url(#XMLID_453_)" d="M311.2,540.4c-8.5,4.9-22.4,4.9-30.9,0c-8.5-4.9-8.5-12.9,0-17.9
		c8.5-4.9,22.4-4.9,30.9,0C319.8,527.5,319.8,535.5,311.2,540.4z"/>
	<g id="XMLID_193_">
		<path id="XMLID_194_" fill="#F8C24D" d="M283.7,530.9l-1.7,0l0-1.8l1.7,0c0.6-1.5,2.6-2.3,5.8-2.2l0.7,0l0,2l-1,0
			c-1.7,0-2.3,0.4-2.3,1c0,0.7,0.6,1.1,2.3,1.1c1.7,0,2.9-0.3,4.9-1.8c2.5-1.7,4.3-2.3,7-2.3c3.2,0.1,5.2,0.9,5.7,2.4l1.7,0l0,1.8
			l-1.7,0c-0.6,1.5-2.6,2.3-5.8,2.2l-1.6,0l0-2l1.8,0c1.7,0,2.3-0.4,2.3-1.1c0-0.7-0.6-1.1-2.3-1.2c-1.7,0-2.9,0.3-4.9,1.8
			c-2.4,1.7-4.3,2.3-7,2.3C286.3,533.2,284.3,532.4,283.7,530.9z"/>
	</g>
</g>
<g id="Layer_12">
</g>
<g id="Layer_14">
</g>
<g id="Layer_10">
	<g id="XMLID_390_">
		<path id="XMLID_391_" fill="#F8C24D" d="M369.1,477.2l-1.7,0l0-1.8l1.7,0c0.6-1.5,2.6-2.3,5.8-2.2l0.7,0l0,2l-1,0
			c-1.7,0-2.3,0.4-2.3,1c0,0.7,0.6,1.1,2.3,1.1c1.7,0,2.9-0.3,4.9-1.8c2.5-1.7,4.3-2.3,7-2.3c3.2,0.1,5.2,0.9,5.7,2.4l1.7,0l0,1.8
			l-1.7,0c-0.6,1.5-2.6,2.3-5.8,2.2l-1.6,0l0-2l1.8,0c1.7,0,2.3-0.4,2.3-1.1c0-0.7-0.6-1.1-2.3-1.2c-1.7,0-2.9,0.3-4.9,1.8
			c-2.4,1.7-4.3,2.3-7,2.3C371.6,479.5,369.6,478.7,369.1,477.2z"/>
	</g>
	<path id="XMLID_389_" fill="#F8C24D" d="M406.2,469.7h-1.5c-1.2-1.9-3.2-3.8-5.8-5.3c-9.8-5.7-25.7-5.7-35.5,0
		c-2.7,1.6-4.6,3.4-5.8,5.3H356v4.9c0,3.7,2.4,7.5,7.3,10.3c9.8,5.7,25.7,5.7,35.5,0c4.9-2.8,7.4-6.6,7.3-10.3h0V469.7z"/>
	<path id="XMLID_388_" fill="#FFD569" d="M398.8,459.5c-9.8-5.7-25.7-5.7-35.5,0c-9.8,5.7-9.8,14.8,0,20.5c9.8,5.7,25.7,5.7,35.5,0
		C408.6,474.4,408.6,465.2,398.8,459.5z"/>
	<path id="XMLID_387_" fill="#FFD569" d="M396.6,478.7c-8.5,4.9-22.4,4.9-30.9,0c-8.5-4.9-8.5-12.9,0-17.9c8.5-4.9,22.4-4.9,30.9,0
		C405.1,465.8,405.1,473.8,396.6,478.7z"/>
	<radialGradient id="XMLID_454_" cx="381.0945" cy="469.7761" r="17.8554" gradientUnits="userSpaceOnUse">
		<stop  offset="0.2742" style="stop-color:#D6D5D5"/>
		<stop  offset="0.3829" style="stop-color:#9E9D9D"/>
		<stop  offset="0.4915" style="stop-color:#6E6D6D"/>
		<stop  offset="0.5988" style="stop-color:#464646"/>
		<stop  offset="0.7039" style="stop-color:#282727"/>
		<stop  offset="0.8062" style="stop-color:#121212"/>
		<stop  offset="0.9044" style="stop-color:#040404"/>
		<stop  offset="0.994" style="stop-color:#000000"/>
	</radialGradient>
	<path id="XMLID_386_" opacity="0.5" fill="url(#XMLID_454_)" d="M396.6,478.7c-8.5,4.9-22.4,4.9-30.9,0c-8.5-4.9-8.5-12.9,0-17.9
		c8.5-4.9,22.4-4.9,30.9,0C405.1,465.8,405.1,473.8,396.6,478.7z"/>
	<g id="XMLID_383_">
		<path id="XMLID_384_" fill="#F8C24D" d="M369.1,469.2l-1.7,0l0-1.8l1.7,0c0.6-1.5,2.6-2.3,5.8-2.2l0.7,0l0,2l-1,0
			c-1.7,0-2.3,0.4-2.3,1c0,0.7,0.6,1.1,2.3,1.1c1.7,0,2.9-0.3,4.9-1.8c2.5-1.7,4.3-2.3,7-2.3c3.2,0.1,5.2,0.9,5.7,2.4l1.7,0l0,1.8
			l-1.7,0c-0.6,1.5-2.6,2.3-5.8,2.2l-1.6,0l0-2l1.8,0c1.7,0,2.3-0.4,2.3-1.1c0-0.7-0.6-1.1-2.3-1.2c-1.7,0-2.9,0.3-4.9,1.8
			c-2.4,1.7-4.3,2.3-7,2.3C371.6,471.5,369.6,470.7,369.1,469.2z"/>
	</g>
	<g id="XMLID_380_">
		<path id="XMLID_381_" fill="#F8C24D" d="M369.1,470.2l-1.7,0l0-1.8l1.7,0c0.6-1.5,2.6-2.3,5.8-2.2l0.7,0l0,2l-1,0
			c-1.7,0-2.3,0.4-2.3,1c0,0.7,0.6,1.1,2.3,1.1c1.7,0,2.9-0.3,4.9-1.8c2.5-1.7,4.3-2.3,7-2.3c3.2,0.1,5.2,0.9,5.7,2.4l1.7,0l0,1.8
			l-1.7,0c-0.6,1.5-2.6,2.3-5.8,2.2l-1.6,0l0-2l1.8,0c1.7,0,2.3-0.4,2.3-1.1c0-0.7-0.6-1.1-2.3-1.2c-1.7,0-2.9,0.3-4.9,1.8
			c-2.4,1.7-4.3,2.3-7,2.3C371.6,472.5,369.6,471.7,369.1,470.2z"/>
	</g>
	<path id="XMLID_379_" fill="#F8C24D" d="M406.2,462.7h-1.5c-1.2-1.9-3.2-3.8-5.8-5.3c-9.8-5.7-25.7-5.7-35.5,0
		c-2.7,1.6-4.6,3.4-5.8,5.3H356v4.9c0,3.7,2.4,7.5,7.3,10.3c9.8,5.7,25.7,5.7,35.5,0c4.9-2.8,7.4-6.6,7.3-10.3h0V462.7z"/>
	<path id="XMLID_378_" fill="#FFD569" d="M398.8,452.5c-9.8-5.7-25.7-5.7-35.5,0c-9.8,5.7-9.8,14.8,0,20.5c9.8,5.7,25.7,5.7,35.5,0
		C408.6,467.4,408.6,458.2,398.8,452.5z"/>
	<path id="XMLID_377_" fill="#FFD569" d="M396.6,471.7c-8.5,4.9-22.4,4.9-30.9,0c-8.5-4.9-8.5-12.9,0-17.9c8.5-4.9,22.4-4.9,30.9,0
		C405.1,458.8,405.1,466.8,396.6,471.7z"/>
	<radialGradient id="XMLID_455_" cx="381.0945" cy="462.7761" r="17.8554" gradientUnits="userSpaceOnUse">
		<stop  offset="0.2742" style="stop-color:#D6D5D5"/>
		<stop  offset="0.3829" style="stop-color:#9E9D9D"/>
		<stop  offset="0.4915" style="stop-color:#6E6D6D"/>
		<stop  offset="0.5988" style="stop-color:#464646"/>
		<stop  offset="0.7039" style="stop-color:#282727"/>
		<stop  offset="0.8062" style="stop-color:#121212"/>
		<stop  offset="0.9044" style="stop-color:#040404"/>
		<stop  offset="0.994" style="stop-color:#000000"/>
	</radialGradient>
	<path id="XMLID_376_" opacity="0.5" fill="url(#XMLID_455_)" d="M396.6,471.7c-8.5,4.9-22.4,4.9-30.9,0c-8.5-4.9-8.5-12.9,0-17.9
		c8.5-4.9,22.4-4.9,30.9,0C405.1,458.8,405.1,466.8,396.6,471.7z"/>
	<g id="XMLID_373_">
		<path id="XMLID_374_" fill="#F8C24D" d="M369.1,462.2l-1.7,0l0-1.8l1.7,0c0.6-1.5,2.6-2.3,5.8-2.2l0.7,0l0,2l-1,0
			c-1.7,0-2.3,0.4-2.3,1c0,0.7,0.6,1.1,2.3,1.1c1.7,0,2.9-0.3,4.9-1.8c2.5-1.7,4.3-2.3,7-2.3c3.2,0.1,5.2,0.9,5.7,2.4l1.7,0l0,1.8
			l-1.7,0c-0.6,1.5-2.6,2.3-5.8,2.2l-1.6,0l0-2l1.8,0c1.7,0,2.3-0.4,2.3-1.1c0-0.7-0.6-1.1-2.3-1.2c-1.7,0-2.9,0.3-4.9,1.8
			c-2.4,1.7-4.3,2.3-7,2.3C371.6,464.5,369.6,463.7,369.1,462.2z"/>
	</g>
	<g id="XMLID_370_">
		<path id="XMLID_371_" fill="#F8C24D" d="M369.1,463.2l-1.7,0l0-1.8l1.7,0c0.6-1.5,2.6-2.3,5.8-2.2l0.7,0l0,2l-1,0
			c-1.7,0-2.3,0.4-2.3,1c0,0.7,0.6,1.1,2.3,1.1c1.7,0,2.9-0.3,4.9-1.8c2.5-1.7,4.3-2.3,7-2.3c3.2,0.1,5.2,0.9,5.7,2.4l1.7,0l0,1.8
			l-1.7,0c-0.6,1.5-2.6,2.3-5.8,2.2l-1.6,0l0-2l1.8,0c1.7,0,2.3-0.4,2.3-1.1c0-0.7-0.6-1.1-2.3-1.2c-1.7,0-2.9,0.3-4.9,1.8
			c-2.4,1.7-4.3,2.3-7,2.3C371.6,465.5,369.6,464.7,369.1,463.2z"/>
	</g>
	<path id="XMLID_369_" fill="#F8C24D" d="M406.2,455.7h-1.5c-1.2-1.9-3.2-3.8-5.8-5.3c-9.8-5.7-25.7-5.7-35.5,0
		c-2.7,1.6-4.6,3.4-5.8,5.3H356v4.9c0,3.7,2.4,7.5,7.3,10.3c9.8,5.7,25.7,5.7,35.5,0c4.9-2.8,7.4-6.6,7.3-10.3h0V455.7z"/>
	<path id="XMLID_368_" fill="#FFD569" d="M398.8,445.5c-9.8-5.7-25.7-5.7-35.5,0c-9.8,5.7-9.8,14.8,0,20.5c9.8,5.7,25.7,5.7,35.5,0
		C408.6,460.4,408.6,451.2,398.8,445.5z"/>
	<path id="XMLID_367_" fill="#FFD569" d="M396.6,464.7c-8.5,4.9-22.4,4.9-30.9,0c-8.5-4.9-8.5-12.9,0-17.9c8.5-4.9,22.4-4.9,30.9,0
		C405.1,451.8,405.1,459.8,396.6,464.7z"/>
	<radialGradient id="XMLID_456_" cx="381.0945" cy="455.7761" r="17.8554" gradientUnits="userSpaceOnUse">
		<stop  offset="0.2742" style="stop-color:#D6D5D5"/>
		<stop  offset="0.3829" style="stop-color:#9E9D9D"/>
		<stop  offset="0.4915" style="stop-color:#6E6D6D"/>
		<stop  offset="0.5988" style="stop-color:#464646"/>
		<stop  offset="0.7039" style="stop-color:#282727"/>
		<stop  offset="0.8062" style="stop-color:#121212"/>
		<stop  offset="0.9044" style="stop-color:#040404"/>
		<stop  offset="0.994" style="stop-color:#000000"/>
	</radialGradient>
	<path id="XMLID_366_" opacity="0.5" fill="url(#XMLID_456_)" d="M396.6,464.7c-8.5,4.9-22.4,4.9-30.9,0c-8.5-4.9-8.5-12.9,0-17.9
		c8.5-4.9,22.4-4.9,30.9,0C405.1,451.8,405.1,459.8,396.6,464.7z"/>
	<g id="XMLID_363_">
		<path id="XMLID_364_" fill="#F8C24D" d="M369.1,455.2l-1.7,0l0-1.8l1.7,0c0.6-1.5,2.6-2.3,5.8-2.2l0.7,0l0,2l-1,0
			c-1.7,0-2.3,0.4-2.3,1c0,0.7,0.6,1.1,2.3,1.1c1.7,0,2.9-0.3,4.9-1.8c2.5-1.7,4.3-2.3,7-2.3c3.2,0.1,5.2,0.9,5.7,2.4l1.7,0l0,1.8
			l-1.7,0c-0.6,1.5-2.6,2.3-5.8,2.2l-1.6,0l0-2l1.8,0c1.7,0,2.3-0.4,2.3-1.1c0-0.7-0.6-1.1-2.3-1.2c-1.7,0-2.9,0.3-4.9,1.8
			c-2.4,1.7-4.3,2.3-7,2.3C371.6,457.5,369.6,456.7,369.1,455.2z"/>
	</g>
	<g id="XMLID_360_">
		<path id="XMLID_361_" fill="#F8C24D" d="M369.1,456.2l-1.7,0l0-1.8l1.7,0c0.6-1.5,2.6-2.3,5.8-2.2l0.7,0l0,2l-1,0
			c-1.7,0-2.3,0.4-2.3,1c0,0.7,0.6,1.1,2.3,1.1c1.7,0,2.9-0.3,4.9-1.8c2.5-1.7,4.3-2.3,7-2.3c3.2,0.1,5.2,0.9,5.7,2.4l1.7,0l0,1.8
			l-1.7,0c-0.6,1.5-2.6,2.3-5.8,2.2l-1.6,0l0-2l1.8,0c1.7,0,2.3-0.4,2.3-1.1c0-0.7-0.6-1.1-2.3-1.2c-1.7,0-2.9,0.3-4.9,1.8
			c-2.4,1.7-4.3,2.3-7,2.3C371.6,458.5,369.6,457.7,369.1,456.2z"/>
	</g>
	<path id="XMLID_359_" fill="#F8C24D" d="M406.2,448.7h-1.5c-1.2-1.9-3.2-3.8-5.8-5.3c-9.8-5.7-25.7-5.7-35.5,0
		c-2.7,1.6-4.6,3.4-5.8,5.3H356v4.9c0,3.7,2.4,7.5,7.3,10.3c9.8,5.7,25.7,5.7,35.5,0c4.9-2.8,7.4-6.6,7.3-10.3h0V448.7z"/>
	<path id="XMLID_358_" fill="#FFD569" d="M398.8,438.5c-9.8-5.7-25.7-5.7-35.5,0c-9.8,5.7-9.8,14.8,0,20.5c9.8,5.7,25.7,5.7,35.5,0
		C408.6,453.4,408.6,444.2,398.8,438.5z"/>
	<path id="XMLID_357_" fill="#FFD569" d="M396.6,457.7c-8.5,4.9-22.4,4.9-30.9,0c-8.5-4.9-8.5-12.9,0-17.9c8.5-4.9,22.4-4.9,30.9,0
		C405.1,444.8,405.1,452.8,396.6,457.7z"/>
	<radialGradient id="XMLID_457_" cx="381.0945" cy="448.7761" r="17.8554" gradientUnits="userSpaceOnUse">
		<stop  offset="0.2742" style="stop-color:#D6D5D5"/>
		<stop  offset="0.3829" style="stop-color:#9E9D9D"/>
		<stop  offset="0.4915" style="stop-color:#6E6D6D"/>
		<stop  offset="0.5988" style="stop-color:#464646"/>
		<stop  offset="0.7039" style="stop-color:#282727"/>
		<stop  offset="0.8062" style="stop-color:#121212"/>
		<stop  offset="0.9044" style="stop-color:#040404"/>
		<stop  offset="0.994" style="stop-color:#000000"/>
	</radialGradient>
	<path id="XMLID_356_" opacity="0.5" fill="url(#XMLID_457_)" d="M396.6,457.7c-8.5,4.9-22.4,4.9-30.9,0c-8.5-4.9-8.5-12.9,0-17.9
		c8.5-4.9,22.4-4.9,30.9,0C405.1,444.8,405.1,452.8,396.6,457.7z"/>
	<g id="XMLID_353_">
		<path id="XMLID_354_" fill="#F8C24D" d="M369.1,448.2l-1.7,0l0-1.8l1.7,0c0.6-1.5,2.6-2.3,5.8-2.2l0.7,0l0,2l-1,0
			c-1.7,0-2.3,0.4-2.3,1c0,0.7,0.6,1.1,2.3,1.1c1.7,0,2.9-0.3,4.9-1.8c2.5-1.7,4.3-2.3,7-2.3c3.2,0.1,5.2,0.9,5.7,2.4l1.7,0l0,1.8
			l-1.7,0c-0.6,1.5-2.6,2.3-5.8,2.2l-1.6,0l0-2l1.8,0c1.7,0,2.3-0.4,2.3-1.1c0-0.7-0.6-1.1-2.3-1.2c-1.7,0-2.9,0.3-4.9,1.8
			c-2.4,1.7-4.3,2.3-7,2.3C371.6,450.5,369.6,449.7,369.1,448.2z"/>
	</g>
	<g id="XMLID_350_">
		<path id="XMLID_351_" fill="#F8C24D" d="M369.1,477.2l-1.7,0l0-1.8l1.7,0c0.6-1.5,2.6-2.3,5.8-2.2l0.7,0l0,2l-1,0
			c-1.7,0-2.3,0.4-2.3,1c0,0.7,0.6,1.1,2.3,1.1c1.7,0,2.9-0.3,4.9-1.8c2.5-1.7,4.3-2.3,7-2.3c3.2,0.1,5.2,0.9,5.7,2.4l1.7,0l0,1.8
			l-1.7,0c-0.6,1.5-2.6,2.3-5.8,2.2l-1.6,0l0-2l1.8,0c1.7,0,2.3-0.4,2.3-1.1c0-0.7-0.6-1.1-2.3-1.2c-1.7,0-2.9,0.3-4.9,1.8
			c-2.4,1.7-4.3,2.3-7,2.3C371.6,479.5,369.6,478.7,369.1,477.2z"/>
	</g>
	<path id="XMLID_349_" fill="#F8C24D" d="M406.2,469.7h-1.5c-1.2-1.9-3.2-3.8-5.8-5.3c-9.8-5.7-25.7-5.7-35.5,0
		c-2.7,1.6-4.6,3.4-5.8,5.3H356v4.9c0,3.7,2.4,7.5,7.3,10.3c9.8,5.7,25.7,5.7,35.5,0c4.9-2.8,7.4-6.6,7.3-10.3h0V469.7z"/>
	<path id="XMLID_348_" fill="#FFD569" d="M398.8,459.5c-9.8-5.7-25.7-5.7-35.5,0c-9.8,5.7-9.8,14.8,0,20.5c9.8,5.7,25.7,5.7,35.5,0
		C408.6,474.4,408.6,465.2,398.8,459.5z"/>
	<path id="XMLID_347_" fill="#FFD569" d="M396.6,478.7c-8.5,4.9-22.4,4.9-30.9,0c-8.5-4.9-8.5-12.9,0-17.9c8.5-4.9,22.4-4.9,30.9,0
		C405.1,465.8,405.1,473.8,396.6,478.7z"/>
	<radialGradient id="XMLID_458_" cx="381.0945" cy="469.7761" r="17.8554" gradientUnits="userSpaceOnUse">
		<stop  offset="0.2742" style="stop-color:#D6D5D5"/>
		<stop  offset="0.3829" style="stop-color:#9E9D9D"/>
		<stop  offset="0.4915" style="stop-color:#6E6D6D"/>
		<stop  offset="0.5988" style="stop-color:#464646"/>
		<stop  offset="0.7039" style="stop-color:#282727"/>
		<stop  offset="0.8062" style="stop-color:#121212"/>
		<stop  offset="0.9044" style="stop-color:#040404"/>
		<stop  offset="0.994" style="stop-color:#000000"/>
	</radialGradient>
	<path id="XMLID_346_" opacity="0.5" fill="url(#XMLID_458_)" d="M396.6,478.7c-8.5,4.9-22.4,4.9-30.9,0c-8.5-4.9-8.5-12.9,0-17.9
		c8.5-4.9,22.4-4.9,30.9,0C405.1,465.8,405.1,473.8,396.6,478.7z"/>
	<g id="XMLID_343_">
		<path id="XMLID_344_" fill="#F8C24D" d="M369.1,469.2l-1.7,0l0-1.8l1.7,0c0.6-1.5,2.6-2.3,5.8-2.2l0.7,0l0,2l-1,0
			c-1.7,0-2.3,0.4-2.3,1c0,0.7,0.6,1.1,2.3,1.1c1.7,0,2.9-0.3,4.9-1.8c2.5-1.7,4.3-2.3,7-2.3c3.2,0.1,5.2,0.9,5.7,2.4l1.7,0l0,1.8
			l-1.7,0c-0.6,1.5-2.6,2.3-5.8,2.2l-1.6,0l0-2l1.8,0c1.7,0,2.3-0.4,2.3-1.1c0-0.7-0.6-1.1-2.3-1.2c-1.7,0-2.9,0.3-4.9,1.8
			c-2.4,1.7-4.3,2.3-7,2.3C371.6,471.5,369.6,470.7,369.1,469.2z"/>
	</g>
	<g id="XMLID_340_">
		<path id="XMLID_341_" fill="#F8C24D" d="M369.1,470.2l-1.7,0l0-1.8l1.7,0c0.6-1.5,2.6-2.3,5.8-2.2l0.7,0l0,2l-1,0
			c-1.7,0-2.3,0.4-2.3,1c0,0.7,0.6,1.1,2.3,1.1c1.7,0,2.9-0.3,4.9-1.8c2.5-1.7,4.3-2.3,7-2.3c3.2,0.1,5.2,0.9,5.7,2.4l1.7,0l0,1.8
			l-1.7,0c-0.6,1.5-2.6,2.3-5.8,2.2l-1.6,0l0-2l1.8,0c1.7,0,2.3-0.4,2.3-1.1c0-0.7-0.6-1.1-2.3-1.2c-1.7,0-2.9,0.3-4.9,1.8
			c-2.4,1.7-4.3,2.3-7,2.3C371.6,472.5,369.6,471.7,369.1,470.2z"/>
	</g>
	<path id="XMLID_339_" fill="#F8C24D" d="M406.2,462.7h-1.5c-1.2-1.9-3.2-3.8-5.8-5.3c-9.8-5.7-25.7-5.7-35.5,0
		c-2.7,1.6-4.6,3.4-5.8,5.3H356v4.9c0,3.7,2.4,7.5,7.3,10.3c9.8,5.7,25.7,5.7,35.5,0c4.9-2.8,7.4-6.6,7.3-10.3h0V462.7z"/>
	<path id="XMLID_338_" fill="#FFD569" d="M398.8,452.5c-9.8-5.7-25.7-5.7-35.5,0c-9.8,5.7-9.8,14.8,0,20.5c9.8,5.7,25.7,5.7,35.5,0
		C408.6,467.4,408.6,458.2,398.8,452.5z"/>
	<path id="XMLID_337_" fill="#FFD569" d="M396.6,471.7c-8.5,4.9-22.4,4.9-30.9,0c-8.5-4.9-8.5-12.9,0-17.9c8.5-4.9,22.4-4.9,30.9,0
		C405.1,458.8,405.1,466.8,396.6,471.7z"/>
	<radialGradient id="XMLID_459_" cx="381.0945" cy="462.7761" r="17.8554" gradientUnits="userSpaceOnUse">
		<stop  offset="0.2742" style="stop-color:#D6D5D5"/>
		<stop  offset="0.3829" style="stop-color:#9E9D9D"/>
		<stop  offset="0.4915" style="stop-color:#6E6D6D"/>
		<stop  offset="0.5988" style="stop-color:#464646"/>
		<stop  offset="0.7039" style="stop-color:#282727"/>
		<stop  offset="0.8062" style="stop-color:#121212"/>
		<stop  offset="0.9044" style="stop-color:#040404"/>
		<stop  offset="0.994" style="stop-color:#000000"/>
	</radialGradient>
	<path id="XMLID_336_" opacity="0.5" fill="url(#XMLID_459_)" d="M396.6,471.7c-8.5,4.9-22.4,4.9-30.9,0c-8.5-4.9-8.5-12.9,0-17.9
		c8.5-4.9,22.4-4.9,30.9,0C405.1,458.8,405.1,466.8,396.6,471.7z"/>
	<g id="XMLID_333_">
		<path id="XMLID_334_" fill="#F8C24D" d="M369.1,462.2l-1.7,0l0-1.8l1.7,0c0.6-1.5,2.6-2.3,5.8-2.2l0.7,0l0,2l-1,0
			c-1.7,0-2.3,0.4-2.3,1c0,0.7,0.6,1.1,2.3,1.1c1.7,0,2.9-0.3,4.9-1.8c2.5-1.7,4.3-2.3,7-2.3c3.2,0.1,5.2,0.9,5.7,2.4l1.7,0l0,1.8
			l-1.7,0c-0.6,1.5-2.6,2.3-5.8,2.2l-1.6,0l0-2l1.8,0c1.7,0,2.3-0.4,2.3-1.1c0-0.7-0.6-1.1-2.3-1.2c-1.7,0-2.9,0.3-4.9,1.8
			c-2.4,1.7-4.3,2.3-7,2.3C371.6,464.5,369.6,463.7,369.1,462.2z"/>
	</g>
	<g id="XMLID_330_">
		<path id="XMLID_331_" fill="#F8C24D" d="M369.1,463.2l-1.7,0l0-1.8l1.7,0c0.6-1.5,2.6-2.3,5.8-2.2l0.7,0l0,2l-1,0
			c-1.7,0-2.3,0.4-2.3,1c0,0.7,0.6,1.1,2.3,1.1c1.7,0,2.9-0.3,4.9-1.8c2.5-1.7,4.3-2.3,7-2.3c3.2,0.1,5.2,0.9,5.7,2.4l1.7,0l0,1.8
			l-1.7,0c-0.6,1.5-2.6,2.3-5.8,2.2l-1.6,0l0-2l1.8,0c1.7,0,2.3-0.4,2.3-1.1c0-0.7-0.6-1.1-2.3-1.2c-1.7,0-2.9,0.3-4.9,1.8
			c-2.4,1.7-4.3,2.3-7,2.3C371.6,465.5,369.6,464.7,369.1,463.2z"/>
	</g>
	<path id="XMLID_329_" fill="#F8C24D" d="M406.2,455.7h-1.5c-1.2-1.9-3.2-3.8-5.8-5.3c-9.8-5.7-25.7-5.7-35.5,0
		c-2.7,1.6-4.6,3.4-5.8,5.3H356v4.9c0,3.7,2.4,7.5,7.3,10.3c9.8,5.7,25.7,5.7,35.5,0c4.9-2.8,7.4-6.6,7.3-10.3h0V455.7z"/>
	<path id="XMLID_328_" fill="#FFD569" d="M398.8,445.5c-9.8-5.7-25.7-5.7-35.5,0c-9.8,5.7-9.8,14.8,0,20.5c9.8,5.7,25.7,5.7,35.5,0
		C408.6,460.4,408.6,451.2,398.8,445.5z"/>
	<path id="XMLID_327_" fill="#FFD569" d="M396.6,464.7c-8.5,4.9-22.4,4.9-30.9,0c-8.5-4.9-8.5-12.9,0-17.9c8.5-4.9,22.4-4.9,30.9,0
		C405.1,451.8,405.1,459.8,396.6,464.7z"/>
	<radialGradient id="XMLID_460_" cx="381.0945" cy="455.7761" r="17.8554" gradientUnits="userSpaceOnUse">
		<stop  offset="0.2742" style="stop-color:#D6D5D5"/>
		<stop  offset="0.3829" style="stop-color:#9E9D9D"/>
		<stop  offset="0.4915" style="stop-color:#6E6D6D"/>
		<stop  offset="0.5988" style="stop-color:#464646"/>
		<stop  offset="0.7039" style="stop-color:#282727"/>
		<stop  offset="0.8062" style="stop-color:#121212"/>
		<stop  offset="0.9044" style="stop-color:#040404"/>
		<stop  offset="0.994" style="stop-color:#000000"/>
	</radialGradient>
	<path id="XMLID_326_" opacity="0.5" fill="url(#XMLID_460_)" d="M396.6,464.7c-8.5,4.9-22.4,4.9-30.9,0c-8.5-4.9-8.5-12.9,0-17.9
		c8.5-4.9,22.4-4.9,30.9,0C405.1,451.8,405.1,459.8,396.6,464.7z"/>
	<g id="XMLID_323_">
		<path id="XMLID_324_" fill="#F8C24D" d="M369.1,455.2l-1.7,0l0-1.8l1.7,0c0.6-1.5,2.6-2.3,5.8-2.2l0.7,0l0,2l-1,0
			c-1.7,0-2.3,0.4-2.3,1c0,0.7,0.6,1.1,2.3,1.1c1.7,0,2.9-0.3,4.9-1.8c2.5-1.7,4.3-2.3,7-2.3c3.2,0.1,5.2,0.9,5.7,2.4l1.7,0l0,1.8
			l-1.7,0c-0.6,1.5-2.6,2.3-5.8,2.2l-1.6,0l0-2l1.8,0c1.7,0,2.3-0.4,2.3-1.1c0-0.7-0.6-1.1-2.3-1.2c-1.7,0-2.9,0.3-4.9,1.8
			c-2.4,1.7-4.3,2.3-7,2.3C371.6,457.5,369.6,456.7,369.1,455.2z"/>
	</g>
	<g id="XMLID_320_">
		<path id="XMLID_321_" fill="#F8C24D" d="M369.1,456.2l-1.7,0l0-1.8l1.7,0c0.6-1.5,2.6-2.3,5.8-2.2l0.7,0l0,2l-1,0
			c-1.7,0-2.3,0.4-2.3,1c0,0.7,0.6,1.1,2.3,1.1c1.7,0,2.9-0.3,4.9-1.8c2.5-1.7,4.3-2.3,7-2.3c3.2,0.1,5.2,0.9,5.7,2.4l1.7,0l0,1.8
			l-1.7,0c-0.6,1.5-2.6,2.3-5.8,2.2l-1.6,0l0-2l1.8,0c1.7,0,2.3-0.4,2.3-1.1c0-0.7-0.6-1.1-2.3-1.2c-1.7,0-2.9,0.3-4.9,1.8
			c-2.4,1.7-4.3,2.3-7,2.3C371.6,458.5,369.6,457.7,369.1,456.2z"/>
	</g>
	<path id="XMLID_319_" fill="#F8C24D" d="M406.2,448.7h-1.5c-1.2-1.9-3.2-3.8-5.8-5.3c-9.8-5.7-25.7-5.7-35.5,0
		c-2.7,1.6-4.6,3.4-5.8,5.3H356v4.9c0,3.7,2.4,7.5,7.3,10.3c9.8,5.7,25.7,5.7,35.5,0c4.9-2.8,7.4-6.6,7.3-10.3h0V448.7z"/>
	<path id="XMLID_318_" fill="#FFD569" d="M398.8,438.5c-9.8-5.7-25.7-5.7-35.5,0c-9.8,5.7-9.8,14.8,0,20.5c9.8,5.7,25.7,5.7,35.5,0
		C408.6,453.4,408.6,444.2,398.8,438.5z"/>
	<path id="XMLID_317_" fill="#FFD569" d="M396.6,457.7c-8.5,4.9-22.4,4.9-30.9,0c-8.5-4.9-8.5-12.9,0-17.9c8.5-4.9,22.4-4.9,30.9,0
		C405.1,444.8,405.1,452.8,396.6,457.7z"/>
	<radialGradient id="XMLID_461_" cx="381.0945" cy="448.7761" r="17.8554" gradientUnits="userSpaceOnUse">
		<stop  offset="0.2742" style="stop-color:#D6D5D5"/>
		<stop  offset="0.3829" style="stop-color:#9E9D9D"/>
		<stop  offset="0.4915" style="stop-color:#6E6D6D"/>
		<stop  offset="0.5988" style="stop-color:#464646"/>
		<stop  offset="0.7039" style="stop-color:#282727"/>
		<stop  offset="0.8062" style="stop-color:#121212"/>
		<stop  offset="0.9044" style="stop-color:#040404"/>
		<stop  offset="0.994" style="stop-color:#000000"/>
	</radialGradient>
	<path id="XMLID_316_" opacity="0.5" fill="url(#XMLID_461_)" d="M396.6,457.7c-8.5,4.9-22.4,4.9-30.9,0c-8.5-4.9-8.5-12.9,0-17.9
		c8.5-4.9,22.4-4.9,30.9,0C405.1,444.8,405.1,452.8,396.6,457.7z"/>
	<g id="XMLID_313_">
		<path id="XMLID_314_" fill="#F8C24D" d="M369.1,448.2l-1.7,0l0-1.8l1.7,0c0.6-1.5,2.6-2.3,5.8-2.2l0.7,0l0,2l-1,0
			c-1.7,0-2.3,0.4-2.3,1c0,0.7,0.6,1.1,2.3,1.1c1.7,0,2.9-0.3,4.9-1.8c2.5-1.7,4.3-2.3,7-2.3c3.2,0.1,5.2,0.9,5.7,2.4l1.7,0l0,1.8
			l-1.7,0c-0.6,1.5-2.6,2.3-5.8,2.2l-1.6,0l0-2l1.8,0c1.7,0,2.3-0.4,2.3-1.1c0-0.7-0.6-1.1-2.3-1.2c-1.7,0-2.9,0.3-4.9,1.8
			c-2.4,1.7-4.3,2.3-7,2.3C371.6,450.5,369.6,449.7,369.1,448.2z"/>
	</g>
</g>
<g id="OBJECTS" display="none">
	<g id="XMLID_123_" display="inline">
		<g id="XMLID_124_">
			<polygon id="XMLID_128_" fill="#009BDB" points="418.6,281 373.2,254.8 418.6,228.6 464,254.8 			"/>
			<radialGradient id="XMLID_462_" cx="418.6151" cy="254.7537" r="37.0524" gradientUnits="userSpaceOnUse">
				<stop  offset="0.2742" style="stop-color:#D6D5D5"/>
				<stop  offset="0.412" style="stop-color:#9C9B9B"/>
				<stop  offset="0.5593" style="stop-color:#656464"/>
				<stop  offset="0.6964" style="stop-color:#393939"/>
				<stop  offset="0.8189" style="stop-color:#1A1A1A"/>
				<stop  offset="0.9222" style="stop-color:#070707"/>
				<stop  offset="0.994" style="stop-color:#000000"/>
			</radialGradient>
			<polygon id="XMLID_4_" opacity="0.5" fill="url(#XMLID_462_)" points="418.6,281 373.2,254.8 418.6,228.6 464,254.8 			"/>
			<polygon id="XMLID_10_" opacity="0.5" fill="#009BDB" points="418.6,270 373.2,243.8 418.6,217.6 464,243.8 			"/>
			<polygon id="XMLID_14_" opacity="0.5" fill="#009BDB" points="418.6,259 373.2,232.8 418.6,206.6 464,232.8 			"/>
			<polygon id="XMLID_127_" fill="#FFFFFF" points="418.6,279.9 374.2,254.2 373.2,254.8 418.6,281 464,254.8 463.1,254.2 			"/>
			<polygon id="XMLID_126_" fill="#009BDB" points="464,406.8 418.6,433 418.6,281 464,254.8 			"/>
			<polygon id="XMLID_125_" fill="#009BDB" points="418.6,433 373.2,406.8 373.2,254.8 418.6,281 			"/>
			<polygon id="XMLID_5_" opacity="0.2" points="418.6,433 373.2,406.8 373.2,254.8 418.6,281 			"/>
		</g>
	</g>
	<g id="XMLID_117_" display="inline">
		<polygon id="XMLID_122_" fill="#009BDB" points="359.4,359.5 314,333.3 359.4,307.1 404.8,333.3 		"/>
		<radialGradient id="XMLID_463_" cx="359.3747" cy="333.2585" r="37.0524" gradientUnits="userSpaceOnUse">
			<stop  offset="0.2742" style="stop-color:#D6D5D5"/>
			<stop  offset="0.412" style="stop-color:#9C9B9B"/>
			<stop  offset="0.5593" style="stop-color:#656464"/>
			<stop  offset="0.6964" style="stop-color:#393939"/>
			<stop  offset="0.8189" style="stop-color:#1A1A1A"/>
			<stop  offset="0.9222" style="stop-color:#070707"/>
			<stop  offset="0.994" style="stop-color:#000000"/>
		</radialGradient>
		<polygon id="XMLID_12_" opacity="0.5" fill="url(#XMLID_463_)" points="359.4,359.5 314,333.3 359.4,307.1 404.8,333.3 		"/>
		<polygon id="XMLID_13_" opacity="0.5" fill="#009BDB" points="359.4,348.5 314,322.3 359.4,296.1 404.8,322.3 		"/>
		<polygon id="XMLID_120_" fill="#FFFFFF" points="359.4,358.4 314.9,332.7 314,333.3 359.4,359.5 404.8,333.3 403.8,332.7 		"/>
		<polygon id="XMLID_119_" fill="#009BDB" points="404.8,441.1 359.4,467.3 359.4,359.5 404.8,333.3 		"/>
		<polygon id="XMLID_118_" fill="#009BDB" points="359.4,467.3 314,441.1 314,333.3 359.4,359.5 		"/>
		<polygon id="XMLID_11_" opacity="0.2" points="359.4,467.3 314,441.1 314,333.3 359.4,359.5 		"/>
	</g>
	<g id="XMLID_104_" display="inline">
		<polygon id="XMLID_109_" fill="#009BDB" points="300.1,406.8 254.8,380.6 300.1,354.4 345.5,380.6 		"/>
		<radialGradient id="XMLID_464_" cx="300.1356" cy="380.6278" r="37.0524" gradientUnits="userSpaceOnUse">
			<stop  offset="0.2742" style="stop-color:#D6D5D5"/>
			<stop  offset="0.412" style="stop-color:#9C9B9B"/>
			<stop  offset="0.5593" style="stop-color:#656464"/>
			<stop  offset="0.6964" style="stop-color:#393939"/>
			<stop  offset="0.8189" style="stop-color:#1A1A1A"/>
			<stop  offset="0.9222" style="stop-color:#070707"/>
			<stop  offset="0.994" style="stop-color:#000000"/>
		</radialGradient>
		<polygon id="XMLID_15_" opacity="0.5" fill="url(#XMLID_464_)" points="300.1,406.8 254.8,380.6 300.1,354.4 345.5,380.6 		"/>
		<polygon id="XMLID_16_" opacity="0.5" fill="#009BDB" points="300.1,395.9 254.8,369.7 300.1,343.5 345.5,369.7 		"/>
		<polygon id="XMLID_107_" fill="#FFFFFF" points="300.1,405.7 255.7,380.1 254.8,380.6 300.1,406.8 345.5,380.6 344.6,380.1 		"/>
		<polygon id="XMLID_106_" fill="#009BDB" points="345.5,475.4 300.1,501.6 300.1,406.8 345.5,380.6 		"/>
		<polygon id="XMLID_105_" fill="#009BDB" points="300.1,501.6 254.8,475.4 254.8,380.6 300.1,406.8 		"/>
		<polygon id="XMLID_3_" opacity="0.2" points="300.1,501.6 254.8,475.4 254.8,380.6 300.1,406.8 		"/>
	</g>
	<g id="XMLID_1_" display="inline">
		<polygon id="XMLID_9_" fill="#009BDB" points="240.8,474 195.4,447.8 240.8,421.6 286.2,447.8 		"/>
		<radialGradient id="XMLID_465_" cx="240.8141" cy="447.7648" r="37.0524" gradientUnits="userSpaceOnUse">
			<stop  offset="0.2742" style="stop-color:#D6D5D5"/>
			<stop  offset="0.412" style="stop-color:#9C9B9B"/>
			<stop  offset="0.5593" style="stop-color:#656464"/>
			<stop  offset="0.6964" style="stop-color:#393939"/>
			<stop  offset="0.8189" style="stop-color:#1A1A1A"/>
			<stop  offset="0.9222" style="stop-color:#070707"/>
			<stop  offset="0.994" style="stop-color:#000000"/>
		</radialGradient>
		<polygon id="XMLID_18_" opacity="0.5" fill="url(#XMLID_465_)" points="240.8,474 195.4,447.8 240.8,421.6 286.2,447.8 		"/>
		<polygon id="XMLID_19_" opacity="0.5" fill="#009BDB" points="240.8,474 195.4,447.8 240.8,421.6 286.2,447.8 		"/>
		<polygon id="XMLID_20_" opacity="0.5" fill="#009BDB" points="240.8,474 195.4,447.8 240.8,421.6 286.2,447.8 		"/>
		<polygon id="XMLID_8_" fill="#FFFFFF" points="240.8,472.9 196.4,447.2 195.4,447.8 240.8,474 286.2,447.8 285.3,447.2 		"/>
		<polygon id="XMLID_7_" fill="#009BDB" points="286.2,510.3 240.8,536.5 240.8,474 286.2,447.8 		"/>
		<polygon id="XMLID_6_" fill="#009BDB" points="240.8,536.5 195.4,510.3 195.4,447.8 240.8,474 		"/>
		<polygon id="XMLID_17_" opacity="0.2" points="240.8,536.5 195.4,510.3 195.4,447.8 240.8,474 		"/>
	</g>
</g>
<g id="Layer_3" display="none">
	<g id="XMLID_26_" display="inline">
		<g id="XMLID_132_">
			<path id="XMLID_137_" fill="#0C0C0C" d="M325.7,513.9c0,0,3.1,1.8,6.1,1.4c3-0.4,6.8-0.2,7.2,2.3c0.4,2.5-3.4,5.2-7.2,5.8
				c-3.9,0.5-9.9,0.7-9.9,0.7l-0.7,1.2c0,0-6.2,0.9-8.5-0.7c0,0-1.1-3.9,0.7-7.1c0.1-0.1,0.1-0.2,0.2-0.3
				C313.6,517,321.6,519,325.7,513.9z"/>
			<path id="XMLID_136_" fill="#0C0C0C" d="M331.7,439.5c0,0,1,19-2.5,32.1s-3.5,42.3-3.5,42.3s-3.8,7-12,4.8c0,0-1.3-26.5,0-35.6
				c1.3-9-0.5-26.3-3.3-32.8c-2.8-6.5-0.2-12.1-0.2-12.1L331.7,439.5z"/>
			<path id="XMLID_135_" fill="#1E1E1E" d="M345.3,446.3c0,0,1,19-2.5,32.1c-3.5,13-3.5,42.3-3.5,42.3s-3.8,7-12,4.8
				c0,0-1.3-26.5,0-35.6c1.3-9-0.5-26.3-3.3-32.8c-2.8-6.5-2.3-14-2.3-14L345.3,446.3z"/>
			<path id="XMLID_134_" fill="#0C0C0C" d="M339.3,520.7c0,0,3.1,1.8,6.1,1.4c3-0.4,6.8-0.2,7.2,2.3c0.4,2.5-3.4,5.2-7.2,5.8
				c-3.9,0.5-9.9,0.7-9.9,0.7l-0.7,1.2c0,0-6.2,0.9-8.5-0.7c0,0-1.1-3.9,0.7-7.1c0.1-0.1,0.1-0.2,0.2-0.3
				C327.2,523.8,335.2,525.8,339.3,520.7z"/>
		</g>
		<path id="XMLID_131_" fill="#F64444" d="M321.2,378.2c-4.7,0.3-8.2,6.3-9.2,10.4c-0.8,3.1-1.3,7.9-0.5,13
			c2.1,13.7,1.2,12.9-1,26.2c-2.1,12.3-4.8,19-4.8,19s4.9,7.6,36,5.6l4.9-0.6c0.8-0.1,1.3-0.9,1.1-1.6c-1.3-4.3-4.9-17.2-4.9-24.2
			c0-8.5,1.2-23.6-1.4-32.5c-2.7-9-5.7-11.6-8.8-12.7C330.9,380.3,325.8,378,321.2,378.2z"/>
		<path id="XMLID_114_" fill="#FACAA9" d="M303.7,337.8c0,0-1-5.6,1.2-7.3c2.2-1.7,2.9-2.9,4-2.8c1.1,0,4.4-3.8,4.7-1.1
			c0.3,2.7-1.2,4.6-2.3,5.4c-0.8,0.6-0.8,2.6-0.7,3.7c0,0.4-0.1,0.7-0.4,1l-1.7,1.6L303.7,337.8z"/>
		<path id="XMLID_111_" fill="#FACAA9" d="M374.2,354.9c0,0,4.6-3.3,4.3-6.1c-0.4-2.8-0.1-4.1-0.8-4.8c-0.8-0.7-0.5-5.8-2.6-4.1
			c-2.1,1.7-2.4,4.1-2.1,5.4c0.2,1-1.3,2.4-2,3.1c-0.3,0.3-0.4,0.6-0.4,1l0.1,2.4L374.2,354.9z"/>
		<path id="XMLID_102_" fill="#FACAA9" d="M332.1,381.6c0,0-0.3-4.4,0.6-5.7c2.9-4,6.8,1.1,8-8.4c0.3-2.2-0.3-4.4-0.4-6.4
			c-0.3-6.1-1.5-10.9-7.6-11.3c-8.1-0.5-10.8,5.9-10.9,10.2c-0.1,4.2,2.7,14.4,2.7,14.4l-0.4,6.8
			C324.1,381.1,327.4,384.9,332.1,381.6z"/>
		<path id="XMLID_101_" fill="#F64444" d="M322.7,381.3c0,0,3.2,3.8,8.6,1.7c0,0,1.5-0.8,2.9-0.4l-2.2-3.2c0,0-3,1.7-7.9-0.5
			L322.7,381.3z"/>
		<path id="XMLID_100_" opacity="0.1" d="M322.7,381.3c0,0,3.2,3.8,8.6,1.7c0,0,1.5-0.8,2.9-0.4l-2.2-3.2c0,0-3,1.7-7.9-0.5
			L322.7,381.3z"/>
		<path id="XMLID_97_" fill="#FACAA9" d="M339.8,361.9l1.5,4.5c0.3,0.8-0.1,1.6-0.9,1.9l-0.6,0.2V361.9z"/>
		<path id="XMLID_96_" fill="#0C0C0C" d="M340.3,353.6c0,0-3.1,8.5-18.9,4.8c0,0-0.9-5.2,2.8-7.9c3.7-2.7,11.3-2.2,12.5-3.3
			C340.2,344.1,344.5,349.5,340.3,353.6z"/>
		<path id="XMLID_76_" fill="#0C0C0C" d="M321.4,358.4c0,0-0.8,3.6,3.1,15.9l3.5,1.3c2.5,0.2,5.1-4.1,4.8-6.6c0,0,0-0.1,0-0.1
			c-0.4-2.9-1.4-4.9-0.3-6.5c1.1-1.5,1.9,0.1,1.8,2.1l1.2-1c0.3-0.3,0.5-0.6,0.4-1c-0.1-0.9-0.1-2.4,0.5-3.1c1-1,2.8-2.2,2.6-3.8
			C338.8,353.9,321.4,358.4,321.4,358.4z"/>
		<polygon id="XMLID_40_" fill="#FACAA9" points="367,379.3 374.9,353.5 370.7,351.8 361.4,372 		"/>
		<polygon id="XMLID_29_" fill="#FACAA9" points="297.8,364.6 303.7,337.7 308.4,337.8 306.6,360.1 		"/>
		<path id="XMLID_28_" fill="#F64444" d="M337.5,385.1c0,0,14.2,2.8,23.2-13.7c0.8-1.5,2.9-1.7,3.7-0.4c1.4,2.2,3.4,5.6,2.4,9.2
			c-4.4,16.1-28.2,19.7-32.5,29.1S337.5,385.1,337.5,385.1z"/>
		<path id="XMLID_27_" fill="#F64444" d="M321.7,378.6c0,0-11.2,0.9-12.8-8.9c-0.8-5-1.1-8-1.1-9.7c0-1.2-1-2-2.2-1.9
			c-2.7,0.3-6.9,1.1-7.4,2.9c-0.8,2.7-2.6,17.8,13.4,38.1C320.9,411.1,321.7,378.6,321.7,378.6z"/>
	</g>
</g>
<g id="Layer_15">
	<g id="XMLID_1373_">
		
			<linearGradient id="XMLID_466_" gradientUnits="userSpaceOnUse" x1="293.5372" y1="684.0017" x2="389.3729" y2="563.9438" gradientTransform="matrix(0.9959 9.072550e-02 -9.072550e-02 0.9959 34.533 -201.4861)">
			<stop  offset="0" style="stop-color:#3E6EE1"/>
			<stop  offset="0.9792" style="stop-color:#6BBDF6"/>
		</linearGradient>
		<polygon id="XMLID_1380_" fill="url(#XMLID_466_)" points="362.1,403.4 366.4,399.4 361.5,399.4 335.9,415.1 343.1,419.4 
			320.3,453.2 297.5,451.1 258.8,504.8 263.5,508.2 300.3,457.2 323.2,459.3 348.1,422.3 356.1,427.1 360.8,427.3 356.8,424.3 		"/>
		<g id="XMLID_1352_">
			<g id="XMLID_1369_">
				
					<linearGradient id="XMLID_467_" gradientUnits="userSpaceOnUse" x1="291.3238" y1="685.2803" x2="387.1553" y2="571.4402" gradientTransform="matrix(0.9959 9.072550e-02 -9.072550e-02 0.9959 34.533 -201.4861)">
					<stop  offset="0" style="stop-color:#6BBDF6"/>
					<stop  offset="1" style="stop-color:#83E8F7"/>
				</linearGradient>
				<polygon id="XMLID_1371_" fill="url(#XMLID_467_)" points="266.6,510.4 261.9,507 302.2,451.3 324.9,453.4 355.9,407.5 
					360.7,410.7 327.8,459.5 304.9,457.4 				"/>
			</g>
			<g id="XMLID_1370_">
				
					<linearGradient id="XMLID_468_" gradientUnits="userSpaceOnUse" x1="291.9551" y1="685.8118" x2="387.7866" y2="571.9717" gradientTransform="matrix(0.9959 9.072550e-02 -9.072550e-02 0.9959 34.533 -201.4861)">
					<stop  offset="0" style="stop-color:#6BBDF6"/>
					<stop  offset="1" style="stop-color:#83E8F7"/>
				</linearGradient>
				<polygon id="XMLID_1365_" fill="url(#XMLID_468_)" points="366.4,399.4 340.5,415.3 360.8,427.3 				"/>
			</g>
		</g>
		
			<linearGradient id="XMLID_469_" gradientUnits="userSpaceOnUse" x1="360.8227" y1="589.6348" x2="381.4526" y2="563.7907" gradientTransform="matrix(0.9959 9.072550e-02 -9.072550e-02 0.9959 34.533 -201.4861)">
			<stop  offset="0" style="stop-color:#3E6EE1"/>
			<stop  offset="0.9792" style="stop-color:#6BBDF6"/>
		</linearGradient>
		<polygon id="XMLID_1372_" fill="url(#XMLID_469_)" points="340.5,415.3 335.9,415.1 361.5,399.4 366.4,399.4 		"/>
	</g>
</g>
</svg>
