<?xml version="1.0" encoding="utf-8"?>
<!-- Generator: Adobe Illustrator 18.1.1, SVG Export Plug-In . SVG Version: 6.00 Build 0)  -->
<svg version="1.1" xmlns="http://www.w3.org/2000/svg" xmlns:xlink="http://www.w3.org/1999/xlink" x="0px" y="0px"
	 viewBox="0 0 513.1 567.1" enable-background="new 0 0 513.1 567.1" xml:space="preserve">
<g id="Layer_4">
	<g opacity="0.5">
		<path fill="#009BDB" stroke="#009BDB" stroke-width="20" stroke-miterlimit="10" d="M56.7,113c36.8,0,45-17.7,52.4-38.1h32v302.9
			H93.5V146.7H56.7V113z"/>
		<path fill="#009BDB" stroke="#009BDB" stroke-width="20" stroke-miterlimit="10" d="M277,114.7c-15.1,0-24.7,8.2-24.7,29.9V177
			h-45v-29.4c0-48.5,24.2-76.2,71-76.2c46.7,0,71,27.7,71,76.2c0,95.2-94.8,130.7-94.8,180.4c0,2.2,0,4.3,0.4,6.5h90v43.3H207.3
			v-37.2c0-89.1,94.3-103.8,94.3-191.2C301.6,122.1,292.1,114.7,277,114.7z"/>
	</g>
</g>
<g id="OBJECTS">
	<polygon id="XMLID_423_" opacity="0.5" fill="#009BDB" points="277.2,494.1 339.5,457.4 402.3,493.7 339.5,529.6 	"/>
	<polygon id="XMLID_23_" opacity="0.3" fill="#009BDB" points="211.9,531.5 274.2,494.8 337,531.1 274.2,567.1 	"/>
	<polygon id="XMLID_24_" opacity="0.1" fill="#009BDB" points="147.1,493.7 209.3,457 272.2,493.3 209.3,529.2 	"/>
</g>
<g id="Layer_3" display="none">
	<g id="XMLID_8_" display="inline">
		<path id="XMLID_12_" fill="#8CDCF2" d="M317.7,303c0,0,14.9,2.2,17.6,0.5c2.7-1.7,19.5-0.8,23.8-4.6c4.3-3.8,24.5-13.9,27.6-14.8
			c0,0,0.1,0.1-0.4,0.4c-0.5,0.3-2.6,1-2.7,3.6c-0.1,2.6,1.9,5.3,2.3,5.4c0.4,0.1,0.4-0.8,2.3-2.2c1.8-1.4,3.1-1.6,3.1-1.6l1,0.8
			l0.6,0.6c0,0-0.4,3.2-3.1,4c-2.7,0.8-18.8,11.8-19.7,12.5c-5.7,4.3-23.9,9.6-26.4,11.2c-2.6,1.6,5,3.8,5,3.8s-9.9-3.9-10.1-3.8
			C338.2,319,317.7,303,317.7,303z"/>
		<path id="XMLID_15_" opacity="0.1" d="M317.7,303c0,0,14.9,2.2,17.6,0.5c2.7-1.7,19.5-0.8,23.8-4.6c4.3-3.8,24.5-13.9,27.6-14.8
			c0,0,0.1,0.1-0.4,0.4c-0.5,0.3-2.6,1-2.7,3.6c-0.1,2.6,1.9,5.3,2.3,5.4c0.4,0.1,0.4-0.8,2.3-2.2c1.8-1.4,3.1-1.6,3.1-1.6l1,0.8
			l0.6,0.6c0,0-0.4,3.2-3.1,4c-2.7,0.8-18.8,11.8-19.7,12.5c-5.7,4.3-23.9,9.6-26.4,11.2c-2.6,1.6,5,3.8,5,3.8s-9.9-3.9-10.1-3.8
			C338.2,319,317.7,303,317.7,303z"/>
		<path id="XMLID_13_" fill="#FACAA9" d="M407.2,274c-0.8-0.6-8.3,3.4-8.3,3.4s-1.4-0.2-2.8,0.2c-1.3,0.3-4.3,3.9-5.5,4.8
			c-1.1,0.9-4,1.8-4,1.8c-6.8,3,0.3,11.1,0.6,10.9c0.8-0.5,2-0.4,2.8-0.9c1.4-0.8,2.2-2.2,3.4-3.1c1-0.8,2.7-0.4,3.7-1.4
			c0.9-0.9,4-1.9,4.2-1.8c0.2,0.1,0.7,0.2,0.7,0.2s0.4,0.8,1,0.8c0.7,0.1,1-1.6,1.3-1.9c0.2-0.2,1-1,1.1-1.3
			c0.1-0.3-0.3-4.9-0.7-5.7c-0.3-0.8-2.3-1.3-2.3-1.3s4.1-2.4,4.5-2.6C407.3,275.9,408,274.6,407.2,274z M401.1,283.9
			c-0.4,0.2-0.9,0.3-1.4,0.7c-0.5,0.4-1.2,0.9-1.8,0.9c0,0-1.1-1.2-0.6-1.8c0.5-0.6,0.9-1.1,0.9-1.1s1.1-0.4,1-0.6
			c0,0,0.7,0.4,1.3-0.2c0,0,0.9,0.9,1.8,0.6C402.3,282.6,401.5,283.7,401.1,283.9z"/>
	</g>
	<g id="XMLID_496_" display="inline">
		<path id="XMLID_497_" fill="#0C0C0C" d="M331.4,479.4c0,0,4.1,2.4,8.2,1.8c4.1-0.6,9.1-0.3,9.7,3.1c0.6,3.4-4.5,7-9.7,7.7
			c-5.2,0.7-13.3,1-13.3,1l-1,1.5c0,0-8.3,1.3-11.3-1c0,0-1.5-5.2,0.9-9.5c0.1-0.2,0.2-0.3,0.3-0.5
			C315.2,483.6,326,486.2,331.4,479.4z"/>
		<path id="XMLID_495_" fill="#0C0C0C" d="M339.5,379.9c0,0,1.3,25.5-3.4,42.9c-4.7,17.4-4.7,56.6-4.7,56.6s-5,9.4-16.1,6.4
			c0,0-1.7-35.5,0-47.6c1.7-12.1-0.7-35.2-4.4-43.9c-3.7-8.7-0.3-16.2-0.3-16.2L339.5,379.9z"/>
		<path id="XMLID_493_" fill="#1E1E1E" d="M357.7,388.9c0,0,1.3,25.5-3.4,42.9c-4.7,17.4-4.7,56.6-4.7,56.6s-5,9.4-16.1,6.4
			c0,0-1.7-35.5,0-47.6c1.7-12.1-0.7-35.2-4.4-43.9c-3.7-8.7-3-18.8-3-18.8L357.7,388.9z"/>
		<path id="XMLID_494_" fill="#0C0C0C" d="M349.6,488.5c0,0,4.1,2.4,8.2,1.8c4.1-0.6,9.1-0.3,9.7,3.1c0.6,3.4-4.5,7-9.7,7.7
			c-5.2,0.7-13.3,1-13.3,1l-1,1.5c0,0-8.3,1.3-11.3-1c0,0-1.5-5.2,0.9-9.5c0.1-0.2,0.2-0.3,0.3-0.5
			C333.4,492.6,344.2,495.3,349.6,488.5z"/>
	</g>
	<g id="XMLID_519_" display="inline">
		<path id="XMLID_515_" fill="#8CDCF2" d="M325.4,297.8c-6.3,0.3-10.9,8.5-12.3,13.9c-1.1,4.1-1.7,10.6-0.7,17.4
			c2.8,18.4,1.6,17.2-1.3,35.1c-2.8,16.5-6.4,25.5-6.4,25.5s6.6,10.2,48.2,7.5l3.3,3.6l7.8-4.2c0,0-9.6-23.4-9.6-34.7
			c0-11.4,1.7-31.5-1.9-43.5c-3.6-12-7.6-15.5-11.8-17C338.4,300.6,331.6,297.5,325.4,297.8z"/>
		<path id="XMLID_514_" opacity="0.1" d="M341.6,329.3c0,0-6.3,23.7-4.8,43.1c1.5,19.5-0.2,24.5-0.2,24.5l16.4,0.4
			c0,0-12.9-17.4-13.2-25.2C339.5,364.3,338,337.6,341.6,329.3z"/>
		<path id="XMLID_510_" fill="#FACAA9" d="M363.9,396.7c0,0,4.5,5.4,3.7,9.1c-0.9,3.7-0.6,5.4-1.8,6.2c-1.2,0.9-6.8,3.7-9.4,1.1
			c-2.6-2.6,2.8-1.8,3.3-3.6c0.5-1.7-2.8-5-2.8-5v-4L363.9,396.7z"/>
	</g>
	<path id="XMLID_498_" display="inline" fill="#FACAA9" d="M340,302.3c0,0-0.5-5.9,0.8-7.7c3.9-5.4,9.2,1.5,10.8-11.3
		c0.4-2.9-0.4-6-0.6-8.5c-0.4-8.2-2-14.6-10.2-15.2c-10.8-0.7-14.5,8-14.6,13.6c-0.1,5.6,3.5,19.3,3.5,19.3l-0.5,9.1
		C329.3,301.7,333.8,306.7,340,302.3z"/>
	<path id="XMLID_501_" display="inline" fill="#8CDCF2" d="M327.5,301.9c0,0,4.3,5.1,11.5,2.3c0,0,2-1,3.9-0.5l-2.9-4.3
		c0,0-4,2.3-10.5-0.7L327.5,301.9z"/>
	<path id="XMLID_16_" display="inline" opacity="0.1" d="M327.5,301.9c0,0,4.3,5.1,11.5,2.3c0,0,2-1,3.9-0.5l-2.9-4.3
		c0,0-4,2.3-10.5-0.7L327.5,301.9z"/>
	<path id="XMLID_424_" display="inline" fill="#FACAA9" d="M350.3,275.9l2,6c0.4,1-0.2,2.1-1.2,2.5l-0.8,0.3V275.9z"/>
	<path id="XMLID_425_" display="inline" fill="#0C0C0C" d="M351,264.8c0,0-4.2,11.4-25.3,6.4c0,0-1.2-6.9,3.8-10.6
		c5-3.7,15.1-3,16.8-4.5C350.9,252.2,356.6,259.3,351,264.8z"/>
	<path id="XMLID_426_" display="inline" fill="#0C0C0C" d="M325.7,271.3c0,0-1.1,4.9,4.1,21.2l4.7,1.7c3.3,0.3,6.8-5.5,6.4-8.8
		c0,0,0-0.1,0-0.1c-0.6-3.9-1.9-6.6-0.4-8.7c1.5-2.1,2.6,0.1,2.5,2.8l1.6-1.4c0.4-0.3,0.6-0.9,0.6-1.4c-0.1-1.1-0.2-3.2,0.7-4.1
		c1.3-1.3,3.8-3,3.5-5.1C349,265.3,325.7,271.3,325.7,271.3z"/>
</g>
<g id="Layer_5">
	<g id="XMLID_4_">
		<g id="XMLID_96_">
			<g id="XMLID_99_">
				<g id="XMLID_100_" enable-background="new    ">
					<path id="XMLID_105_" fill="none" d="M302,249.4l5.3-3.1c1.3-0.7,3.1-0.6,5,0.5l-5.3,3.1C305.1,248.7,303.3,248.6,302,249.4z"
						/>
					<path id="XMLID_104_" fill="none" d="M498.3,496.9L493,500c1.3-0.7,2.1-2.3,2.1-4.5l5.3-3.1
						C500.3,494.6,499.5,496.1,498.3,496.9z"/>
					<linearGradient id="XMLID_2_" gradientUnits="userSpaceOnUse" x1="537.1395" y1="469.5916" x2="326.075" y2="256.961">
						<stop  offset="0" style="stop-color:#5A61D2"/>
						<stop  offset="0.1831" style="stop-color:#5F66D4"/>
						<stop  offset="0.3991" style="stop-color:#6D73DA"/>
						<stop  offset="0.6315" style="stop-color:#858AE5"/>
						<stop  offset="0.874" style="stop-color:#A6A9F3"/>
						<stop  offset="1" style="stop-color:#BABCFC"/>
					</linearGradient>
					<path id="XMLID_103_" fill="url(#XMLID_2_)" d="M500.7,363.4c0-0.1,0-0.2,0-0.3c0-0.1,0-0.1,0-0.2c0,0,0,0,0-0.1
						c0,0,0-0.1,0-0.1c0-0.1,0-0.2,0-0.3c0-0.1,0-0.2-0.1-0.4c0,0,0,0,0,0c0,0,0,0,0,0c0-0.1,0-0.2-0.1-0.3c0-0.1,0-0.2-0.1-0.4
						c0,0,0-0.1,0-0.1c0,0,0-0.1,0-0.1c0-0.1,0-0.1,0-0.2c0-0.1-0.1-0.3-0.1-0.4c0-0.1-0.1-0.2-0.1-0.3c0,0,0,0,0-0.1c0,0,0,0,0-0.1
						c0-0.1-0.1-0.2-0.1-0.4c0-0.1-0.1-0.2-0.1-0.4c0,0,0,0,0-0.1c0,0,0,0,0-0.1c0-0.1-0.1-0.2-0.1-0.2c0-0.1-0.1-0.2-0.1-0.3
						c0-0.1-0.1-0.2-0.1-0.2c0,0,0,0,0,0c0,0,0,0,0-0.1c-0.1-0.1-0.1-0.2-0.2-0.3c-0.1-0.1-0.1-0.2-0.2-0.4c0,0,0,0,0-0.1
						c0,0,0,0,0-0.1c-0.1-0.1-0.1-0.2-0.2-0.3c-0.1-0.1-0.1-0.2-0.2-0.4c0-0.1-0.1-0.1-0.1-0.2c0,0,0,0,0-0.1
						c-0.1-0.1-0.1-0.2-0.2-0.3c-0.1-0.2-0.2-0.3-0.3-0.5c0,0,0-0.1,0-0.1c-0.1-0.2-0.3-0.4-0.4-0.6c0,0,0,0,0,0c0,0,0,0,0,0
						c-0.1-0.1-0.2-0.3-0.3-0.4c-0.1-0.1-0.2-0.2-0.3-0.3c0,0,0,0,0,0c0,0,0,0,0,0c-0.1-0.1-0.2-0.2-0.3-0.3
						c-0.1-0.1-0.2-0.2-0.3-0.3c0,0,0,0,0,0c0,0,0,0,0,0c-0.1-0.1-0.1-0.1-0.2-0.2c-0.1-0.1-0.2-0.2-0.3-0.3c0,0-0.1-0.1-0.1-0.1
						c0,0,0,0-0.1-0.1c0,0-0.1-0.1-0.1-0.1c-0.1-0.1-0.2-0.2-0.3-0.3c0,0-0.1-0.1-0.1-0.1c0,0,0,0-0.1-0.1c0,0-0.1-0.1-0.1-0.1
						c-0.1-0.1-0.2-0.2-0.3-0.2c-0.1-0.1-0.2-0.1-0.2-0.2c0,0,0,0,0,0c0,0,0,0,0,0c-0.1-0.1-0.2-0.1-0.3-0.2
						c-0.1-0.1-0.2-0.1-0.3-0.2c0,0,0,0-0.1,0L312.4,246.8c-0.1,0-0.2-0.1-0.2-0.1c-0.1-0.1-0.2-0.1-0.3-0.2c-0.1,0-0.2-0.1-0.3-0.1
						c-0.1,0-0.2-0.1-0.3-0.1c-0.1,0-0.2-0.1-0.3-0.1c-0.1,0-0.2-0.1-0.3-0.1c-0.1,0-0.2-0.1-0.3-0.1c-0.1,0-0.2,0-0.3-0.1
						c-0.1,0-0.2,0-0.3-0.1c-0.1,0-0.2,0-0.3,0c-0.1,0-0.2,0-0.3,0c-0.1,0-0.2,0-0.4,0c-0.1,0-0.3,0-0.4,0.1c-0.2,0-0.3,0.1-0.5,0.1
						c-0.2,0.1-0.4,0.2-0.6,0.3l-5.3,3.1c0.2-0.1,0.4-0.2,0.6-0.3c0.2-0.1,0.3-0.1,0.5-0.1c0.1,0,0.3,0,0.4-0.1c0.1,0,0.2,0,0.4,0
						c0.1,0,0.2,0,0.3,0c0.1,0,0.2,0,0.3,0c0.1,0,0.2,0,0.3,0.1c0.1,0,0.2,0,0.3,0.1c0.1,0,0.2,0.1,0.3,0.1c0.1,0,0.2,0.1,0.3,0.1
						c0.1,0,0.2,0.1,0.3,0.1c0.1,0,0.2,0.1,0.3,0.1c0.1,0,0.2,0.1,0.3,0.1c0.1,0,0.2,0.1,0.3,0.2c0.1,0,0.2,0.1,0.2,0.1l181.2,104.6
						l0,0c0.2,0.1,0.5,0.3,0.7,0.5c0,0,0,0,0,0c0.2,0.2,0.4,0.3,0.6,0.5c0,0,0,0,0.1,0.1c0.2,0.2,0.4,0.3,0.6,0.5c0,0,0,0,0.1,0.1
						c0.2,0.2,0.4,0.4,0.6,0.6c0,0,0,0,0,0c0.2,0.2,0.4,0.4,0.6,0.7c0,0,0,0,0,0c0.2,0.2,0.4,0.5,0.6,0.7c0,0,0,0,0,0
						c0.2,0.2,0.3,0.4,0.5,0.7c0.1,0.2,0.2,0.3,0.3,0.5c0.1,0.1,0.2,0.2,0.2,0.4c0,0.1,0.1,0.1,0.1,0.2c0.1,0.2,0.2,0.4,0.4,0.7
						c0,0,0,0,0,0.1c0.1,0.3,0.3,0.5,0.4,0.8c0,0,0,0,0,0c0.1,0.3,0.2,0.5,0.3,0.8c0,0,0,0,0,0.1c0.1,0.3,0.2,0.6,0.3,0.8
						c0,0,0,0,0,0.1c0.1,0.3,0.2,0.5,0.2,0.8c0,0,0,0.1,0,0.1c0.1,0.3,0.1,0.6,0.2,0.8c0,0,0,0,0,0c0,0.3,0.1,0.6,0.1,0.8
						c0,0,0,0,0,0.1c0,0.3,0,0.6,0,0.8L495,495.4v0c0,0,0,0,0,0c0,0.1,0,0.2,0,0.3c0,0.1,0,0.2,0,0.3c0,0.1,0,0.2,0,0.3
						c0,0.1,0,0.2-0.1,0.3c0,0.1,0,0.2-0.1,0.3c0,0.1-0.1,0.2-0.1,0.4c0,0.1-0.1,0.3-0.1,0.4c-0.1,0.1-0.1,0.3-0.2,0.4
						c-0.1,0.2-0.2,0.3-0.3,0.5c-0.3,0.5-0.7,0.9-1.2,1.2l5.3-3.1c0.5-0.3,0.9-0.7,1.2-1.2c0.1-0.2,0.2-0.3,0.3-0.5
						c0.1-0.1,0.1-0.3,0.2-0.4c0-0.1,0.1-0.2,0.1-0.4c0-0.1,0.1-0.2,0.1-0.4c0-0.1,0-0.2,0.1-0.3c0-0.1,0-0.2,0.1-0.3
						c0-0.1,0-0.2,0-0.3c0-0.1,0-0.2,0-0.3c0-0.1,0-0.2,0-0.3c0,0,0,0,0,0l0.4-128.6C500.7,363.6,500.7,363.5,500.7,363.4z"/>
					<g id="XMLID_101_">
						<path id="XMLID_102_" fill="#1B2D88" d="M488.3,354.5c3.9,2.3,7.1,7.7,7.1,12.2L495,495.4c0,4.5-3.2,6.3-7.1,4.1L306.7,394.8
							c-3.9-2.3-7.1-7.7-7.1-12.2l0.4-128.6c0-4.5,3.2-6.3,7.1-4.1L488.3,354.5z"/>
					</g>
				</g>
			</g>
			<g id="XMLID_97_">
				<path id="XMLID_98_" fill="#FFFFFF" d="M488.5,358.7c2,1.2,3.6,3.9,3.6,6.2l-0.4,129.8c0,2.3-1.6,3.2-3.6,2.1L305.9,391.5
					c-2-1.1-3.6-3.9-3.6-6.2l0.4-129.8c0-2.3,1.6-3.2,3.6-2.1L488.5,358.7z"/>
			</g>
		</g>
	</g>
</g>
<g id="Layer_6">
	<g id="XMLID_161_">
		<g id="XMLID_170_" opacity="0.1">
			<path id="XMLID_171_" fill="#009BDB" d="M465.5,367.8c2.1,1.2,3.8,4.2,3.8,6.7l-0.2,86c0,2.5-1.7,3.4-3.9,2.2l-138.9-80.2
				c-2.1-1.2-3.9-4.2-3.8-6.7l0.2-86c0-2.5,1.7-3.4,3.9-2.2L465.5,367.8z"/>
		</g>
		<g id="XMLID_162_" opacity="0.5">
			<g id="XMLID_163_">
				<g id="XMLID_168_">
					<polygon id="XMLID_169_" fill="#009BDB" points="383.2,339.9 383,400.2 331.3,370.4 331.5,310.1 					"/>
				</g>
				<g id="XMLID_166_">
					<polygon id="XMLID_167_" fill="#009BDB" points="421.2,386.4 421.1,421.9 390.7,404.3 390.8,368.9 					"/>
				</g>
				<g id="XMLID_164_">
					<polygon id="XMLID_165_" fill="#009BDB" points="459.3,408.2 459.2,443.7 428.8,426.1 428.9,390.6 					"/>
				</g>
			</g>
		</g>
	</g>
	<polygon id="XMLID_160_" opacity="0.56" fill="#FFFFFF" points="391.4,343.3 391.4,347 461,385.7 461.1,381.9 	"/>
	<polygon id="XMLID_159_" opacity="0.56" fill="#FFFFFF" points="391.4,349 391.4,352.7 448.6,384.5 448.6,380.7 	"/>
	<polygon id="XMLID_158_" opacity="0.56" fill="#FFFFFF" points="391.4,354.8 391.4,358.5 455,393.7 455.1,389.9 	"/>
	<polygon id="XMLID_157_" opacity="0.56" fill="#FFFFFF" points="391.4,360.5 391.4,364.2 429.5,385.4 429.6,381.6 	"/>
	<g id="XMLID_153_">
		<polygon id="XMLID_156_" fill="#F8C24D" points="513.1,437.4 513.1,472.8 509.4,474.7 485.7,455.3 480.5,422.7 484.3,420.6 		"/>
		<polygon id="XMLID_155_" fill="#F8C24D" points="513.1,437.4 513.1,472.8 509.3,474.9 484,453.6 509.3,439.5 		"/>
		<polygon id="XMLID_154_" fill="#FFD569" points="509.5,439.4 509.5,474.9 480.5,458.2 480.5,422.7 		"/>
	</g>
	<g id="XMLID_148_">
		<g id="XMLID_149_">
			<path id="XMLID_150_" fill="#365DDD" d="M383.9,423.1l-5.6-9.3l4,0.4c0.3,0,0.5-0.2,0.5-0.6c0-0.4-0.3-0.8-0.6-1.2l-17.7-19
				c-0.3-0.4-0.7-0.6-1-0.5c-0.3,0.1-0.3,0.4-0.2,0.9l7,22.4c0.1,0.4,0.4,0.9,0.8,1.1c0.4,0.3,0.7,0.3,0.9,0.1l2.3-2.4l5.6,9.3
				c0.2,0.3,0.4,0.6,0.7,0.7c0.2,0.2,0.5,0.2,0.7,0.2l2.7-0.9C384.2,424.3,384.2,423.7,383.9,423.1L383.9,423.1z M383.9,423.1"/>
		</g>
	</g>
	<g id="XMLID_145_">
		<path id="XMLID_146_" fill="#365DDD" d="M496.7,456c0,0.6,0,1.2,0.1,1.6c0.1,0.4,0.2,0.7,0.4,1.1c0.2,0.3,0.5,0.6,0.9,0.9
			c0.4,0.3,0.9,0.7,1.5,1.1c0.1,0.1,0.2,0.2,0.3,0.4c0.1,0.1,0.1,0.3,0.1,0.4c0,0.1,0,0.2-0.1,0.3c-0.1,0.1-0.2,0-0.3,0
			c-0.8-0.5-1.5-0.9-2.2-1.4c-0.7-0.5-1.4-0.9-2.1-1.3c-0.7-0.4-1.5-0.8-2.3-1.2c-0.8-0.4-1.5-0.8-2.2-1.1c-0.1-0.1-0.2-0.2-0.3-0.3
			c-0.1-0.1-0.1-0.3-0.1-0.4c0-0.1,0-0.2,0.1-0.3c0.1-0.1,0.1-0.1,0.3,0c0.6,0.3,1.1,0.5,1.4,0.6c0.4,0.1,0.6,0.1,0.8,0.1
			c0.2-0.1,0.3-0.3,0.4-0.6c0.1-0.3,0.1-0.8,0.1-1.4v-13c0-0.7-0.2-1.3-0.5-1.7c-0.4-0.4-1-0.8-1.8-1.3c-0.7-0.4-1.3-0.7-1.8-0.9
			c-0.5-0.2-0.9-0.2-1.2-0.1c-0.3,0.1-0.5,0.4-0.7,0.7c-0.2,0.4-0.4,0.9-0.5,1.6c0,0.1-0.1,0.1-0.2,0.1c-0.1,0-0.2-0.1-0.3-0.1
			c-0.1-0.1-0.2-0.2-0.3-0.3c-0.1-0.1-0.1-0.2-0.1-0.3c0.1-0.7,0.1-1.4,0.1-2.1c0-0.7,0-1.5-0.1-2.3c0-0.2,0.1-0.3,0.4-0.2
			c0.3,0.1,0.6,0.2,0.9,0.4l15.7,9c0.4,0.2,0.7,0.4,0.9,0.6c0.2,0.2,0.4,0.4,0.4,0.6c0,0.2-0.1,0.5-0.1,0.8c0,0.3,0,0.7,0,1.1
			c0,0.4,0,0.8,0,1.3c0,0.4,0.1,0.9,0.1,1.3c0,0.1,0,0.1-0.1,0.1c-0.1,0-0.2,0-0.3-0.1c-0.1-0.1-0.2-0.1-0.3-0.2
			c-0.1-0.1-0.2-0.2-0.2-0.3c-0.1-0.8-0.3-1.6-0.5-2.2c-0.2-0.6-0.5-1.2-0.8-1.6c-0.3-0.5-0.7-0.9-1.2-1.3c-0.5-0.4-1-0.8-1.7-1.1
			c-0.9-0.5-1.5-0.8-1.9-0.8c-0.4,0-0.6,0.3-0.6,1V456z"/>
	</g>
	<g id="XMLID_141_">
		<polygon id="XMLID_144_" fill="#F8C24D" points="406.6,245.1 406.6,280.6 402.9,282.4 379.2,263.1 374.1,230.5 377.8,228.4 		"/>
		<polygon id="XMLID_143_" fill="#F8C24D" points="406.6,245.1 406.6,280.6 402.8,282.7 377.5,261.4 402.8,247.2 		"/>
		<polygon id="XMLID_142_" fill="#FFD569" points="403,247.2 403,282.6 374.1,265.9 374.1,230.5 		"/>
	</g>
	<g id="XMLID_137_">
		<polygon id="XMLID_140_" fill="#F8C24D" points="446.4,267.2 446.4,302.6 442.8,304.5 419.1,285.1 413.9,252.5 417.7,250.4 		"/>
		<polygon id="XMLID_139_" fill="#F8C24D" points="446.4,267.2 446.4,302.6 442.7,304.7 417.3,283.4 442.7,269.2 		"/>
		<polygon id="XMLID_138_" fill="#FFD569" points="442.8,269.2 442.8,304.6 413.9,287.9 413.9,252.5 		"/>
	</g>
	<g id="XMLID_116_">
		<polygon id="XMLID_136_" fill="#F8C24D" points="486,290.2 486,325.7 482.4,327.5 458.7,308.2 453.5,275.6 457.3,273.5 		"/>
		<polygon id="XMLID_135_" fill="#F8C24D" points="486,290.2 486,325.7 482.3,327.8 457,306.5 482.3,292.3 		"/>
		<polygon id="XMLID_129_" fill="#FFD569" points="482.4,292.3 482.4,327.7 453.5,311 453.5,275.6 		"/>
	</g>
	<g id="XMLID_86_">
		<g id="XMLID_107_">
			<path id="XMLID_110_" fill="#365DDD" d="M427.5,268.5l-1.6,0.8l-3.4-5c-0.9-1.1-2.3-1.8-3.1-1.5c-0.3,0.3-0.5,0.7-0.5,1.3
				c0,0.6,0.3,1.3,0.6,1.9l3.5,5.1l-5.1,2.7l9.4,13.6l9.3-5.4L427.5,268.5z M420.5,265.4c0-0.1-0.2-0.5-0.2-0.6
				c0-0.1,0.1-0.4,0.1-0.5c0.3,0,0.8,0.3,1.1,0.5l3.5,5.1l-1.1,0.5L420.5,265.4z M421,274.2l5-2.9l1.8,2.6c0.2,0.2,0.3,0.3,0.6,0.4
				c0.3,0.1,0.4,0.2,0.6,0.1c0.1-0.2,0.1-0.6-0.2-1.1l-1.8-2.5l0.5-0.3l7.4,10.5L421,274.2z M421,274.2"/>
			<path id="XMLID_108_" fill="#365DDD" d="M437.1,283.4"/>
		</g>
		<path id="XMLID_106_" fill="#365DDD" d="M438.4,288.6c0,1.2-0.9,1.7-2.1,1.1c-1.2-0.6-2.2-2.1-2.3-3.3c0-1.2,1.9-2.7,2.1-2.5
			C437,285.3,438.4,287.4,438.4,288.6z"/>
	</g>
	<g id="XMLID_81_">
		<path id="XMLID_85_" fill="#365DDD" d="M466.1,295.4c0,2.1-1.7,2.9-3.8,1.7c-2.1-1.2-3.8-3.8-3.8-6c0-2.1,1.7-2.9,3.8-1.7
			C464.4,290.6,466.1,293.3,466.1,295.4z"/>
		<polygon id="XMLID_84_" fill="#365DDD" points="473.2,295.8 469.1,300.6 477.3,305.2 		"/>
		<polygon id="XMLID_83_" fill="#365DDD" points="465.9,310 458.6,305.9 458.6,298.7 465.9,302.7 		"/>
		<polygon id="XMLID_82_" fill="#365DDD" points="473.2,306.5 469.1,307.2 470.7,312.9 475.7,315.7 477.3,311.8 		"/>
	</g>
	<g id="XMLID_77_">
		<polygon id="XMLID_80_" fill="#B3C4F2" points="381.6,260.1 380.5,259.3 380.5,242.7 381.6,243.4 		"/>
		<polygon id="XMLID_79_" fill="#365DDD" points="397.1,262.7 397.1,266.9 382.8,258 382.8,253.8 		"/>
		<polygon id="XMLID_78_" fill="#365DDD" points="393.4,254.1 393.4,258.3 382.8,251.8 382.8,247.5 		"/>
	</g>
</g>
<g id="Layer_7">
	<g id="XMLID_71_">
		<g id="XMLID_74_">
			<g id="XMLID_75_">
				<g id="XMLID_128_">
					<g id="XMLID_130_">
						<path id="XMLID_132_" fill="#34445F" d="M249.3,531.2c0-4.6,5.9-8.4,13.2-8.4c7.3,0,13.2,3.8,13.2,8.4c0,4.6-5.9,8.4-13.2,8.4
							C255.2,539.6,249.3,535.8,249.3,531.2z"/>
						<path id="XMLID_131_" fill="#34445F" d="M274.2,531.2c0-4.6,5.9-8.4,13.2-8.4s13.2,3.8,13.2,8.4c0,4.6-5.9,8.4-13.2,8.4
							S274.2,535.8,274.2,531.2z"/>
					</g>
				</g>
				<g id="XMLID_125_">
					<path id="XMLID_127_" fill="#F8C24D" d="M244.2,516.1c0-10.8,13.8-19.5,30.7-19.5c17,0,30.7,8.7,30.7,19.5
						c0,10.8-13.8,19.5-30.7,19.5C258,535.7,244.2,526.9,244.2,516.1z"/>
					<path id="XMLID_126_" fill="#C49602" d="M302.8,513.9c0-4.3-2.2-8.3-5.9-11.5c-5.6-3.6-13.3-5.8-21.9-5.8
						c-17,0-30.7,8.7-30.7,19.5c0,4.3,2.2,8.3,5.9,11.5c5.6,3.6,13.3,5.8,21.9,5.8C289,533.5,302.8,524.7,302.8,513.9z"/>
				</g>
				<g id="XMLID_122_">
					<path id="XMLID_124_" fill="#F8C24D" d="M244.2,507.4c0-10.8,13.8-19.5,30.7-19.5c17,0,30.7,8.7,30.7,19.5
						c0,10.8-13.8,19.5-30.7,19.5C258,526.9,244.2,518.2,244.2,507.4z"/>
					<path id="XMLID_123_" fill="#C49602" d="M302.8,505.2c0-4.3-2.2-8.3-5.9-11.5c-5.6-3.6-13.3-5.8-21.9-5.8
						c-17,0-30.7,8.7-30.7,19.5c0,4.3,2.2,8.3,5.9,11.5c5.6,3.6,13.3,5.8,21.9,5.8C289,524.7,302.8,516,302.8,505.2z"/>
				</g>
				<g id="XMLID_119_">
					<path id="XMLID_121_" fill="#F8C24D" d="M244.2,498.7c0-10.8,13.8-19.5,30.7-19.5c17,0,30.7,8.7,30.7,19.5
						c0,10.8-13.8,19.5-30.7,19.5C258,518.2,244.2,509.5,244.2,498.7z"/>
					<path id="XMLID_120_" fill="#C49602" d="M302.8,496.5c0-4.3-2.2-8.3-5.9-11.5c-5.6-3.6-13.3-5.8-21.9-5.8
						c-17,0-30.7,8.7-30.7,19.5c0,4.3,2.2,8.3,5.9,11.5c5.6,3.6,13.3,5.8,21.9,5.8C289,516,302.8,507.3,302.8,496.5z"/>
				</g>
				<path id="XMLID_118_" fill="#FFD569" d="M275,337.7c-37.7,0-68.3,30.6-68.3,68.3c0,8.3,1.5,16.2,4.2,23.6
					c5.6,15.2,16.4,31.5,30.3,42.5c0,4.4,0,12.4,0,14c0,11.9,15.1,21.6,33.8,21.6c18.7,0,33.8-9.7,33.8-21.6c0-1.8,0-9.3,0-14
					c14-11.1,24.9-27.5,30.5-42.9c2.6-7.2,4-15,4-23.1C343.2,368.3,312.7,337.7,275,337.7z"/>
				<linearGradient id="XMLID_3_" gradientUnits="userSpaceOnUse" x1="279.7226" y1="337.8737" x2="267.8812" y2="507.2136">
					<stop  offset="0" style="stop-color:#FFFFFF"/>
					<stop  offset="7.695442e-02" style="stop-color:#FFFFFF;stop-opacity:0.923"/>
					<stop  offset="1" style="stop-color:#FFFFFF;stop-opacity:0"/>
				</linearGradient>
				<path id="XMLID_6_" opacity="0.7" fill="url(#XMLID_3_)" d="M275,337.7c-37.7,0-68.3,30.6-68.3,68.3c0,8.3,1.5,16.2,4.2,23.6
					c5.6,15.2,16.4,31.5,30.3,42.5c0,4.4,0,12.4,0,14c0,11.9,15.1,21.6,33.8,21.6c18.7,0,33.8-9.7,33.8-21.6c0-1.8,0-9.3,0-14
					c14-11.1,24.9-27.5,30.5-42.9c2.6-7.2,4-15,4-23.1C343.2,368.3,312.7,337.7,275,337.7z"/>
				<path id="XMLID_117_" fill="#F8C24D" d="M275,454.2c-4.3,0-7.8,2.2-7.8,4.9v7.2v17.3v7.2c0,2.7,3.5,4.9,7.8,4.9
					c4.3,0,7.8-2.2,7.8-4.9v-7.2v-17.3v-7.2C282.7,456.4,279.3,454.2,275,454.2z"/>
			</g>
		</g>
	</g>
</g>
</svg>
